%FSLAX24Y24*%
%MOIN*%
G70*
G01*
G75*
G04 Layer_Physical_Order=2*
G04 Layer_Color=32768*
%ADD10P,0.0490X8X202.5*%
%ADD11O,0.0138X0.0197*%
%ADD12O,0.0197X0.0138*%
%ADD13R,0.0787X0.1063*%
%ADD14R,0.1063X0.0787*%
%ADD15R,0.0315X0.0315*%
%ADD16R,0.0315X0.0315*%
%ADD17R,0.1024X0.1024*%
%ADD18R,0.0591X0.0299*%
%ADD19R,0.0394X0.0276*%
%ADD20R,0.0394X0.0276*%
%ADD21R,0.0787X0.1496*%
%ADD22R,0.0787X0.0591*%
%ADD23R,0.0787X0.0591*%
%ADD24R,0.0138X0.0354*%
%ADD25O,0.0236X0.0787*%
%ADD26R,0.0236X0.0787*%
%ADD27R,0.0433X0.0866*%
%ADD28R,0.0394X0.0413*%
%ADD29R,0.0630X0.0331*%
%ADD30R,0.0331X0.0630*%
%ADD31R,0.0945X0.0331*%
%ADD32R,0.0110X0.0138*%
%ADD33R,0.0394X0.0276*%
%ADD34R,0.0276X0.0315*%
%ADD35R,0.0276X0.0315*%
%ADD36R,0.0630X0.0315*%
G04:AMPARAMS|DCode=37|XSize=11.8mil|YSize=25.6mil|CornerRadius=3mil|HoleSize=0mil|Usage=FLASHONLY|Rotation=180.000|XOffset=0mil|YOffset=0mil|HoleType=Round|Shape=RoundedRectangle|*
%AMROUNDEDRECTD37*
21,1,0.0118,0.0197,0,0,180.0*
21,1,0.0059,0.0256,0,0,180.0*
1,1,0.0059,-0.0030,0.0098*
1,1,0.0059,0.0030,0.0098*
1,1,0.0059,0.0030,-0.0098*
1,1,0.0059,-0.0030,-0.0098*
%
%ADD37ROUNDEDRECTD37*%
G04:AMPARAMS|DCode=38|XSize=11.8mil|YSize=25.6mil|CornerRadius=3mil|HoleSize=0mil|Usage=FLASHONLY|Rotation=270.000|XOffset=0mil|YOffset=0mil|HoleType=Round|Shape=RoundedRectangle|*
%AMROUNDEDRECTD38*
21,1,0.0118,0.0197,0,0,270.0*
21,1,0.0059,0.0256,0,0,270.0*
1,1,0.0059,-0.0098,-0.0030*
1,1,0.0059,-0.0098,0.0030*
1,1,0.0059,0.0098,0.0030*
1,1,0.0059,0.0098,-0.0030*
%
%ADD38ROUNDEDRECTD38*%
%ADD39R,0.1299X0.1299*%
%ADD40R,0.0197X0.0197*%
%ADD41R,0.0500X0.0252*%
%ADD42R,0.0236X0.0500*%
%ADD43R,0.0354X0.0512*%
%ADD44R,0.0866X0.0433*%
%ADD45R,0.0413X0.0394*%
%ADD46R,0.0500X0.0236*%
%ADD47R,0.0299X0.0591*%
%ADD48R,0.0276X0.0394*%
%ADD49R,0.0315X0.0276*%
%ADD50R,0.0630X0.0236*%
%ADD51R,0.0709X0.0472*%
%ADD52R,0.0591X0.0118*%
%ADD53R,0.1024X0.0748*%
%ADD54R,0.0157X0.0472*%
%ADD55R,0.0472X0.0157*%
%ADD56R,0.0748X0.1024*%
%ADD57C,0.0295*%
%ADD58C,0.0079*%
%ADD59C,0.0098*%
%ADD60C,0.0197*%
%ADD61C,0.0138*%
%ADD62C,0.0276*%
%ADD63C,0.0136*%
%ADD64C,0.0380*%
%ADD65C,0.0118*%
%ADD66C,0.0354*%
%ADD67R,0.0787X1.2451*%
%ADD68R,0.0787X1.2441*%
%ADD69R,0.6496X0.1772*%
%ADD70R,0.3297X0.0787*%
%ADD71R,0.4695X0.0787*%
%ADD72R,0.2441X0.0787*%
%ADD73R,0.4114X0.1772*%
%ADD74R,0.0787X2.1142*%
%ADD75R,0.3337X0.0787*%
%ADD76R,0.0787X1.4764*%
%ADD77R,0.2421X0.0787*%
%ADD78R,0.0787X0.2441*%
%ADD79R,0.1575X0.1575*%
%ADD80C,0.0394*%
%ADD81R,0.1575X0.1575*%
%ADD82C,0.0354*%
%ADD83C,0.0315*%
%ADD84C,0.0276*%
%ADD85C,0.0197*%
%ADD86C,0.0400*%
G04:AMPARAMS|DCode=87|XSize=169.291mil|YSize=169.291mil|CornerRadius=0mil|HoleSize=0mil|Usage=FLASHONLY|Rotation=0.000|XOffset=0mil|YOffset=0mil|HoleType=Round|Shape=Relief|Width=19.7mil|Gap=9.8mil|Entries=4|*
%AMTHD87*
7,0,0,0.1693,0.1496,0.0197,45*
%
%ADD87THD87*%
%ADD88C,0.0866*%
%ADD89C,0.0551*%
G54D86*
X62303Y33268D02*
G03*
X63091Y34055I0J787D01*
G01*
Y44291D02*
G03*
X62303Y45079I-787J0D01*
G01*
X63386Y67913D02*
G03*
X64173Y67126I787J0D01*
G01*
X74409D02*
G03*
X75197Y67913I0J787D01*
G01*
X60827Y30807D02*
Y33268D01*
X62303D01*
X63091Y34055D02*
Y44291D01*
X60827Y45079D02*
X62303D01*
X60827D02*
Y68799D01*
X61417Y69390D01*
X63386D01*
Y67913D02*
Y69390D01*
X64173Y67126D02*
X74409D01*
X75197Y67913D02*
Y69390D01*
X79921D01*
X80512Y68799D01*
Y30807D02*
Y68799D01*
X79921Y30217D02*
X80512Y30807D01*
X61417Y30217D02*
X79921D01*
X60827Y30807D02*
X61417Y30217D01*
G54D87*
X79528Y32303D02*
D03*
Y67303D02*
D03*
X61811Y32303D02*
D03*
Y67303D02*
D03*
G54D88*
X64173Y65039D02*
D03*
X68898D02*
D03*
G54D89*
X73081Y48287D02*
D03*
X71890Y47244D02*
D03*
Y50945D02*
D03*
X73169Y52756D02*
D03*
X76329Y44557D02*
D03*
X71526Y31703D02*
D03*
X79567Y65630D02*
D03*
X67157Y59175D02*
D03*
X66791Y55955D02*
D03*
X67717Y64754D02*
D03*
X67157Y63378D02*
D03*
X65364Y63376D02*
D03*
X66211Y61555D02*
D03*
X66931Y65376D02*
D03*
X67697Y65344D02*
D03*
X71142Y62805D02*
D03*
X75600Y34439D02*
D03*
X64970Y65079D02*
D03*
X63514Y64783D02*
D03*
X73051Y39892D02*
D03*
X69291Y66663D02*
D03*
X69429Y37526D02*
D03*
X77305Y59667D02*
D03*
X73558Y34134D02*
D03*
X73071Y34134D02*
D03*
X69766Y35935D02*
D03*
X71449Y39695D02*
D03*
X76959Y61309D02*
D03*
X73917Y63091D02*
D03*
X73130Y63081D02*
D03*
X74577Y52756D02*
D03*
X68425Y65335D02*
D03*
X64665Y65438D02*
D03*
X75030Y62441D02*
D03*
X72982Y60404D02*
D03*
X73553Y57362D02*
D03*
X75246Y57598D02*
D03*
X72648Y63110D02*
D03*
X63445Y65232D02*
D03*
X64291Y59921D02*
D03*
X64498Y50659D02*
D03*
X64724Y46900D02*
D03*
X78002Y64626D02*
D03*
X74085Y34134D02*
D03*
X73750Y36841D02*
D03*
X71703Y34803D02*
D03*
X66142Y65364D02*
D03*
X65354Y65374D02*
D03*
X65492Y50659D02*
D03*
X65886Y63376D02*
D03*
X68435Y64744D02*
D03*
X64783Y59921D02*
D03*
X64970Y58396D02*
D03*
X64183Y46900D02*
D03*
X66752Y57323D02*
D03*
X64774Y55030D02*
D03*
X64331D02*
D03*
X69636Y66407D02*
D03*
X69579Y52206D02*
D03*
X68583Y45344D02*
D03*
X64104Y52077D02*
D03*
X65039Y54409D02*
D03*
X68797Y44867D02*
D03*
X77943Y44557D02*
D03*
X78159Y56358D02*
D03*
X68563Y41004D02*
D03*
X69087Y52196D02*
D03*
X77638Y48868D02*
D03*
X67087Y41024D02*
D03*
X65807Y44282D02*
D03*
Y44921D02*
D03*
X65354Y42657D02*
D03*
X65030Y43110D02*
D03*
X65699Y33681D02*
D03*
X65472Y34104D02*
D03*
X66390Y33563D02*
D03*
M02*
