%FSLAX24Y24*%
%MOIN*%
G70*
G01*
G75*
G04 Layer_Color=65535*
%ADD10P,0.0490X8X202.5*%
%ADD11O,0.0138X0.0197*%
%ADD12O,0.0197X0.0138*%
%ADD13R,0.0787X0.1063*%
%ADD14R,0.1063X0.0787*%
%ADD15R,0.0315X0.0315*%
%ADD16R,0.0315X0.0315*%
%ADD17R,0.1024X0.1024*%
%ADD18R,0.0591X0.0299*%
%ADD19R,0.0394X0.0276*%
%ADD20R,0.0394X0.0276*%
%ADD21R,0.0787X0.1496*%
%ADD22R,0.0787X0.0591*%
%ADD23R,0.0787X0.0591*%
%ADD24R,0.0138X0.0354*%
%ADD25O,0.0236X0.0787*%
%ADD26R,0.0236X0.0787*%
%ADD27R,0.0433X0.0866*%
%ADD28R,0.0394X0.0413*%
%ADD29R,0.0630X0.0331*%
%ADD30R,0.0331X0.0630*%
%ADD31R,0.0945X0.0331*%
%ADD32R,0.0110X0.0138*%
%ADD33R,0.0394X0.0276*%
%ADD34R,0.0276X0.0315*%
%ADD35R,0.0276X0.0315*%
%ADD36R,0.0630X0.0315*%
G04:AMPARAMS|DCode=37|XSize=11.8mil|YSize=25.6mil|CornerRadius=3mil|HoleSize=0mil|Usage=FLASHONLY|Rotation=180.000|XOffset=0mil|YOffset=0mil|HoleType=Round|Shape=RoundedRectangle|*
%AMROUNDEDRECTD37*
21,1,0.0118,0.0197,0,0,180.0*
21,1,0.0059,0.0256,0,0,180.0*
1,1,0.0059,-0.0030,0.0098*
1,1,0.0059,0.0030,0.0098*
1,1,0.0059,0.0030,-0.0098*
1,1,0.0059,-0.0030,-0.0098*
%
%ADD37ROUNDEDRECTD37*%
G04:AMPARAMS|DCode=38|XSize=11.8mil|YSize=25.6mil|CornerRadius=3mil|HoleSize=0mil|Usage=FLASHONLY|Rotation=270.000|XOffset=0mil|YOffset=0mil|HoleType=Round|Shape=RoundedRectangle|*
%AMROUNDEDRECTD38*
21,1,0.0118,0.0197,0,0,270.0*
21,1,0.0059,0.0256,0,0,270.0*
1,1,0.0059,-0.0098,-0.0030*
1,1,0.0059,-0.0098,0.0030*
1,1,0.0059,0.0098,0.0030*
1,1,0.0059,0.0098,-0.0030*
%
%ADD38ROUNDEDRECTD38*%
%ADD39R,0.1299X0.1299*%
%ADD40R,0.0197X0.0197*%
%ADD41R,0.0500X0.0252*%
%ADD42R,0.0236X0.0500*%
%ADD43R,0.0354X0.0512*%
%ADD44R,0.0866X0.0433*%
%ADD45R,0.0413X0.0394*%
%ADD46R,0.0500X0.0236*%
%ADD47R,0.0299X0.0591*%
%ADD48R,0.0276X0.0394*%
%ADD49R,0.0315X0.0276*%
%ADD50R,0.0630X0.0236*%
%ADD51R,0.0709X0.0472*%
%ADD52R,0.0591X0.0118*%
%ADD53R,0.1024X0.0748*%
%ADD54R,0.0157X0.0472*%
%ADD55R,0.0472X0.0157*%
%ADD56R,0.0748X0.1024*%
%ADD57C,0.0295*%
%ADD58C,0.0079*%
%ADD59C,0.0098*%
%ADD60C,0.0197*%
%ADD61C,0.0138*%
%ADD62C,0.0276*%
%ADD63C,0.0136*%
%ADD64C,0.0380*%
%ADD65C,0.0118*%
%ADD66C,0.0354*%
%ADD67R,0.0787X1.2451*%
%ADD68R,0.0787X1.2441*%
%ADD69R,0.6496X0.1772*%
%ADD70R,0.3297X0.0787*%
%ADD71R,0.4695X0.0787*%
%ADD72R,0.2441X0.0787*%
%ADD73R,0.4114X0.1772*%
%ADD74R,0.0787X2.1142*%
%ADD75R,0.3337X0.0787*%
%ADD76R,0.0787X1.4764*%
%ADD77R,0.2421X0.0787*%
%ADD78R,0.0787X0.2441*%
%ADD79R,0.1575X0.1575*%
%ADD80C,0.0394*%
%ADD81R,0.1575X0.1575*%
%ADD82C,0.0354*%
%ADD83C,0.0315*%
%ADD84C,0.0276*%
%ADD85C,0.0197*%
%ADD86C,0.0400*%
G04:AMPARAMS|DCode=87|XSize=169.291mil|YSize=169.291mil|CornerRadius=0mil|HoleSize=0mil|Usage=FLASHONLY|Rotation=0.000|XOffset=0mil|YOffset=0mil|HoleType=Round|Shape=Relief|Width=19.7mil|Gap=9.8mil|Entries=4|*
%AMTHD87*
7,0,0,0.1693,0.1496,0.0197,45*
%
%ADD87THD87*%
%ADD88C,0.0866*%
%ADD89C,0.0551*%
%ADD90R,0.0394X0.1000*%
%ADD91C,0.0039*%
%ADD92C,0.0236*%
%ADD93C,0.0080*%
%ADD94C,0.0100*%
%ADD95C,0.0060*%
%ADD96C,0.0059*%
G54D58*
X78356Y66526D02*
G03*
X78356Y66526I-39J0D01*
G01*
X67600Y43724D02*
G03*
X67600Y43724I-62J0D01*
G01*
X64848Y42972D02*
G03*
X64848Y42972I-85J0D01*
G01*
X75561Y51781D02*
Y51949D01*
X75394D02*
X75561D01*
X73986D02*
X74154D01*
X73986Y51781D02*
Y51949D01*
Y50374D02*
Y50541D01*
Y50374D02*
X74154D01*
X75394D02*
X75561D01*
Y50541D01*
Y46585D02*
Y46752D01*
X75394Y46585D02*
X75561D01*
X73986D02*
X74154D01*
X73986D02*
Y46752D01*
Y47992D02*
Y48159D01*
X74154D01*
X75394D02*
X75561D01*
Y47992D02*
Y48159D01*
X61299Y63976D02*
X62638D01*
X61102Y65984D02*
X61260D01*
X61102Y63071D02*
Y65984D01*
X62638D02*
X62795D01*
Y63071D02*
Y65984D01*
X69114Y34752D02*
X69744D01*
X69114Y34280D02*
X69744D01*
X71949Y46063D02*
Y46457D01*
X70886Y47126D02*
X71949D01*
Y47047D02*
Y47126D01*
X70532D02*
X70886D01*
X70532Y47047D02*
Y47126D01*
X71949Y45394D02*
Y45472D01*
X71594Y45394D02*
X71949D01*
X70532D02*
Y45472D01*
Y45394D02*
X71594D01*
X77333Y65699D02*
X77372D01*
X77333D02*
Y66329D01*
X77372D01*
X78238D02*
X78278D01*
Y65699D02*
Y66329D01*
X78238Y65699D02*
X78278D01*
X66811Y47343D02*
Y50492D01*
X62677Y47343D02*
Y50492D01*
X66811D01*
X62677Y47343D02*
X66811D01*
X75935Y36703D02*
X76053Y36585D01*
X75935Y36703D02*
Y37372D01*
X76053Y36585D02*
X76220D01*
X77884Y38652D02*
X78002Y38533D01*
Y37864D02*
Y38533D01*
X77717Y38652D02*
X77884D01*
X75935Y38533D02*
X76053Y38652D01*
X75935Y37864D02*
Y38533D01*
X76053Y38652D02*
X76220D01*
X77717Y36585D02*
X77884D01*
X78002Y36703D02*
Y37372D01*
X77884Y36585D02*
X78002Y36703D01*
X71968Y37892D02*
Y38089D01*
Y36041D02*
Y36248D01*
X71772Y36041D02*
X71968D01*
X69921D02*
Y36238D01*
Y36041D02*
X70128D01*
X69921Y38089D02*
X70118D01*
X69921Y37882D02*
Y38089D01*
X71762D02*
X71968D01*
X65982Y43409D02*
X66711D01*
X65884Y43508D02*
X65982Y43409D01*
X65785D02*
X65884Y43508D01*
X65077Y43409D02*
X65785D01*
X65087Y45506D02*
X66720D01*
X76988Y62492D02*
X77618D01*
X76988Y62965D02*
X77618D01*
X74764Y59156D02*
Y59352D01*
Y60996D02*
Y61203D01*
X74961D01*
X76811Y61006D02*
Y61203D01*
X76604D02*
X76811D01*
X76614Y59156D02*
X76811D01*
Y59362D01*
X74764Y59156D02*
X74970D01*
X70667Y60662D02*
X70785Y60544D01*
Y59875D02*
Y60544D01*
X70500Y60662D02*
X70667D01*
X68719Y58713D02*
X68837Y58595D01*
X68719Y58713D02*
Y59383D01*
X68837Y58595D02*
X69004D01*
X70667D02*
X70785Y58713D01*
Y59383D01*
X70500Y58595D02*
X70667D01*
X68837Y60662D02*
X69004D01*
X68719Y59875D02*
Y60544D01*
X68837Y60662D01*
X71152Y49764D02*
X71545D01*
X70482Y48701D02*
Y49764D01*
X70561D01*
X70482Y48346D02*
Y48701D01*
Y48346D02*
X70561D01*
X72136Y49764D02*
X72215D01*
Y49409D02*
Y49764D01*
X72136Y48346D02*
X72215D01*
Y49409D01*
X64173Y34016D02*
X65118D01*
X64173Y35669D02*
X65118D01*
Y34016D02*
Y34449D01*
Y35236D02*
Y35669D01*
X63386Y34449D02*
Y35236D01*
X64173Y35984D02*
X65118D01*
X64173Y37638D02*
X65118D01*
Y35984D02*
Y36417D01*
Y37205D02*
Y37638D01*
X63386Y36417D02*
Y37205D01*
X64173Y37953D02*
X65118D01*
X64173Y39606D02*
X65118D01*
Y37953D02*
Y38386D01*
Y39173D02*
Y39606D01*
X63386Y38386D02*
Y39173D01*
X64173Y39921D02*
X65118D01*
X64173Y41575D02*
X65118D01*
Y39921D02*
Y40354D01*
Y41142D02*
Y41575D01*
X63386Y40354D02*
Y41142D01*
G54D59*
X75772Y50511D02*
G03*
X75772Y50511I-49J0D01*
G01*
Y46722D02*
G03*
X75772Y46722I-49J0D01*
G01*
X62923Y47136D02*
G03*
X62923Y47136I-49J0D01*
G01*
X72313Y36376D02*
G03*
X72313Y36376I-49J0D01*
G01*
X74518Y60868D02*
G03*
X74518Y60868I-49J0D01*
G01*
X65335Y35325D02*
G03*
X65335Y35325I-49J0D01*
G01*
Y37293D02*
G03*
X65335Y37293I-49J0D01*
G01*
Y39262D02*
G03*
X65335Y39262I-49J0D01*
G01*
Y41230D02*
G03*
X65335Y41230I-49J0D01*
G01*
X66769Y63599D02*
X66654Y63484D01*
Y63255D01*
X66769Y63140D01*
X67228D01*
X67343Y63255D01*
Y63484D01*
X67228Y63599D01*
X66654Y63829D02*
X67343D01*
X66998D01*
Y64288D01*
X66654D01*
X67343D01*
Y64517D02*
Y64747D01*
Y64632D01*
X66654D01*
X66769Y64517D01*
Y32329D02*
X66654Y32214D01*
Y31985D01*
X66769Y31870D01*
X67228D01*
X67343Y31985D01*
Y32214D01*
X67228Y32329D01*
X66654Y32559D02*
X67343D01*
X66998D01*
Y33018D01*
X66654D01*
X67343D01*
Y33707D02*
Y33248D01*
X66883Y33707D01*
X66769D01*
X66654Y33592D01*
Y33362D01*
X66769Y33248D01*
G54D65*
X79567Y55394D02*
Y55000D01*
X79862D01*
Y55197D01*
Y55000D01*
X80157D01*
X79764Y55689D02*
Y55886D01*
X79862Y55984D01*
X80157D01*
Y55689D01*
X80059Y55590D01*
X79961Y55689D01*
Y55984D01*
X80157Y56181D02*
Y56378D01*
Y56279D01*
X79764D01*
Y56181D01*
Y56673D02*
X80157D01*
X79961D01*
X79862Y56771D01*
X79764Y56869D01*
Y56968D01*
Y57263D02*
X80059D01*
X80157Y57361D01*
X80059Y57460D01*
X80157Y57558D01*
X80059Y57657D01*
X79764D01*
Y57952D02*
Y58149D01*
X79862Y58247D01*
X80157D01*
Y57952D01*
X80059Y57853D01*
X79961Y57952D01*
Y58247D01*
X79764Y58444D02*
X80157Y58641D01*
X79764Y58837D01*
X80157Y59329D02*
Y59133D01*
X80059Y59034D01*
X79862D01*
X79764Y59133D01*
Y59329D01*
X79862Y59428D01*
X79961D01*
Y59034D01*
X80157Y59624D02*
Y59920D01*
X80059Y60018D01*
X79961Y59920D01*
Y59723D01*
X79862Y59624D01*
X79764Y59723D01*
Y60018D01*
X79567Y33681D02*
X80059D01*
X80157Y33779D01*
Y33976D01*
X80059Y34075D01*
X79567D01*
X80157Y34271D02*
X79764D01*
Y34370D01*
X79862Y34468D01*
X80157D01*
X79862D01*
X79764Y34567D01*
X79862Y34665D01*
X80157D01*
X79666Y35255D02*
X79567Y35157D01*
Y34960D01*
X79666Y34862D01*
X79764D01*
X79862Y34960D01*
Y35157D01*
X79961Y35255D01*
X80059D01*
X80157Y35157D01*
Y34960D01*
X80059Y34862D01*
X79567Y35846D02*
Y35452D01*
X80157D01*
Y35846D01*
X79862Y35452D02*
Y35649D01*
X79567Y36043D02*
X80157D01*
Y36436D01*
X79764Y36633D02*
X80157Y36830D01*
X79764Y37026D01*
X80157Y37223D02*
Y37420D01*
Y37322D01*
X79567D01*
X79666Y37223D01*
Y38809D02*
X79567Y38711D01*
Y38514D01*
X79666Y38415D01*
X80059D01*
X80157Y38514D01*
Y38711D01*
X80059Y38809D01*
X79666Y39399D02*
X79567Y39301D01*
Y39104D01*
X79666Y39006D01*
X80059D01*
X80157Y39104D01*
Y39301D01*
X80059Y39399D01*
X79862Y39596D02*
Y39990D01*
X79567Y40186D02*
X80157D01*
Y40482D01*
X80059Y40580D01*
X79961D01*
X79862Y40482D01*
Y40186D01*
Y40482D01*
X79764Y40580D01*
X79666D01*
X79567Y40482D01*
Y40186D01*
Y40777D02*
X79666D01*
X79862Y40974D01*
X79666Y41170D01*
X79567D01*
X79862Y40974D02*
X80157D01*
X79862Y41367D02*
Y41761D01*
X79666Y42351D02*
X79567Y42253D01*
Y42056D01*
X79666Y41958D01*
X79764D01*
X79862Y42056D01*
Y42253D01*
X79961Y42351D01*
X80059D01*
X80157Y42253D01*
Y42056D01*
X80059Y41958D01*
X80157Y42548D02*
X79764D01*
X79567Y42745D01*
X79764Y42941D01*
X80157D01*
X79862D01*
Y42548D01*
X79666Y43729D02*
X79567Y43827D01*
Y44024D01*
X79666Y44122D01*
X79764D01*
X79862Y44024D01*
Y43925D01*
Y44024D01*
X79961Y44122D01*
X80059D01*
X80157Y44024D01*
Y43827D01*
X80059Y43729D01*
X80157Y44319D02*
X80059D01*
Y44417D01*
X80157D01*
Y44319D01*
X79666Y44811D02*
X79567Y44909D01*
Y45106D01*
X79666Y45204D01*
X80059D01*
X80157Y45106D01*
Y44909D01*
X80059Y44811D01*
X79666D01*
X80157Y61092D02*
Y60699D01*
X79764Y61092D01*
X79666D01*
X79567Y60994D01*
Y60797D01*
X79666Y60699D01*
X80059Y61289D02*
X80157Y61388D01*
Y61584D01*
X80059Y61683D01*
X79666D01*
X79567Y61584D01*
Y61388D01*
X79666Y61289D01*
X79764D01*
X79862Y61388D01*
Y61683D01*
X80157Y61880D02*
X80059D01*
Y61978D01*
X80157D01*
Y61880D01*
X79666Y62372D02*
X79567Y62470D01*
Y62667D01*
X79666Y62765D01*
X80059D01*
X80157Y62667D01*
Y62470D01*
X80059Y62372D01*
X79666D01*
X80059Y62962D02*
X80157Y63060D01*
Y63257D01*
X80059Y63355D01*
X79666D01*
X79567Y63257D01*
Y63060D01*
X79666Y62962D01*
X79764D01*
X79862Y63060D01*
Y63355D01*
X80157Y63552D02*
X80059D01*
Y63651D01*
X80157D01*
Y63552D01*
Y64438D02*
Y64044D01*
X79764Y64438D01*
X79666D01*
X79567Y64339D01*
Y64143D01*
X79666Y64044D01*
Y64635D02*
X79567Y64733D01*
Y64930D01*
X79666Y65028D01*
X80059D01*
X80157Y64930D01*
Y64733D01*
X80059Y64635D01*
X79666D01*
X80157Y65225D02*
Y65422D01*
Y65323D01*
X79567D01*
X79666Y65225D01*
X80157Y66110D02*
Y65717D01*
X79764Y66110D01*
X79666D01*
X79567Y66012D01*
Y65815D01*
X79666Y65717D01*
G54D91*
X68898Y34516D02*
G03*
X68898Y34516I-20J0D01*
G01*
X77874Y62728D02*
G03*
X77874Y62728I-20J0D01*
G01*
G54D92*
X63189Y48524D02*
G03*
X63189Y48524I-118J0D01*
G01*
G54D93*
X75925Y36565D02*
G03*
X75925Y36565I-39J0D01*
G01*
X70874Y60682D02*
G03*
X70874Y60682I-39J0D01*
G01*
X71739Y51535D02*
X72039D01*
X70085Y50128D02*
X70385D01*
X68582Y48130D02*
X68882D01*
X70325Y47211D02*
Y47511D01*
X61706Y56836D02*
Y57436D01*
Y56836D02*
X63456D01*
X61706Y59936D02*
X63456D01*
X61706Y59336D02*
Y59936D01*
X70981Y31998D02*
X71281D01*
X69298Y39665D02*
X69598D01*
X77135Y57579D02*
X77435D01*
X74990Y34857D02*
Y35157D01*
X73953Y37067D02*
X74253D01*
X71742Y62087D02*
Y62387D01*
X72479Y60177D02*
X72779D01*
X64071Y43907D02*
X64371D01*
X72766Y48461D02*
Y48761D01*
X75058Y49675D02*
X75358D01*
X78307Y64900D02*
Y65200D01*
X69626Y44192D02*
Y44492D01*
X68461Y51417D02*
X68761D01*
X68839Y35235D02*
Y35535D01*
Y35668D02*
Y35968D01*
X77894Y61709D02*
Y62009D01*
Y61276D02*
Y61576D01*
X70837Y32615D02*
Y32915D01*
X70541Y34908D02*
Y35208D01*
X71841Y35014D02*
Y35314D01*
X70541Y35459D02*
Y35759D01*
X71841Y35487D02*
Y35787D01*
X68839Y36101D02*
Y36401D01*
Y36534D02*
Y36834D01*
X73100Y35993D02*
Y36293D01*
X73789Y35518D02*
Y35818D01*
X72479Y35059D02*
X72779D01*
X68839Y37440D02*
Y37740D01*
Y38461D02*
Y38761D01*
X73051Y37211D02*
Y37511D01*
X68839Y37989D02*
Y38289D01*
X73051Y37674D02*
Y37974D01*
X72884Y38274D02*
Y38574D01*
X69851Y39665D02*
X70151D01*
X70098Y38463D02*
Y38763D01*
X72884Y38865D02*
Y39165D01*
X71772Y38382D02*
Y38682D01*
X71741Y39577D02*
X72041D01*
X72067Y41424D02*
Y41724D01*
X72106Y40292D02*
Y40592D01*
X70028Y41280D02*
X70328D01*
X76229Y41693D02*
X76529D01*
X72794Y40738D02*
X73094D01*
X73760Y40885D02*
Y41185D01*
X74976Y39459D02*
Y39759D01*
Y38996D02*
Y39296D01*
X76735Y40350D02*
X77035D01*
X77181Y38920D02*
Y39220D01*
X76318Y35787D02*
X76618D01*
X77854Y35430D02*
Y35730D01*
X75305Y64317D02*
Y64617D01*
X75896Y64809D02*
Y65109D01*
X76191Y62036D02*
Y62336D01*
X74892Y61930D02*
Y62230D01*
X76191Y61485D02*
Y61785D01*
X74892Y61458D02*
Y61758D01*
X77894Y60843D02*
Y61143D01*
Y60410D02*
Y60710D01*
X73642Y60951D02*
Y61251D01*
X72943Y61406D02*
Y61706D01*
X73973Y62185D02*
X74273D01*
X77894Y59504D02*
Y59804D01*
Y58483D02*
Y58783D01*
X73681Y59733D02*
Y60033D01*
X77894Y58956D02*
Y59256D01*
X73681Y59270D02*
Y59570D01*
X73848Y58670D02*
Y58970D01*
X76581Y57579D02*
X76881D01*
X76634Y58481D02*
Y58781D01*
X73848Y58079D02*
Y58379D01*
X74961Y58562D02*
Y58862D01*
X74662Y57648D02*
X74962D01*
X74665Y55550D02*
Y55850D01*
X74705Y56662D02*
Y56962D01*
X76394Y55994D02*
X76694D01*
X70252Y55571D02*
X70552D01*
X73002Y56109D02*
Y56409D01*
X71752Y57580D02*
Y57880D01*
Y58042D02*
Y58342D01*
X69694Y56947D02*
X69994D01*
X69547Y58070D02*
Y58370D01*
X70095Y61459D02*
X70395D01*
X68858Y61514D02*
Y61814D01*
X64920Y31939D02*
X65220D01*
X75945Y66246D02*
Y66546D01*
X61613Y54134D02*
X61913D01*
X64034Y54124D02*
X64334D01*
X63786Y60236D02*
X64086D01*
X64822Y57657D02*
X65122D01*
X64193Y56633D02*
Y56933D01*
X62841Y51122D02*
X63141D01*
X77644Y49902D02*
X77944D01*
X76089Y50492D02*
X76389D01*
X75266Y52607D02*
Y52907D01*
X76535Y49229D02*
Y49529D01*
X77549Y51227D02*
Y51527D01*
X77646Y46693D02*
X77947D01*
X76079D02*
X76379D01*
X77762Y45217D02*
X78062D01*
X72766Y52113D02*
Y52413D01*
X76535Y45439D02*
Y45739D01*
X77037Y48077D02*
Y48377D01*
X75068Y45876D02*
X75368D01*
X73707Y56516D02*
X74007D01*
X72902Y47077D02*
X73202D01*
X73996Y45963D02*
Y46263D01*
X73858Y48316D02*
Y48616D01*
X72766Y47811D02*
Y48111D01*
X72912Y50856D02*
X73212D01*
X73996Y49792D02*
Y50092D01*
X73858Y52115D02*
Y52415D01*
X72766Y51591D02*
Y51891D01*
X66860Y42585D02*
Y42885D01*
X64488Y43140D02*
Y43228D01*
X65709D01*
Y43150D02*
Y43228D01*
X64488Y42008D02*
Y42087D01*
Y42008D02*
X65709D01*
Y42087D01*
G54D94*
X69380Y37624D02*
Y37648D01*
Y37624D02*
X69437Y37567D01*
X69380Y37648D02*
X69439Y37707D01*
X77293Y59537D02*
X77352Y59596D01*
X77295Y59677D02*
X77352Y59620D01*
Y59596D02*
Y59620D01*
X75906Y31811D02*
Y31870D01*
X77087Y32933D02*
Y32992D01*
Y31811D02*
Y31870D01*
X75906Y32933D02*
Y32992D01*
X76201D01*
X76791D02*
X77087D01*
X75906Y31811D02*
X77087D01*
X75778Y42131D02*
X75886D01*
Y42023D02*
Y42131D01*
X75886Y41619D02*
Y41727D01*
X75778Y41619D02*
X75886D01*
X75217Y41619D02*
X75325D01*
X75217D02*
Y41727D01*
X75217Y42131D02*
X75325D01*
X75217Y42023D02*
Y42131D01*
X68455Y41240D02*
X68848D01*
X68455D02*
Y41319D01*
X69439Y41909D02*
X69833D01*
Y41831D02*
Y41909D01*
X68455D02*
X68848D01*
X68455Y41831D02*
Y41909D01*
X69833Y41240D02*
Y41319D01*
X69439Y41240D02*
X69833D01*
X74941Y43406D02*
Y43927D01*
X74114Y42372D02*
Y42894D01*
Y43406D02*
Y43927D01*
X74941Y42372D02*
Y42894D01*
X70827Y55207D02*
X70935D01*
X70827D02*
Y55315D01*
X70827Y55610D02*
Y55718D01*
X70935D01*
X71388Y55718D02*
X71496D01*
Y55610D02*
Y55718D01*
X71388Y55207D02*
X71496D01*
Y55315D01*
X80463Y47638D02*
X80522D01*
X79341Y48819D02*
X79400D01*
X80463D02*
X80522D01*
X79341Y47638D02*
X79400D01*
X79341D02*
Y47933D01*
Y48524D02*
Y48819D01*
X80522Y47638D02*
Y48819D01*
X80453Y50787D02*
X80512D01*
X79331Y51968D02*
X79390D01*
X80453D02*
X80512D01*
X79331Y50787D02*
X79390D01*
X79331D02*
Y51083D01*
Y51673D02*
Y51968D01*
X80512Y50787D02*
Y51968D01*
X70846Y65364D02*
Y65423D01*
X69665Y64242D02*
Y64301D01*
Y65364D02*
Y65423D01*
X70846Y64242D02*
Y64301D01*
X70551Y64242D02*
X70846D01*
X69665D02*
X69961D01*
X69665Y65423D02*
X70846D01*
X71752Y54301D02*
Y54823D01*
X72579Y53268D02*
Y53789D01*
Y54301D02*
Y54823D01*
X71752Y53268D02*
Y53789D01*
X72372Y59567D02*
Y59961D01*
X72293D02*
X72372D01*
X71703Y58583D02*
X71782D01*
X71703D02*
Y58976D01*
Y59961D02*
X71782D01*
X71703Y59567D02*
Y59961D01*
X72293Y58583D02*
X72372D01*
Y58976D01*
X74356Y38362D02*
Y38756D01*
X74435D01*
X75026Y37378D02*
Y37772D01*
X74947Y37378D02*
X75026D01*
Y38362D02*
Y38756D01*
X74947D02*
X75026D01*
X74356Y37378D02*
X74435D01*
X74356D02*
Y37772D01*
X76909Y56033D02*
X77303D01*
X76909Y55955D02*
Y56033D01*
X78287Y55364D02*
Y55443D01*
X77894Y55364D02*
X78287D01*
X76909D02*
Y55443D01*
Y55364D02*
X77303D01*
X78287Y55955D02*
Y56033D01*
X77894D02*
X78287D01*
X74282Y45748D02*
Y45856D01*
X74390D01*
X74281Y45344D02*
Y45453D01*
Y45344D02*
X74390D01*
X74843Y45344D02*
X74951D01*
Y45453D01*
X74951Y45748D02*
Y45856D01*
X74843D02*
X74951D01*
X74291Y49454D02*
Y49562D01*
X74400D01*
X74291Y49050D02*
Y49158D01*
Y49050D02*
X74400D01*
X74852Y49050D02*
X74961D01*
Y49158D01*
X74961Y49454D02*
Y49562D01*
X74852D02*
X74961D01*
X77926Y36205D02*
X77985Y36264D01*
X77926Y36182D02*
X77983Y36124D01*
X77926Y36182D02*
Y36205D01*
X78144Y35276D02*
X78203Y35217D01*
X78063Y35218D02*
X78120Y35276D01*
X78144D01*
X68747Y60980D02*
X68806Y61039D01*
X68749Y61120D02*
X68806Y61062D01*
Y61039D02*
Y61062D01*
X68392Y62008D02*
X68451Y61949D01*
X68474D02*
X68532Y62006D01*
X68451Y61949D02*
X68474D01*
X72395Y51388D02*
X72455Y51329D01*
X72315Y51331D02*
X72372Y51388D01*
X72395D01*
G54D95*
X70990Y40710D02*
X71530D01*
Y41850D01*
X70990D02*
X71530D01*
X70990Y40710D02*
Y41850D01*
X63322Y31579D02*
X63772D01*
X63372Y32829D02*
X63772D01*
X63722Y32679D02*
Y32829D01*
X63372Y32679D02*
X63722D01*
X63772Y32829D02*
X64372D01*
Y31579D02*
Y32829D01*
X63772Y31579D02*
X64372D01*
X62722D02*
X63322D01*
X62722D02*
Y32829D01*
X63372D01*
Y32679D02*
Y32829D01*
X78051Y48071D02*
Y48780D01*
Y48071D02*
X78366D01*
Y48780D01*
X78051D02*
X78366D01*
X75560Y34169D02*
Y34709D01*
X74420D02*
X75560D01*
X74420Y34169D02*
Y34709D01*
Y34169D02*
X75560D01*
X74468Y35217D02*
X75728D01*
Y37106D01*
X74468D02*
X75728D01*
X74468Y35217D02*
Y37106D01*
X74499Y36016D02*
X74649D01*
Y36316D01*
X74499D02*
X74649D01*
X73376Y34213D02*
Y35276D01*
X73848D01*
Y34213D02*
Y35276D01*
X73376Y34213D02*
X73848D01*
X70441Y34000D02*
X71941D01*
Y34721D01*
X70441D02*
X71941D01*
X70441Y34000D02*
Y34721D01*
X74772Y63244D02*
X76272D01*
X74772Y62523D02*
Y63244D01*
Y62523D02*
X76272D01*
Y63244D01*
X72913Y34222D02*
Y35285D01*
X73386D01*
Y34222D02*
Y35285D01*
X72913Y34222D02*
X73386D01*
X73819Y61939D02*
Y63002D01*
X73346Y61939D02*
X73819D01*
X73346D02*
Y63002D01*
X73819D01*
X73356Y61949D02*
Y63012D01*
X72884Y61949D02*
X73356D01*
X72884D02*
Y63012D01*
X73356D01*
X70215Y38803D02*
X71715D01*
Y39524D01*
X70215D02*
X71715D01*
X70215Y38803D02*
Y39524D01*
X71172Y62535D02*
Y63075D01*
Y62535D02*
X72312D01*
Y63075D01*
X71172D02*
X72312D01*
X71004Y62028D02*
X72264D01*
X71004Y60138D02*
Y62028D01*
Y60138D02*
X72264D01*
Y62028D01*
X72084Y61228D02*
X72234D01*
X72084Y60928D02*
Y61228D01*
Y60928D02*
X72234D01*
X75018Y58441D02*
X76518D01*
X75018Y57720D02*
Y58441D01*
Y57720D02*
X76518D01*
Y58441D01*
X78081Y51220D02*
Y51929D01*
Y51220D02*
X78396D01*
Y51929D01*
X78081D02*
X78396D01*
X69961Y34791D02*
Y35854D01*
X69488Y34791D02*
X69961D01*
X69488D02*
Y35854D01*
X69961D01*
X68307Y36880D02*
X69370D01*
X68307D02*
Y37352D01*
X69370D01*
Y36880D02*
Y37352D01*
X72402Y36624D02*
X73465D01*
X72402D02*
Y37096D01*
X73465D01*
Y36624D02*
Y37096D01*
X72352Y39762D02*
X73415D01*
Y39289D02*
Y39762D01*
X72352Y39289D02*
X73415D01*
X72352D02*
Y39762D01*
X73927Y38197D02*
Y39260D01*
X73455Y38197D02*
X73927D01*
X73455D02*
Y39260D01*
X73927D01*
X70399Y40710D02*
X70939D01*
Y41850D01*
X70399D02*
X70939D01*
X70399Y40710D02*
Y41850D01*
X70433Y40207D02*
X71496D01*
X70433D02*
Y40679D01*
X71496D01*
Y40207D02*
Y40679D01*
X74320Y40173D02*
Y40713D01*
X73180D02*
X74320D01*
X73180Y40173D02*
Y40713D01*
Y40173D02*
X74320D01*
X77755Y39297D02*
Y39837D01*
X76615D02*
X77755D01*
X76615Y39297D02*
Y39837D01*
Y39297D02*
X77755D01*
X77834Y35811D02*
Y36351D01*
X76694D02*
X77834D01*
X76694Y35811D02*
Y36351D01*
Y35811D02*
X77834D01*
X76250Y35197D02*
X77313D01*
Y34724D02*
Y35197D01*
X76250Y34724D02*
X77313D01*
X76250D02*
Y35197D01*
X77334Y34136D02*
Y35199D01*
X77807D01*
Y34136D02*
Y35199D01*
X77334Y34136D02*
X77807D01*
X76250Y34154D02*
X77313D01*
X76250D02*
Y34626D01*
X77313D01*
Y34154D02*
Y34626D01*
X76772Y61390D02*
Y62453D01*
X77244D01*
Y61390D02*
Y62453D01*
X76772Y61390D02*
X77244D01*
X77362Y60364D02*
X78425D01*
Y59892D02*
Y60364D01*
X77362Y59892D02*
X78425D01*
X77362D02*
Y60364D01*
X73268Y60620D02*
X74331D01*
Y60148D02*
Y60620D01*
X73268Y60148D02*
X74331D01*
X73268D02*
Y60620D01*
X73317Y57482D02*
X74380D01*
X73317D02*
Y57955D01*
X74380D01*
Y57482D02*
Y57955D01*
X72805Y57984D02*
Y59047D01*
X73278D01*
Y57984D02*
Y59047D01*
X72805Y57984D02*
X73278D01*
X75744Y56564D02*
X76284D01*
X75744Y55424D02*
Y56564D01*
Y55424D02*
X76284D01*
Y56564D01*
X75236Y57047D02*
X76299D01*
Y56575D02*
Y57047D01*
X75236Y56575D02*
X76299D01*
X75236D02*
Y57047D01*
X75202Y56564D02*
X75742D01*
X75202Y55424D02*
Y56564D01*
Y55424D02*
X75742D01*
Y56564D01*
X72432Y56541D02*
Y57081D01*
Y56541D02*
X73572D01*
Y57081D01*
X72432D02*
X73572D01*
X68977Y57466D02*
Y58006D01*
Y57466D02*
X70117D01*
Y58006D01*
X68977D02*
X70117D01*
X68879Y60893D02*
Y61433D01*
Y60893D02*
X70019D01*
Y61433D01*
X68879D02*
X70019D01*
X69419Y62047D02*
X70482D01*
X69419D02*
Y62520D01*
X70482D01*
Y62047D02*
Y62520D01*
X69379Y62045D02*
Y63108D01*
X68906Y62045D02*
X69379D01*
X68906D02*
Y63108D01*
X69379D01*
X69419Y63091D02*
X70482D01*
Y62618D02*
Y63091D01*
X69419Y62618D02*
X70482D01*
X69419D02*
Y63091D01*
X63494Y44961D02*
X64557D01*
Y44488D02*
Y44961D01*
X63494Y44488D02*
X64557D01*
X63494D02*
Y44961D01*
Y45463D02*
X64557D01*
Y44990D02*
Y45463D01*
X63494Y44990D02*
X64557D01*
X63494D02*
Y45463D01*
X65118Y62146D02*
Y63209D01*
X65591D01*
Y62146D02*
Y63209D01*
X65118Y62146D02*
X65591D01*
Y65512D02*
Y66575D01*
X65118Y65512D02*
X65591D01*
X65118D02*
Y66575D01*
X65591D01*
X65640Y62146D02*
Y63209D01*
X66112D01*
Y62146D02*
Y63209D01*
X65640Y62146D02*
X66112D01*
X66378Y65512D02*
Y66575D01*
X65906Y65512D02*
X66378D01*
X65906D02*
Y66575D01*
X66378D01*
X65472Y32461D02*
X66535D01*
Y31988D02*
Y32461D01*
X65472Y31988D02*
X66535D01*
X65472D02*
Y32461D01*
X64921Y33425D02*
X65984D01*
Y32953D02*
Y33425D01*
X64921Y32953D02*
X65984D01*
X64921D02*
Y33425D01*
X76585Y65571D02*
Y66634D01*
X77057D01*
Y65571D02*
Y66634D01*
X76585Y65571D02*
X77057D01*
X76614Y65187D02*
X77677D01*
Y64715D02*
Y65187D01*
X76614Y64715D02*
X77677D01*
X76614D02*
Y65187D01*
X78337Y65404D02*
X79400D01*
X78337D02*
Y65876D01*
X79400D01*
Y65404D02*
Y65876D01*
X75354Y65571D02*
Y66634D01*
X74882Y65571D02*
X75354D01*
X74882D02*
Y66634D01*
X75354D01*
X76496Y66782D02*
X77559D01*
X76496D02*
Y67254D01*
X77559D01*
Y66782D02*
Y67254D01*
X61000Y55294D02*
X61540D01*
X61000Y54154D02*
Y55294D01*
Y54154D02*
X61540D01*
Y55294D01*
X62018Y53297D02*
Y54557D01*
Y53297D02*
X63907D01*
Y54557D01*
X62018D02*
X63907D01*
X62817Y54377D02*
Y54527D01*
Y54377D02*
X63117D01*
Y54527D01*
X63071Y56496D02*
X64134D01*
Y56024D02*
Y56496D01*
X63071Y56024D02*
X64134D01*
X63071D02*
Y56496D01*
X63671Y55955D02*
X64734D01*
Y55482D02*
Y55955D01*
X63671Y55482D02*
X64734D01*
X63671D02*
Y55955D01*
X65207Y46654D02*
X66270D01*
X65207D02*
Y47126D01*
X66270D01*
Y46654D02*
Y47126D01*
X65709Y51299D02*
X66772D01*
Y50827D02*
Y51299D01*
X65709Y50827D02*
X66772D01*
X65709D02*
Y51299D01*
X74428Y52486D02*
Y53026D01*
X73288D02*
X74428D01*
X73288Y52486D02*
Y53026D01*
Y52486D02*
X74428D01*
X77077Y48632D02*
Y49695D01*
X77549D01*
Y48632D02*
Y49695D01*
X77077Y48632D02*
X77549D01*
X76004Y49104D02*
X77067D01*
Y48632D02*
Y49104D01*
X76004Y48632D02*
X77067D01*
X76004D02*
Y49104D01*
X76472Y50513D02*
X77012D01*
Y51653D01*
X76472D02*
X77012D01*
X76472Y50513D02*
Y51653D01*
X75458Y49105D02*
X75998D01*
Y50245D01*
X75458D02*
X75998D01*
X75458Y49105D02*
Y50245D01*
X77696Y44287D02*
Y44827D01*
X76556D02*
X77696D01*
X76556Y44287D02*
Y44827D01*
Y44287D02*
X77696D01*
X77067Y44833D02*
Y45896D01*
X77539D01*
Y44833D02*
Y45896D01*
X77067Y44833D02*
X77539D01*
X76004Y45305D02*
X77067D01*
Y44833D02*
Y45305D01*
X76004Y44833D02*
X77067D01*
X76004D02*
Y45305D01*
X76472Y46713D02*
X77012D01*
Y47853D01*
X76472D02*
X77012D01*
X76472Y46713D02*
Y47853D01*
X75458Y45306D02*
X75998D01*
Y46446D01*
X75458D02*
X75998D01*
X75458Y45306D02*
Y46446D01*
X71733Y55614D02*
X72873D01*
Y55074D02*
Y55614D01*
X71733Y55074D02*
X72873D01*
X71733D02*
Y55614D01*
X73780Y41708D02*
X74920D01*
X73780D02*
Y42248D01*
X74920D01*
Y41708D02*
Y42248D01*
X77067Y47224D02*
X77539D01*
X77067Y46161D02*
Y47224D01*
Y46161D02*
X77539D01*
Y47224D01*
X77077Y51024D02*
X77549D01*
X77077Y49961D02*
Y51024D01*
Y49961D02*
X77549D01*
Y51024D01*
X72411Y63012D02*
X72884D01*
X72411Y61949D02*
Y63012D01*
Y61949D02*
X72884D01*
Y63012D01*
X73848Y34213D02*
X74321D01*
Y35276D01*
X73848D02*
X74321D01*
X73848Y34213D02*
Y35276D01*
X63441Y51212D02*
Y52351D01*
X63981D01*
Y51212D02*
Y52351D01*
X63441Y51212D02*
X63981D01*
X72836Y45330D02*
X73976D01*
X72836D02*
Y45870D01*
X73976D01*
Y45330D02*
Y45870D01*
X73833Y47097D02*
Y48237D01*
X73293Y47097D02*
X73833D01*
X73293D02*
Y48237D01*
X73833D01*
X72836Y49159D02*
X73976D01*
X72836D02*
Y49699D01*
X73976D01*
Y49159D02*
Y49699D01*
X73833Y50877D02*
Y52017D01*
X73293Y50877D02*
X73833D01*
X73293D02*
Y52017D01*
X73833D01*
X66299Y35866D02*
X66772D01*
X66299Y34803D02*
Y35866D01*
Y34803D02*
X66772D01*
Y35866D01*
X66299Y37825D02*
X66772D01*
X66299Y36762D02*
Y37825D01*
Y36762D02*
X66772D01*
Y37825D01*
X66309Y39803D02*
X66782D01*
X66309Y38740D02*
Y39803D01*
Y38740D02*
X66782D01*
Y39803D01*
X66299Y41772D02*
X66772D01*
X66299Y40709D02*
Y41772D01*
Y40709D02*
X66772D01*
Y41772D01*
X65768Y35866D02*
X66240D01*
X65768Y34803D02*
Y35866D01*
Y34803D02*
X66240D01*
Y35866D01*
X65768Y37825D02*
X66240D01*
X65768Y36762D02*
Y37825D01*
Y36762D02*
X66240D01*
Y37825D01*
X65778Y39803D02*
X66250D01*
X65778Y38740D02*
Y39803D01*
Y38740D02*
X66250D01*
Y39803D01*
X65768Y41772D02*
X66240D01*
X65768Y40709D02*
Y41772D01*
Y40709D02*
X66240D01*
Y41772D01*
X68553Y45718D02*
X68671Y45600D01*
X69734D02*
X69852D01*
X69853Y45600D02*
Y46900D01*
X68553Y46899D02*
X68671Y46900D01*
X69734Y46899D02*
X69852Y46900D01*
X68553Y45718D02*
Y46900D01*
X69715Y52018D02*
X70896D01*
X70895Y50837D02*
X70896Y50718D01*
X70895Y52018D02*
X70896Y51900D01*
X69596Y50718D02*
X70896D01*
X69596Y50719D02*
Y50837D01*
Y51900D02*
X69715Y52018D01*
X71811Y56112D02*
X71929Y56230D01*
Y57293D02*
Y57411D01*
X70630Y57412D02*
X71930D01*
X70630Y56230D02*
X70630Y56112D01*
X70630Y57411D02*
X70630Y57293D01*
X70630Y56112D02*
X71811D01*
X74970Y41182D02*
X76152D01*
X76151Y40000D02*
X76152Y39882D01*
X76151Y41181D02*
X76152Y41063D01*
X74852Y39881D02*
X76152D01*
X74852Y39882D02*
Y40000D01*
Y41063D02*
X74970Y41181D01*
G54D96*
X75413Y48533D02*
Y48287D01*
X75463Y48238D01*
X75561D01*
X75610Y48287D01*
Y48533D01*
X75709Y48238D02*
X75807D01*
X75758D01*
Y48533D01*
X75709Y48484D01*
X75955Y48238D02*
X76053D01*
X76004D01*
Y48533D01*
X75955Y48484D01*
X75463Y52352D02*
Y52106D01*
X75512Y52057D01*
X75610D01*
X75659Y52106D01*
Y52352D01*
X75758Y52057D02*
X75856D01*
X75807D01*
Y52352D01*
X75758Y52303D01*
X76004D02*
X76053Y52352D01*
X76151D01*
X76201Y52303D01*
Y52106D01*
X76151Y52057D01*
X76053D01*
X76004Y52106D01*
Y52303D01*
X70177Y47903D02*
X70128Y47953D01*
X70030D01*
X69980Y47903D01*
Y47707D01*
X70030Y47657D01*
X70128D01*
X70177Y47707D01*
X70276Y47657D02*
X70374D01*
X70325D01*
Y47953D01*
X70276Y47903D01*
X70521Y47953D02*
X70718D01*
Y47903D01*
X70521Y47707D01*
Y47657D01*
X68661Y48966D02*
X68612Y48917D01*
Y48819D01*
X68661Y48770D01*
X68858D01*
X68907Y48819D01*
Y48917D01*
X68858Y48966D01*
X68907Y49065D02*
Y49163D01*
Y49114D01*
X68612D01*
X68661Y49065D01*
X68612Y49508D02*
X68661Y49409D01*
X68760Y49311D01*
X68858D01*
X68907Y49360D01*
Y49458D01*
X68858Y49508D01*
X68809D01*
X68760Y49458D01*
Y49311D01*
X69675Y49941D02*
X69626Y49892D01*
Y49793D01*
X69675Y49744D01*
X69872D01*
X69921Y49793D01*
Y49892D01*
X69872Y49941D01*
X69921Y50039D02*
Y50138D01*
Y50088D01*
X69626D01*
X69675Y50039D01*
X69626Y50482D02*
Y50285D01*
X69774D01*
X69724Y50384D01*
Y50433D01*
X69774Y50482D01*
X69872D01*
X69921Y50433D01*
Y50334D01*
X69872Y50285D01*
X71801Y50443D02*
X71752Y50394D01*
Y50295D01*
X71801Y50246D01*
X71998D01*
X72047Y50295D01*
Y50394D01*
X71998Y50443D01*
X72047Y50541D02*
Y50640D01*
Y50590D01*
X71752D01*
X71801Y50541D01*
X72047Y50935D02*
X71752D01*
X71900Y50787D01*
Y50984D01*
X71457Y31781D02*
X71408Y31732D01*
Y31634D01*
X71457Y31585D01*
X71654D01*
X71703Y31634D01*
Y31732D01*
X71654Y31781D01*
X71408Y31880D02*
Y32077D01*
X71457D01*
X71654Y31880D01*
X71703D01*
Y32372D02*
Y32175D01*
X71506Y32372D01*
X71457D01*
X71408Y32323D01*
Y32224D01*
X71457Y32175D01*
X73661Y36279D02*
Y36033D01*
X73711Y35984D01*
X73809D01*
X73858Y36033D01*
Y36279D01*
X73957Y35984D02*
X74055D01*
X74006D01*
Y36279D01*
X73957Y36230D01*
X74350Y35984D02*
Y36279D01*
X74203Y36132D01*
X74399D01*
X72343Y61171D02*
Y60925D01*
X72392Y60876D01*
X72490D01*
X72539Y60925D01*
Y61171D01*
X72638Y60876D02*
X72736D01*
X72687D01*
Y61171D01*
X72638Y61122D01*
X73031Y60876D02*
Y61171D01*
X72884Y61024D01*
X73080D01*
X72529Y49114D02*
X72480Y49163D01*
X72382D01*
X72333Y49114D01*
Y48917D01*
X72382Y48868D01*
X72480D01*
X72529Y48917D01*
X72825Y48868D02*
X72628D01*
X72825Y49065D01*
Y49114D01*
X72775Y49163D01*
X72677D01*
X72628Y49114D01*
X72923Y48917D02*
X72972Y48868D01*
X73071D01*
X73120Y48917D01*
Y49114D01*
X73071Y49163D01*
X72972D01*
X72923Y49114D01*
Y49065D01*
X72972Y49016D01*
X73120D01*
X63721Y43622D02*
X63671Y43573D01*
Y43474D01*
X63721Y43425D01*
X63917D01*
X63967Y43474D01*
Y43573D01*
X63917Y43622D01*
X63671Y43917D02*
Y43720D01*
X63819D01*
X63770Y43819D01*
Y43868D01*
X63819Y43917D01*
X63917D01*
X63967Y43868D01*
Y43770D01*
X63917Y43720D01*
X65620Y45955D02*
Y45709D01*
X65669Y45659D01*
X65768D01*
X65817Y45709D01*
Y45955D01*
X66112Y45659D02*
X65915D01*
X66112Y45856D01*
Y45905D01*
X66063Y45955D01*
X65964D01*
X65915Y45905D01*
X78071Y48976D02*
Y48780D01*
X78366D01*
Y48976D01*
X78219Y48780D02*
Y48878D01*
X78120Y49271D02*
X78071Y49222D01*
Y49124D01*
X78120Y49075D01*
X78169D01*
X78219Y49124D01*
Y49222D01*
X78268Y49271D01*
X78317D01*
X78366Y49222D01*
Y49124D01*
X78317Y49075D01*
X78071Y49370D02*
X78366D01*
Y49517D01*
X78317Y49567D01*
X78120D01*
X78071Y49517D01*
Y49370D01*
X78366Y49862D02*
Y49665D01*
X78169Y49862D01*
X78120D01*
X78071Y49813D01*
Y49714D01*
X78120Y49665D01*
X78100Y52264D02*
Y52067D01*
X78396D01*
Y52264D01*
X78248Y52067D02*
Y52165D01*
X78150Y52559D02*
X78100Y52510D01*
Y52411D01*
X78150Y52362D01*
X78199D01*
X78248Y52411D01*
Y52510D01*
X78297Y52559D01*
X78346D01*
X78396Y52510D01*
Y52411D01*
X78346Y52362D01*
X78100Y52657D02*
X78396D01*
Y52805D01*
X78346Y52854D01*
X78150D01*
X78100Y52805D01*
Y52657D01*
X78396Y52952D02*
Y53051D01*
Y53002D01*
X78100D01*
X78150Y52952D01*
X77736Y62372D02*
X77687Y62421D01*
X77589D01*
X77539Y62372D01*
Y62175D01*
X77589Y62126D01*
X77687D01*
X77736Y62175D01*
X77835Y62421D02*
X78031D01*
Y62372D01*
X77835Y62175D01*
Y62126D01*
X78130Y62372D02*
X78179Y62421D01*
X78277D01*
X78327Y62372D01*
Y62323D01*
X78277Y62274D01*
X78228D01*
X78277D01*
X78327Y62224D01*
Y62175D01*
X78277Y62126D01*
X78179D01*
X78130Y62175D01*
X72146Y37234D02*
X72392D01*
X72441Y37283D01*
Y37382D01*
X72392Y37431D01*
X72146D01*
X72441Y37529D02*
Y37628D01*
Y37579D01*
X72146D01*
X72195Y37529D01*
X72441Y37972D02*
Y37775D01*
X72244Y37972D01*
X72195D01*
X72146Y37923D01*
Y37825D01*
X72195Y37775D01*
X73671Y44468D02*
X73868D01*
Y44419D01*
X73671Y44222D01*
Y44173D01*
X73868D01*
X73966Y44468D02*
X74163D01*
Y44419D01*
X73966Y44222D01*
Y44173D01*
X71309Y53041D02*
X71506D01*
Y52992D01*
X71309Y52795D01*
Y52746D01*
X71506D01*
X71604Y53041D02*
X71801D01*
Y52992D01*
X71604Y52795D01*
Y52746D01*
X68848Y41092D02*
X69045D01*
Y41043D01*
X68848Y40846D01*
Y40797D01*
X69045D01*
X69340Y41092D02*
X69242Y41043D01*
X69144Y40945D01*
Y40846D01*
X69193Y40797D01*
X69291D01*
X69340Y40846D01*
Y40896D01*
X69291Y40945D01*
X69144D01*
X77116Y56486D02*
X77313D01*
Y56437D01*
X77116Y56240D01*
Y56191D01*
X77313D01*
X77608Y56486D02*
X77510Y56437D01*
X77411Y56339D01*
Y56240D01*
X77461Y56191D01*
X77559D01*
X77608Y56240D01*
Y56289D01*
X77559Y56339D01*
X77411D01*
X75108Y41535D02*
X75305D01*
Y41486D01*
X75108Y41289D01*
Y41240D01*
X75305D01*
X75600Y41535D02*
X75403D01*
Y41388D01*
X75502Y41437D01*
X75551D01*
X75600Y41388D01*
Y41289D01*
X75551Y41240D01*
X75453D01*
X75403Y41289D01*
X70659Y56053D02*
X70856D01*
Y56004D01*
X70659Y55807D01*
Y55758D01*
X70856D01*
X71151Y56053D02*
X70955D01*
Y55905D01*
X71053Y55955D01*
X71102D01*
X71151Y55905D01*
Y55807D01*
X71102Y55758D01*
X71004D01*
X70955Y55807D01*
X78091Y37963D02*
Y38159D01*
X78140D01*
X78337Y37963D01*
X78386D01*
Y38159D01*
Y38405D02*
X78091D01*
X78238Y38258D01*
Y38455D01*
X68317Y58543D02*
Y58740D01*
X68366D01*
X68563Y58543D01*
X68612D01*
Y58740D01*
Y58986D02*
X68317D01*
X68465Y58838D01*
Y59035D01*
X75207Y37953D02*
Y38150D01*
X75256D01*
X75453Y37953D01*
X75502D01*
Y38150D01*
X75256Y38248D02*
X75207Y38297D01*
Y38396D01*
X75256Y38445D01*
X75305D01*
X75354Y38396D01*
Y38346D01*
Y38396D01*
X75404Y38445D01*
X75453D01*
X75502Y38396D01*
Y38297D01*
X75453Y38248D01*
X71221Y58839D02*
Y59035D01*
X71270D01*
X71467Y58839D01*
X71516D01*
Y59035D01*
X71270Y59134D02*
X71221Y59183D01*
Y59281D01*
X71270Y59331D01*
X71319D01*
X71368Y59281D01*
Y59232D01*
Y59281D01*
X71417Y59331D01*
X71467D01*
X71516Y59281D01*
Y59183D01*
X71467Y59134D01*
X74764Y32775D02*
X74961Y32480D01*
Y32775D02*
X74764Y32480D01*
X75207D02*
Y32775D01*
X75059Y32628D01*
X75256D01*
X79410Y46457D02*
X79705Y46653D01*
X79410D02*
X79705Y46457D01*
X79459Y46752D02*
X79410Y46801D01*
Y46899D01*
X79459Y46949D01*
X79508D01*
X79557Y46899D01*
Y46850D01*
Y46899D01*
X79606Y46949D01*
X79656D01*
X79705Y46899D01*
Y46801D01*
X79656Y46752D01*
X79380Y52500D02*
X79675Y52697D01*
X79380D02*
X79675Y52500D01*
Y52992D02*
Y52795D01*
X79478Y52992D01*
X79429D01*
X79380Y52943D01*
Y52844D01*
X79429Y52795D01*
X71427Y65856D02*
X71624Y65561D01*
Y65856D02*
X71427Y65561D01*
X71722D02*
X71821D01*
X71772D01*
Y65856D01*
X71722Y65807D01*
X74272Y59114D02*
X74518D01*
X74567Y59163D01*
Y59262D01*
X74518Y59311D01*
X74272D01*
X74567Y59409D02*
Y59508D01*
Y59459D01*
X74272D01*
X74321Y59409D01*
X74567Y59852D02*
Y59655D01*
X74370Y59852D01*
X74321D01*
X74272Y59803D01*
Y59705D01*
X74321Y59655D01*
X62274Y48563D02*
X62520D01*
X62569Y48612D01*
Y48711D01*
X62520Y48760D01*
X62274D01*
X62520Y48858D02*
X62569Y48907D01*
Y49006D01*
X62520Y49055D01*
X62323D01*
X62274Y49006D01*
Y48907D01*
X62323Y48858D01*
X62372D01*
X62421Y48907D01*
Y49055D01*
X78012Y67037D02*
Y66791D01*
X78061Y66742D01*
X78159D01*
X78209Y66791D01*
Y67037D01*
X78455Y66742D02*
Y67037D01*
X78307Y66890D01*
X78504D01*
X61782Y60364D02*
Y60118D01*
X61831Y60069D01*
X61929D01*
X61978Y60118D01*
Y60364D01*
X62273D02*
X62175Y60315D01*
X62077Y60216D01*
Y60118D01*
X62126Y60069D01*
X62224D01*
X62273Y60118D01*
Y60167D01*
X62224Y60216D01*
X62077D01*
X62746Y55000D02*
Y54754D01*
X62795Y54705D01*
X62894D01*
X62943Y54754D01*
Y55000D01*
X63238D02*
X63041D01*
Y54852D01*
X63140Y54902D01*
X63189D01*
X63238Y54852D01*
Y54754D01*
X63189Y54705D01*
X63090D01*
X63041Y54754D01*
X63356Y33287D02*
Y33041D01*
X63405Y32992D01*
X63504D01*
X63553Y33041D01*
Y33287D01*
X63651Y32992D02*
X63750D01*
X63701D01*
Y33287D01*
X63651Y33238D01*
X70945Y45226D02*
X71142D01*
X71043D01*
Y44931D01*
X71437D02*
X71240D01*
X71437Y45128D01*
Y45177D01*
X71388Y45226D01*
X71289D01*
X71240Y45177D01*
X69961Y49193D02*
X70157D01*
X70059D01*
Y48898D01*
X70256D02*
X70354D01*
X70305D01*
Y49193D01*
X70256Y49144D01*
X74222Y38770D02*
X73927D01*
Y38917D01*
X73976Y38966D01*
X74075D01*
X74124Y38917D01*
Y38770D01*
Y38868D02*
X74222Y38966D01*
Y39212D02*
X73927D01*
X74075Y39065D01*
Y39262D01*
X73976Y39360D02*
X73927Y39409D01*
Y39508D01*
X73976Y39557D01*
X74026D01*
X74075Y39508D01*
Y39458D01*
Y39508D01*
X74124Y39557D01*
X74173D01*
X74222Y39508D01*
Y39409D01*
X74173Y39360D01*
X72746Y57805D02*
X72451D01*
Y57953D01*
X72500Y58002D01*
X72598D01*
X72648Y57953D01*
Y57805D01*
Y57904D02*
X72746Y58002D01*
Y58248D02*
X72451D01*
X72598Y58100D01*
Y58297D01*
X72500Y58395D02*
X72451Y58445D01*
Y58543D01*
X72500Y58592D01*
X72549D01*
X72598Y58543D01*
Y58494D01*
Y58543D01*
X72648Y58592D01*
X72697D01*
X72746Y58543D01*
Y58445D01*
X72697Y58395D01*
X72500Y39823D02*
Y40118D01*
X72648D01*
X72697Y40069D01*
Y39970D01*
X72648Y39921D01*
X72500D01*
X72598D02*
X72697Y39823D01*
X72943D02*
Y40118D01*
X72795Y39970D01*
X72992D01*
X73287Y39823D02*
X73090D01*
X73287Y40020D01*
Y40069D01*
X73238Y40118D01*
X73140D01*
X73090Y40069D01*
X73435Y57146D02*
Y57441D01*
X73583D01*
X73632Y57392D01*
Y57293D01*
X73583Y57244D01*
X73435D01*
X73533D02*
X73632Y57146D01*
X73878D02*
Y57441D01*
X73730Y57293D01*
X73927D01*
X74222Y57146D02*
X74025D01*
X74222Y57342D01*
Y57392D01*
X74173Y57441D01*
X74075D01*
X74025Y57392D01*
X69813Y36496D02*
X69518D01*
Y36644D01*
X69567Y36693D01*
X69665D01*
X69715Y36644D01*
Y36496D01*
Y36594D02*
X69813Y36693D01*
Y36939D02*
X69518D01*
X69665Y36791D01*
Y36988D01*
X69567Y37086D02*
X69518Y37136D01*
Y37234D01*
X69567Y37283D01*
X69764D01*
X69813Y37234D01*
Y37136D01*
X69764Y37086D01*
X69567D01*
X77264Y60049D02*
X76969D01*
Y60197D01*
X77018Y60246D01*
X77116D01*
X77165Y60197D01*
Y60049D01*
Y60148D02*
X77264Y60246D01*
Y60492D02*
X76969D01*
X77116Y60344D01*
Y60541D01*
X77018Y60640D02*
X76969Y60689D01*
Y60787D01*
X77018Y60836D01*
X77215D01*
X77264Y60787D01*
Y60689D01*
X77215Y60640D01*
X77018D01*
X69547Y40354D02*
Y40650D01*
X69695D01*
X69744Y40600D01*
Y40502D01*
X69695Y40453D01*
X69547D01*
X69646D02*
X69744Y40354D01*
X69842Y40600D02*
X69892Y40650D01*
X69990D01*
X70039Y40600D01*
Y40551D01*
X69990Y40502D01*
X69941D01*
X69990D01*
X70039Y40453D01*
Y40404D01*
X69990Y40354D01*
X69892D01*
X69842Y40404D01*
X70138D02*
X70187Y40354D01*
X70285D01*
X70334Y40404D01*
Y40600D01*
X70285Y40650D01*
X70187D01*
X70138Y40600D01*
Y40551D01*
X70187Y40502D01*
X70334D01*
X76329Y56683D02*
Y56978D01*
X76476D01*
X76526Y56929D01*
Y56831D01*
X76476Y56781D01*
X76329D01*
X76427D02*
X76526Y56683D01*
X76624Y56929D02*
X76673Y56978D01*
X76772D01*
X76821Y56929D01*
Y56880D01*
X76772Y56831D01*
X76722D01*
X76772D01*
X76821Y56781D01*
Y56732D01*
X76772Y56683D01*
X76673D01*
X76624Y56732D01*
X76919D02*
X76968Y56683D01*
X77067D01*
X77116Y56732D01*
Y56929D01*
X77067Y56978D01*
X76968D01*
X76919Y56929D01*
Y56880D01*
X76968Y56831D01*
X77116D01*
X75177Y44774D02*
Y45069D01*
X75325D01*
X75374Y45020D01*
Y44921D01*
X75325Y44872D01*
X75177D01*
X75276D02*
X75374Y44774D01*
X75669D02*
X75472D01*
X75669Y44970D01*
Y45020D01*
X75620Y45069D01*
X75522D01*
X75472Y45020D01*
X75768Y45069D02*
X75964D01*
Y45020D01*
X75768Y44823D01*
Y44774D01*
X77539Y45748D02*
Y46043D01*
X77687D01*
X77736Y45994D01*
Y45896D01*
X77687Y45846D01*
X77539D01*
X77638D02*
X77736Y45748D01*
X78031D02*
X77835D01*
X78031Y45945D01*
Y45994D01*
X77982Y46043D01*
X77884D01*
X77835Y45994D01*
X78130Y45797D02*
X78179Y45748D01*
X78277D01*
X78327Y45797D01*
Y45994D01*
X78277Y46043D01*
X78179D01*
X78130Y45994D01*
Y45945D01*
X78179Y45896D01*
X78327D01*
X75275Y48671D02*
Y48966D01*
X75423D01*
X75472Y48917D01*
Y48819D01*
X75423Y48770D01*
X75275D01*
X75374D02*
X75472Y48671D01*
X75767D02*
X75571D01*
X75767Y48868D01*
Y48917D01*
X75718Y48966D01*
X75620D01*
X75571Y48917D01*
X76062Y48966D02*
X75964Y48917D01*
X75866Y48819D01*
Y48720D01*
X75915Y48671D01*
X76013D01*
X76062Y48720D01*
Y48770D01*
X76013Y48819D01*
X75866D01*
X77913Y48533D02*
X77618D01*
Y48681D01*
X77667Y48730D01*
X77766D01*
X77815Y48681D01*
Y48533D01*
Y48632D02*
X77913Y48730D01*
Y49025D02*
Y48829D01*
X77717Y49025D01*
X77667D01*
X77618Y48976D01*
Y48878D01*
X77667Y48829D01*
Y49124D02*
X77618Y49173D01*
Y49271D01*
X77667Y49321D01*
X77717D01*
X77766Y49271D01*
X77815Y49321D01*
X77864D01*
X77913Y49271D01*
Y49173D01*
X77864Y49124D01*
X77815D01*
X77766Y49173D01*
X77717Y49124D01*
X77667D01*
X77766Y49173D02*
Y49271D01*
X65955Y51398D02*
Y51693D01*
X66102D01*
X66152Y51644D01*
Y51545D01*
X66102Y51496D01*
X65955D01*
X66053D02*
X66152Y51398D01*
X66447D02*
X66250D01*
X66447Y51594D01*
Y51644D01*
X66397Y51693D01*
X66299D01*
X66250Y51644D01*
X66742Y51693D02*
X66545D01*
Y51545D01*
X66643Y51594D01*
X66693D01*
X66742Y51545D01*
Y51447D01*
X66693Y51398D01*
X66594D01*
X66545Y51447D01*
X65335Y46250D02*
Y46545D01*
X65482D01*
X65531Y46496D01*
Y46398D01*
X65482Y46348D01*
X65335D01*
X65433D02*
X65531Y46250D01*
X65827D02*
X65630D01*
X65827Y46447D01*
Y46496D01*
X65777Y46545D01*
X65679D01*
X65630Y46496D01*
X66073Y46250D02*
Y46545D01*
X65925Y46398D01*
X66122D01*
X74783Y65640D02*
X74488D01*
Y65787D01*
X74537Y65837D01*
X74636D01*
X74685Y65787D01*
Y65640D01*
Y65738D02*
X74783Y65837D01*
Y66132D02*
Y65935D01*
X74587Y66132D01*
X74537D01*
X74488Y66083D01*
Y65984D01*
X74537Y65935D01*
Y66230D02*
X74488Y66279D01*
Y66378D01*
X74537Y66427D01*
X74587D01*
X74636Y66378D01*
Y66329D01*
Y66378D01*
X74685Y66427D01*
X74734D01*
X74783Y66378D01*
Y66279D01*
X74734Y66230D01*
X76545Y67362D02*
Y67657D01*
X76693D01*
X76742Y67608D01*
Y67510D01*
X76693Y67461D01*
X76545D01*
X76644D02*
X76742Y67362D01*
X76840D02*
X76939D01*
X76890D01*
Y67657D01*
X76840Y67608D01*
X77086D02*
X77136Y67657D01*
X77234D01*
X77283Y67608D01*
Y67559D01*
X77234Y67510D01*
X77283Y67461D01*
Y67411D01*
X77234Y67362D01*
X77136D01*
X77086Y67411D01*
Y67461D01*
X77136Y67510D01*
X77086Y67559D01*
Y67608D01*
X77136Y67510D02*
X77234D01*
X76506Y65354D02*
X76211D01*
Y65502D01*
X76260Y65551D01*
X76358D01*
X76408Y65502D01*
Y65354D01*
Y65453D02*
X76506Y65551D01*
Y65650D02*
Y65748D01*
Y65699D01*
X76211D01*
X76260Y65650D01*
X76211Y65895D02*
Y66092D01*
X76260D01*
X76457Y65895D01*
X76506D01*
X63642Y45551D02*
Y45846D01*
X63789D01*
X63839Y45797D01*
Y45699D01*
X63789Y45650D01*
X63642D01*
X63740D02*
X63839Y45551D01*
X63937D02*
X64035D01*
X63986D01*
Y45846D01*
X63937Y45797D01*
X64380Y45846D02*
X64281Y45797D01*
X64183Y45699D01*
Y45600D01*
X64232Y45551D01*
X64330D01*
X64380Y45600D01*
Y45650D01*
X64330Y45699D01*
X64183D01*
X63248Y44104D02*
Y44400D01*
X63396D01*
X63445Y44350D01*
Y44252D01*
X63396Y44203D01*
X63248D01*
X63346D02*
X63445Y44104D01*
X63543D02*
X63642D01*
X63592D01*
Y44400D01*
X63543Y44350D01*
X63789D02*
X63838Y44400D01*
X63937D01*
X63986Y44350D01*
Y44301D01*
X63937Y44252D01*
X63888D01*
X63937D01*
X63986Y44203D01*
Y44154D01*
X63937Y44104D01*
X63838D01*
X63789Y44154D01*
X65817Y31555D02*
Y31850D01*
X65965D01*
X66014Y31801D01*
Y31703D01*
X65965Y31654D01*
X65817D01*
X65915D02*
X66014Y31555D01*
X66112D02*
X66210D01*
X66161D01*
Y31850D01*
X66112Y31801D01*
X66358Y31555D02*
X66456D01*
X66407D01*
Y31850D01*
X66358Y31801D01*
X63691Y55098D02*
Y55394D01*
X63839D01*
X63888Y55344D01*
Y55246D01*
X63839Y55197D01*
X63691D01*
X63789D02*
X63888Y55098D01*
X63986Y55344D02*
X64035Y55394D01*
X64134D01*
X64183Y55344D01*
Y55295D01*
X64134Y55246D01*
X64183Y55197D01*
Y55148D01*
X64134Y55098D01*
X64035D01*
X63986Y55148D01*
Y55197D01*
X64035Y55246D01*
X63986Y55295D01*
Y55344D01*
X64035Y55246D02*
X64134D01*
X62254Y56043D02*
Y56338D01*
X62402D01*
X62451Y56289D01*
Y56191D01*
X62402Y56142D01*
X62254D01*
X62352D02*
X62451Y56043D01*
X62549Y56338D02*
X62746D01*
Y56289D01*
X62549Y56093D01*
Y56043D01*
X78661Y65984D02*
Y66279D01*
X78809D01*
X78858Y66230D01*
Y66132D01*
X78809Y66083D01*
X78661D01*
X78760D02*
X78858Y65984D01*
X79153Y66279D02*
X79055Y66230D01*
X78957Y66132D01*
Y66033D01*
X79006Y65984D01*
X79104D01*
X79153Y66033D01*
Y66083D01*
X79104Y66132D01*
X78957D01*
X76909Y64331D02*
Y64626D01*
X77057D01*
X77106Y64577D01*
Y64478D01*
X77057Y64429D01*
X76909D01*
X77008D02*
X77106Y64331D01*
X77401Y64626D02*
X77205D01*
Y64478D01*
X77303Y64527D01*
X77352D01*
X77401Y64478D01*
Y64380D01*
X77352Y64331D01*
X77254D01*
X77205Y64380D01*
X64341Y33081D02*
Y33376D01*
X64488D01*
X64537Y33327D01*
Y33228D01*
X64488Y33179D01*
X64341D01*
X64439D02*
X64537Y33081D01*
X64636D02*
X64734D01*
X64685D01*
Y33376D01*
X64636Y33327D01*
X65079Y33376D02*
X64882D01*
Y33228D01*
X64980Y33277D01*
X65029D01*
X65079Y33228D01*
Y33130D01*
X65029Y33081D01*
X64931D01*
X64882Y33130D01*
X64951Y62382D02*
X64656D01*
Y62529D01*
X64705Y62579D01*
X64803D01*
X64852Y62529D01*
Y62382D01*
Y62480D02*
X64951Y62579D01*
Y62825D02*
X64656D01*
X64803Y62677D01*
Y62874D01*
X64990Y65659D02*
X64695D01*
Y65807D01*
X64744Y65856D01*
X64843D01*
X64892Y65807D01*
Y65659D01*
Y65758D02*
X64990Y65856D01*
X64744Y65955D02*
X64695Y66004D01*
Y66102D01*
X64744Y66151D01*
X64793D01*
X64843Y66102D01*
Y66053D01*
Y66102D01*
X64892Y66151D01*
X64941D01*
X64990Y66102D01*
Y66004D01*
X64941Y65955D01*
X66555Y62411D02*
X66260D01*
Y62559D01*
X66309Y62608D01*
X66408D01*
X66457Y62559D01*
Y62411D01*
Y62510D02*
X66555Y62608D01*
Y62903D02*
Y62707D01*
X66358Y62903D01*
X66309D01*
X66260Y62854D01*
Y62756D01*
X66309Y62707D01*
X66772Y65738D02*
X66476D01*
Y65886D01*
X66526Y65935D01*
X66624D01*
X66673Y65886D01*
Y65738D01*
Y65837D02*
X66772Y65935D01*
Y66033D02*
Y66132D01*
Y66083D01*
X66476D01*
X66526Y66033D01*
X68307Y34193D02*
Y33898D01*
X68504D01*
X68799Y34193D02*
X68602D01*
Y33898D01*
X68799D01*
X68602Y34045D02*
X68701D01*
X68897Y34193D02*
Y33898D01*
X69045D01*
X69094Y33947D01*
Y34144D01*
X69045Y34193D01*
X68897D01*
X69193Y33898D02*
X69291D01*
X69242D01*
Y34193D01*
X69193Y34144D01*
X76860Y63337D02*
Y63041D01*
X77057D01*
X77352Y63337D02*
X77155D01*
Y63041D01*
X77352D01*
X77155Y63189D02*
X77254D01*
X77451Y63337D02*
Y63041D01*
X77598D01*
X77647Y63091D01*
Y63287D01*
X77598Y63337D01*
X77451D01*
X77746Y63041D02*
X77844D01*
X77795D01*
Y63337D01*
X77746Y63287D01*
X71112Y42224D02*
Y41929D01*
X71309D01*
X71407D02*
X71506D01*
X71457D01*
Y42224D01*
X71407Y42175D01*
X71653D02*
X71703Y42224D01*
X71801D01*
X71850Y42175D01*
Y42126D01*
X71801Y42077D01*
X71850Y42028D01*
Y41978D01*
X71801Y41929D01*
X71703D01*
X71653Y41978D01*
Y42028D01*
X71703Y42077D01*
X71653Y42126D01*
Y42175D01*
X71703Y42077D02*
X71801D01*
X74931Y55344D02*
Y55049D01*
X75128D01*
X75226D02*
X75325D01*
X75275D01*
Y55344D01*
X75226Y55295D01*
X75472D02*
X75521Y55344D01*
X75620D01*
X75669Y55295D01*
Y55246D01*
X75620Y55197D01*
X75669Y55148D01*
Y55098D01*
X75620Y55049D01*
X75521D01*
X75472Y55098D01*
Y55148D01*
X75521Y55197D01*
X75472Y55246D01*
Y55295D01*
X75521Y55197D02*
X75620D01*
X70256Y42234D02*
Y41939D01*
X70453D01*
X70551D02*
X70649D01*
X70600D01*
Y42234D01*
X70551Y42185D01*
X70797Y42234D02*
X70994D01*
Y42185D01*
X70797Y41988D01*
Y41939D01*
X75837Y55335D02*
Y55039D01*
X76033D01*
X76132D02*
X76230D01*
X76181D01*
Y55335D01*
X76132Y55285D01*
X76378Y55335D02*
X76575D01*
Y55285D01*
X76378Y55089D01*
Y55039D01*
X77581Y40239D02*
Y39944D01*
X77778D01*
X77876D02*
X77975D01*
X77926D01*
Y40239D01*
X77876Y40190D01*
X78319Y40239D02*
X78221Y40190D01*
X78122Y40091D01*
Y39993D01*
X78172Y39944D01*
X78270D01*
X78319Y39993D01*
Y40042D01*
X78270Y40091D01*
X78122D01*
X68543Y57362D02*
Y57067D01*
X68740D01*
X68838D02*
X68937D01*
X68888D01*
Y57362D01*
X68838Y57313D01*
X69281Y57362D02*
X69183Y57313D01*
X69084Y57215D01*
Y57116D01*
X69134Y57067D01*
X69232D01*
X69281Y57116D01*
Y57165D01*
X69232Y57215D01*
X69084D01*
X73583Y40108D02*
Y39813D01*
X73779D01*
X73878D02*
X73976D01*
X73927D01*
Y40108D01*
X73878Y40059D01*
X74271Y39813D02*
Y40108D01*
X74124Y39961D01*
X74321D01*
X72539Y57461D02*
Y57165D01*
X72736D01*
X72835D02*
X72933D01*
X72884D01*
Y57461D01*
X72835Y57411D01*
X73228Y57165D02*
Y57461D01*
X73081Y57313D01*
X73277D01*
X78100Y36014D02*
X78396D01*
Y36211D01*
Y36309D02*
Y36407D01*
Y36358D01*
X78100D01*
X78150Y36309D01*
Y36555D02*
X78100Y36604D01*
Y36703D01*
X78150Y36752D01*
X78199D01*
X78248Y36703D01*
Y36653D01*
Y36703D01*
X78297Y36752D01*
X78346D01*
X78396Y36703D01*
Y36604D01*
X78346Y36555D01*
X68297Y60433D02*
X68593D01*
Y60630D01*
Y60728D02*
Y60827D01*
Y60777D01*
X68297D01*
X68347Y60728D01*
Y60974D02*
X68297Y61023D01*
Y61122D01*
X68347Y61171D01*
X68396D01*
X68445Y61122D01*
Y61073D01*
Y61122D01*
X68494Y61171D01*
X68543D01*
X68593Y61122D01*
Y61023D01*
X68543Y60974D01*
X76112Y47411D02*
X76407D01*
Y47608D01*
Y47707D02*
Y47805D01*
Y47756D01*
X76112D01*
X76161Y47707D01*
X76407Y48149D02*
Y47953D01*
X76211Y48149D01*
X76161D01*
X76112Y48100D01*
Y48002D01*
X76161Y47953D01*
X76593Y51763D02*
X76888D01*
Y51960D01*
Y52058D02*
Y52156D01*
Y52107D01*
X76593D01*
X76642Y52058D01*
X76888Y52304D02*
Y52402D01*
Y52353D01*
X76593D01*
X76642Y52304D01*
X75679Y46555D02*
X75974D01*
Y46752D01*
X75925Y46850D02*
X75974Y46899D01*
Y46998D01*
X75925Y47047D01*
X75728D01*
X75679Y46998D01*
Y46899D01*
X75728Y46850D01*
X75778D01*
X75827Y46899D01*
Y47047D01*
X75660Y50364D02*
X75955D01*
Y50561D01*
X75709Y50659D02*
X75660Y50709D01*
Y50807D01*
X75709Y50856D01*
X75758D01*
X75807Y50807D01*
X75856Y50856D01*
X75906D01*
X75955Y50807D01*
Y50709D01*
X75906Y50659D01*
X75856D01*
X75807Y50709D01*
X75758Y50659D01*
X75709D01*
X75807Y50709D02*
Y50807D01*
X75955Y44665D02*
Y44370D01*
X76152D01*
X76250Y44616D02*
X76299Y44665D01*
X76398D01*
X76447Y44616D01*
Y44567D01*
X76398Y44518D01*
X76348D01*
X76398D01*
X76447Y44468D01*
Y44419D01*
X76398Y44370D01*
X76299D01*
X76250Y44419D01*
X72717Y53012D02*
Y52717D01*
X72913D01*
X73208D02*
X73012D01*
X73208Y52913D01*
Y52963D01*
X73159Y53012D01*
X73061D01*
X73012Y52963D01*
X61142Y55453D02*
X61437D01*
Y55650D01*
Y55748D02*
Y55846D01*
Y55797D01*
X61142D01*
X61191Y55748D01*
X69577Y37618D02*
X69528Y37569D01*
Y37470D01*
X69577Y37421D01*
X69774D01*
X69823Y37470D01*
Y37569D01*
X69774Y37618D01*
X69528Y37716D02*
Y37913D01*
X69577D01*
X69774Y37716D01*
X69823D01*
X69528Y38012D02*
Y38208D01*
X69577D01*
X69774Y38012D01*
X69823D01*
X77008Y59065D02*
X76959Y59016D01*
Y58917D01*
X77008Y58868D01*
X77205D01*
X77254Y58917D01*
Y59016D01*
X77205Y59065D01*
X76959Y59163D02*
Y59360D01*
X77008D01*
X77205Y59163D01*
X77254D01*
X76959Y59458D02*
Y59655D01*
X77008D01*
X77205Y59458D01*
X77254D01*
X74734Y65246D02*
X74685Y65295D01*
X74587D01*
X74537Y65246D01*
Y65049D01*
X74587Y65000D01*
X74685D01*
X74734Y65049D01*
X74833Y65295D02*
X75029D01*
Y65246D01*
X74833Y65049D01*
Y65000D01*
X75325D02*
X75128D01*
X75325Y65197D01*
Y65246D01*
X75275Y65295D01*
X75177D01*
X75128Y65246D01*
X76693Y41526D02*
X76644Y41476D01*
Y41378D01*
X76693Y41329D01*
X76890D01*
X76939Y41378D01*
Y41476D01*
X76890Y41526D01*
X76644Y41821D02*
X76693Y41722D01*
X76791Y41624D01*
X76890D01*
X76939Y41673D01*
Y41772D01*
X76890Y41821D01*
X76841D01*
X76791Y41772D01*
Y41624D01*
X76693Y41919D02*
X76644Y41968D01*
Y42067D01*
X76693Y42116D01*
X76742D01*
X76791Y42067D01*
Y42017D01*
Y42067D01*
X76841Y42116D01*
X76890D01*
X76939Y42067D01*
Y41968D01*
X76890Y41919D01*
X69902Y55394D02*
X69852Y55344D01*
Y55246D01*
X69902Y55197D01*
X70098D01*
X70148Y55246D01*
Y55344D01*
X70098Y55394D01*
X69852Y55689D02*
X69902Y55590D01*
X70000Y55492D01*
X70098D01*
X70148Y55541D01*
Y55640D01*
X70098Y55689D01*
X70049D01*
X70000Y55640D01*
Y55492D01*
X69902Y55787D02*
X69852Y55836D01*
Y55935D01*
X69902Y55984D01*
X69951D01*
X70000Y55935D01*
Y55886D01*
Y55935D01*
X70049Y55984D01*
X70098D01*
X70148Y55935D01*
Y55836D01*
X70098Y55787D01*
X77181Y40203D02*
X77132Y40153D01*
Y40055D01*
X77181Y40006D01*
X77378D01*
X77427Y40055D01*
Y40153D01*
X77378Y40203D01*
X77132Y40498D02*
X77181Y40399D01*
X77280Y40301D01*
X77378D01*
X77427Y40350D01*
Y40449D01*
X77378Y40498D01*
X77329D01*
X77280Y40449D01*
Y40301D01*
X77427Y40793D02*
Y40596D01*
X77230Y40793D01*
X77181D01*
X77132Y40744D01*
Y40645D01*
X77181Y40596D01*
X69311Y56309D02*
X69262Y56260D01*
Y56161D01*
X69311Y56112D01*
X69508D01*
X69557Y56161D01*
Y56260D01*
X69508Y56309D01*
X69262Y56604D02*
X69311Y56506D01*
X69409Y56407D01*
X69508D01*
X69557Y56457D01*
Y56555D01*
X69508Y56604D01*
X69459D01*
X69409Y56555D01*
Y56407D01*
X69557Y56899D02*
Y56703D01*
X69360Y56899D01*
X69311D01*
X69262Y56850D01*
Y56752D01*
X69311Y56703D01*
X71929Y40974D02*
X71880Y41024D01*
X71781D01*
X71732Y40974D01*
Y40778D01*
X71781Y40728D01*
X71880D01*
X71929Y40778D01*
X72224Y41024D02*
X72027D01*
Y40876D01*
X72126Y40925D01*
X72175D01*
X72224Y40876D01*
Y40778D01*
X72175Y40728D01*
X72077D01*
X72027Y40778D01*
X72323D02*
X72372Y40728D01*
X72470D01*
X72519Y40778D01*
Y40974D01*
X72470Y41024D01*
X72372D01*
X72323Y40974D01*
Y40925D01*
X72372Y40876D01*
X72519D01*
X74498Y56466D02*
X74449Y56516D01*
X74350D01*
X74301Y56466D01*
Y56270D01*
X74350Y56220D01*
X74449D01*
X74498Y56270D01*
X74793Y56516D02*
X74596D01*
Y56368D01*
X74695Y56417D01*
X74744D01*
X74793Y56368D01*
Y56270D01*
X74744Y56220D01*
X74646D01*
X74596Y56270D01*
X74892D02*
X74941Y56220D01*
X75039D01*
X75088Y56270D01*
Y56466D01*
X75039Y56516D01*
X74941D01*
X74892Y56466D01*
Y56417D01*
X74941Y56368D01*
X75088D01*
X69636Y32884D02*
X69587Y32933D01*
X69488D01*
X69439Y32884D01*
Y32687D01*
X69488Y32638D01*
X69587D01*
X69636Y32687D01*
X69931Y32933D02*
X69734D01*
Y32785D01*
X69833Y32835D01*
X69882D01*
X69931Y32785D01*
Y32687D01*
X69882Y32638D01*
X69783D01*
X69734Y32687D01*
X70029Y32884D02*
X70079Y32933D01*
X70177D01*
X70226Y32884D01*
Y32835D01*
X70177Y32785D01*
X70226Y32736D01*
Y32687D01*
X70177Y32638D01*
X70079D01*
X70029Y32687D01*
Y32736D01*
X70079Y32785D01*
X70029Y32835D01*
Y32884D01*
X70079Y32785D02*
X70177D01*
X74153Y64606D02*
X74104Y64655D01*
X74006D01*
X73957Y64606D01*
Y64409D01*
X74006Y64360D01*
X74104D01*
X74153Y64409D01*
X74449Y64655D02*
X74252D01*
Y64508D01*
X74350Y64557D01*
X74399D01*
X74449Y64508D01*
Y64409D01*
X74399Y64360D01*
X74301D01*
X74252Y64409D01*
X74547Y64606D02*
X74596Y64655D01*
X74695D01*
X74744Y64606D01*
Y64557D01*
X74695Y64508D01*
X74744Y64459D01*
Y64409D01*
X74695Y64360D01*
X74596D01*
X74547Y64409D01*
Y64459D01*
X74596Y64508D01*
X74547Y64557D01*
Y64606D01*
X74596Y64508D02*
X74695D01*
X75984Y39163D02*
X75935Y39213D01*
X75837D01*
X75787Y39163D01*
Y38967D01*
X75837Y38917D01*
X75935D01*
X75984Y38967D01*
X76279Y39213D02*
X76083D01*
Y39065D01*
X76181Y39114D01*
X76230D01*
X76279Y39065D01*
Y38967D01*
X76230Y38917D01*
X76132D01*
X76083Y38967D01*
X76378Y39213D02*
X76575D01*
Y39163D01*
X76378Y38967D01*
Y38917D01*
X70285Y58337D02*
X70236Y58386D01*
X70138D01*
X70089Y58337D01*
Y58140D01*
X70138Y58091D01*
X70236D01*
X70285Y58140D01*
X70581Y58386D02*
X70384D01*
Y58238D01*
X70482Y58287D01*
X70531D01*
X70581Y58238D01*
Y58140D01*
X70531Y58091D01*
X70433D01*
X70384Y58140D01*
X70679Y58386D02*
X70876D01*
Y58337D01*
X70679Y58140D01*
Y58091D01*
X73415Y41545D02*
X73366Y41594D01*
X73268D01*
X73218Y41545D01*
Y41348D01*
X73268Y41299D01*
X73366D01*
X73415Y41348D01*
X73710Y41594D02*
X73514D01*
Y41447D01*
X73612Y41496D01*
X73661D01*
X73710Y41447D01*
Y41348D01*
X73661Y41299D01*
X73563D01*
X73514Y41348D01*
X73809Y41299D02*
X73907D01*
X73858D01*
Y41594D01*
X73809Y41545D01*
X73022Y55955D02*
X72972Y56004D01*
X72874D01*
X72825Y55955D01*
Y55758D01*
X72874Y55709D01*
X72972D01*
X73022Y55758D01*
X73317Y56004D02*
X73120D01*
Y55856D01*
X73218Y55905D01*
X73268D01*
X73317Y55856D01*
Y55758D01*
X73268Y55709D01*
X73169D01*
X73120Y55758D01*
X73415Y55709D02*
X73514D01*
X73464D01*
Y56004D01*
X73415Y55955D01*
X75955Y35583D02*
X75906Y35533D01*
Y35435D01*
X75955Y35386D01*
X76152D01*
X76201Y35435D01*
Y35533D01*
X76152Y35583D01*
X76201Y35829D02*
X75906D01*
X76053Y35681D01*
Y35878D01*
X76152Y35976D02*
X76201Y36025D01*
Y36124D01*
X76152Y36173D01*
X75955D01*
X75906Y36124D01*
Y36025D01*
X75955Y35976D01*
X76004D01*
X76053Y36025D01*
Y36173D01*
X70551Y61102D02*
X70502Y61053D01*
Y60955D01*
X70551Y60906D01*
X70748D01*
X70797Y60955D01*
Y61053D01*
X70748Y61102D01*
X70797Y61348D02*
X70502D01*
X70650Y61201D01*
Y61397D01*
X70748Y61496D02*
X70797Y61545D01*
Y61643D01*
X70748Y61693D01*
X70551D01*
X70502Y61643D01*
Y61545D01*
X70551Y61496D01*
X70600D01*
X70650Y61545D01*
Y61693D01*
X72825Y41486D02*
X72776Y41437D01*
Y41339D01*
X72825Y41289D01*
X73022D01*
X73071Y41339D01*
Y41437D01*
X73022Y41486D01*
X73071Y41732D02*
X72776D01*
X72923Y41585D01*
Y41781D01*
X72776Y41880D02*
Y42077D01*
X72825D01*
X73022Y41880D01*
X73071D01*
X73760Y55354D02*
X73711Y55305D01*
Y55207D01*
X73760Y55157D01*
X73957D01*
X74006Y55207D01*
Y55305D01*
X73957Y55354D01*
X74006Y55600D02*
X73711D01*
X73858Y55453D01*
Y55649D01*
X73711Y55748D02*
Y55945D01*
X73760D01*
X73957Y55748D01*
X74006D01*
X78100Y34498D02*
X78051Y34449D01*
Y34350D01*
X78100Y34301D01*
X78297D01*
X78346Y34350D01*
Y34449D01*
X78297Y34498D01*
X78346Y34744D02*
X78051D01*
X78199Y34596D01*
Y34793D01*
X78100Y34892D02*
X78051Y34941D01*
Y35039D01*
X78100Y35088D01*
X78150D01*
X78199Y35039D01*
Y34990D01*
Y35039D01*
X78248Y35088D01*
X78297D01*
X78346Y35039D01*
Y34941D01*
X78297Y34892D01*
X68366Y62382D02*
X68317Y62333D01*
Y62234D01*
X68366Y62185D01*
X68563D01*
X68612Y62234D01*
Y62333D01*
X68563Y62382D01*
X68612Y62628D02*
X68317D01*
X68465Y62480D01*
Y62677D01*
X68366Y62775D02*
X68317Y62825D01*
Y62923D01*
X68366Y62972D01*
X68415D01*
X68465Y62923D01*
Y62874D01*
Y62923D01*
X68514Y62972D01*
X68563D01*
X68612Y62923D01*
Y62825D01*
X68563Y62775D01*
X75768Y47362D02*
X75719Y47313D01*
Y47215D01*
X75768Y47165D01*
X75965D01*
X76014Y47215D01*
Y47313D01*
X75965Y47362D01*
X76014Y47608D02*
X75719D01*
X75866Y47461D01*
Y47657D01*
X75768Y47756D02*
X75719Y47805D01*
Y47903D01*
X75768Y47952D01*
X75965D01*
X76014Y47903D01*
Y47805D01*
X75965Y47756D01*
X75768D01*
X78100Y46496D02*
X78051Y46447D01*
Y46348D01*
X78100Y46299D01*
X78297D01*
X78346Y46348D01*
Y46447D01*
X78297Y46496D01*
X78100Y46594D02*
X78051Y46644D01*
Y46742D01*
X78100Y46791D01*
X78150D01*
X78199Y46742D01*
Y46693D01*
Y46742D01*
X78248Y46791D01*
X78297D01*
X78346Y46742D01*
Y46644D01*
X78297Y46594D01*
Y46890D02*
X78346Y46939D01*
Y47037D01*
X78297Y47086D01*
X78100D01*
X78051Y47037D01*
Y46939D01*
X78100Y46890D01*
X78150D01*
X78199Y46939D01*
Y47086D01*
X76014Y51230D02*
X75965Y51181D01*
Y51083D01*
X76014Y51033D01*
X76211D01*
X76260Y51083D01*
Y51181D01*
X76211Y51230D01*
X76014Y51329D02*
X75965Y51378D01*
Y51476D01*
X76014Y51525D01*
X76063D01*
X76112Y51476D01*
Y51427D01*
Y51476D01*
X76161Y51525D01*
X76211D01*
X76260Y51476D01*
Y51378D01*
X76211Y51329D01*
X76014Y51624D02*
X75965Y51673D01*
Y51771D01*
X76014Y51821D01*
X76063D01*
X76112Y51771D01*
X76161Y51821D01*
X76211D01*
X76260Y51771D01*
Y51673D01*
X76211Y51624D01*
X76161D01*
X76112Y51673D01*
X76063Y51624D01*
X76014D01*
X76112Y51673D02*
Y51771D01*
X78120Y50167D02*
X78071Y50118D01*
Y50020D01*
X78120Y49970D01*
X78317D01*
X78366Y50020D01*
Y50118D01*
X78317Y50167D01*
X78120Y50266D02*
X78071Y50315D01*
Y50413D01*
X78120Y50462D01*
X78169D01*
X78219Y50413D01*
Y50364D01*
Y50413D01*
X78268Y50462D01*
X78317D01*
X78366Y50413D01*
Y50315D01*
X78317Y50266D01*
X78071Y50561D02*
Y50758D01*
X78120D01*
X78317Y50561D01*
X78366D01*
X77342Y47963D02*
X77293Y48012D01*
X77195D01*
X77146Y47963D01*
Y47766D01*
X77195Y47717D01*
X77293D01*
X77342Y47766D01*
X77441Y47963D02*
X77490Y48012D01*
X77588D01*
X77638Y47963D01*
Y47913D01*
X77588Y47864D01*
X77539D01*
X77588D01*
X77638Y47815D01*
Y47766D01*
X77588Y47717D01*
X77490D01*
X77441Y47766D01*
X77933Y48012D02*
X77834Y47963D01*
X77736Y47864D01*
Y47766D01*
X77785Y47717D01*
X77884D01*
X77933Y47766D01*
Y47815D01*
X77884Y47864D01*
X77736D01*
X77372Y51909D02*
X77323Y51959D01*
X77224D01*
X77175Y51909D01*
Y51713D01*
X77224Y51663D01*
X77323D01*
X77372Y51713D01*
X77470Y51909D02*
X77520Y51959D01*
X77618D01*
X77667Y51909D01*
Y51860D01*
X77618Y51811D01*
X77569D01*
X77618D01*
X77667Y51762D01*
Y51713D01*
X77618Y51663D01*
X77520D01*
X77470Y51713D01*
X77962Y51959D02*
X77766D01*
Y51811D01*
X77864Y51860D01*
X77913D01*
X77962Y51811D01*
Y51713D01*
X77913Y51663D01*
X77815D01*
X77766Y51713D01*
X76329Y46102D02*
X76279Y46151D01*
X76181D01*
X76132Y46102D01*
Y45905D01*
X76181Y45856D01*
X76279D01*
X76329Y45905D01*
X76427Y46102D02*
X76476Y46151D01*
X76575D01*
X76624Y46102D01*
Y46053D01*
X76575Y46004D01*
X76525D01*
X76575D01*
X76624Y45955D01*
Y45905D01*
X76575Y45856D01*
X76476D01*
X76427Y45905D01*
X76722Y45856D02*
X76821D01*
X76771D01*
Y46151D01*
X76722Y46102D01*
X76339Y49901D02*
X76289Y49951D01*
X76191D01*
X76142Y49901D01*
Y49705D01*
X76191Y49656D01*
X76289D01*
X76339Y49705D01*
X76437Y49901D02*
X76486Y49951D01*
X76585D01*
X76634Y49901D01*
Y49852D01*
X76585Y49803D01*
X76535D01*
X76585D01*
X76634Y49754D01*
Y49705D01*
X76585Y49656D01*
X76486D01*
X76437Y49705D01*
X76732Y49901D02*
X76781Y49951D01*
X76880D01*
X76929Y49901D01*
Y49705D01*
X76880Y49656D01*
X76781D01*
X76732Y49705D01*
Y49901D01*
X62500Y50974D02*
X62451Y50925D01*
Y50827D01*
X62500Y50778D01*
X62697D01*
X62746Y50827D01*
Y50925D01*
X62697Y50974D01*
X62500Y51073D02*
X62451Y51122D01*
Y51220D01*
X62500Y51270D01*
X62549D01*
X62598Y51220D01*
Y51171D01*
Y51220D01*
X62648Y51270D01*
X62697D01*
X62746Y51220D01*
Y51122D01*
X62697Y51073D01*
X62746Y51516D02*
X62451D01*
X62598Y51368D01*
Y51565D01*
X71624Y52520D02*
X71575Y52569D01*
X71476D01*
X71427Y52520D01*
Y52323D01*
X71476Y52274D01*
X71575D01*
X71624Y52323D01*
X71919Y52274D02*
X71722D01*
X71919Y52470D01*
Y52520D01*
X71870Y52569D01*
X71772D01*
X71722Y52520D01*
X72018D02*
X72067Y52569D01*
X72165D01*
X72214Y52520D01*
Y52470D01*
X72165Y52421D01*
X72214Y52372D01*
Y52323D01*
X72165Y52274D01*
X72067D01*
X72018Y52323D01*
Y52372D01*
X72067Y52421D01*
X72018Y52470D01*
Y52520D01*
X72067Y52421D02*
X72165D01*
X78179Y45000D02*
X78130Y44951D01*
Y44852D01*
X78179Y44803D01*
X78376D01*
X78425Y44852D01*
Y44951D01*
X78376Y45000D01*
X78425Y45098D02*
Y45197D01*
Y45148D01*
X78130D01*
X78179Y45098D01*
X78376Y45344D02*
X78425Y45394D01*
Y45492D01*
X78376Y45541D01*
X78179D01*
X78130Y45492D01*
Y45394D01*
X78179Y45344D01*
X78228D01*
X78278Y45394D01*
Y45541D01*
X76053Y52854D02*
X76004Y52903D01*
X75905D01*
X75856Y52854D01*
Y52657D01*
X75905Y52608D01*
X76004D01*
X76053Y52657D01*
X76151Y52608D02*
X76250D01*
X76201D01*
Y52903D01*
X76151Y52854D01*
X76397D02*
X76447Y52903D01*
X76545D01*
X76594Y52854D01*
Y52805D01*
X76545Y52756D01*
X76594Y52707D01*
Y52657D01*
X76545Y52608D01*
X76447D01*
X76397Y52657D01*
Y52707D01*
X76447Y52756D01*
X76397Y52805D01*
Y52854D01*
X76447Y52756D02*
X76545D01*
X69459Y44872D02*
X69409Y44921D01*
X69311D01*
X69262Y44872D01*
Y44675D01*
X69311Y44626D01*
X69409D01*
X69459Y44675D01*
X69557Y44626D02*
X69655D01*
X69606D01*
Y44921D01*
X69557Y44872D01*
X69803D02*
X69852Y44921D01*
X69951D01*
X70000Y44872D01*
Y44823D01*
X69951Y44774D01*
X69901D01*
X69951D01*
X70000Y44724D01*
Y44675D01*
X69951Y44626D01*
X69852D01*
X69803Y44675D01*
X68514Y50276D02*
X68465Y50226D01*
Y50128D01*
X68514Y50079D01*
X68711D01*
X68760Y50128D01*
Y50226D01*
X68711Y50276D01*
X68760Y50374D02*
Y50472D01*
Y50423D01*
X68465D01*
X68514Y50374D01*
X68760Y50817D02*
Y50620D01*
X68563Y50817D01*
X68514D01*
X68465Y50767D01*
Y50669D01*
X68514Y50620D01*
X75827Y66929D02*
X75778Y66978D01*
X75679D01*
X75630Y66929D01*
Y66732D01*
X75679Y66683D01*
X75778D01*
X75827Y66732D01*
X75925Y66683D02*
X76024D01*
X75974D01*
Y66978D01*
X75925Y66929D01*
X76171Y66683D02*
X76269D01*
X76220D01*
Y66978D01*
X76171Y66929D01*
X63406Y60394D02*
X63356Y60344D01*
Y60246D01*
X63406Y60197D01*
X63602D01*
X63652Y60246D01*
Y60344D01*
X63602Y60394D01*
Y60492D02*
X63652Y60541D01*
Y60640D01*
X63602Y60689D01*
X63406D01*
X63356Y60640D01*
Y60541D01*
X63406Y60492D01*
X63455D01*
X63504Y60541D01*
Y60689D01*
X61644Y53287D02*
X61595Y53238D01*
Y53140D01*
X61644Y53091D01*
X61841D01*
X61890Y53140D01*
Y53238D01*
X61841Y53287D01*
X61890Y53386D02*
Y53484D01*
Y53435D01*
X61595D01*
X61644Y53386D01*
Y53632D02*
X61595Y53681D01*
Y53779D01*
X61644Y53829D01*
X61841D01*
X61890Y53779D01*
Y53681D01*
X61841Y53632D01*
X61644D01*
X65020Y56880D02*
X64970Y56929D01*
X64872D01*
X64823Y56880D01*
Y56683D01*
X64872Y56634D01*
X64970D01*
X65020Y56683D01*
X65118Y56929D02*
X65315D01*
Y56880D01*
X65118Y56683D01*
Y56634D01*
X78405Y64665D02*
X78356Y64714D01*
X78258D01*
X78209Y64665D01*
Y64468D01*
X78258Y64419D01*
X78356D01*
X78405Y64468D01*
X78651Y64419D02*
Y64714D01*
X78504Y64567D01*
X78701D01*
X65413Y31604D02*
X65364Y31555D01*
Y31457D01*
X65413Y31407D01*
X65610D01*
X65659Y31457D01*
Y31555D01*
X65610Y31604D01*
X65364Y31899D02*
X65413Y31801D01*
X65512Y31703D01*
X65610D01*
X65659Y31752D01*
Y31850D01*
X65610Y31899D01*
X65561D01*
X65512Y31850D01*
Y31703D01*
X61909Y62392D02*
X61860Y62441D01*
X61762D01*
X61713Y62392D01*
Y62195D01*
X61762Y62146D01*
X61860D01*
X61909Y62195D01*
X62205Y62146D02*
X62008D01*
X62205Y62342D01*
Y62392D01*
X62155Y62441D01*
X62057D01*
X62008Y62392D01*
X64075Y53307D02*
X64026Y53258D01*
Y53159D01*
X64075Y53110D01*
X64272D01*
X64321Y53159D01*
Y53258D01*
X64272Y53307D01*
X64075Y53405D02*
X64026Y53455D01*
Y53553D01*
X64075Y53602D01*
X64124D01*
X64173Y53553D01*
Y53504D01*
Y53553D01*
X64222Y53602D01*
X64272D01*
X64321Y53553D01*
Y53455D01*
X64272Y53405D01*
X65266Y57598D02*
X65217Y57549D01*
Y57451D01*
X65266Y57402D01*
X65463D01*
X65512Y57451D01*
Y57549D01*
X65463Y57598D01*
X65512Y57697D02*
Y57795D01*
Y57746D01*
X65217D01*
X65266Y57697D01*
X71811Y56004D02*
Y55709D01*
X72008D01*
X72303D02*
X72106D01*
X72303Y55905D01*
Y55955D01*
X72254Y56004D01*
X72155D01*
X72106Y55955D01*
X72401D02*
X72451Y56004D01*
X72549D01*
X72598Y55955D01*
Y55758D01*
X72549Y55709D01*
X72451D01*
X72401Y55758D01*
Y55955D01*
X74144Y41614D02*
Y41319D01*
X74340D01*
X74636D02*
X74439D01*
X74636Y41516D01*
Y41565D01*
X74586Y41614D01*
X74488D01*
X74439Y41565D01*
X74734D02*
X74783Y41614D01*
X74882D01*
X74931Y41565D01*
Y41368D01*
X74882Y41319D01*
X74783D01*
X74734Y41368D01*
Y41565D01*
X77549Y50846D02*
Y51142D01*
X77697D01*
X77746Y51092D01*
Y50994D01*
X77697Y50945D01*
X77549D01*
X77648D02*
X77746Y50846D01*
X77844Y51092D02*
X77894Y51142D01*
X77992D01*
X78041Y51092D01*
Y51043D01*
X77992Y50994D01*
X77943D01*
X77992D01*
X78041Y50945D01*
Y50896D01*
X77992Y50846D01*
X77894D01*
X77844Y50896D01*
X78140Y51092D02*
X78189Y51142D01*
X78287D01*
X78336Y51092D01*
Y50896D01*
X78287Y50846D01*
X78189D01*
X78140Y50896D01*
Y51092D01*
X77421Y47283D02*
Y47579D01*
X77569D01*
X77618Y47529D01*
Y47431D01*
X77569Y47382D01*
X77421D01*
X77520D02*
X77618Y47283D01*
X77716Y47529D02*
X77766Y47579D01*
X77864D01*
X77913Y47529D01*
Y47480D01*
X77864Y47431D01*
X77815D01*
X77864D01*
X77913Y47382D01*
Y47333D01*
X77864Y47283D01*
X77766D01*
X77716Y47333D01*
X78012Y47283D02*
X78110D01*
X78061D01*
Y47579D01*
X78012Y47529D01*
X64065Y51319D02*
X64360D01*
Y51516D01*
Y51614D02*
Y51712D01*
Y51663D01*
X64065D01*
X64114Y51614D01*
Y51860D02*
X64065Y51909D01*
Y52008D01*
X64114Y52057D01*
X64311D01*
X64360Y52008D01*
Y51909D01*
X64311Y51860D01*
X64114D01*
X72579Y50551D02*
X72530Y50502D01*
Y50404D01*
X72579Y50354D01*
X72776D01*
X72825Y50404D01*
Y50502D01*
X72776Y50551D01*
X72825Y50846D02*
Y50650D01*
X72628Y50846D01*
X72579D01*
X72530Y50797D01*
Y50699D01*
X72579Y50650D01*
X72825Y51141D02*
Y50945D01*
X72628Y51141D01*
X72579D01*
X72530Y51092D01*
Y50994D01*
X72579Y50945D01*
X72520Y46900D02*
X72471Y46850D01*
Y46752D01*
X72520Y46703D01*
X72717D01*
X72766Y46752D01*
Y46850D01*
X72717Y46900D01*
X72766Y47195D02*
Y46998D01*
X72569Y47195D01*
X72520D01*
X72471Y47146D01*
Y47047D01*
X72520Y46998D01*
Y47293D02*
X72471Y47342D01*
Y47441D01*
X72520Y47490D01*
X72569D01*
X72618Y47441D01*
Y47392D01*
Y47441D01*
X72667Y47490D01*
X72717D01*
X72766Y47441D01*
Y47342D01*
X72717Y47293D01*
X74636Y52372D02*
X74587Y52421D01*
X74488D01*
X74439Y52372D01*
Y52175D01*
X74488Y52126D01*
X74587D01*
X74636Y52175D01*
X74931Y52126D02*
X74734D01*
X74931Y52323D01*
Y52372D01*
X74882Y52421D01*
X74783D01*
X74734Y52372D01*
X75029D02*
X75079Y52421D01*
X75177D01*
X75226Y52372D01*
Y52175D01*
X75177Y52126D01*
X75079D01*
X75029Y52175D01*
Y52372D01*
X74626Y48563D02*
X74577Y48612D01*
X74478D01*
X74429Y48563D01*
Y48366D01*
X74478Y48317D01*
X74577D01*
X74626Y48366D01*
X74921Y48317D02*
X74724D01*
X74921Y48514D01*
Y48563D01*
X74872Y48612D01*
X74774D01*
X74724Y48563D01*
X75019Y48317D02*
X75118D01*
X75069D01*
Y48612D01*
X75019Y48563D01*
X72884Y49990D02*
X72835Y50039D01*
X72736D01*
X72687Y49990D01*
Y49793D01*
X72736Y49744D01*
X72835D01*
X72884Y49793D01*
X73179Y49744D02*
X72982D01*
X73179Y49941D01*
Y49990D01*
X73130Y50039D01*
X73031D01*
X72982Y49990D01*
X73474Y50039D02*
X73376Y49990D01*
X73277Y49892D01*
Y49793D01*
X73327Y49744D01*
X73425D01*
X73474Y49793D01*
Y49842D01*
X73425Y49892D01*
X73277D01*
X72815Y46211D02*
X72766Y46260D01*
X72667D01*
X72618Y46211D01*
Y46014D01*
X72667Y45965D01*
X72766D01*
X72815Y46014D01*
X73110Y45965D02*
X72913D01*
X73110Y46161D01*
Y46211D01*
X73061Y46260D01*
X72962D01*
X72913Y46211D01*
X73208Y46260D02*
X73405D01*
Y46211D01*
X73208Y46014D01*
Y45965D01*
X72195Y50610D02*
X72146Y50561D01*
Y50463D01*
X72195Y50413D01*
X72392D01*
X72441Y50463D01*
Y50561D01*
X72392Y50610D01*
X72441Y50905D02*
Y50709D01*
X72244Y50905D01*
X72195D01*
X72146Y50856D01*
Y50758D01*
X72195Y50709D01*
X72441Y51151D02*
X72146D01*
X72293Y51004D01*
Y51201D01*
X71634Y47992D02*
X71585Y48041D01*
X71486D01*
X71437Y47992D01*
Y47795D01*
X71486Y47746D01*
X71585D01*
X71634Y47795D01*
X71929Y47746D02*
X71732D01*
X71929Y47943D01*
Y47992D01*
X71880Y48041D01*
X71781D01*
X71732Y47992D01*
X72224Y48041D02*
X72027D01*
Y47894D01*
X72126Y47943D01*
X72175D01*
X72224Y47894D01*
Y47795D01*
X72175Y47746D01*
X72077D01*
X72027Y47795D01*
X73386Y50276D02*
X73681D01*
Y50472D01*
Y50718D02*
X73386D01*
X73534Y50571D01*
Y50768D01*
X73445Y46516D02*
X73740D01*
Y46713D01*
X73445Y47008D02*
Y46811D01*
X73593D01*
X73543Y46909D01*
Y46959D01*
X73593Y47008D01*
X73691D01*
X73740Y46959D01*
Y46860D01*
X73691Y46811D01*
X73258Y49094D02*
Y48799D01*
X73455D01*
X73750Y49094D02*
X73651Y49045D01*
X73553Y48947D01*
Y48848D01*
X73602Y48799D01*
X73701D01*
X73750Y48848D01*
Y48898D01*
X73701Y48947D01*
X73553D01*
X73130Y45236D02*
Y44941D01*
X73327D01*
X73425Y45236D02*
X73622D01*
Y45187D01*
X73425Y44990D01*
Y44941D01*
X74557Y49975D02*
X74754D01*
Y49926D01*
X74557Y49729D01*
Y49680D01*
X74754D01*
X74852D02*
X74951D01*
X74901D01*
Y49975D01*
X74852Y49926D01*
X74341Y45187D02*
X74537D01*
Y45138D01*
X74341Y44941D01*
Y44892D01*
X74537D01*
X74833D02*
X74636D01*
X74833Y45089D01*
Y45138D01*
X74783Y45187D01*
X74685D01*
X74636Y45138D01*
X66831Y42421D02*
X66781Y42470D01*
X66683D01*
X66634Y42421D01*
Y42224D01*
X66683Y42175D01*
X66781D01*
X66831Y42224D01*
X66929Y42421D02*
X66978Y42470D01*
X67077D01*
X67126Y42421D01*
Y42372D01*
X67077Y42323D01*
X67126Y42274D01*
Y42224D01*
X67077Y42175D01*
X66978D01*
X66929Y42224D01*
Y42274D01*
X66978Y42323D01*
X66929Y42372D01*
Y42421D01*
X66978Y42323D02*
X67077D01*
X67156Y34882D02*
X66860D01*
Y35029D01*
X66910Y35079D01*
X67008D01*
X67057Y35029D01*
Y34882D01*
Y34980D02*
X67156Y35079D01*
X67106Y35177D02*
X67156Y35226D01*
Y35325D01*
X67106Y35374D01*
X66910D01*
X66860Y35325D01*
Y35226D01*
X66910Y35177D01*
X66959D01*
X67008Y35226D01*
Y35374D01*
X67165Y36791D02*
X66870D01*
Y36939D01*
X66919Y36988D01*
X67018D01*
X67067Y36939D01*
Y36791D01*
Y36890D02*
X67165Y36988D01*
Y37087D02*
Y37185D01*
Y37136D01*
X66870D01*
X66919Y37087D01*
Y37332D02*
X66870Y37382D01*
Y37480D01*
X66919Y37529D01*
X67116D01*
X67165Y37480D01*
Y37382D01*
X67116Y37332D01*
X66919D01*
X67185Y38760D02*
X66890D01*
Y38907D01*
X66939Y38957D01*
X67037D01*
X67087Y38907D01*
Y38760D01*
Y38858D02*
X67185Y38957D01*
Y39055D02*
Y39153D01*
Y39104D01*
X66890D01*
X66939Y39055D01*
X67185Y39498D02*
Y39301D01*
X66988Y39498D01*
X66939D01*
X66890Y39449D01*
Y39350D01*
X66939Y39301D01*
X67165Y40709D02*
X66870D01*
Y40856D01*
X66919Y40905D01*
X67018D01*
X67067Y40856D01*
Y40709D01*
Y40807D02*
X67165Y40905D01*
Y41004D02*
Y41102D01*
Y41053D01*
X66870D01*
X66919Y41004D01*
X67165Y41397D02*
X66870D01*
X67018Y41250D01*
Y41447D01*
X65689Y41152D02*
X65394D01*
Y41299D01*
X65443Y41348D01*
X65541D01*
X65591Y41299D01*
Y41152D01*
Y41250D02*
X65689Y41348D01*
Y41447D02*
Y41545D01*
Y41496D01*
X65394D01*
X65443Y41447D01*
X65640Y41693D02*
X65689Y41742D01*
Y41840D01*
X65640Y41890D01*
X65443D01*
X65394Y41840D01*
Y41742D01*
X65443Y41693D01*
X65492D01*
X65541Y41742D01*
Y41890D01*
X65689Y39173D02*
X65394D01*
Y39321D01*
X65443Y39370D01*
X65541D01*
X65591Y39321D01*
Y39173D01*
Y39272D02*
X65689Y39370D01*
Y39665D02*
Y39468D01*
X65492Y39665D01*
X65443D01*
X65394Y39616D01*
Y39518D01*
X65443Y39468D01*
Y39764D02*
X65394Y39813D01*
Y39911D01*
X65443Y39960D01*
X65640D01*
X65689Y39911D01*
Y39813D01*
X65640Y39764D01*
X65443D01*
X65689Y37205D02*
X65394D01*
Y37352D01*
X65443Y37402D01*
X65541D01*
X65591Y37352D01*
Y37205D01*
Y37303D02*
X65689Y37402D01*
Y37697D02*
Y37500D01*
X65492Y37697D01*
X65443D01*
X65394Y37647D01*
Y37549D01*
X65443Y37500D01*
X65689Y37795D02*
Y37893D01*
Y37844D01*
X65394D01*
X65443Y37795D01*
X65669Y35256D02*
X65374D01*
Y35403D01*
X65423Y35453D01*
X65522D01*
X65571Y35403D01*
Y35256D01*
Y35354D02*
X65669Y35453D01*
Y35748D02*
Y35551D01*
X65472Y35748D01*
X65423D01*
X65374Y35699D01*
Y35600D01*
X65423Y35551D01*
X65669Y36043D02*
Y35846D01*
X65472Y36043D01*
X65423D01*
X65374Y35994D01*
Y35895D01*
X65423Y35846D01*
X63474Y42785D02*
X63720D01*
X63770Y42835D01*
Y42933D01*
X63720Y42982D01*
X63474D01*
X63524Y43081D02*
X63474Y43130D01*
Y43228D01*
X63524Y43277D01*
X63573D01*
X63622Y43228D01*
Y43179D01*
Y43228D01*
X63671Y43277D01*
X63720D01*
X63770Y43228D01*
Y43130D01*
X63720Y43081D01*
X65846Y40620D02*
X66043Y40325D01*
Y40620D02*
X65846Y40325D01*
X66338Y40620D02*
X66240Y40571D01*
X66142Y40472D01*
Y40374D01*
X66191Y40325D01*
X66289D01*
X66338Y40374D01*
Y40423D01*
X66289Y40472D01*
X66142D01*
X65778Y38632D02*
X65974Y38337D01*
Y38632D02*
X65778Y38337D01*
X66073Y38632D02*
X66270D01*
Y38583D01*
X66073Y38386D01*
Y38337D01*
X65797Y36673D02*
X65994Y36378D01*
Y36673D02*
X65797Y36378D01*
X66092Y36624D02*
X66142Y36673D01*
X66240D01*
X66289Y36624D01*
Y36575D01*
X66240Y36526D01*
X66289Y36476D01*
Y36427D01*
X66240Y36378D01*
X66142D01*
X66092Y36427D01*
Y36476D01*
X66142Y36526D01*
X66092Y36575D01*
Y36624D01*
X66142Y36526D02*
X66240D01*
X65738Y34626D02*
X65935Y34331D01*
Y34626D02*
X65738Y34331D01*
X66033Y34380D02*
X66083Y34331D01*
X66181D01*
X66230Y34380D01*
Y34577D01*
X66181Y34626D01*
X66083D01*
X66033Y34577D01*
Y34527D01*
X66083Y34478D01*
X66230D01*
X76654Y41230D02*
Y40984D01*
X76703Y40935D01*
X76801D01*
X76850Y40984D01*
Y41230D01*
X76949Y40935D02*
X77047D01*
X76998D01*
Y41230D01*
X76949Y41181D01*
X77195D02*
X77244Y41230D01*
X77342D01*
X77392Y41181D01*
Y41132D01*
X77342Y41083D01*
X77293D01*
X77342D01*
X77392Y41033D01*
Y40984D01*
X77342Y40935D01*
X77244D01*
X77195Y40984D01*
X70266Y57805D02*
Y57559D01*
X70315Y57510D01*
X70413D01*
X70463Y57559D01*
Y57805D01*
X70561Y57510D02*
X70659D01*
X70610D01*
Y57805D01*
X70561Y57756D01*
X70807D02*
X70856Y57805D01*
X70954D01*
X71004Y57756D01*
Y57707D01*
X70954Y57657D01*
X70905D01*
X70954D01*
X71004Y57608D01*
Y57559D01*
X70954Y57510D01*
X70856D01*
X70807Y57559D01*
X70364Y52431D02*
Y52185D01*
X70413Y52136D01*
X70512D01*
X70561Y52185D01*
Y52431D01*
X70659D02*
X70856D01*
Y52382D01*
X70659Y52185D01*
Y52136D01*
X69203Y47785D02*
Y47539D01*
X69252Y47490D01*
X69350D01*
X69400Y47539D01*
Y47785D01*
X69498Y47736D02*
X69547Y47785D01*
X69646D01*
X69695Y47736D01*
Y47687D01*
X69646Y47638D01*
X69695Y47589D01*
Y47539D01*
X69646Y47490D01*
X69547D01*
X69498Y47539D01*
Y47589D01*
X69547Y47638D01*
X69498Y47687D01*
Y47736D01*
X69547Y47638D02*
X69646D01*
X73100Y34134D02*
X73051Y34183D01*
X72953D01*
X72904Y34134D01*
Y33937D01*
X72953Y33888D01*
X73051D01*
X73100Y33937D01*
X73494Y34183D02*
Y33888D01*
X73642D01*
X73691Y33937D01*
Y34134D01*
X73642Y34183D01*
X73494D01*
X74084D02*
Y33888D01*
X74281D01*
X68543Y39783D02*
Y39980D01*
X68445Y39882D02*
X68642D01*
X68445Y40079D02*
X68396Y40128D01*
Y40226D01*
X68445Y40275D01*
X68494D01*
X68543Y40226D01*
Y40177D01*
Y40226D01*
X68593Y40275D01*
X68642D01*
X68691Y40226D01*
Y40128D01*
X68642Y40079D01*
X68691Y40374D02*
X68642D01*
Y40423D01*
X68691D01*
Y40374D01*
X68445Y40620D02*
X68396Y40669D01*
Y40767D01*
X68445Y40817D01*
X68494D01*
X68543Y40767D01*
Y40718D01*
Y40767D01*
X68593Y40817D01*
X68642D01*
X68691Y40767D01*
Y40669D01*
X68642Y40620D01*
X68396Y40915D02*
X68593D01*
X68691Y41013D01*
X68593Y41112D01*
X68396D01*
X70285Y39744D02*
X70482D01*
X70384Y39842D02*
Y39646D01*
X70581Y39842D02*
X70630Y39892D01*
X70728D01*
X70777Y39842D01*
Y39793D01*
X70728Y39744D01*
X70679D01*
X70728D01*
X70777Y39695D01*
Y39646D01*
X70728Y39596D01*
X70630D01*
X70581Y39646D01*
X70876Y39596D02*
Y39646D01*
X70925D01*
Y39596D01*
X70876D01*
X71122Y39842D02*
X71171Y39892D01*
X71269D01*
X71319Y39842D01*
Y39793D01*
X71269Y39744D01*
X71220D01*
X71269D01*
X71319Y39695D01*
Y39646D01*
X71269Y39596D01*
X71171D01*
X71122Y39646D01*
X71417Y39892D02*
Y39695D01*
X71515Y39596D01*
X71614Y39695D01*
Y39892D01*
X78169Y56270D02*
Y56466D01*
X78071Y56368D02*
X78268D01*
X78071Y56565D02*
X78022Y56614D01*
Y56712D01*
X78071Y56762D01*
X78120D01*
X78169Y56712D01*
Y56663D01*
Y56712D01*
X78219Y56762D01*
X78268D01*
X78317Y56712D01*
Y56614D01*
X78268Y56565D01*
X78317Y56860D02*
X78268D01*
Y56909D01*
X78317D01*
Y56860D01*
X78071Y57106D02*
X78022Y57155D01*
Y57254D01*
X78071Y57303D01*
X78120D01*
X78169Y57254D01*
Y57204D01*
Y57254D01*
X78219Y57303D01*
X78268D01*
X78317Y57254D01*
Y57155D01*
X78268Y57106D01*
X78022Y57401D02*
X78219D01*
X78317Y57500D01*
X78219Y57598D01*
X78022D01*
X75012Y57492D02*
X75209D01*
X75111Y57590D02*
Y57394D01*
X75308Y57590D02*
X75357Y57640D01*
X75455D01*
X75504Y57590D01*
Y57541D01*
X75455Y57492D01*
X75406D01*
X75455D01*
X75504Y57443D01*
Y57394D01*
X75455Y57344D01*
X75357D01*
X75308Y57394D01*
X75603Y57344D02*
Y57394D01*
X75652D01*
Y57344D01*
X75603D01*
X75849Y57590D02*
X75898Y57640D01*
X75996D01*
X76046Y57590D01*
Y57541D01*
X75996Y57492D01*
X75947D01*
X75996D01*
X76046Y57443D01*
Y57394D01*
X75996Y57344D01*
X75898D01*
X75849Y57394D01*
X76144Y57640D02*
Y57443D01*
X76242Y57344D01*
X76341Y57443D01*
Y57640D01*
X72470Y63356D02*
Y63061D01*
X72667D01*
X73061Y63356D02*
Y63061D01*
X73208D01*
X73258Y63110D01*
Y63307D01*
X73208Y63356D01*
X73061D01*
X73848Y63307D02*
X73799Y63356D01*
X73700D01*
X73651Y63307D01*
Y63110D01*
X73700Y63061D01*
X73799D01*
X73848Y63110D01*
X61367Y56475D02*
Y56672D01*
X61269Y56574D02*
X61466D01*
X61220Y56967D02*
Y56771D01*
X61367D01*
X61318Y56869D01*
Y56918D01*
X61367Y56967D01*
X61466D01*
X61515Y56918D01*
Y56820D01*
X61466Y56771D01*
X61220Y57066D02*
X61416D01*
X61515Y57164D01*
X61416Y57263D01*
X61220D01*
X64419Y54400D02*
X64616D01*
X64518Y54498D02*
Y54301D01*
X64714Y54498D02*
X64764Y54547D01*
X64862D01*
X64911Y54498D01*
Y54449D01*
X64862Y54400D01*
X64813D01*
X64862D01*
X64911Y54350D01*
Y54301D01*
X64862Y54252D01*
X64764D01*
X64714Y54301D01*
X65010Y54252D02*
Y54301D01*
X65059D01*
Y54252D01*
X65010D01*
X65256Y54498D02*
X65305Y54547D01*
X65403D01*
X65452Y54498D01*
Y54449D01*
X65403Y54400D01*
X65354D01*
X65403D01*
X65452Y54350D01*
Y54301D01*
X65403Y54252D01*
X65305D01*
X65256Y54301D01*
X65551Y54547D02*
Y54350D01*
X65649Y54252D01*
X65748Y54350D01*
Y54547D01*
X71211Y65246D02*
X71309D01*
X71260D01*
Y64951D01*
X71211D01*
X71309D01*
X71653Y65246D02*
X71457D01*
Y65098D01*
X71555D01*
X71457D01*
Y64951D01*
X71752Y64902D02*
X71949D01*
X72195Y65246D02*
X72096D01*
X72047Y65197D01*
Y65000D01*
X72096Y64951D01*
X72195D01*
X72244Y65000D01*
Y65197D01*
X72195Y65246D01*
X72342D02*
Y65000D01*
X72391Y64951D01*
X72490D01*
X72539Y65000D01*
Y65246D01*
X72637D02*
X72834D01*
X72736D01*
Y64951D01*
X72933D02*
X73031D01*
X72982D01*
Y65246D01*
X72933Y65197D01*
X73346Y32303D02*
X73445D01*
X73396D01*
Y32008D01*
X73346D01*
X73445D01*
X73789Y32303D02*
X73592D01*
Y32155D01*
X73691D01*
X73592D01*
Y32008D01*
X73888Y31959D02*
X74084D01*
X74330Y32303D02*
X74232D01*
X74183Y32254D01*
Y32057D01*
X74232Y32008D01*
X74330D01*
X74380Y32057D01*
Y32254D01*
X74330Y32303D01*
X74478D02*
Y32057D01*
X74527Y32008D01*
X74626D01*
X74675Y32057D01*
Y32303D01*
X74773D02*
X74970D01*
X74872D01*
Y32008D01*
X75265D02*
X75068D01*
X75265Y32205D01*
Y32254D01*
X75216Y32303D01*
X75118D01*
X75068Y32254D01*
X79862Y52343D02*
X80157D01*
Y52539D01*
Y52638D02*
X79862D01*
X80157Y52834D01*
X79862D01*
X80157Y52933D02*
X79961D01*
X79862Y53031D01*
X79961Y53130D01*
X80157D01*
X80010D01*
Y52933D01*
Y53228D02*
Y53425D01*
X79862Y53523D02*
X80157D01*
Y53671D01*
X80108Y53720D01*
X79911D01*
X79862Y53671D01*
Y53523D01*
X80207Y53818D02*
Y54015D01*
X79862Y54114D02*
Y54212D01*
Y54163D01*
X80157D01*
Y54114D01*
Y54212D01*
Y54360D02*
X79862D01*
X80157Y54556D01*
X79862D01*
Y45512D02*
X80157D01*
Y45709D01*
Y45807D02*
X79862D01*
X80157Y46004D01*
X79862D01*
X80157Y46102D02*
X79961D01*
X79862Y46201D01*
X79961Y46299D01*
X80157D01*
X80010D01*
Y46102D01*
X80207Y46397D02*
Y46594D01*
X79862Y46693D02*
Y46791D01*
Y46742D01*
X80157D01*
Y46693D01*
Y46791D01*
Y46939D02*
X79862D01*
X80157Y47135D01*
X79862D01*
X64852Y59114D02*
Y59311D01*
X64754Y59213D02*
X64951D01*
X64705Y59606D02*
X64754Y59508D01*
X64852Y59409D01*
X64951D01*
X65000Y59459D01*
Y59557D01*
X64951Y59606D01*
X64902D01*
X64852Y59557D01*
Y59409D01*
X65000Y59705D02*
X64951D01*
Y59754D01*
X65000D01*
Y59705D01*
X64705Y60147D02*
Y59951D01*
X64852D01*
X64803Y60049D01*
Y60098D01*
X64852Y60147D01*
X64951D01*
X65000Y60098D01*
Y60000D01*
X64951Y59951D01*
X64705Y60246D02*
X64902D01*
X65000Y60344D01*
X64902Y60442D01*
X64705D01*
X65807Y39941D02*
Y40236D01*
X65955D01*
X66004Y40187D01*
Y40089D01*
X65955Y40039D01*
X65807D01*
X66299Y40236D02*
Y39941D01*
X66151D01*
X66102Y39990D01*
Y40089D01*
X66151Y40138D01*
X66299D01*
X66545Y39941D02*
X66447D01*
X66397Y39990D01*
Y40089D01*
X66447Y40138D01*
X66545D01*
X66594Y40089D01*
Y40039D01*
X66397D01*
X66742Y40187D02*
Y40138D01*
X66693D01*
X66791D01*
X66742D01*
Y39990D01*
X66791Y39941D01*
X66939D02*
X67037D01*
X66988D01*
Y40236D01*
X66939Y40187D01*
X65748Y37943D02*
Y38238D01*
X65896D01*
X65945Y38189D01*
Y38090D01*
X65896Y38041D01*
X65748D01*
X66240Y38238D02*
Y37943D01*
X66092D01*
X66043Y37992D01*
Y38090D01*
X66092Y38139D01*
X66240D01*
X66486Y37943D02*
X66388D01*
X66338Y37992D01*
Y38090D01*
X66388Y38139D01*
X66486D01*
X66535Y38090D01*
Y38041D01*
X66338D01*
X66683Y38189D02*
Y38139D01*
X66634D01*
X66732D01*
X66683D01*
Y37992D01*
X66732Y37943D01*
X67076D02*
X66880D01*
X67076Y38139D01*
Y38189D01*
X67027Y38238D01*
X66929D01*
X66880Y38189D01*
X65787Y36299D02*
Y36102D01*
X65886Y36004D01*
X65984Y36102D01*
Y36299D01*
X66279Y36201D02*
X66132D01*
X66083Y36152D01*
Y36053D01*
X66132Y36004D01*
X66279D01*
X66378D02*
Y36201D01*
X66525D01*
X66575Y36152D01*
Y36004D01*
X66722Y36250D02*
Y36201D01*
X66673D01*
X66771D01*
X66722D01*
Y36053D01*
X66771Y36004D01*
X66919D02*
X67017D01*
X66968D01*
Y36299D01*
X66919Y36250D01*
X65738Y34222D02*
Y34026D01*
X65837Y33927D01*
X65935Y34026D01*
Y34222D01*
X66230Y34124D02*
X66083D01*
X66033Y34075D01*
Y33976D01*
X66083Y33927D01*
X66230D01*
X66329D02*
Y34124D01*
X66476D01*
X66525Y34075D01*
Y33927D01*
X66673Y34173D02*
Y34124D01*
X66624D01*
X66722D01*
X66673D01*
Y33976D01*
X66722Y33927D01*
X67066D02*
X66870D01*
X67066Y34124D01*
Y34173D01*
X67017Y34222D01*
X66919D01*
X66870Y34173D01*
M02*
