%FSLAX43Y43*%
%MOMM*%
G71*
G01*
G75*
G04 Layer_Color=65535*
%ADD10R,1.000X0.700*%
%ADD11R,0.700X0.800*%
%ADD12R,0.700X1.000*%
%ADD13R,0.800X0.700*%
%ADD14R,0.700X0.800*%
%ADD15R,1.600X0.800*%
%ADD16R,0.800X0.800*%
%ADD17R,0.800X0.800*%
%ADD18R,0.450X0.250*%
%ADD19R,0.800X2.000*%
%ADD20R,1.500X0.760*%
%ADD21R,0.400X1.200*%
%ADD22R,2.600X1.900*%
%ADD23R,0.760X1.500*%
%ADD24R,1.200X0.400*%
%ADD25R,1.900X2.600*%
%ADD26R,0.600X2.000*%
%ADD27O,0.600X2.000*%
%ADD28R,2.600X2.600*%
%ADD29R,2.000X1.500*%
%ADD30R,2.000X1.500*%
%ADD31R,2.000X3.800*%
%ADD32R,0.600X1.270*%
%ADD33R,0.350X0.900*%
%ADD34R,1.000X0.700*%
%ADD35R,1.000X0.700*%
%ADD36R,1.100X2.200*%
%ADD37R,1.000X1.050*%
%ADD38R,2.200X1.100*%
%ADD39R,1.050X1.000*%
%ADD40R,0.840X1.600*%
%ADD41R,2.400X0.840*%
%ADD42R,1.600X0.840*%
%ADD43R,0.800X1.500*%
%ADD44R,0.800X2.250*%
%ADD45R,0.350X0.280*%
G04:AMPARAMS|DCode=46|XSize=0.3mm|YSize=0.65mm|CornerRadius=0.075mm|HoleSize=0mm|Usage=FLASHONLY|Rotation=0.000|XOffset=0mm|YOffset=0mm|HoleType=Round|Shape=RoundedRectangle|*
%AMROUNDEDRECTD46*
21,1,0.300,0.500,0,0,0.0*
21,1,0.150,0.650,0,0,0.0*
1,1,0.150,0.075,-0.250*
1,1,0.150,-0.075,-0.250*
1,1,0.150,-0.075,0.250*
1,1,0.150,0.075,0.250*
%
%ADD46ROUNDEDRECTD46*%
G04:AMPARAMS|DCode=47|XSize=0.3mm|YSize=0.65mm|CornerRadius=0.075mm|HoleSize=0mm|Usage=FLASHONLY|Rotation=270.000|XOffset=0mm|YOffset=0mm|HoleType=Round|Shape=RoundedRectangle|*
%AMROUNDEDRECTD47*
21,1,0.300,0.500,0,0,270.0*
21,1,0.150,0.650,0,0,270.0*
1,1,0.150,-0.250,-0.075*
1,1,0.150,-0.250,0.075*
1,1,0.150,0.250,0.075*
1,1,0.150,0.250,-0.075*
%
%ADD47ROUNDEDRECTD47*%
%ADD48R,3.300X3.300*%
%ADD49R,0.500X0.500*%
%ADD50R,1.270X0.640*%
%ADD51R,0.900X1.300*%
%ADD52C,0.750*%
%ADD53C,0.500*%
%ADD54C,0.250*%
%ADD55C,0.350*%
%ADD56C,0.965*%
%ADD57C,0.900*%
%ADD58C,0.700*%
%ADD59C,0.200*%
%ADD60C,0.300*%
%ADD61R,11.925X2.000*%
%ADD62R,6.200X2.000*%
%ADD63R,9.650X1.875*%
%ADD64R,2.000X30.000*%
%ADD65R,8.425X2.000*%
%ADD66R,18.025X2.000*%
%ADD67R,3.400X2.000*%
%ADD68R,24.500X1.950*%
%ADD69C,1.000*%
%ADD70R,4.000X4.000*%
%ADD71R,4.000X4.000*%
%ADD72C,0.500*%
%ADD73C,0.900*%
%ADD74C,0.700*%
%ADD75C,1.016*%
%ADD76C,1.900*%
G04:AMPARAMS|DCode=77|XSize=4.3mm|YSize=4.3mm|CornerRadius=0mm|HoleSize=0mm|Usage=FLASHONLY|Rotation=0.000|XOffset=0mm|YOffset=0mm|HoleType=Round|Shape=Relief|Width=0.5mm|Gap=0.25mm|Entries=4|*
%AMTHD77*
7,0,0,4.300,3.800,0.500,45*
%
%ADD77THD77*%
G04:AMPARAMS|DCode=78|XSize=1.754mm|YSize=1.754mm|CornerRadius=0mm|HoleSize=0mm|Usage=FLASHONLY|Rotation=0.000|XOffset=0mm|YOffset=0mm|HoleType=Round|Shape=Relief|Width=0.5mm|Gap=0.25mm|Entries=4|*
%AMTHD78*
7,0,0,1.754,1.254,0.500,45*
%
%ADD78THD78*%
%ADD79C,1.100*%
%ADD80C,0.345*%
%ADD81R,1.000X2.540*%
%ADD82C,0.600*%
%ADD83C,0.203*%
%ADD84C,0.100*%
%ADD85C,0.254*%
%ADD86C,0.152*%
%ADD87C,0.150*%
G54D54*
X161825Y119725D02*
G03*
X161825Y119725I-125J0D01*
G01*
X189275Y154555D02*
G03*
X189275Y154555I-125J0D01*
G01*
X183775Y93295D02*
G03*
X183775Y93295I-125J0D01*
G01*
X183091Y112058D02*
X182800Y112349D01*
X182217D01*
X181925Y112058D01*
Y110892D01*
X182217Y110600D01*
X182800D01*
X183091Y110892D01*
X183674Y112349D02*
Y110600D01*
Y111475D01*
X184841D01*
Y112349D01*
Y110600D01*
X186590D02*
X185424D01*
X186590Y111766D01*
Y112058D01*
X186299Y112349D01*
X185715D01*
X185424Y112058D01*
X186291Y137558D02*
X186000Y137849D01*
X185417D01*
X185125Y137558D01*
Y136392D01*
X185417Y136100D01*
X186000D01*
X186291Y136392D01*
X186874Y137849D02*
Y136100D01*
Y136975D01*
X188041D01*
Y137849D01*
Y136100D01*
X188624D02*
X189207D01*
X188915D01*
Y137849D01*
X188624Y137558D01*
G54D59*
X192300Y121975D02*
G03*
X192300Y121975I-100J0D01*
G01*
Y130050D02*
G03*
X192300Y130050I-100J0D01*
G01*
X199025Y168975D02*
G03*
X199025Y168975I-100J0D01*
G01*
X171333Y100675D02*
G03*
X171333Y100675I-158J0D01*
G01*
X189700Y121675D02*
X191700D01*
X189700Y123875D02*
X191700D01*
X180650Y117950D02*
X183350D01*
X180650D02*
Y118150D01*
X183350Y117950D02*
X184250D01*
Y118150D01*
X180650Y122150D02*
Y122350D01*
X181550D01*
X184250Y122150D02*
Y122350D01*
X181550D02*
X184250D01*
Y119650D02*
Y120650D01*
X189700Y129750D02*
X191700D01*
X189700Y131950D02*
X191700D01*
X186925Y123950D02*
Y126650D01*
X186725Y123950D02*
X186925D01*
Y126650D02*
Y127550D01*
X186725D02*
X186925D01*
X182525Y123950D02*
X182725D01*
X182525D02*
Y124850D01*
Y127550D02*
X182725D01*
X182525Y124850D02*
Y127550D01*
X184225D02*
X185225D01*
X161200Y120250D02*
X171700D01*
X161200Y128250D02*
X171700D01*
X161200Y120250D02*
Y128250D01*
X171700Y120250D02*
Y128250D01*
X159500Y160200D02*
Y167600D01*
X159100D02*
X159500D01*
X155200Y160200D02*
Y167600D01*
X155600D01*
X155700Y162500D02*
X159100D01*
X198725Y166875D02*
X198825D01*
Y168475D01*
X198725D02*
X198825D01*
X196425D02*
X196525D01*
X196425Y166875D02*
Y168475D01*
Y166875D02*
X196525D01*
X174545Y153732D02*
X174845Y154032D01*
X174545Y152032D02*
Y153732D01*
X174845Y154032D02*
X175270D01*
X179070Y148782D02*
X179495D01*
X179795Y149082D02*
Y150782D01*
X179495Y148782D02*
X179795Y149082D01*
X174845Y148782D02*
X175270D01*
X174545Y149082D02*
Y150782D01*
Y149082D02*
X174845Y148782D01*
X179070Y154032D02*
X179495D01*
X179795Y152032D02*
Y153732D01*
X179495Y154032D02*
X179795Y153732D01*
X182125Y136700D02*
X182325D01*
Y138000D01*
X182125Y140700D02*
X182375D01*
Y139400D02*
Y140700D01*
X178325Y136700D02*
X178525D01*
X178325D02*
Y138000D01*
Y140700D02*
X178525D01*
X178325Y139400D02*
Y140700D01*
X189900Y150205D02*
X190425D01*
X195100D02*
Y150730D01*
X194600Y150205D02*
X195100D01*
X194575Y155405D02*
X195100D01*
Y154905D02*
Y155405D01*
X189900D02*
X190400D01*
X189900Y154880D02*
Y155405D01*
Y150205D02*
Y150705D01*
X195550Y159880D02*
X197150D01*
X195550Y158680D02*
X197150D01*
X197925Y93825D02*
X198225Y94125D01*
Y95825D01*
X197500Y93825D02*
X197925D01*
X193275Y99075D02*
X193700D01*
X192975Y97075D02*
Y98775D01*
X193275Y99075D01*
X197500D02*
X197925D01*
X198225Y97075D02*
Y98775D01*
X197925Y99075D02*
X198225Y98775D01*
X193275Y93825D02*
X193700D01*
X192975Y94125D02*
Y95825D01*
Y94125D02*
X193275Y93825D01*
X193475Y111250D02*
X193675D01*
X193475Y109950D02*
Y111250D01*
X193425Y107250D02*
X193675D01*
X193425D02*
Y108550D01*
X197275Y111250D02*
X197475D01*
Y109950D02*
Y111250D01*
X197275Y107250D02*
X197475D01*
Y108550D01*
X175650Y87970D02*
X177250D01*
X175650Y89170D02*
X177250D01*
X182375Y97645D02*
X182900D01*
X177700Y97120D02*
Y97645D01*
X178200D01*
X177700Y92445D02*
X178225D01*
X177700D02*
Y92945D01*
X182400Y92445D02*
X182900D01*
Y92970D01*
Y97145D02*
Y97645D01*
X164950Y105200D02*
X169100D01*
X164925Y99875D02*
X166725D01*
X166975Y100125D01*
X167225Y99875D01*
X169075D01*
G54D60*
X166775Y79875D02*
X165775D01*
X166775Y80875D01*
Y81125D01*
X166525Y81375D01*
X166025D01*
X165775Y81125D01*
X168024Y79875D02*
Y81375D01*
X167275Y80625D01*
X168274D01*
X168774Y79875D02*
Y80125D01*
X169024D01*
Y79875D01*
X168774D01*
X170024Y81125D02*
X170274Y81375D01*
X170773D01*
X171023Y81125D01*
Y80125D01*
X170773Y79875D01*
X170274D01*
X170024Y80125D01*
Y81125D01*
X171523D02*
X171773Y81375D01*
X172273D01*
X172523Y81125D01*
Y80875D01*
X172273Y80625D01*
X172523Y80375D01*
Y80125D01*
X172273Y79875D01*
X171773D01*
X171523Y80125D01*
Y80375D01*
X171773Y80625D01*
X171523Y80875D01*
Y81125D01*
X171773Y80625D02*
X172273D01*
X173023Y79875D02*
Y80125D01*
X173273D01*
Y79875D01*
X173023D01*
X175272D02*
X174272D01*
X175272Y80875D01*
Y81125D01*
X175022Y81375D01*
X174522D01*
X174272Y81125D01*
X175772D02*
X176022Y81375D01*
X176522D01*
X176771Y81125D01*
Y80125D01*
X176522Y79875D01*
X176022D01*
X175772Y80125D01*
Y81125D01*
X177271Y79875D02*
X177771D01*
X177521D01*
Y81375D01*
X177271Y81125D01*
X179521Y79875D02*
X178521D01*
X179521Y80875D01*
Y81125D01*
X179271Y81375D01*
X178771D01*
X178521Y81125D01*
X183200Y81100D02*
X182950Y81350D01*
X182450D01*
X182200Y81100D01*
Y80100D01*
X182450Y79850D01*
X182950D01*
X183200Y80100D01*
X184699Y81100D02*
X184449Y81350D01*
X183949D01*
X183700Y81100D01*
Y80100D01*
X183949Y79850D01*
X184449D01*
X184699Y80100D01*
X185199Y80600D02*
X186199D01*
X186699Y81350D02*
Y79850D01*
X187448D01*
X187698Y80100D01*
Y80350D01*
X187448Y80600D01*
X186699D01*
X187448D01*
X187698Y80850D01*
Y81100D01*
X187448Y81350D01*
X186699D01*
X188198D02*
Y81100D01*
X188698Y80600D01*
X189198Y81100D01*
Y81350D01*
X188698Y80600D02*
Y79850D01*
X189698Y80600D02*
X190697D01*
X192197Y81100D02*
X191947Y81350D01*
X191447D01*
X191197Y81100D01*
Y80850D01*
X191447Y80600D01*
X191947D01*
X192197Y80350D01*
Y80100D01*
X191947Y79850D01*
X191447D01*
X191197Y80100D01*
X192697Y79850D02*
Y80850D01*
X193196Y81350D01*
X193696Y80850D01*
Y79850D01*
Y80600D01*
X192697D01*
X195696Y81100D02*
X195946Y81350D01*
X196445D01*
X196695Y81100D01*
Y80850D01*
X196445Y80600D01*
X196195D01*
X196445D01*
X196695Y80350D01*
Y80100D01*
X196445Y79850D01*
X195946D01*
X195696Y80100D01*
X197195Y79850D02*
Y80100D01*
X197445D01*
Y79850D01*
X197195D01*
X198445Y81100D02*
X198695Y81350D01*
X199195D01*
X199444Y81100D01*
Y80100D01*
X199195Y79850D01*
X198695D01*
X198445Y80100D01*
Y81100D01*
X182225Y83975D02*
Y82725D01*
X182475Y82475D01*
X182975D01*
X183225Y82725D01*
Y83975D01*
X183725Y82475D02*
Y83475D01*
X183974D01*
X184224Y83225D01*
Y82475D01*
Y83225D01*
X184474Y83475D01*
X184724Y83225D01*
Y82475D01*
X186224Y83725D02*
X185974Y83975D01*
X185474D01*
X185224Y83725D01*
Y83475D01*
X185474Y83225D01*
X185974D01*
X186224Y82975D01*
Y82725D01*
X185974Y82475D01*
X185474D01*
X185224Y82725D01*
X187723Y83975D02*
X186724D01*
Y82475D01*
X187723D01*
X186724Y83225D02*
X187223D01*
X188223Y83975D02*
Y82475D01*
X189223D01*
X189723Y83475D02*
X190222Y82475D01*
X190722Y83475D01*
X191222Y82475D02*
X191722D01*
X191472D01*
Y83975D01*
X191222Y83725D01*
X166825Y83950D02*
X165825D01*
Y83200D01*
X166325D01*
X165825D01*
Y82450D01*
X167574Y83450D02*
X168074D01*
X168324Y83200D01*
Y82450D01*
X167574D01*
X167325Y82700D01*
X167574Y82950D01*
X168324D01*
X168824Y82450D02*
X169324D01*
X169074D01*
Y83450D01*
X168824D01*
X170074D02*
Y82450D01*
Y82950D01*
X170324Y83200D01*
X170573Y83450D01*
X170823D01*
X171573D02*
Y82700D01*
X171823Y82450D01*
X172073Y82700D01*
X172323Y82450D01*
X172573Y82700D01*
Y83450D01*
X173323D02*
X173822D01*
X174072Y83200D01*
Y82450D01*
X173323D01*
X173073Y82700D01*
X173323Y82950D01*
X174072D01*
X174572Y83450D02*
X175072Y82450D01*
X175572Y83450D01*
X176821Y82450D02*
X176322D01*
X176072Y82700D01*
Y83200D01*
X176322Y83450D01*
X176821D01*
X177071Y83200D01*
Y82950D01*
X176072D01*
X177571Y82450D02*
X178321D01*
X178571Y82700D01*
X178321Y82950D01*
X177821D01*
X177571Y83200D01*
X177821Y83450D01*
X178571D01*
G54D82*
X162500Y123250D02*
G03*
X162500Y123250I-300J0D01*
G01*
G54D83*
X180020Y154082D02*
G03*
X180020Y154082I-100J0D01*
G01*
X182725Y140900D02*
G03*
X182725Y140900I-100J0D01*
G01*
X192950Y93775D02*
G03*
X192950Y93775I-100J0D01*
G01*
X193275Y107050D02*
G03*
X193275Y107050I-100J0D01*
G01*
X187416Y141820D02*
X188178D01*
X186772Y119625D02*
X187534D01*
X195230Y122120D02*
Y122882D01*
X188121Y118655D02*
X188883D01*
X193292Y125345D02*
X194054D01*
X200041Y118675D02*
X200803D01*
X191175Y120622D02*
Y121384D01*
X197925Y119016D02*
Y119778D01*
X189421Y118655D02*
X190183D01*
X195304Y130214D02*
Y130976D01*
X188116Y126850D02*
X188878D01*
X200116Y126875D02*
X200878D01*
X191204Y128720D02*
Y129482D01*
X198000Y127216D02*
Y127978D01*
X189416Y126850D02*
X190178D01*
X161616Y129850D02*
X162378D01*
X163050Y143847D02*
Y144609D01*
X164647Y146450D02*
X165409D01*
X162016Y153000D02*
X162778D01*
X156733Y150713D02*
Y152237D01*
X161178D01*
X156733Y144363D02*
X161178D01*
X156733D02*
Y145887D01*
X157626Y128322D02*
Y129084D01*
X157926Y134772D02*
Y135534D01*
X192900Y168266D02*
Y169028D01*
X163650Y80291D02*
Y81053D01*
X174975Y156196D02*
Y156958D01*
X178041Y156055D02*
X178803D01*
X176650Y147197D02*
Y147959D01*
X177022Y144325D02*
X177784D01*
X182250Y147002D02*
Y147764D01*
Y145827D02*
Y146589D01*
X178350Y135272D02*
Y136034D01*
X179575Y141252D02*
Y142014D01*
X184672Y144880D02*
X185434D01*
X177216Y136400D02*
X177978D01*
X178075Y141252D02*
Y142014D01*
X192822Y139120D02*
X193584D01*
X189750Y142192D02*
Y142954D01*
X191316Y139120D02*
X192078D01*
X189641Y146375D02*
X190403D01*
X190400Y148697D02*
Y149459D01*
X187575Y147471D02*
Y148233D01*
X194650Y148491D02*
Y149253D01*
X194516Y146200D02*
X195278D01*
X187575Y148971D02*
Y149733D01*
X187150Y150496D02*
Y151258D01*
X197850Y149697D02*
Y150459D01*
X187150Y151671D02*
Y152433D01*
X197850Y148497D02*
Y149259D01*
Y151091D02*
Y151853D01*
X187891Y157900D02*
X188653D01*
X185275Y155922D02*
Y156684D01*
X187050Y154766D02*
Y155528D01*
X197850Y153391D02*
Y154153D01*
Y154491D02*
Y155253D01*
X190225Y156052D02*
Y156814D01*
X193525Y156121D02*
Y156883D01*
X190225Y157252D02*
Y158014D01*
X193525Y157521D02*
Y158283D01*
X192775Y164616D02*
Y165378D01*
X191275Y163366D02*
Y164128D01*
X197825Y90892D02*
Y91654D01*
X193997Y91795D02*
X194759D01*
X196150Y99891D02*
Y100653D01*
X195016Y103525D02*
X195778D01*
X190550Y100086D02*
Y100848D01*
Y101261D02*
Y102023D01*
X193175Y111847D02*
Y112609D01*
X194725Y105842D02*
Y106604D01*
X187397Y107400D02*
X188159D01*
X184622Y106030D02*
X185384D01*
X192047Y111475D02*
X192809D01*
X193225Y105842D02*
Y106604D01*
X179216Y108730D02*
X179978D01*
X183050Y104896D02*
Y105658D01*
X180722Y108730D02*
X181484D01*
X182322Y101425D02*
X183084D01*
X182400Y98391D02*
Y99153D01*
X185225Y99617D02*
Y100379D01*
X178150Y98597D02*
Y99359D01*
X177522Y101650D02*
X178284D01*
X185225Y98117D02*
Y98879D01*
X185650Y96592D02*
Y97354D01*
X174950Y97391D02*
Y98153D01*
X185650Y95417D02*
Y96179D01*
X174950Y98591D02*
Y99353D01*
Y95997D02*
Y96759D01*
X184197Y89950D02*
X184959D01*
X187525Y91116D02*
Y91878D01*
X185775Y92322D02*
Y93084D01*
X174950Y93697D02*
Y94459D01*
Y92597D02*
Y93359D01*
X182575Y91036D02*
Y91798D01*
X179275Y90967D02*
Y91729D01*
X182575Y89836D02*
Y90598D01*
X179275Y89567D02*
Y90329D01*
X180025Y83841D02*
Y84603D01*
X197850Y155591D02*
Y156353D01*
Y156691D02*
Y157453D01*
X174950Y91497D02*
Y92259D01*
Y90397D02*
Y91159D01*
X175391Y128975D02*
X176153D01*
X182025Y115297D02*
Y116059D01*
X198900Y164847D02*
Y165609D01*
X186772Y129550D02*
X187534D01*
X193322Y117150D02*
X194084D01*
X163997Y98475D02*
X164759D01*
X184097Y152800D02*
X184859D01*
X182225Y157650D02*
Y158412D01*
X187941Y95050D02*
X188703D01*
X190575Y89438D02*
Y90200D01*
X195922Y146200D02*
X196684D01*
X176116Y101650D02*
X176878D01*
X180391Y82275D02*
X181153D01*
G54D84*
X197800Y159280D02*
G03*
X197800Y159280I-50J0D01*
G01*
X175100Y88570D02*
G03*
X175100Y88570I-50J0D01*
G01*
G54D85*
X177325Y108250D02*
X178325D01*
Y108450D01*
X174825Y109750D02*
Y109950D01*
X175825D01*
X178325Y109750D02*
Y109950D01*
X177325D02*
X178325D01*
X174825Y108250D02*
Y108450D01*
Y108250D02*
X175825D01*
X196975Y139600D02*
X197975D01*
Y139400D02*
Y139600D01*
X194475Y137900D02*
X195475D01*
X194475D02*
Y138100D01*
X196975Y137900D02*
X197975D01*
Y138100D01*
X194475Y139400D02*
Y139600D01*
X195475D01*
X188975Y95975D02*
Y96975D01*
Y95975D02*
X189175D01*
X190475Y99475D02*
X190675D01*
Y98475D02*
Y99475D01*
X190475Y95975D02*
X190675D01*
Y96975D01*
X188975Y99475D02*
X189175D01*
X188975Y98475D02*
Y99475D01*
X183825Y148375D02*
Y149375D01*
X183625Y148375D02*
X183825D01*
X182125Y150875D02*
Y151875D01*
X182325D01*
X182125Y148375D02*
Y149375D01*
Y148375D02*
X182325D01*
X183625Y151875D02*
X183825D01*
Y150875D02*
Y151875D01*
X191725Y111850D02*
Y113175D01*
X189625Y114475D02*
Y115800D01*
Y111850D02*
Y113175D01*
X191725Y114475D02*
Y115800D01*
X174750Y132075D02*
Y133400D01*
X176850Y134700D02*
Y136025D01*
Y132075D02*
Y133400D01*
X174750Y134700D02*
Y136025D01*
X176950Y166075D02*
X179950D01*
X176950Y163075D02*
X177700D01*
X179200D02*
X179950D01*
Y163225D01*
X176950Y165925D02*
Y166075D01*
Y163075D02*
Y163225D01*
X179950Y165925D02*
Y166075D01*
X201500Y129000D02*
Y132000D01*
X198500Y131250D02*
Y132000D01*
Y129000D02*
Y129750D01*
Y129000D02*
X198650D01*
X201350Y132000D02*
X201500D01*
X198500D02*
X198650D01*
X201350Y129000D02*
X201500D01*
Y121000D02*
Y124000D01*
X198500Y123250D02*
Y124000D01*
Y121000D02*
Y121750D01*
Y121000D02*
X198650D01*
X201350Y124000D02*
X201500D01*
X198500D02*
X198650D01*
X201350Y121000D02*
X201500D01*
X192900Y81850D02*
X195900D01*
X195150Y84850D02*
X195900D01*
X192900D02*
X193650D01*
X192900Y84700D02*
Y84850D01*
X195900Y81850D02*
Y82000D01*
Y84700D02*
Y84850D01*
X192900Y81850D02*
Y82000D01*
X176962Y139150D02*
X177238D01*
X176962D02*
Y139425D01*
X177988Y139150D02*
X178262D01*
Y139425D01*
X178262Y140575D02*
Y140850D01*
X177988D02*
X178262D01*
X176962Y140850D02*
X177238D01*
X176962Y140575D02*
Y140850D01*
X192550Y108800D02*
X192825D01*
Y108525D02*
Y108800D01*
X191525Y108800D02*
X191800D01*
X191525Y108525D02*
Y108800D01*
X191525Y107100D02*
Y107375D01*
Y107100D02*
X191800D01*
X192550Y107100D02*
X192825D01*
Y107375D01*
G54D86*
X163114Y130652D02*
X164486D01*
Y133548D01*
X163114D02*
X164486D01*
X163114Y130652D02*
Y133548D01*
X187675Y87800D02*
Y90500D01*
X188875D01*
Y87800D02*
Y90500D01*
X187675Y87800D02*
X188875D01*
X185125Y157300D02*
Y160000D01*
X183925Y157300D02*
X185125D01*
X183925D02*
Y160000D01*
X185125D01*
X192679Y128198D02*
X195379D01*
Y126998D02*
Y128198D01*
X192679Y126998D02*
X195379D01*
X192679D02*
Y128198D01*
X192625Y120000D02*
X195325D01*
Y118800D02*
Y120000D01*
X192625Y118800D02*
X195325D01*
X192625D02*
Y120000D01*
X193123Y108914D02*
Y110286D01*
X190227D02*
X193123D01*
X190227Y108914D02*
Y110286D01*
Y108914D02*
X193123D01*
X178298Y137639D02*
Y139011D01*
X175402D02*
X178298D01*
X175402Y137639D02*
Y139011D01*
Y137639D02*
X178298D01*
X187839Y120002D02*
Y122898D01*
X189211D01*
Y120002D02*
Y122898D01*
X187839Y120002D02*
X189211D01*
X176024Y117850D02*
Y120851D01*
X179025Y120849D02*
X179325Y120850D01*
X176025Y120849D02*
X176325Y120850D01*
X179326Y117549D02*
Y120851D01*
X179025Y117550D02*
X179324D01*
X176025Y117850D02*
X176325Y117550D01*
X192539Y120302D02*
Y123198D01*
X193911D01*
Y120302D02*
Y123198D01*
X192539Y120302D02*
X193911D01*
X190705Y117305D02*
X191905D01*
Y120005D01*
X190705D02*
X191905D01*
X190705Y117305D02*
Y120005D01*
X195280Y117305D02*
X196480D01*
Y120005D01*
X195280D02*
X196480D01*
X195280Y117305D02*
Y120005D01*
X196477Y117214D02*
X199373D01*
X196477D02*
Y118586D01*
X199373D01*
Y117214D02*
Y118586D01*
X187814Y128102D02*
Y130998D01*
X189186D01*
Y128102D02*
Y130998D01*
X187814Y128102D02*
X189186D01*
X192568Y128400D02*
Y131295D01*
X193939D01*
Y128400D02*
Y131295D01*
X192568Y128400D02*
X193939D01*
X178575Y130501D02*
X181576D01*
X181574Y127500D02*
X181575Y127200D01*
X181574Y130500D02*
X181575Y130200D01*
X178274Y127199D02*
X181576D01*
X178275Y127201D02*
Y127500D01*
Y130200D02*
X178575Y130500D01*
X190650Y125500D02*
X191850D01*
Y128200D01*
X190650D02*
X191850D01*
X190650Y125500D02*
Y128200D01*
X195354Y125498D02*
X196554D01*
Y128198D01*
X195354D02*
X196554D01*
X195354Y125498D02*
Y128198D01*
X196552Y125414D02*
X199448D01*
X196552D02*
Y126786D01*
X199448D01*
Y125414D02*
Y126786D01*
X168900Y129100D02*
Y130300D01*
Y129100D02*
X171600D01*
Y130300D01*
X168900D02*
X171600D01*
X170325Y118500D02*
Y119700D01*
X167625D02*
X170325D01*
X167625Y118500D02*
Y119700D01*
Y118500D02*
X170325D01*
X161725Y140925D02*
Y142125D01*
Y140925D02*
X164425D01*
Y142125D01*
X161725D02*
X164425D01*
X160200Y142300D02*
Y143500D01*
Y142300D02*
X162900D01*
Y143500D01*
X160200D02*
X162900D01*
X158543Y131388D02*
X158924D01*
X158543D02*
Y132150D01*
X158924D01*
X159001Y129381D02*
Y134181D01*
X155801Y129381D02*
X159001D01*
X155801D02*
Y134181D01*
X159001D01*
X159368Y135834D02*
Y138730D01*
X157996Y135834D02*
X159368D01*
X157996D02*
Y138730D01*
X159368D01*
X197000Y169625D02*
Y170825D01*
X194300D02*
X197000D01*
X194300Y169625D02*
Y170825D01*
Y169625D02*
X197000D01*
X190200Y169250D02*
X191400D01*
X190200Y166550D02*
Y169250D01*
Y166550D02*
X191400D01*
Y169250D01*
X201675Y166125D02*
Y167325D01*
X198975D02*
X201675D01*
X198975Y166125D02*
Y167325D01*
Y166125D02*
X201675D01*
X194600Y164375D02*
Y165575D01*
Y164375D02*
X197300D01*
Y165575D01*
X194600D02*
X197300D01*
X194525Y166550D02*
X195725D01*
Y169250D01*
X194525D02*
X195725D01*
X194525Y166550D02*
Y169250D01*
X163200Y85700D02*
X164400D01*
Y88400D01*
X163200D02*
X164400D01*
X163200Y85700D02*
Y88400D01*
X165875Y85575D02*
X167075D01*
Y88275D01*
X165875D02*
X167075D01*
X165875Y85575D02*
Y88275D01*
X167400Y169100D02*
X168600D01*
X167400Y166400D02*
Y169100D01*
Y166400D02*
X168600D01*
Y169100D01*
X166725Y157850D02*
X167925D01*
Y160550D01*
X166725D02*
X167925D01*
X166725Y157850D02*
Y160550D01*
X165400Y169100D02*
X166600D01*
X165400Y166400D02*
Y169100D01*
Y166400D02*
X166600D01*
Y169100D01*
X165400Y157850D02*
X166600D01*
Y160550D01*
X165400D02*
X166600D01*
X165400Y157850D02*
Y160550D01*
X168000Y109000D02*
Y110200D01*
X165300D02*
X168000D01*
X165300Y109000D02*
Y110200D01*
Y109000D02*
X168000D01*
Y107125D02*
Y108325D01*
X165300D02*
X168000D01*
X165300Y107125D02*
Y108325D01*
Y107125D02*
X168000D01*
X162739Y84204D02*
Y84585D01*
X161088D02*
X162739D01*
X161088Y81410D02*
Y84585D01*
Y81410D02*
X162612D01*
X163755D02*
X165279D01*
Y84585D01*
X163755D02*
X165279D01*
X162739Y84204D02*
X163628D01*
Y84585D01*
X162739D02*
X163755D01*
X162612Y81410D02*
X163755D01*
X176325Y159000D02*
Y160200D01*
Y159000D02*
X179025D01*
Y160200D01*
X176325D02*
X179025D01*
X175096Y160245D02*
X176296D01*
X175096Y157545D02*
Y160245D01*
Y157545D02*
X176296D01*
Y160245D01*
X179025Y157550D02*
Y158750D01*
X176325D02*
X179025D01*
X176325Y157550D02*
Y158750D01*
Y157550D02*
X179025D01*
X175027Y155991D02*
X177923D01*
Y154619D02*
Y155991D01*
X175027Y154619D02*
X177923D01*
X175027D02*
Y155991D01*
X175202Y146961D02*
X178098D01*
Y145589D02*
Y146961D01*
X175202Y145589D02*
X178098D01*
X175202D02*
Y146961D01*
X184352Y143261D02*
X187248D01*
Y141889D02*
Y143261D01*
X184352Y141889D02*
X187248D01*
X184352D02*
Y143261D01*
X179274Y142204D02*
X182275D01*
X179275Y145505D02*
X179276Y145205D01*
X179275Y142505D02*
X179276Y142205D01*
X179274Y145506D02*
X182576D01*
X182575Y145205D02*
Y145504D01*
X182275Y142205D02*
X182575Y142505D01*
X192386Y140372D02*
Y143268D01*
X191014Y140372D02*
X192386D01*
X191014D02*
Y143268D01*
X192386D01*
X191100Y143575D02*
Y144775D01*
Y143575D02*
X193800D01*
Y144775D01*
X191100D02*
X193800D01*
X193886Y140372D02*
Y143268D01*
X192514Y140372D02*
X193886D01*
X192514D02*
Y143268D01*
X193886D01*
X184925Y147230D02*
X186125D01*
Y149930D01*
X184925D02*
X186125D01*
X184925Y147230D02*
Y149930D01*
X188925Y145955D02*
Y147155D01*
X186225D02*
X188925D01*
X186225Y145955D02*
Y147155D01*
Y145955D02*
X188925D01*
X186100Y152725D02*
Y153925D01*
Y152725D02*
X188800D01*
Y153925D01*
X186100D02*
X188800D01*
X196500Y152075D02*
Y153275D01*
Y152075D02*
X199200D01*
Y153275D01*
X196500D02*
X199200D01*
X195000Y155880D02*
X196200D01*
Y158580D01*
X195000D02*
X196200D01*
X195000Y155880D02*
Y158580D01*
X196475Y87650D02*
Y88850D01*
X193775D02*
X196475D01*
X193775Y87650D02*
Y88850D01*
Y87650D02*
X196475D01*
X196504Y87605D02*
X197704D01*
Y90305D01*
X196504D02*
X197704D01*
X196504Y87605D02*
Y90305D01*
X193775Y89100D02*
Y90300D01*
Y89100D02*
X196475D01*
Y90300D01*
X193775D02*
X196475D01*
X194877Y91859D02*
X197773D01*
X194877D02*
Y93231D01*
X197773D01*
Y91859D02*
Y93231D01*
X194702Y100889D02*
X197598D01*
X194702D02*
Y102261D01*
X197598D01*
Y100889D02*
Y102261D01*
X185552Y104589D02*
X188448D01*
X185552D02*
Y105961D01*
X188448D01*
Y104589D02*
Y105961D01*
X190525Y105646D02*
X193526D01*
X193524Y102645D02*
X193525Y102345D01*
X193524Y105645D02*
X193525Y105345D01*
X190224Y102344D02*
X193526D01*
X190225Y102346D02*
Y102645D01*
Y105345D02*
X190525Y105645D01*
X180414Y104582D02*
Y107478D01*
X181786D01*
Y104582D02*
Y107478D01*
X180414Y104582D02*
X181786D01*
X181700Y103075D02*
Y104275D01*
X179000D02*
X181700D01*
X179000Y103075D02*
Y104275D01*
Y103075D02*
X181700D01*
X178914Y104582D02*
Y107478D01*
X180286D01*
Y104582D02*
Y107478D01*
X178914Y104582D02*
X180286D01*
X186675Y100620D02*
X187875D01*
X186675Y97920D02*
Y100620D01*
Y97920D02*
X187875D01*
Y100620D01*
X183875Y100695D02*
Y101895D01*
Y100695D02*
X186575D01*
Y101895D01*
X183875D02*
X186575D01*
X186700Y93925D02*
Y95125D01*
X184000D02*
X186700D01*
X184000Y93925D02*
Y95125D01*
Y93925D02*
X186700D01*
X176300Y94575D02*
Y95775D01*
X173600D02*
X176300D01*
X173600Y94575D02*
Y95775D01*
Y94575D02*
X176300D01*
X176600Y91970D02*
X177800D01*
X176600Y89270D02*
Y91970D01*
Y89270D02*
X177800D01*
Y91970D01*
X196854Y132198D02*
X197654D01*
Y130398D02*
Y132198D01*
X196854Y130398D02*
X197654D01*
X196854D02*
Y132198D01*
X196730Y124130D02*
X197530D01*
Y122330D02*
Y124130D01*
X196730Y122330D02*
X197530D01*
X196730D02*
Y124130D01*
X194355Y146559D02*
Y148391D01*
X190545Y146559D02*
X194355D01*
X190545D02*
Y148391D01*
X194355D01*
X183092Y154707D02*
X183473D01*
X183092D02*
Y155469D01*
X183473D01*
X183550Y152700D02*
Y157500D01*
X180350Y152700D02*
X183550D01*
X180350D02*
Y157500D01*
X183550D01*
X180777Y160161D02*
X183673D01*
Y158789D02*
Y160161D01*
X180777Y158789D02*
X183673D01*
X180777D02*
Y160161D01*
X178445Y99459D02*
Y101291D01*
X182255D01*
Y99459D02*
Y101291D01*
X178445Y99459D02*
X182255D01*
X189327Y93143D02*
X189708D01*
Y92381D02*
Y93143D01*
X189327Y92381D02*
X189708D01*
X189250Y90350D02*
Y95150D01*
X192450D01*
Y90350D02*
Y95150D01*
X189250Y90350D02*
X192450D01*
X189127Y87689D02*
X192023D01*
X189127D02*
Y89061D01*
X192023D01*
Y87689D02*
Y89061D01*
X185125Y160000D02*
X186325D01*
X185125Y157300D02*
Y160000D01*
Y157300D02*
X186325D01*
Y160000D01*
X186300Y159975D02*
X187500D01*
X186300Y157275D02*
Y159975D01*
Y157275D02*
X187500D01*
Y159975D01*
X186475Y87800D02*
X187675D01*
Y90500D01*
X186475D02*
X187675D01*
X186475Y87800D02*
Y90500D01*
X185300Y87825D02*
X186500D01*
Y90525D01*
X185300D02*
X186500D01*
X185300Y87825D02*
Y90525D01*
X193730Y158759D02*
Y160591D01*
X189920Y158759D02*
X193730D01*
X189920D02*
Y160591D01*
X193730D01*
X179020Y87259D02*
Y89091D01*
X182830D01*
Y87259D02*
Y89091D01*
X179020Y87259D02*
X182830D01*
G54D87*
X164725Y150150D02*
Y150650D01*
X164475Y150400D02*
X164975D01*
X164350Y151400D02*
X164475Y151150D01*
X164725Y150900D01*
X164975D01*
X165100Y151025D01*
Y151275D01*
X164975Y151400D01*
X164850D01*
X164725Y151275D01*
Y150900D01*
X165100Y151650D02*
X164975D01*
Y151774D01*
X165100D01*
Y151650D01*
X164350Y152774D02*
Y152274D01*
X164725D01*
X164600Y152524D01*
Y152649D01*
X164725Y152774D01*
X164975D01*
X165100Y152649D01*
Y152399D01*
X164975Y152274D01*
X164350Y153024D02*
X164850D01*
X165100Y153274D01*
X164850Y153524D01*
X164350D01*
X203025Y120500D02*
X203775D01*
Y121000D01*
Y121250D02*
X203025D01*
X203775Y121750D01*
X203025D01*
X203775Y122000D02*
X203275D01*
X203025Y122249D01*
X203275Y122499D01*
X203775D01*
X203400D01*
Y122000D01*
X203900Y122749D02*
Y123249D01*
X203025Y123499D02*
Y123749D01*
Y123624D01*
X203775D01*
Y123499D01*
Y123749D01*
Y124124D02*
X203025D01*
X203775Y124624D01*
X203025D01*
Y127600D02*
X203775D01*
Y128100D01*
Y128350D02*
X203025D01*
X203775Y128850D01*
X203025D01*
X203775Y129100D02*
X203275D01*
X203025Y129349D01*
X203275Y129599D01*
X203775D01*
X203400D01*
Y129100D01*
Y129849D02*
Y130349D01*
X203025Y130599D02*
X203775D01*
Y130974D01*
X203650Y131099D01*
X203150D01*
X203025Y130974D01*
Y130599D01*
X203900Y131349D02*
Y131849D01*
X203025Y132099D02*
Y132348D01*
Y132224D01*
X203775D01*
Y132099D01*
Y132348D01*
Y132723D02*
X203025D01*
X203775Y133223D01*
X203025D01*
X197300Y83475D02*
X197550D01*
X197425D01*
Y82725D01*
X197300D01*
X197550D01*
X198425Y83475D02*
X197925D01*
Y83100D01*
X198175D01*
X197925D01*
Y82725D01*
X198675Y82600D02*
X199174D01*
X199799Y83475D02*
X199549D01*
X199424Y83350D01*
Y82850D01*
X199549Y82725D01*
X199799D01*
X199924Y82850D01*
Y83350D01*
X199799Y83475D01*
X200174D02*
Y82850D01*
X200299Y82725D01*
X200549D01*
X200674Y82850D01*
Y83475D01*
X200924D02*
X201424D01*
X201174D01*
Y82725D01*
X202173D02*
X201674D01*
X202173Y83225D01*
Y83350D01*
X202048Y83475D01*
X201799D01*
X201674Y83350D01*
X180875Y165725D02*
X181125D01*
X181000D01*
Y164975D01*
X180875D01*
X181125D01*
X182000Y165725D02*
X181500D01*
Y165350D01*
X181750D01*
X181500D01*
Y164975D01*
X182250Y164850D02*
X182749D01*
X183374Y165725D02*
X183124D01*
X182999Y165600D01*
Y165100D01*
X183124Y164975D01*
X183374D01*
X183499Y165100D01*
Y165600D01*
X183374Y165725D01*
X183749D02*
Y165100D01*
X183874Y164975D01*
X184124D01*
X184249Y165100D01*
Y165725D01*
X184499D02*
X184999D01*
X184749D01*
Y164975D01*
X185249D02*
X185499D01*
X185374D01*
Y165725D01*
X185249Y165600D01*
X159375Y125650D02*
Y126150D01*
X159125Y125900D02*
X159625D01*
X159125Y126400D02*
X159000Y126525D01*
Y126775D01*
X159125Y126900D01*
X159250D01*
X159375Y126775D01*
Y126650D01*
Y126775D01*
X159500Y126900D01*
X159625D01*
X159750Y126775D01*
Y126525D01*
X159625Y126400D01*
X159750Y127150D02*
X159625D01*
Y127274D01*
X159750D01*
Y127150D01*
X159125Y127774D02*
X159000Y127899D01*
Y128149D01*
X159125Y128274D01*
X159250D01*
X159375Y128149D01*
Y128024D01*
Y128149D01*
X159500Y128274D01*
X159625D01*
X159750Y128149D01*
Y127899D01*
X159625Y127774D01*
X159000Y128524D02*
X159500D01*
X159750Y128774D01*
X159500Y129024D01*
X159000D01*
X155873Y143447D02*
Y143947D01*
X155623Y143697D02*
X156122D01*
X155498Y144697D02*
Y144197D01*
X155873D01*
X155748Y144447D01*
Y144572D01*
X155873Y144697D01*
X156122D01*
X156247Y144572D01*
Y144322D01*
X156122Y144197D01*
X155498Y144947D02*
X155998D01*
X156247Y145197D01*
X155998Y145447D01*
X155498D01*
X184075Y160875D02*
Y160125D01*
X184575D01*
X185575Y160875D02*
Y160125D01*
X185949D01*
X186074Y160250D01*
Y160750D01*
X185949Y160875D01*
X185575D01*
X187574Y160750D02*
X187449Y160875D01*
X187199D01*
X187074Y160750D01*
Y160250D01*
X187199Y160125D01*
X187449D01*
X187574Y160250D01*
X190531Y145980D02*
X191031D01*
X190781Y146230D02*
Y145730D01*
X191281Y146230D02*
X191406Y146355D01*
X191656D01*
X191781Y146230D01*
Y146105D01*
X191656Y145980D01*
X191531D01*
X191656D01*
X191781Y145855D01*
Y145730D01*
X191656Y145605D01*
X191406D01*
X191281Y145730D01*
X192031Y145605D02*
Y145730D01*
X192156D01*
Y145605D01*
X192031D01*
X192656Y146230D02*
X192781Y146355D01*
X193031D01*
X193156Y146230D01*
Y146105D01*
X193031Y145980D01*
X192906D01*
X193031D01*
X193156Y145855D01*
Y145730D01*
X193031Y145605D01*
X192781D01*
X192656Y145730D01*
X193406Y146355D02*
Y145855D01*
X193655Y145605D01*
X193905Y145855D01*
Y146355D01*
X180098Y158272D02*
Y158772D01*
X179848Y158522D02*
X180347D01*
X179723Y159522D02*
Y159022D01*
X180098D01*
X179973Y159272D01*
Y159397D01*
X180098Y159522D01*
X180347D01*
X180472Y159397D01*
Y159147D01*
X180347Y159022D01*
X179723Y159772D02*
X180223D01*
X180472Y160022D01*
X180223Y160272D01*
X179723D01*
X195825Y140850D02*
X196325D01*
X196075Y141100D02*
Y140600D01*
X196575Y141100D02*
X196700Y141225D01*
X196950D01*
X197075Y141100D01*
Y140975D01*
X196950Y140850D01*
X196825D01*
X196950D01*
X197075Y140725D01*
Y140600D01*
X196950Y140475D01*
X196700D01*
X196575Y140600D01*
X197325Y140475D02*
Y140600D01*
X197449D01*
Y140475D01*
X197325D01*
X197949Y141100D02*
X198074Y141225D01*
X198324D01*
X198449Y141100D01*
Y140975D01*
X198324Y140850D01*
X198199D01*
X198324D01*
X198449Y140725D01*
Y140600D01*
X198324Y140475D01*
X198074D01*
X197949Y140600D01*
X198699Y141225D02*
Y140725D01*
X198949Y140475D01*
X199199Y140725D01*
Y141225D01*
X178625Y101850D02*
X179125D01*
X178875Y102100D02*
Y101600D01*
X179375Y102100D02*
X179500Y102225D01*
X179750D01*
X179875Y102100D01*
Y101975D01*
X179750Y101850D01*
X179625D01*
X179750D01*
X179875Y101725D01*
Y101600D01*
X179750Y101475D01*
X179500D01*
X179375Y101600D01*
X180125Y101475D02*
Y101600D01*
X180249D01*
Y101475D01*
X180125D01*
X180749Y102100D02*
X180874Y102225D01*
X181124D01*
X181249Y102100D01*
Y101975D01*
X181124Y101850D01*
X180999D01*
X181124D01*
X181249Y101725D01*
Y101600D01*
X181124Y101475D01*
X180874D01*
X180749Y101600D01*
X181499Y102225D02*
Y101725D01*
X181749Y101475D01*
X181999Y101725D01*
Y102225D01*
X192775Y87400D02*
Y87900D01*
X192525Y87650D02*
X193025D01*
X192400Y88650D02*
Y88150D01*
X192775D01*
X192650Y88400D01*
Y88525D01*
X192775Y88650D01*
X193025D01*
X193150Y88525D01*
Y88275D01*
X193025Y88150D01*
X192400Y88900D02*
X192900D01*
X193150Y89149D01*
X192900Y89399D01*
X192400D01*
X173725Y106925D02*
X174225D01*
X173975Y107175D02*
Y106675D01*
X174475Y107175D02*
X174600Y107300D01*
X174850D01*
X174975Y107175D01*
Y107050D01*
X174850Y106925D01*
X174725D01*
X174850D01*
X174975Y106800D01*
Y106675D01*
X174850Y106550D01*
X174600D01*
X174475Y106675D01*
X175225Y106550D02*
Y106675D01*
X175349D01*
Y106550D01*
X175225D01*
X175849Y107175D02*
X175974Y107300D01*
X176224D01*
X176349Y107175D01*
Y107050D01*
X176224Y106925D01*
X176099D01*
X176224D01*
X176349Y106800D01*
Y106675D01*
X176224Y106550D01*
X175974D01*
X175849Y106675D01*
X176599Y107300D02*
Y106800D01*
X176849Y106550D01*
X177099Y106800D01*
Y107300D01*
X185775Y87600D02*
X185650Y87725D01*
X185400D01*
X185275Y87600D01*
Y87100D01*
X185400Y86975D01*
X185650D01*
X185775Y87100D01*
X186775Y87725D02*
Y86975D01*
X187149D01*
X187274Y87100D01*
Y87600D01*
X187149Y87725D01*
X186775D01*
X188274D02*
Y86975D01*
X188774D01*
X187150Y93100D02*
Y92475D01*
X187275Y92350D01*
X187525D01*
X187650Y92475D01*
Y93100D01*
X187900Y92350D02*
X188150D01*
X188025D01*
Y93100D01*
X187900Y92975D01*
X188525D02*
X188650Y93100D01*
X188899D01*
X189024Y92975D01*
Y92850D01*
X188899Y92725D01*
X188774D01*
X188899D01*
X189024Y92600D01*
Y92475D01*
X188899Y92350D01*
X188650D01*
X188525Y92475D01*
X183800Y155375D02*
Y154750D01*
X183925Y154625D01*
X184175D01*
X184300Y154750D01*
Y155375D01*
X184550Y154625D02*
X184800D01*
X184675D01*
Y155375D01*
X184550Y155250D01*
X185175D02*
X185300Y155375D01*
X185549D01*
X185674Y155250D01*
Y155125D01*
X185549Y155000D01*
X185424D01*
X185549D01*
X185674Y154875D01*
Y154750D01*
X185549Y154625D01*
X185300D01*
X185175Y154750D01*
X194450Y115775D02*
X194325Y115650D01*
Y115400D01*
X194450Y115275D01*
X194950D01*
X195075Y115400D01*
Y115650D01*
X194950Y115775D01*
X195075Y116025D02*
Y116275D01*
Y116150D01*
X194325D01*
X194450Y116025D01*
X194325Y117149D02*
X194450Y116899D01*
X194700Y116650D01*
X194950D01*
X195075Y116775D01*
Y117024D01*
X194950Y117149D01*
X194825D01*
X194700Y117024D01*
Y116650D01*
X162518Y97997D02*
X162393Y97872D01*
Y97622D01*
X162518Y97497D01*
X163018D01*
X163143Y97622D01*
Y97872D01*
X163018Y97997D01*
X162393Y98747D02*
Y98247D01*
X162768D01*
X162643Y98497D01*
Y98622D01*
X162768Y98747D01*
X163018D01*
X163143Y98622D01*
Y98372D01*
X163018Y98247D01*
X165975Y99175D02*
Y98550D01*
X166100Y98425D01*
X166350D01*
X166475Y98550D01*
Y99175D01*
X167225Y98425D02*
X166725D01*
X167225Y98925D01*
Y99050D01*
X167100Y99175D01*
X166850D01*
X166725Y99050D01*
X185900Y129175D02*
X185775Y129050D01*
Y128800D01*
X185900Y128675D01*
X186400D01*
X186525Y128800D01*
Y129050D01*
X186400Y129175D01*
X186525Y129425D02*
Y129675D01*
Y129550D01*
X185775D01*
X185900Y129425D01*
X185775Y130050D02*
Y130549D01*
X185900D01*
X186400Y130050D01*
X186525D01*
X196400Y125125D02*
X195900D01*
Y124375D01*
X196400D01*
X195900Y124750D02*
X196150D01*
X197150Y125000D02*
X197025Y125125D01*
X196775D01*
X196650Y125000D01*
Y124875D01*
X196775Y124750D01*
X197025D01*
X197150Y124625D01*
Y124500D01*
X197025Y124375D01*
X196775D01*
X196650Y124500D01*
X197400Y125125D02*
Y124375D01*
X197774D01*
X197899Y124500D01*
Y125000D01*
X197774Y125125D01*
X197400D01*
X198649Y124375D02*
X198149D01*
X198649Y124875D01*
Y125000D01*
X198524Y125125D01*
X198274D01*
X198149Y125000D01*
X194850Y132875D02*
X194350D01*
Y132125D01*
X194850D01*
X194350Y132500D02*
X194600D01*
X195600Y132750D02*
X195475Y132875D01*
X195225D01*
X195100Y132750D01*
Y132625D01*
X195225Y132500D01*
X195475D01*
X195600Y132375D01*
Y132250D01*
X195475Y132125D01*
X195225D01*
X195100Y132250D01*
X195850Y132875D02*
Y132125D01*
X196224D01*
X196349Y132250D01*
Y132750D01*
X196224Y132875D01*
X195850D01*
X196599Y132125D02*
X196849D01*
X196724D01*
Y132875D01*
X196599Y132750D01*
X197275Y158350D02*
X197150Y158475D01*
X196900D01*
X196775Y158350D01*
Y157850D01*
X196900Y157725D01*
X197150D01*
X197275Y157850D01*
X198025Y158475D02*
X197775Y158350D01*
X197525Y158100D01*
Y157850D01*
X197650Y157725D01*
X197900D01*
X198025Y157850D01*
Y157975D01*
X197900Y158100D01*
X197525D01*
X198774Y158475D02*
X198275D01*
Y158100D01*
X198524Y158225D01*
X198649D01*
X198774Y158100D01*
Y157850D01*
X198649Y157725D01*
X198399D01*
X198275Y157850D01*
X179500Y98675D02*
Y98050D01*
X179625Y97925D01*
X179875D01*
X180000Y98050D01*
Y98675D01*
X180250Y97925D02*
X180500D01*
X180375D01*
Y98675D01*
X180250Y98550D01*
X180875Y97925D02*
X181124D01*
X181000D01*
Y98675D01*
X180875Y98550D01*
X186350Y115875D02*
X186850D01*
Y115750D01*
X186350Y115250D01*
Y115125D01*
X186850D01*
X187600Y115875D02*
X187350Y115750D01*
X187100Y115500D01*
Y115250D01*
X187225Y115125D01*
X187475D01*
X187600Y115250D01*
Y115375D01*
X187475Y115500D01*
X187100D01*
X187850D02*
X188349D01*
X189099Y115125D02*
X188599D01*
X189099Y115625D01*
Y115750D01*
X188974Y115875D01*
X188724D01*
X188599Y115750D01*
X177475Y132750D02*
X177975D01*
Y132625D01*
X177475Y132125D01*
Y132000D01*
X177975D01*
X178725Y132750D02*
X178475Y132625D01*
X178225Y132375D01*
Y132125D01*
X178350Y132000D01*
X178600D01*
X178725Y132125D01*
Y132250D01*
X178600Y132375D01*
X178225D01*
X178975D02*
X179474D01*
X179724Y132000D02*
X179974D01*
X179849D01*
Y132750D01*
X179724Y132625D01*
X174500Y111625D02*
X175000D01*
Y111500D01*
X174500Y111000D01*
Y110875D01*
X175000D01*
X175750Y111625D02*
X175250D01*
Y111250D01*
X175500Y111375D01*
X175625D01*
X175750Y111250D01*
Y111000D01*
X175625Y110875D01*
X175375D01*
X175250Y111000D01*
X197175Y137575D02*
X197675D01*
Y137450D01*
X197175Y136950D01*
Y136825D01*
X197675D01*
X198425Y137575D02*
X197925D01*
Y137200D01*
X198175Y137325D01*
X198300D01*
X198425Y137200D01*
Y136950D01*
X198300Y136825D01*
X198050D01*
X197925Y136950D01*
X197850Y108575D02*
Y109075D01*
X197975D01*
X198475Y108575D01*
X198600D01*
Y109075D01*
Y109700D02*
X197850D01*
X198225Y109325D01*
Y109825D01*
X182650Y137925D02*
Y138425D01*
X182775D01*
X183275Y137925D01*
X183400D01*
Y138425D01*
Y139050D02*
X182650D01*
X183025Y138675D01*
Y139175D01*
X189925Y107150D02*
Y107650D01*
X190050D01*
X190550Y107150D01*
X190675D01*
Y107650D01*
X190050Y107900D02*
X189925Y108025D01*
Y108275D01*
X190050Y108400D01*
X190175D01*
X190300Y108275D01*
Y108150D01*
Y108275D01*
X190425Y108400D01*
X190550D01*
X190675Y108275D01*
Y108025D01*
X190550Y107900D01*
X175300Y140950D02*
X175800D01*
Y140825D01*
X175300Y140325D01*
Y140200D01*
X175800D01*
X176050Y140825D02*
X176175Y140950D01*
X176425D01*
X176550Y140825D01*
Y140700D01*
X176425Y140575D01*
X176300D01*
X176425D01*
X176550Y140450D01*
Y140325D01*
X176425Y140200D01*
X176175D01*
X176050Y140325D01*
X198525Y94400D02*
Y94900D01*
X198650D01*
X199150Y94400D01*
X199275D01*
Y94900D01*
Y95650D02*
Y95150D01*
X198775Y95650D01*
X198650D01*
X198525Y95525D01*
Y95275D01*
X198650Y95150D01*
X173500Y149225D02*
Y149725D01*
X173625D01*
X174125Y149225D01*
X174250D01*
Y149725D01*
Y150475D02*
Y149975D01*
X173750Y150475D01*
X173625D01*
X173500Y150350D01*
Y150100D01*
X173625Y149975D01*
X191350Y96500D02*
Y97000D01*
X191475D01*
X191975Y96500D01*
X192100D01*
Y97000D01*
Y97250D02*
Y97500D01*
Y97375D01*
X191350D01*
X191475Y97250D01*
X180975Y148475D02*
Y148975D01*
X181100D01*
X181600Y148475D01*
X181725D01*
Y148975D01*
Y149225D02*
Y149475D01*
Y149350D01*
X180975D01*
X181100Y149225D01*
X197250Y84575D02*
X197750Y83825D01*
Y84575D02*
X197250Y83825D01*
X198375D02*
Y84575D01*
X198000Y84200D01*
X198500D01*
X201950Y121850D02*
X202700Y122350D01*
X201950D02*
X202700Y121850D01*
X202075Y122600D02*
X201950Y122725D01*
Y122975D01*
X202075Y123100D01*
X202200D01*
X202325Y122975D01*
Y122850D01*
Y122975D01*
X202450Y123100D01*
X202575D01*
X202700Y122975D01*
Y122725D01*
X202575Y122600D01*
X201975Y129975D02*
X202725Y130475D01*
X201975D02*
X202725Y129975D01*
Y131225D02*
Y130725D01*
X202225Y131225D01*
X202100D01*
X201975Y131100D01*
Y130850D01*
X202100Y130725D01*
X181425Y167175D02*
X181925Y166425D01*
Y167175D02*
X181425Y166425D01*
X182175D02*
X182425D01*
X182300D01*
Y167175D01*
X182175Y167050D01*
X194925Y105625D02*
Y105000D01*
X195050Y104875D01*
X195300D01*
X195425Y105000D01*
Y105625D01*
X195675Y104875D02*
X195925D01*
X195800D01*
Y105625D01*
X195675Y105500D01*
X196799Y104875D02*
X196300D01*
X196799Y105375D01*
Y105500D01*
X196674Y105625D01*
X196425D01*
X196300Y105500D01*
X176050Y143075D02*
Y142450D01*
X176175Y142325D01*
X176425D01*
X176550Y142450D01*
Y143075D01*
X176800Y142325D02*
X177050D01*
X176925D01*
Y143075D01*
X176800Y142950D01*
X177924Y142325D02*
X177425D01*
X177924Y142825D01*
Y142950D01*
X177799Y143075D01*
X177550D01*
X177425Y142950D01*
X191725Y149875D02*
Y149250D01*
X191850Y149125D01*
X192100D01*
X192225Y149250D01*
Y149875D01*
X192475Y149125D02*
X192725D01*
X192600D01*
Y149875D01*
X192475Y149750D01*
X193100Y149125D02*
X193349D01*
X193225D01*
Y149875D01*
X193100Y149750D01*
X187500Y124275D02*
Y123650D01*
X187625Y123525D01*
X187875D01*
X188000Y123650D01*
Y124275D01*
X188250Y123525D02*
X188500D01*
X188375D01*
Y124275D01*
X188250Y124150D01*
X188875D02*
X189000Y124275D01*
X189249D01*
X189374Y124150D01*
Y123650D01*
X189249Y123525D01*
X189000D01*
X188875Y123650D01*
Y124150D01*
X190050Y132875D02*
Y132250D01*
X190175Y132125D01*
X190425D01*
X190550Y132250D01*
Y132875D01*
X190800Y132250D02*
X190925Y132125D01*
X191175D01*
X191300Y132250D01*
Y132750D01*
X191175Y132875D01*
X190925D01*
X190800Y132750D01*
Y132625D01*
X190925Y132500D01*
X191300D01*
X160175Y123350D02*
X160800D01*
X160925Y123475D01*
Y123725D01*
X160800Y123850D01*
X160175D01*
X160300Y124100D02*
X160175Y124225D01*
Y124475D01*
X160300Y124600D01*
X160425D01*
X160550Y124475D01*
X160675Y124600D01*
X160800D01*
X160925Y124475D01*
Y124225D01*
X160800Y124100D01*
X160675D01*
X160550Y124225D01*
X160425Y124100D01*
X160300D01*
X160550Y124225D02*
Y124475D01*
X175025Y118725D02*
X175650D01*
X175775Y118850D01*
Y119100D01*
X175650Y119225D01*
X175025D01*
Y119475D02*
Y119975D01*
X175150D01*
X175650Y119475D01*
X175775D01*
X179250Y131575D02*
Y130950D01*
X179375Y130825D01*
X179625D01*
X179750Y130950D01*
Y131575D01*
X180500D02*
X180250Y131450D01*
X180000Y131200D01*
Y130950D01*
X180125Y130825D01*
X180375D01*
X180500Y130950D01*
Y131075D01*
X180375Y131200D01*
X180000D01*
X198150Y170275D02*
Y169650D01*
X198275Y169525D01*
X198525D01*
X198650Y169650D01*
Y170275D01*
X198900Y170150D02*
X199025Y170275D01*
X199275D01*
X199400Y170150D01*
Y170025D01*
X199275Y169900D01*
X199150D01*
X199275D01*
X199400Y169775D01*
Y169650D01*
X199275Y169525D01*
X199025D01*
X198900Y169650D01*
X156925Y153325D02*
Y152700D01*
X157050Y152575D01*
X157300D01*
X157425Y152700D01*
Y153325D01*
X158175D02*
X157675D01*
Y152950D01*
X157925Y153075D01*
X158050D01*
X158175Y152950D01*
Y152700D01*
X158050Y152575D01*
X157800D01*
X157675Y152700D01*
X159325Y131050D02*
X159950D01*
X160075Y131175D01*
Y131425D01*
X159950Y131550D01*
X159325D01*
X160075Y132175D02*
X159325D01*
X159700Y131800D01*
Y132300D01*
X161300Y85775D02*
Y85150D01*
X161425Y85025D01*
X161675D01*
X161800Y85150D01*
Y85775D01*
X162050Y85025D02*
X162300D01*
X162175D01*
Y85775D01*
X162050Y85650D01*
X180675Y123450D02*
X181175D01*
X180925D01*
Y122700D01*
X181925D02*
X181425D01*
X181925Y123200D01*
Y123325D01*
X181800Y123450D01*
X181550D01*
X181425Y123325D01*
X181250Y125300D02*
Y125800D01*
Y125550D01*
X182000D01*
Y126050D02*
Y126300D01*
Y126175D01*
X181250D01*
X181375Y126050D01*
X188875Y99800D02*
X188125D01*
Y100175D01*
X188250Y100300D01*
X188500D01*
X188625Y100175D01*
Y99800D01*
Y100050D02*
X188875Y100300D01*
X188250Y100550D02*
X188125Y100675D01*
Y100925D01*
X188250Y101050D01*
X188375D01*
X188500Y100925D01*
Y100800D01*
Y100925D01*
X188625Y101050D01*
X188750D01*
X188875Y100925D01*
Y100675D01*
X188750Y100550D01*
X188125Y101799D02*
Y101300D01*
X188500D01*
X188375Y101549D01*
Y101674D01*
X188500Y101799D01*
X188750D01*
X188875Y101674D01*
Y101424D01*
X188750Y101300D01*
X184725Y146275D02*
X183975D01*
Y146650D01*
X184100Y146775D01*
X184350D01*
X184475Y146650D01*
Y146275D01*
Y146525D02*
X184725Y146775D01*
X184100Y147025D02*
X183975Y147150D01*
Y147400D01*
X184100Y147525D01*
X184225D01*
X184350Y147400D01*
Y147275D01*
Y147400D01*
X184475Y147525D01*
X184600D01*
X184725Y147400D01*
Y147150D01*
X184600Y147025D01*
X183975Y148274D02*
Y147775D01*
X184350D01*
X184225Y148024D01*
Y148149D01*
X184350Y148274D01*
X184600D01*
X184725Y148149D01*
Y147899D01*
X184600Y147775D01*
X184100Y102125D02*
Y102875D01*
X184475D01*
X184600Y102750D01*
Y102500D01*
X184475Y102375D01*
X184100D01*
X184350D02*
X184600Y102125D01*
X184850Y102750D02*
X184975Y102875D01*
X185225D01*
X185350Y102750D01*
Y102625D01*
X185225Y102500D01*
X185100D01*
X185225D01*
X185350Y102375D01*
Y102250D01*
X185225Y102125D01*
X184975D01*
X184850Y102250D01*
X185974Y102125D02*
Y102875D01*
X185600Y102500D01*
X186099D01*
X186775Y144925D02*
Y145675D01*
X187150D01*
X187275Y145550D01*
Y145300D01*
X187150Y145175D01*
X186775D01*
X187025D02*
X187275Y144925D01*
X187525Y145550D02*
X187650Y145675D01*
X187900D01*
X188025Y145550D01*
Y145425D01*
X187900Y145300D01*
X187775D01*
X187900D01*
X188025Y145175D01*
Y145050D01*
X187900Y144925D01*
X187650D01*
X187525Y145050D01*
X188649Y144925D02*
Y145675D01*
X188275Y145300D01*
X188774D01*
X177225Y92975D02*
X176475D01*
Y93350D01*
X176600Y93475D01*
X176850D01*
X176975Y93350D01*
Y92975D01*
Y93225D02*
X177225Y93475D01*
X176600Y93725D02*
X176475Y93850D01*
Y94100D01*
X176600Y94225D01*
X176725D01*
X176850Y94100D01*
Y93975D01*
Y94100D01*
X176975Y94225D01*
X177100D01*
X177225Y94100D01*
Y93850D01*
X177100Y93725D01*
X177225Y94974D02*
Y94475D01*
X176725Y94974D01*
X176600D01*
X176475Y94849D01*
Y94599D01*
X176600Y94475D01*
X196300Y152575D02*
X195550D01*
Y152950D01*
X195675Y153075D01*
X195925D01*
X196050Y152950D01*
Y152575D01*
Y152825D02*
X196300Y153075D01*
X195675Y153325D02*
X195550Y153450D01*
Y153700D01*
X195675Y153825D01*
X195800D01*
X195925Y153700D01*
Y153575D01*
Y153700D01*
X196050Y153825D01*
X196175D01*
X196300Y153700D01*
Y153450D01*
X196175Y153325D01*
X196300Y154574D02*
Y154075D01*
X195800Y154574D01*
X195675D01*
X195550Y154449D01*
Y154199D01*
X195675Y154075D01*
X177075Y103475D02*
Y104225D01*
X177450D01*
X177575Y104100D01*
Y103850D01*
X177450Y103725D01*
X177075D01*
X177325D02*
X177575Y103475D01*
X177825Y104100D02*
X177950Y104225D01*
X178200D01*
X178325Y104100D01*
Y103975D01*
X178200Y103850D01*
X178075D01*
X178200D01*
X178325Y103725D01*
Y103600D01*
X178200Y103475D01*
X177950D01*
X177825Y103600D01*
X178575Y103475D02*
X178824D01*
X178699D01*
Y104225D01*
X178575Y104100D01*
X194275Y143550D02*
Y144300D01*
X194650D01*
X194775Y144175D01*
Y143925D01*
X194650Y143800D01*
X194275D01*
X194525D02*
X194775Y143550D01*
X195025Y144175D02*
X195150Y144300D01*
X195400D01*
X195525Y144175D01*
Y144050D01*
X195400Y143925D01*
X195275D01*
X195400D01*
X195525Y143800D01*
Y143675D01*
X195400Y143550D01*
X195150D01*
X195025Y143675D01*
X195775Y143550D02*
X196024D01*
X195899D01*
Y144300D01*
X195775Y144175D01*
X192875Y116875D02*
X192125D01*
Y117250D01*
X192250Y117375D01*
X192500D01*
X192625Y117250D01*
Y116875D01*
Y117125D02*
X192875Y117375D01*
Y118125D02*
Y117625D01*
X192375Y118125D01*
X192250D01*
X192125Y118000D01*
Y117750D01*
X192250Y117625D01*
X192875Y118375D02*
Y118624D01*
Y118499D01*
X192125D01*
X192250Y118375D01*
X196300Y115125D02*
X195550D01*
Y115500D01*
X195675Y115625D01*
X195925D01*
X196050Y115500D01*
Y115125D01*
Y115375D02*
X196300Y115625D01*
Y116375D02*
Y115875D01*
X195800Y116375D01*
X195675D01*
X195550Y116250D01*
Y116000D01*
X195675Y115875D01*
Y116625D02*
X195550Y116749D01*
Y116999D01*
X195675Y117124D01*
X196175D01*
X196300Y116999D01*
Y116749D01*
X196175Y116625D01*
X195675D01*
X190250Y124450D02*
Y125200D01*
X190625D01*
X190750Y125075D01*
Y124825D01*
X190625Y124700D01*
X190250D01*
X190500D02*
X190750Y124450D01*
X191000D02*
X191250D01*
X191125D01*
Y125200D01*
X191000Y125075D01*
X191625Y124575D02*
X191750Y124450D01*
X191999D01*
X192124Y124575D01*
Y125075D01*
X191999Y125200D01*
X191750D01*
X191625Y125075D01*
Y124950D01*
X191750Y124825D01*
X192124D01*
X195175Y124675D02*
X194425D01*
Y125050D01*
X194550Y125175D01*
X194800D01*
X194925Y125050D01*
Y124675D01*
Y124925D02*
X195175Y125175D01*
Y125425D02*
Y125675D01*
Y125550D01*
X194425D01*
X194550Y125425D01*
Y126050D02*
X194425Y126175D01*
Y126424D01*
X194550Y126549D01*
X194675D01*
X194800Y126424D01*
X194925Y126549D01*
X195050D01*
X195175Y126424D01*
Y126175D01*
X195050Y126050D01*
X194925D01*
X194800Y126175D01*
X194675Y126050D01*
X194550D01*
X194800Y126175D02*
Y126424D01*
X169525Y130550D02*
Y131300D01*
X169900D01*
X170025Y131175D01*
Y130925D01*
X169900Y130800D01*
X169525D01*
X169775D02*
X170025Y130550D01*
X170275D02*
X170525D01*
X170400D01*
Y131300D01*
X170275Y131175D01*
X170900Y131300D02*
X171399D01*
Y131175D01*
X170900Y130675D01*
Y130550D01*
X167950Y117475D02*
Y118225D01*
X168325D01*
X168450Y118100D01*
Y117850D01*
X168325Y117725D01*
X167950D01*
X168200D02*
X168450Y117475D01*
X168700D02*
X168950D01*
X168825D01*
Y118225D01*
X168700Y118100D01*
X169824Y118225D02*
X169574Y118100D01*
X169325Y117850D01*
Y117600D01*
X169450Y117475D01*
X169699D01*
X169824Y117600D01*
Y117725D01*
X169699Y117850D01*
X169325D01*
X189950Y166725D02*
X189200D01*
Y167100D01*
X189325Y167225D01*
X189575D01*
X189700Y167100D01*
Y166725D01*
Y166975D02*
X189950Y167225D01*
Y167475D02*
Y167725D01*
Y167600D01*
X189200D01*
X189325Y167475D01*
X189200Y168599D02*
Y168100D01*
X189575D01*
X189450Y168349D01*
Y168474D01*
X189575Y168599D01*
X189825D01*
X189950Y168474D01*
Y168225D01*
X189825Y168100D01*
X194425Y171100D02*
Y171850D01*
X194800D01*
X194925Y171725D01*
Y171475D01*
X194800Y171350D01*
X194425D01*
X194675D02*
X194925Y171100D01*
X195175D02*
X195425D01*
X195300D01*
Y171850D01*
X195175Y171725D01*
X196174Y171100D02*
Y171850D01*
X195800Y171475D01*
X196299D01*
X194300Y165575D02*
X193550D01*
Y165950D01*
X193675Y166075D01*
X193925D01*
X194050Y165950D01*
Y165575D01*
Y165825D02*
X194300Y166075D01*
Y166325D02*
Y166575D01*
Y166450D01*
X193550D01*
X193675Y166325D01*
Y166950D02*
X193550Y167075D01*
Y167324D01*
X193675Y167449D01*
X193800D01*
X193925Y167324D01*
Y167199D01*
Y167324D01*
X194050Y167449D01*
X194175D01*
X194300Y167324D01*
Y167075D01*
X194175Y166950D01*
X165500Y105850D02*
Y106600D01*
X165875D01*
X166000Y106475D01*
Y106225D01*
X165875Y106100D01*
X165500D01*
X165750D02*
X166000Y105850D01*
X166250D02*
X166500D01*
X166375D01*
Y106600D01*
X166250Y106475D01*
X167374Y105850D02*
X166875D01*
X167374Y106350D01*
Y106475D01*
X167249Y106600D01*
X167000D01*
X166875Y106475D01*
X165800Y110625D02*
Y111375D01*
X166175D01*
X166300Y111250D01*
Y111000D01*
X166175Y110875D01*
X165800D01*
X166050D02*
X166300Y110625D01*
X166550D02*
X166800D01*
X166675D01*
Y111375D01*
X166550Y111250D01*
X167175Y110625D02*
X167424D01*
X167300D01*
Y111375D01*
X167175Y111250D01*
X166900Y88600D02*
X166150D01*
Y88975D01*
X166275Y89100D01*
X166525D01*
X166650Y88975D01*
Y88600D01*
Y88850D02*
X166900Y89100D01*
Y89350D02*
Y89600D01*
Y89475D01*
X166150D01*
X166275Y89350D01*
Y89975D02*
X166150Y90100D01*
Y90349D01*
X166275Y90474D01*
X166775D01*
X166900Y90349D01*
Y90100D01*
X166775Y89975D01*
X166275D01*
X161775Y139950D02*
Y140700D01*
X162150D01*
X162275Y140575D01*
Y140325D01*
X162150Y140200D01*
X161775D01*
X162025D02*
X162275Y139950D01*
X162525Y140075D02*
X162650Y139950D01*
X162900D01*
X163025Y140075D01*
Y140575D01*
X162900Y140700D01*
X162650D01*
X162525Y140575D01*
Y140450D01*
X162650Y140325D01*
X163025D01*
X158125Y142350D02*
Y143100D01*
X158500D01*
X158625Y142975D01*
Y142725D01*
X158500Y142600D01*
X158125D01*
X158375D02*
X158625Y142350D01*
X158875Y142975D02*
X159000Y143100D01*
X159250D01*
X159375Y142975D01*
Y142850D01*
X159250Y142725D01*
X159375Y142600D01*
Y142475D01*
X159250Y142350D01*
X159000D01*
X158875Y142475D01*
Y142600D01*
X159000Y142725D01*
X158875Y142850D01*
Y142975D01*
X159000Y142725D02*
X159250D01*
X200850Y167500D02*
Y168250D01*
X201225D01*
X201350Y168125D01*
Y167875D01*
X201225Y167750D01*
X200850D01*
X201100D02*
X201350Y167500D01*
X202100Y168250D02*
X201850Y168125D01*
X201600Y167875D01*
Y167625D01*
X201725Y167500D01*
X201975D01*
X202100Y167625D01*
Y167750D01*
X201975Y167875D01*
X201600D01*
X195350Y163400D02*
Y164150D01*
X195725D01*
X195850Y164025D01*
Y163775D01*
X195725Y163650D01*
X195350D01*
X195600D02*
X195850Y163400D01*
X196600Y164150D02*
X196100D01*
Y163775D01*
X196350Y163900D01*
X196475D01*
X196600Y163775D01*
Y163525D01*
X196475Y163400D01*
X196225D01*
X196100Y163525D01*
X164375Y88950D02*
X163625D01*
Y89325D01*
X163750Y89450D01*
X164000D01*
X164125Y89325D01*
Y88950D01*
Y89200D02*
X164375Y89450D01*
X163625Y89700D02*
Y90200D01*
X163750D01*
X164250Y89700D01*
X164375D01*
X164975Y158450D02*
X164225D01*
Y158825D01*
X164350Y158950D01*
X164600D01*
X164725Y158825D01*
Y158450D01*
Y158700D02*
X164975Y158950D01*
Y159575D02*
X164225D01*
X164600Y159200D01*
Y159700D01*
X165075Y166775D02*
X164325D01*
Y167150D01*
X164450Y167275D01*
X164700D01*
X164825Y167150D01*
Y166775D01*
Y167025D02*
X165075Y167275D01*
X164450Y167525D02*
X164325Y167650D01*
Y167900D01*
X164450Y168025D01*
X164575D01*
X164700Y167900D01*
Y167775D01*
Y167900D01*
X164825Y168025D01*
X164950D01*
X165075Y167900D01*
Y167650D01*
X164950Y167525D01*
X169050Y158525D02*
X168300D01*
Y158900D01*
X168425Y159025D01*
X168675D01*
X168800Y158900D01*
Y158525D01*
Y158775D02*
X169050Y159025D01*
Y159775D02*
Y159275D01*
X168550Y159775D01*
X168425D01*
X168300Y159650D01*
Y159400D01*
X168425Y159275D01*
X169600Y166975D02*
X168850D01*
Y167350D01*
X168975Y167475D01*
X169225D01*
X169350Y167350D01*
Y166975D01*
Y167225D02*
X169600Y167475D01*
Y167725D02*
Y167975D01*
Y167850D01*
X168850D01*
X168975Y167725D01*
X173600Y87750D02*
Y87000D01*
X174100D01*
X174850Y87750D02*
X174350D01*
Y87000D01*
X174850D01*
X174350Y87375D02*
X174600D01*
X175100Y87750D02*
Y87000D01*
X175474D01*
X175599Y87125D01*
Y87625D01*
X175474Y87750D01*
X175100D01*
X175849Y87000D02*
X176099D01*
X175974D01*
Y87750D01*
X175849Y87625D01*
X176474Y87375D02*
X176974D01*
X177724Y87000D02*
X177224D01*
X177724Y87500D01*
Y87625D01*
X177599Y87750D01*
X177349D01*
X177224Y87625D01*
X195225Y160825D02*
Y160075D01*
X195725D01*
X196475Y160825D02*
X195975D01*
Y160075D01*
X196475D01*
X195975Y160450D02*
X196225D01*
X196725Y160825D02*
Y160075D01*
X197099D01*
X197224Y160200D01*
Y160700D01*
X197099Y160825D01*
X196725D01*
X197474Y160075D02*
X197724D01*
X197599D01*
Y160825D01*
X197474Y160700D01*
X198099Y160450D02*
X198599D01*
X198849Y160075D02*
X199099D01*
X198974D01*
Y160825D01*
X198849Y160700D01*
X181975Y106375D02*
X182725D01*
Y106875D01*
Y107125D02*
Y107375D01*
Y107250D01*
X181975D01*
X182100Y107125D01*
X182725Y108124D02*
X181975D01*
X182350Y107750D01*
Y108249D01*
X190050Y139825D02*
X190800D01*
Y140325D01*
Y140574D02*
Y140824D01*
Y140699D01*
X190050D01*
X190175Y140574D01*
X190800Y141574D02*
X190050D01*
X190425Y141199D01*
Y141699D01*
X177875Y104825D02*
X178625D01*
Y105325D01*
Y105575D02*
Y105825D01*
Y105700D01*
X177875D01*
X178000Y105575D01*
Y106200D02*
X177875Y106325D01*
Y106574D01*
X178000Y106699D01*
X178125D01*
X178250Y106574D01*
Y106449D01*
Y106574D01*
X178375Y106699D01*
X178500D01*
X178625Y106574D01*
Y106325D01*
X178500Y106200D01*
X194100Y140700D02*
X194850D01*
Y141200D01*
Y141450D02*
Y141700D01*
Y141575D01*
X194100D01*
X194225Y141450D01*
Y142075D02*
X194100Y142200D01*
Y142449D01*
X194225Y142574D01*
X194350D01*
X194475Y142449D01*
Y142324D01*
Y142449D01*
X194600Y142574D01*
X194725D01*
X194850Y142449D01*
Y142200D01*
X194725Y142075D01*
X192550Y101825D02*
Y101075D01*
X193050D01*
X193300D02*
X193550D01*
X193425D01*
Y101825D01*
X193300Y101700D01*
X194424Y101075D02*
X193925D01*
X194424Y101575D01*
Y101700D01*
X194299Y101825D01*
X194050D01*
X193925Y101700D01*
X174125Y145075D02*
X174875D01*
Y145575D01*
Y145825D02*
Y146075D01*
Y145950D01*
X174125D01*
X174250Y145825D01*
X174875Y146949D02*
Y146450D01*
X174375Y146949D01*
X174250D01*
X174125Y146824D01*
Y146575D01*
X174250Y146450D01*
X186150Y104250D02*
Y103500D01*
X186650D01*
X186900D02*
X187150D01*
X187025D01*
Y104250D01*
X186900Y104125D01*
X187525D02*
X187650Y104250D01*
X187899D01*
X188024Y104125D01*
Y103625D01*
X187899Y103500D01*
X187650D01*
X187525Y103625D01*
Y104125D01*
X184400Y141625D02*
Y140875D01*
X184900D01*
X185150D02*
X185400D01*
X185275D01*
Y141625D01*
X185150Y141500D01*
X185775D02*
X185900Y141625D01*
X186149D01*
X186274Y141500D01*
Y141000D01*
X186149Y140875D01*
X185900D01*
X185775Y141000D01*
Y141500D01*
X198032Y93551D02*
Y92801D01*
X198532D01*
X198782Y92926D02*
X198907Y92801D01*
X199157D01*
X199282Y92926D01*
Y93426D01*
X199157Y93551D01*
X198907D01*
X198782Y93426D01*
Y93301D01*
X198907Y93176D01*
X199282D01*
X173500Y155650D02*
Y154900D01*
X174000D01*
X174250Y155025D02*
X174375Y154900D01*
X174625D01*
X174750Y155025D01*
Y155525D01*
X174625Y155650D01*
X174375D01*
X174250Y155525D01*
Y155400D01*
X174375Y155275D01*
X174750D01*
X192175Y123375D02*
X192925D01*
Y123875D01*
X192300Y124125D02*
X192175Y124250D01*
Y124500D01*
X192300Y124625D01*
X192425D01*
X192550Y124500D01*
X192675Y124625D01*
X192800D01*
X192925Y124500D01*
Y124250D01*
X192800Y124125D01*
X192675D01*
X192550Y124250D01*
X192425Y124125D01*
X192300D01*
X192550Y124250D02*
Y124500D01*
X192875Y131575D02*
X193625D01*
Y132075D01*
X192875Y132325D02*
Y132825D01*
X193000D01*
X193500Y132325D01*
X193625D01*
X186900Y121525D02*
X187650D01*
Y122025D01*
X186900Y122775D02*
Y122275D01*
X187275D01*
X187150Y122525D01*
Y122650D01*
X187275Y122775D01*
X187525D01*
X187650Y122650D01*
Y122400D01*
X187525Y122275D01*
X188100Y131291D02*
X188850D01*
Y131791D01*
Y132416D02*
X188100D01*
X188475Y132041D01*
Y132541D01*
X197145Y116895D02*
Y116145D01*
X197645D01*
X197895Y116770D02*
X198020Y116895D01*
X198270D01*
X198395Y116770D01*
Y116645D01*
X198270Y116520D01*
X198145D01*
X198270D01*
X198395Y116395D01*
Y116270D01*
X198270Y116145D01*
X198020D01*
X197895Y116270D01*
X199675Y125550D02*
Y124800D01*
X200175D01*
X200925D02*
X200425D01*
X200925Y125300D01*
Y125425D01*
X200800Y125550D01*
X200550D01*
X200425Y125425D01*
X159725Y136750D02*
X160475D01*
Y137250D01*
Y137500D02*
Y137750D01*
Y137625D01*
X159725D01*
X159850Y137500D01*
X176605Y95795D02*
X176480Y95670D01*
Y95420D01*
X176605Y95295D01*
X177105D01*
X177230Y95420D01*
Y95670D01*
X177105Y95795D01*
X176480Y96545D02*
X176605Y96295D01*
X176855Y96045D01*
X177105D01*
X177230Y96170D01*
Y96420D01*
X177105Y96545D01*
X176980D01*
X176855Y96420D01*
Y96045D01*
X177105Y96795D02*
X177230Y96919D01*
Y97169D01*
X177105Y97294D01*
X176605D01*
X176480Y97169D01*
Y96919D01*
X176605Y96795D01*
X176730D01*
X176855Y96919D01*
Y97294D01*
X195675Y150625D02*
X195550Y150500D01*
Y150250D01*
X195675Y150125D01*
X196175D01*
X196300Y150250D01*
Y150500D01*
X196175Y150625D01*
X195550Y151375D02*
X195675Y151125D01*
X195925Y150875D01*
X196175D01*
X196300Y151000D01*
Y151250D01*
X196175Y151375D01*
X196050D01*
X195925Y151250D01*
Y150875D01*
X196175Y151625D02*
X196300Y151749D01*
Y151999D01*
X196175Y152124D01*
X195675D01*
X195550Y151999D01*
Y151749D01*
X195675Y151625D01*
X195800D01*
X195925Y151749D01*
Y152124D01*
X188625Y165450D02*
X188500Y165575D01*
X188250D01*
X188125Y165450D01*
Y164950D01*
X188250Y164825D01*
X188500D01*
X188625Y164950D01*
X189375Y165575D02*
X189125Y165450D01*
X188875Y165200D01*
Y164950D01*
X189000Y164825D01*
X189250D01*
X189375Y164950D01*
Y165075D01*
X189250Y165200D01*
X188875D01*
X189999Y164825D02*
Y165575D01*
X189625Y165200D01*
X190124D01*
X190374D02*
X190874D01*
X191124Y164825D02*
X191374D01*
X191249D01*
Y165575D01*
X191124Y165450D01*
X195125Y112550D02*
X195000Y112675D01*
X194750D01*
X194625Y112550D01*
Y112050D01*
X194750Y111925D01*
X195000D01*
X195125Y112050D01*
X195875Y112675D02*
X195625Y112550D01*
X195375Y112300D01*
Y112050D01*
X195500Y111925D01*
X195750D01*
X195875Y112050D01*
Y112175D01*
X195750Y112300D01*
X195375D01*
X196125Y112550D02*
X196249Y112675D01*
X196499D01*
X196624Y112550D01*
Y112425D01*
X196499Y112300D01*
X196374D01*
X196499D01*
X196624Y112175D01*
Y112050D01*
X196499Y111925D01*
X196249D01*
X196125Y112050D01*
X180450Y135900D02*
X180325Y136025D01*
X180075D01*
X179950Y135900D01*
Y135400D01*
X180075Y135275D01*
X180325D01*
X180450Y135400D01*
X181200Y136025D02*
X180950Y135900D01*
X180700Y135650D01*
Y135400D01*
X180825Y135275D01*
X181075D01*
X181200Y135400D01*
Y135525D01*
X181075Y135650D01*
X180700D01*
X181450Y135900D02*
X181574Y136025D01*
X181824D01*
X181949Y135900D01*
Y135775D01*
X181824Y135650D01*
X181699D01*
X181824D01*
X181949Y135525D01*
Y135400D01*
X181824Y135275D01*
X181574D01*
X181450Y135400D01*
X190325Y111325D02*
X190200Y111450D01*
X189950D01*
X189825Y111325D01*
Y110825D01*
X189950Y110700D01*
X190200D01*
X190325Y110825D01*
X191075Y111450D02*
X190825Y111325D01*
X190575Y111075D01*
Y110825D01*
X190700Y110700D01*
X190950D01*
X191075Y110825D01*
Y110950D01*
X190950Y111075D01*
X190575D01*
X191824Y110700D02*
X191325D01*
X191824Y111200D01*
Y111325D01*
X191699Y111450D01*
X191449D01*
X191325Y111325D01*
X175225Y137200D02*
X175100Y137325D01*
X174850D01*
X174725Y137200D01*
Y136700D01*
X174850Y136575D01*
X175100D01*
X175225Y136700D01*
X175975Y137325D02*
X175725Y137200D01*
X175475Y136950D01*
Y136700D01*
X175600Y136575D01*
X175850D01*
X175975Y136700D01*
Y136825D01*
X175850Y136950D01*
X175475D01*
X176724Y136575D02*
X176225D01*
X176724Y137075D01*
Y137200D01*
X176599Y137325D01*
X176349D01*
X176225Y137200D01*
X196875Y106450D02*
X196750Y106575D01*
X196500D01*
X196375Y106450D01*
Y105950D01*
X196500Y105825D01*
X196750D01*
X196875Y105950D01*
X197625Y106575D02*
X197125D01*
Y106200D01*
X197375Y106325D01*
X197500D01*
X197625Y106200D01*
Y105950D01*
X197500Y105825D01*
X197250D01*
X197125Y105950D01*
X197875Y106450D02*
X197999Y106575D01*
X198249D01*
X198374Y106450D01*
Y106325D01*
X198249Y106200D01*
X198124D01*
X198249D01*
X198374Y106075D01*
Y105950D01*
X198249Y105825D01*
X197999D01*
X197875Y105950D01*
X181450Y141875D02*
X181325Y142000D01*
X181075D01*
X180950Y141875D01*
Y141375D01*
X181075Y141250D01*
X181325D01*
X181450Y141375D01*
X182200Y142000D02*
X181700D01*
Y141625D01*
X181950Y141750D01*
X182075D01*
X182200Y141625D01*
Y141375D01*
X182075Y141250D01*
X181825D01*
X181700Y141375D01*
X182450Y141875D02*
X182574Y142000D01*
X182824D01*
X182949Y141875D01*
Y141750D01*
X182824Y141625D01*
X182699D01*
X182824D01*
X182949Y141500D01*
Y141375D01*
X182824Y141250D01*
X182574D01*
X182450Y141375D01*
X190300Y106500D02*
X190175Y106625D01*
X189925D01*
X189800Y106500D01*
Y106000D01*
X189925Y105875D01*
X190175D01*
X190300Y106000D01*
X191050Y106625D02*
X190550D01*
Y106250D01*
X190800Y106375D01*
X190925D01*
X191050Y106250D01*
Y106000D01*
X190925Y105875D01*
X190675D01*
X190550Y106000D01*
X191799Y105875D02*
X191300D01*
X191799Y106375D01*
Y106500D01*
X191674Y106625D01*
X191424D01*
X191300Y106500D01*
X175125Y141850D02*
X175000Y141975D01*
X174750D01*
X174625Y141850D01*
Y141350D01*
X174750Y141225D01*
X175000D01*
X175125Y141350D01*
X175875Y141975D02*
X175375D01*
Y141600D01*
X175625Y141725D01*
X175750D01*
X175875Y141600D01*
Y141350D01*
X175750Y141225D01*
X175500D01*
X175375Y141350D01*
X176624Y141225D02*
X176125D01*
X176624Y141725D01*
Y141850D01*
X176499Y141975D01*
X176249D01*
X176125Y141850D01*
X196250Y103375D02*
X196125Y103250D01*
Y103000D01*
X196250Y102875D01*
X196750D01*
X196875Y103000D01*
Y103250D01*
X196750Y103375D01*
X196125Y104125D02*
Y103625D01*
X196500D01*
X196375Y103875D01*
Y104000D01*
X196500Y104125D01*
X196750D01*
X196875Y104000D01*
Y103750D01*
X196750Y103625D01*
X196875Y104375D02*
Y104624D01*
Y104499D01*
X196125D01*
X196250Y104375D01*
X176125Y143950D02*
X176000Y143825D01*
Y143575D01*
X176125Y143450D01*
X176625D01*
X176750Y143575D01*
Y143825D01*
X176625Y143950D01*
X176000Y144700D02*
Y144200D01*
X176375D01*
X176250Y144450D01*
Y144575D01*
X176375Y144700D01*
X176625D01*
X176750Y144575D01*
Y144325D01*
X176625Y144200D01*
X176750Y144950D02*
Y145199D01*
Y145074D01*
X176000D01*
X176125Y144950D01*
X182825Y104450D02*
X182700Y104575D01*
X182450D01*
X182325Y104450D01*
Y103950D01*
X182450Y103825D01*
X182700D01*
X182825Y103950D01*
X183450Y103825D02*
Y104575D01*
X183075Y104200D01*
X183575D01*
X183825Y104450D02*
X183949Y104575D01*
X184199D01*
X184324Y104450D01*
Y104325D01*
X184199Y104200D01*
X184324Y104075D01*
Y103950D01*
X184199Y103825D01*
X183949D01*
X183825Y103950D01*
Y104075D01*
X183949Y104200D01*
X183825Y104325D01*
Y104450D01*
X183949Y104200D02*
X184199D01*
X189225Y143950D02*
X189100Y144075D01*
X188850D01*
X188725Y143950D01*
Y143450D01*
X188850Y143325D01*
X189100D01*
X189225Y143450D01*
X189850Y143325D02*
Y144075D01*
X189475Y143700D01*
X189975D01*
X190225Y143950D02*
X190349Y144075D01*
X190599D01*
X190724Y143950D01*
Y143825D01*
X190599Y143700D01*
X190724Y143575D01*
Y143450D01*
X190599Y143325D01*
X190349D01*
X190225Y143450D01*
Y143575D01*
X190349Y143700D01*
X190225Y143825D01*
Y143950D01*
X190349Y143700D02*
X190599D01*
X187125Y164050D02*
X187000Y164175D01*
X186750D01*
X186625Y164050D01*
Y163550D01*
X186750Y163425D01*
X187000D01*
X187125Y163550D01*
X187750Y163425D02*
Y164175D01*
X187375Y163800D01*
X187875D01*
X188125Y164175D02*
X188624D01*
Y164050D01*
X188125Y163550D01*
Y163425D01*
X188874Y163800D02*
X189374D01*
X189624Y163425D02*
X189874D01*
X189749D01*
Y164175D01*
X189624Y164050D01*
X193200Y100475D02*
X193075Y100600D01*
X192825D01*
X192700Y100475D01*
Y99975D01*
X192825Y99850D01*
X193075D01*
X193200Y99975D01*
X193825Y99850D02*
Y100600D01*
X193450Y100225D01*
X193950D01*
X194699Y100600D02*
X194449Y100475D01*
X194200Y100225D01*
Y99975D01*
X194324Y99850D01*
X194574D01*
X194699Y99975D01*
Y100100D01*
X194574Y100225D01*
X194200D01*
X178525Y147875D02*
X178400Y148000D01*
X178150D01*
X178025Y147875D01*
Y147375D01*
X178150Y147250D01*
X178400D01*
X178525Y147375D01*
X179150Y147250D02*
Y148000D01*
X178775Y147625D01*
X179275D01*
X180024Y148000D02*
X179774Y147875D01*
X179525Y147625D01*
Y147375D01*
X179649Y147250D01*
X179899D01*
X180024Y147375D01*
Y147500D01*
X179899Y147625D01*
X179525D01*
X186250Y107580D02*
X186125Y107455D01*
Y107205D01*
X186250Y107080D01*
X186750D01*
X186875Y107205D01*
Y107455D01*
X186750Y107580D01*
X186875Y108205D02*
X186125D01*
X186500Y107830D01*
Y108330D01*
X186250Y108580D02*
X186125Y108704D01*
Y108954D01*
X186250Y109079D01*
X186750D01*
X186875Y108954D01*
Y108704D01*
X186750Y108580D01*
X186250D01*
X185925Y144066D02*
X185800Y143941D01*
Y143691D01*
X185925Y143566D01*
X186425D01*
X186550Y143691D01*
Y143941D01*
X186425Y144066D01*
X186550Y144691D02*
X185800D01*
X186175Y144316D01*
Y144816D01*
X185925Y145065D02*
X185800Y145190D01*
Y145440D01*
X185925Y145565D01*
X186425D01*
X186550Y145440D01*
Y145190D01*
X186425Y145065D01*
X185925D01*
X193075Y91275D02*
X192950Y91150D01*
Y90900D01*
X193075Y90775D01*
X193575D01*
X193700Y90900D01*
Y91150D01*
X193575Y91275D01*
X193075Y91525D02*
X192950Y91650D01*
Y91900D01*
X193075Y92025D01*
X193200D01*
X193325Y91900D01*
Y91775D01*
Y91900D01*
X193450Y92025D01*
X193575D01*
X193700Y91900D01*
Y91650D01*
X193575Y91525D01*
X193075Y92275D02*
X192950Y92399D01*
Y92649D01*
X193075Y92774D01*
X193200D01*
X193325Y92649D01*
X193450Y92774D01*
X193575D01*
X193700Y92649D01*
Y92399D01*
X193575Y92275D01*
X193450D01*
X193325Y92399D01*
X193200Y92275D01*
X193075D01*
X193325Y92399D02*
Y92649D01*
X179175Y155475D02*
X179050Y155350D01*
Y155100D01*
X179175Y154975D01*
X179675D01*
X179800Y155100D01*
Y155350D01*
X179675Y155475D01*
X179175Y155725D02*
X179050Y155850D01*
Y156100D01*
X179175Y156225D01*
X179300D01*
X179425Y156100D01*
Y155975D01*
Y156100D01*
X179550Y156225D01*
X179675D01*
X179800Y156100D01*
Y155850D01*
X179675Y155725D01*
X179175Y156475D02*
X179050Y156599D01*
Y156849D01*
X179175Y156974D01*
X179300D01*
X179425Y156849D01*
X179550Y156974D01*
X179675D01*
X179800Y156849D01*
Y156599D01*
X179675Y156475D01*
X179550D01*
X179425Y156599D01*
X179300Y156475D01*
X179175D01*
X179425Y156599D02*
Y156849D01*
X184750Y108075D02*
X184625Y107950D01*
Y107700D01*
X184750Y107575D01*
X185250D01*
X185375Y107700D01*
Y107950D01*
X185250Y108075D01*
X184750Y108325D02*
X184625Y108450D01*
Y108700D01*
X184750Y108825D01*
X184875D01*
X185000Y108700D01*
Y108575D01*
Y108700D01*
X185125Y108825D01*
X185250D01*
X185375Y108700D01*
Y108450D01*
X185250Y108325D01*
X184625Y109574D02*
X184750Y109324D01*
X185000Y109075D01*
X185250D01*
X185375Y109199D01*
Y109449D01*
X185250Y109574D01*
X185125D01*
X185000Y109449D01*
Y109075D01*
X188575Y140050D02*
X188450Y139925D01*
Y139675D01*
X188575Y139550D01*
X189075D01*
X189200Y139675D01*
Y139925D01*
X189075Y140050D01*
X188575Y140300D02*
X188450Y140425D01*
Y140675D01*
X188575Y140800D01*
X188700D01*
X188825Y140675D01*
Y140550D01*
Y140675D01*
X188950Y140800D01*
X189075D01*
X189200Y140675D01*
Y140425D01*
X189075Y140300D01*
X188450Y141549D02*
X188575Y141299D01*
X188825Y141050D01*
X189075D01*
X189200Y141174D01*
Y141424D01*
X189075Y141549D01*
X188950D01*
X188825Y141424D01*
Y141050D01*
X198550Y89075D02*
X198425Y88950D01*
Y88700D01*
X198550Y88575D01*
X199050D01*
X199175Y88700D01*
Y88950D01*
X199050Y89075D01*
X198550Y89325D02*
X198425Y89450D01*
Y89700D01*
X198550Y89825D01*
X198675D01*
X198800Y89700D01*
Y89575D01*
Y89700D01*
X198925Y89825D01*
X199050D01*
X199175Y89700D01*
Y89450D01*
X199050Y89325D01*
X199175Y90574D02*
Y90075D01*
X198675Y90574D01*
X198550D01*
X198425Y90449D01*
Y90199D01*
X198550Y90075D01*
X173800Y157775D02*
X173675Y157650D01*
Y157400D01*
X173800Y157275D01*
X174300D01*
X174425Y157400D01*
Y157650D01*
X174300Y157775D01*
X173800Y158025D02*
X173675Y158150D01*
Y158400D01*
X173800Y158525D01*
X173925D01*
X174050Y158400D01*
Y158275D01*
Y158400D01*
X174175Y158525D01*
X174300D01*
X174425Y158400D01*
Y158150D01*
X174300Y158025D01*
X174425Y159274D02*
Y158775D01*
X173925Y159274D01*
X173800D01*
X173675Y159149D01*
Y158899D01*
X173800Y158775D01*
X188975Y159175D02*
X188850Y159050D01*
Y158800D01*
X188975Y158675D01*
X189475D01*
X189600Y158800D01*
Y159050D01*
X189475Y159175D01*
X188975Y159425D02*
X188850Y159550D01*
Y159800D01*
X188975Y159925D01*
X189100D01*
X189225Y159800D01*
Y159675D01*
Y159800D01*
X189350Y159925D01*
X189475D01*
X189600Y159800D01*
Y159550D01*
X189475Y159425D01*
X188975Y160175D02*
X188850Y160299D01*
Y160549D01*
X188975Y160674D01*
X189100D01*
X189225Y160549D01*
Y160424D01*
Y160549D01*
X189350Y160674D01*
X189475D01*
X189600Y160549D01*
Y160299D01*
X189475Y160175D01*
X197370Y120620D02*
X197245Y120745D01*
X196995D01*
X196870Y120620D01*
Y120120D01*
X196995Y119995D01*
X197245D01*
X197370Y120120D01*
X198120Y119995D02*
X197620D01*
X198120Y120495D01*
Y120620D01*
X197995Y120745D01*
X197745D01*
X197620Y120620D01*
X198370D02*
X198494Y120745D01*
X198744D01*
X198869Y120620D01*
Y120495D01*
X198744Y120370D01*
X198869Y120245D01*
Y120120D01*
X198744Y119995D01*
X198494D01*
X198370Y120120D01*
Y120245D01*
X198494Y120370D01*
X198370Y120495D01*
Y120620D01*
X198494Y120370D02*
X198744D01*
X197053Y128822D02*
X196928Y128947D01*
X196679D01*
X196554Y128822D01*
Y128323D01*
X196679Y128198D01*
X196928D01*
X197053Y128323D01*
X197803Y128198D02*
X197303D01*
X197803Y128697D01*
Y128822D01*
X197678Y128947D01*
X197428D01*
X197303Y128822D01*
X198553Y128947D02*
X198303Y128822D01*
X198053Y128573D01*
Y128323D01*
X198178Y128198D01*
X198428D01*
X198553Y128323D01*
Y128448D01*
X198428Y128573D01*
X198053D01*
X194775Y123825D02*
X194650Y123950D01*
X194400D01*
X194275Y123825D01*
Y123325D01*
X194400Y123200D01*
X194650D01*
X194775Y123325D01*
X195525Y123200D02*
X195025D01*
X195525Y123700D01*
Y123825D01*
X195400Y123950D01*
X195150D01*
X195025Y123825D01*
X196274Y123950D02*
X195775D01*
Y123575D01*
X196024Y123700D01*
X196149D01*
X196274Y123575D01*
Y123325D01*
X196149Y123200D01*
X195899D01*
X195775Y123325D01*
X194850Y131800D02*
X194725Y131925D01*
X194475D01*
X194350Y131800D01*
Y131300D01*
X194475Y131175D01*
X194725D01*
X194850Y131300D01*
X195600Y131175D02*
X195100D01*
X195600Y131675D01*
Y131800D01*
X195475Y131925D01*
X195225D01*
X195100Y131800D01*
X196224Y131175D02*
Y131925D01*
X195850Y131550D01*
X196349D01*
X187200Y116725D02*
X187075Y116600D01*
Y116350D01*
X187200Y116225D01*
X187700D01*
X187825Y116350D01*
Y116600D01*
X187700Y116725D01*
X187825Y117475D02*
Y116975D01*
X187325Y117475D01*
X187200D01*
X187075Y117350D01*
Y117100D01*
X187200Y116975D01*
Y117725D02*
X187075Y117849D01*
Y118099D01*
X187200Y118224D01*
X187325D01*
X187450Y118099D01*
Y117974D01*
Y118099D01*
X187575Y118224D01*
X187700D01*
X187825Y118099D01*
Y117849D01*
X187700Y117725D01*
X189150Y116925D02*
X189025Y117050D01*
X188775D01*
X188650Y116925D01*
Y116425D01*
X188775Y116300D01*
X189025D01*
X189150Y116425D01*
X189900Y116300D02*
X189400D01*
X189900Y116800D01*
Y116925D01*
X189775Y117050D01*
X189525D01*
X189400Y116925D01*
X190649Y116300D02*
X190150D01*
X190649Y116800D01*
Y116925D01*
X190524Y117050D01*
X190274D01*
X190150Y116925D01*
X187275Y126425D02*
X187150Y126300D01*
Y126050D01*
X187275Y125925D01*
X187775D01*
X187900Y126050D01*
Y126300D01*
X187775Y126425D01*
X187900Y127175D02*
Y126675D01*
X187400Y127175D01*
X187275D01*
X187150Y127050D01*
Y126800D01*
X187275Y126675D01*
X187900Y127425D02*
Y127674D01*
Y127549D01*
X187150D01*
X187275Y127425D01*
X188425Y125275D02*
X188300Y125400D01*
X188050D01*
X187925Y125275D01*
Y124775D01*
X188050Y124650D01*
X188300D01*
X188425Y124775D01*
X189175Y124650D02*
X188675D01*
X189175Y125150D01*
Y125275D01*
X189050Y125400D01*
X188800D01*
X188675Y125275D01*
X189425D02*
X189549Y125400D01*
X189799D01*
X189924Y125275D01*
Y124775D01*
X189799Y124650D01*
X189549D01*
X189425Y124775D01*
Y125275D01*
X160750Y129475D02*
X160625Y129350D01*
Y129100D01*
X160750Y128975D01*
X161250D01*
X161375Y129100D01*
Y129350D01*
X161250Y129475D01*
X161375Y129725D02*
Y129975D01*
Y129850D01*
X160625D01*
X160750Y129725D01*
X161250Y130350D02*
X161375Y130475D01*
Y130724D01*
X161250Y130849D01*
X160750D01*
X160625Y130724D01*
Y130475D01*
X160750Y130350D01*
X160875D01*
X161000Y130475D01*
Y130849D01*
X185825Y119225D02*
X185700Y119100D01*
Y118850D01*
X185825Y118725D01*
X186325D01*
X186450Y118850D01*
Y119100D01*
X186325Y119225D01*
X186450Y119475D02*
Y119725D01*
Y119600D01*
X185700D01*
X185825Y119475D01*
Y120100D02*
X185700Y120225D01*
Y120474D01*
X185825Y120599D01*
X185950D01*
X186075Y120474D01*
X186200Y120599D01*
X186325D01*
X186450Y120474D01*
Y120225D01*
X186325Y120100D01*
X186200D01*
X186075Y120225D01*
X185950Y120100D01*
X185825D01*
X186075Y120225D02*
Y120474D01*
X192400Y125450D02*
X192275Y125325D01*
Y125075D01*
X192400Y124950D01*
X192900D01*
X193025Y125075D01*
Y125325D01*
X192900Y125450D01*
X193025Y125700D02*
Y125950D01*
Y125825D01*
X192275D01*
X192400Y125700D01*
X192275Y126824D02*
Y126325D01*
X192650D01*
X192525Y126574D01*
Y126699D01*
X192650Y126824D01*
X192900D01*
X193025Y126699D01*
Y126450D01*
X192900Y126325D01*
X201250Y118225D02*
X201125Y118100D01*
Y117850D01*
X201250Y117725D01*
X201750D01*
X201875Y117850D01*
Y118100D01*
X201750Y118225D01*
X201875Y118475D02*
Y118725D01*
Y118600D01*
X201125D01*
X201250Y118475D01*
X201875Y119474D02*
X201125D01*
X201500Y119100D01*
Y119599D01*
X201325Y126425D02*
X201200Y126300D01*
Y126050D01*
X201325Y125925D01*
X201825D01*
X201950Y126050D01*
Y126300D01*
X201825Y126425D01*
X201950Y126675D02*
Y126925D01*
Y126800D01*
X201200D01*
X201325Y126675D01*
Y127300D02*
X201200Y127425D01*
Y127674D01*
X201325Y127799D01*
X201450D01*
X201575Y127674D01*
Y127549D01*
Y127674D01*
X201700Y127799D01*
X201825D01*
X201950Y127674D01*
Y127425D01*
X201825Y127300D01*
X181600Y117025D02*
X181475Y117150D01*
X181225D01*
X181100Y117025D01*
Y116525D01*
X181225Y116400D01*
X181475D01*
X181600Y116525D01*
X181850Y116400D02*
X182100D01*
X181975D01*
Y117150D01*
X181850Y117025D01*
X182974Y116400D02*
X182475D01*
X182974Y116900D01*
Y117025D01*
X182849Y117150D01*
X182600D01*
X182475Y117025D01*
X175525Y126325D02*
X175400Y126200D01*
Y125950D01*
X175525Y125825D01*
X176025D01*
X176150Y125950D01*
Y126200D01*
X176025Y126325D01*
X176150Y126575D02*
Y126825D01*
Y126700D01*
X175400D01*
X175525Y126575D01*
X176150Y127200D02*
Y127449D01*
Y127325D01*
X175400D01*
X175525Y127200D01*
X192300Y170000D02*
X192175Y170125D01*
X191925D01*
X191800Y170000D01*
Y169500D01*
X191925Y169375D01*
X192175D01*
X192300Y169500D01*
X192550Y169375D02*
X192800D01*
X192675D01*
Y170125D01*
X192550Y170000D01*
X193175D02*
X193300Y170125D01*
X193549D01*
X193674Y170000D01*
Y169500D01*
X193549Y169375D01*
X193300D01*
X193175Y169500D01*
Y170000D01*
X161050Y153400D02*
X160925Y153275D01*
Y153025D01*
X161050Y152900D01*
X161550D01*
X161675Y153025D01*
Y153275D01*
X161550Y153400D01*
X161050Y153650D02*
X160925Y153775D01*
Y154025D01*
X161050Y154150D01*
X161175D01*
X161300Y154025D01*
X161425Y154150D01*
X161550D01*
X161675Y154025D01*
Y153775D01*
X161550Y153650D01*
X161425D01*
X161300Y153775D01*
X161175Y153650D01*
X161050D01*
X161300Y153775D02*
Y154025D01*
X156850Y136500D02*
X156725Y136625D01*
X156475D01*
X156350Y136500D01*
Y136000D01*
X156475Y135875D01*
X156725D01*
X156850Y136000D01*
X157100D02*
X157225Y135875D01*
X157475D01*
X157600Y136000D01*
Y136500D01*
X157475Y136625D01*
X157225D01*
X157100Y136500D01*
Y136375D01*
X157225Y136250D01*
X157600D01*
X165150Y144475D02*
X165025Y144600D01*
X164775D01*
X164650Y144475D01*
Y143975D01*
X164775Y143850D01*
X165025D01*
X165150Y143975D01*
X165400Y144600D02*
X165900D01*
Y144475D01*
X165400Y143975D01*
Y143850D01*
X199150Y164250D02*
X199025Y164375D01*
X198775D01*
X198650Y164250D01*
Y163750D01*
X198775Y163625D01*
X199025D01*
X199150Y163750D01*
X199775Y163625D02*
Y164375D01*
X199400Y164000D01*
X199900D01*
X160950Y80675D02*
X160825Y80800D01*
X160575D01*
X160450Y80675D01*
Y80175D01*
X160575Y80050D01*
X160825D01*
X160950Y80175D01*
X161700Y80800D02*
X161450Y80675D01*
X161200Y80425D01*
Y80175D01*
X161325Y80050D01*
X161575D01*
X161700Y80175D01*
Y80300D01*
X161575Y80425D01*
X161200D01*
X157250Y158475D02*
X157125Y158600D01*
X156875D01*
X156750Y158475D01*
Y157975D01*
X156875Y157850D01*
X157125D01*
X157250Y157975D01*
X158000Y157850D02*
X157500D01*
X158000Y158350D01*
Y158475D01*
X157875Y158600D01*
X157625D01*
X157500Y158475D01*
X156975Y127725D02*
X156850Y127850D01*
X156600D01*
X156475Y127725D01*
Y127225D01*
X156600Y127100D01*
X156850D01*
X156975Y127225D01*
X157225Y127725D02*
X157350Y127850D01*
X157600D01*
X157725Y127725D01*
Y127600D01*
X157600Y127475D01*
X157475D01*
X157600D01*
X157725Y127350D01*
Y127225D01*
X157600Y127100D01*
X157350D01*
X157225Y127225D01*
X165775Y146300D02*
X165650Y146175D01*
Y145925D01*
X165775Y145800D01*
X166275D01*
X166400Y145925D01*
Y146175D01*
X166275Y146300D01*
X166400Y146550D02*
Y146800D01*
Y146675D01*
X165650D01*
X165775Y146550D01*
X173675Y139925D02*
Y139175D01*
X174175D01*
X174425D02*
X174675D01*
X174550D01*
Y139925D01*
X174425Y139800D01*
X175549Y139925D02*
X175299Y139800D01*
X175050Y139550D01*
Y139300D01*
X175175Y139175D01*
X175424D01*
X175549Y139300D01*
Y139425D01*
X175424Y139550D01*
X175050D01*
X187950Y110050D02*
Y109300D01*
X188450D01*
X188700D02*
X188950D01*
X188825D01*
Y110050D01*
X188700Y109925D01*
X189824Y110050D02*
X189574Y109925D01*
X189325Y109675D01*
Y109425D01*
X189450Y109300D01*
X189699D01*
X189824Y109425D01*
Y109550D01*
X189699Y109675D01*
X189325D01*
X194175Y128400D02*
Y129150D01*
X194550D01*
X194675Y129025D01*
Y128775D01*
X194550Y128650D01*
X194175D01*
X194425D02*
X194675Y128400D01*
X195425D02*
X194925D01*
X195425Y128900D01*
Y129025D01*
X195300Y129150D01*
X195050D01*
X194925Y129025D01*
X196174Y128400D02*
X195675D01*
X196174Y128900D01*
Y129025D01*
X196049Y129150D01*
X195799D01*
X195675Y129025D01*
X194125Y120300D02*
Y121050D01*
X194500D01*
X194625Y120925D01*
Y120675D01*
X194500Y120550D01*
X194125D01*
X194375D02*
X194625Y120300D01*
X195375D02*
X194875D01*
X195375Y120800D01*
Y120925D01*
X195250Y121050D01*
X195000D01*
X194875Y120925D01*
X195625D02*
X195749Y121050D01*
X195999D01*
X196124Y120925D01*
Y120800D01*
X195999Y120675D01*
X195874D01*
X195999D01*
X196124Y120550D01*
Y120425D01*
X195999Y120300D01*
X195749D01*
X195625Y120425D01*
X164700Y130925D02*
X165450D01*
Y131425D01*
X164700Y132175D02*
X164825Y131925D01*
X165075Y131675D01*
X165325D01*
X165450Y131800D01*
Y132050D01*
X165325Y132175D01*
X165200D01*
X165075Y132050D01*
Y131675D01*
M02*
