%FSLAX43Y43*%
%MOMM*%
G71*
G01*
G75*
G04 Layer_Color=16777215*
%ADD10R,1.000X0.700*%
%ADD11R,0.700X0.800*%
%ADD12R,0.700X1.000*%
%ADD13R,0.800X0.700*%
%ADD14R,0.700X0.800*%
%ADD15R,1.600X0.800*%
%ADD16R,0.800X0.800*%
%ADD17R,0.800X0.800*%
%ADD18R,0.450X0.250*%
%ADD19R,0.800X2.000*%
%ADD20R,1.500X0.760*%
%ADD21R,0.400X1.200*%
%ADD22R,2.600X1.900*%
%ADD23R,0.760X1.500*%
%ADD24R,1.200X0.400*%
%ADD25R,1.900X2.600*%
%ADD26R,0.600X2.000*%
%ADD27O,0.600X2.000*%
%ADD28R,2.600X2.600*%
%ADD29R,2.000X1.500*%
%ADD30R,2.000X1.500*%
%ADD31R,2.000X3.800*%
%ADD32R,0.600X1.270*%
%ADD33R,0.350X0.900*%
%ADD34R,1.000X0.700*%
%ADD35R,1.000X0.700*%
%ADD36R,1.100X2.200*%
%ADD37R,1.000X1.050*%
%ADD38R,2.200X1.100*%
%ADD39R,1.050X1.000*%
%ADD40R,0.840X1.600*%
%ADD41R,2.400X0.840*%
%ADD42R,1.600X0.840*%
%ADD43R,0.800X1.500*%
%ADD44R,0.800X2.250*%
%ADD45R,0.350X0.280*%
G04:AMPARAMS|DCode=46|XSize=0.3mm|YSize=0.65mm|CornerRadius=0.075mm|HoleSize=0mm|Usage=FLASHONLY|Rotation=0.000|XOffset=0mm|YOffset=0mm|HoleType=Round|Shape=RoundedRectangle|*
%AMROUNDEDRECTD46*
21,1,0.300,0.500,0,0,0.0*
21,1,0.150,0.650,0,0,0.0*
1,1,0.150,0.075,-0.250*
1,1,0.150,-0.075,-0.250*
1,1,0.150,-0.075,0.250*
1,1,0.150,0.075,0.250*
%
%ADD46ROUNDEDRECTD46*%
G04:AMPARAMS|DCode=47|XSize=0.3mm|YSize=0.65mm|CornerRadius=0.075mm|HoleSize=0mm|Usage=FLASHONLY|Rotation=270.000|XOffset=0mm|YOffset=0mm|HoleType=Round|Shape=RoundedRectangle|*
%AMROUNDEDRECTD47*
21,1,0.300,0.500,0,0,270.0*
21,1,0.150,0.650,0,0,270.0*
1,1,0.150,-0.250,-0.075*
1,1,0.150,-0.250,0.075*
1,1,0.150,0.250,0.075*
1,1,0.150,0.250,-0.075*
%
%ADD47ROUNDEDRECTD47*%
%ADD48R,3.300X3.300*%
%ADD49R,0.500X0.500*%
%ADD50R,1.270X0.640*%
%ADD51R,0.900X1.300*%
%ADD52C,0.750*%
%ADD53C,0.500*%
%ADD54C,0.250*%
%ADD55C,0.350*%
%ADD56C,0.965*%
%ADD57C,0.900*%
%ADD58C,0.700*%
%ADD59C,0.200*%
%ADD60C,0.300*%
%ADD61R,11.925X2.000*%
%ADD62R,6.200X2.000*%
%ADD63R,9.650X1.875*%
%ADD64R,2.000X30.000*%
%ADD65R,8.425X2.000*%
%ADD66R,18.025X2.000*%
%ADD67R,3.400X2.000*%
%ADD68R,24.500X1.950*%
%ADD69C,1.000*%
%ADD70R,4.000X4.000*%
%ADD71R,4.000X4.000*%
%ADD72C,0.500*%
%ADD73C,0.900*%
%ADD74C,0.700*%
%ADD75C,1.016*%
%ADD76C,1.900*%
G04:AMPARAMS|DCode=77|XSize=4.3mm|YSize=4.3mm|CornerRadius=0mm|HoleSize=0mm|Usage=FLASHONLY|Rotation=0.000|XOffset=0mm|YOffset=0mm|HoleType=Round|Shape=Relief|Width=0.5mm|Gap=0.25mm|Entries=4|*
%AMTHD77*
7,0,0,4.300,3.800,0.500,45*
%
%ADD77THD77*%
G04:AMPARAMS|DCode=78|XSize=1.754mm|YSize=1.754mm|CornerRadius=0mm|HoleSize=0mm|Usage=FLASHONLY|Rotation=0.000|XOffset=0mm|YOffset=0mm|HoleType=Round|Shape=Relief|Width=0.5mm|Gap=0.25mm|Entries=4|*
%AMTHD78*
7,0,0,1.754,1.254,0.500,45*
%
%ADD78THD78*%
%ADD79C,1.100*%
%ADD80C,0.345*%
%ADD81R,1.000X2.540*%
%ADD82C,0.600*%
%ADD83C,0.203*%
%ADD84C,0.100*%
%ADD85C,0.254*%
%ADD86C,0.152*%
%ADD87C,0.150*%
%ADD88R,0.560X0.210*%
%ADD89R,0.150X0.400*%
%ADD90R,0.150X0.500*%
%ADD91R,0.700X0.500*%
%ADD92R,0.700X0.400*%
%ADD93R,0.400X0.150*%
%ADD94R,0.500X0.150*%
%ADD95R,0.500X0.700*%
%ADD96R,0.400X0.700*%
%ADD97R,0.500X0.150*%
%ADD98R,0.350X1.300*%
%ADD99R,0.300X2.575*%
%ADD100R,0.325X1.400*%
%ADD101R,0.275X0.325*%
%ADD102R,2.575X0.300*%
%ADD103R,1.400X0.325*%
%ADD104R,0.250X0.325*%
%ADD105R,0.350X1.300*%
%ADD106R,0.410X0.210*%
%ADD107R,0.900X0.300*%
%ADD108R,1.494X18.900*%
%ADD109R,51.325X2.938*%
%ADD110R,51.345X2.950*%
%ADD111R,0.250X0.500*%
%ADD112R,0.800X0.500*%
%ADD113R,0.800X0.600*%
%ADD114R,0.250X0.600*%
%ADD115R,0.500X0.250*%
%ADD116R,0.500X0.800*%
%ADD117R,0.500X0.800*%
%ADD118R,0.600X0.800*%
%ADD119R,0.600X0.250*%
%ADD120R,2.200X4.000*%
%ADD121R,2.200X1.700*%
%ADD122R,2.200X1.700*%
%ADD123R,0.450X1.200*%
%ADD124R,0.450X1.200*%
%ADD125R,1.075X1.500*%
%ADD126R,0.400X3.300*%
%ADD127R,2.500X0.400*%
%ADD128R,1.500X1.075*%
%ADD129R,2.000X30.000*%
%ADD130R,24.075X2.000*%
%ADD131R,2.975X2.000*%
%ADD132R,9.200X2.000*%
%ADD133R,17.700X2.000*%
%ADD134R,1.150X0.850*%
%ADD135R,0.850X0.950*%
%ADD136R,0.850X1.150*%
%ADD137R,0.950X0.850*%
%ADD138R,0.850X0.950*%
%ADD139R,1.750X0.950*%
%ADD140R,0.950X0.950*%
%ADD141R,0.950X0.950*%
%ADD142R,0.600X0.400*%
%ADD143R,1.650X0.910*%
%ADD144R,0.550X1.350*%
%ADD145R,0.910X1.650*%
%ADD146R,1.350X0.550*%
%ADD147R,0.750X2.150*%
%ADD148O,0.750X2.150*%
%ADD149R,2.750X2.750*%
%ADD150R,2.150X1.650*%
%ADD151R,2.150X1.650*%
%ADD152R,2.150X3.950*%
%ADD153R,0.750X1.420*%
%ADD154R,1.100X0.800*%
%ADD155R,1.100X0.800*%
%ADD156R,1.250X2.350*%
%ADD157R,1.150X1.200*%
%ADD158R,2.350X1.250*%
%ADD159R,1.200X1.150*%
%ADD160R,0.990X1.750*%
%ADD161R,2.600X1.040*%
%ADD162R,1.040X1.800*%
%ADD163R,1.800X1.040*%
%ADD164R,1.000X1.700*%
%ADD165R,1.000X2.450*%
%ADD166R,0.950X1.650*%
%ADD167R,0.450X0.380*%
G04:AMPARAMS|DCode=168|XSize=0.4mm|YSize=0.75mm|CornerRadius=0.125mm|HoleSize=0mm|Usage=FLASHONLY|Rotation=0.000|XOffset=0mm|YOffset=0mm|HoleType=Round|Shape=RoundedRectangle|*
%AMROUNDEDRECTD168*
21,1,0.400,0.500,0,0,0.0*
21,1,0.150,0.750,0,0,0.0*
1,1,0.250,0.075,-0.250*
1,1,0.250,-0.075,-0.250*
1,1,0.250,-0.075,0.250*
1,1,0.250,0.075,0.250*
%
%ADD168ROUNDEDRECTD168*%
G04:AMPARAMS|DCode=169|XSize=0.4mm|YSize=0.75mm|CornerRadius=0.125mm|HoleSize=0mm|Usage=FLASHONLY|Rotation=270.000|XOffset=0mm|YOffset=0mm|HoleType=Round|Shape=RoundedRectangle|*
%AMROUNDEDRECTD169*
21,1,0.400,0.500,0,0,270.0*
21,1,0.150,0.750,0,0,270.0*
1,1,0.250,-0.250,-0.075*
1,1,0.250,-0.250,0.075*
1,1,0.250,0.250,0.075*
1,1,0.250,0.250,-0.075*
%
%ADD169ROUNDEDRECTD169*%
%ADD170R,0.650X0.650*%
%ADD171R,1.420X0.790*%
%ADD172R,1.050X1.450*%
%ADD173C,1.300*%
%ADD174R,4.150X4.150*%
%ADD175R,4.150X4.150*%
%ADD176R,51.400X3.000*%
%ADD177R,51.520X5.825*%
%ADD178R,1.150X2.690*%
%ADD179C,0.020*%
%ADD180C,0.025*%
%ADD181C,0.025*%
%ADD182C,0.020*%
%ADD183C,0.030*%
G54D59*
X191475Y122025D02*
G03*
X191475Y122025I-25J0D01*
G01*
Y130100D02*
G03*
X191475Y130100I-25J0D01*
G01*
X198425Y167975D02*
G03*
X198425Y167975I-25J0D01*
G01*
G54D179*
X184100Y119300D02*
G03*
X184100Y119300I-200J0D01*
G01*
X185775Y127200D02*
G03*
X185775Y127200I-200J0D01*
G01*
X162700Y123250D02*
G03*
X162700Y123250I-500J0D01*
G01*
X179470Y153332D02*
G03*
X179470Y153332I-250J0D01*
G01*
X179670Y151557D02*
G03*
X179670Y151257I0J-150D01*
G01*
X178290Y153907D02*
G03*
X178590Y153907I150J0D01*
G01*
X177320Y148907D02*
G03*
X177020Y148907I-150J0D01*
G01*
Y153907D02*
G03*
X177320Y153907I150J0D01*
G01*
X176050Y148907D02*
G03*
X175750Y148907I-150J0D01*
G01*
Y153907D02*
G03*
X176050Y153907I150J0D01*
G01*
X178590Y148907D02*
G03*
X178290Y148907I-150J0D01*
G01*
X177320D02*
G03*
X177020Y148907I-150J0D01*
G01*
X174670Y151257D02*
G03*
X174670Y151557I0J150D01*
G01*
X180175Y140200D02*
G03*
X180475Y140200I150J0D01*
G01*
X181825Y138850D02*
G03*
X181825Y138550I0J-150D01*
G01*
X180475Y137200D02*
G03*
X180175Y137200I-150J0D01*
G01*
X178825Y138550D02*
G03*
X178825Y138850I0J150D01*
G01*
X181675Y139650D02*
G03*
X181675Y139650I-150J0D01*
G01*
X191150Y154430D02*
G03*
X191150Y154430I-272J0D01*
G01*
X196725Y158955D02*
G03*
X196725Y158955I-25J0D01*
G01*
X195550Y159155D02*
G03*
X195550Y159405I0J125D01*
G01*
X197150D02*
G03*
X197150Y159155I0J-125D01*
G01*
X193800Y94525D02*
G03*
X193800Y94525I-250J0D01*
G01*
X193100Y96300D02*
G03*
X193100Y96600I0J150D01*
G01*
X194480Y93950D02*
G03*
X194180Y93950I-150J0D01*
G01*
X195450Y98950D02*
G03*
X195750Y98950I150J0D01*
G01*
Y93950D02*
G03*
X195450Y93950I-150J0D01*
G01*
X196720Y98950D02*
G03*
X197020Y98950I150J0D01*
G01*
Y93950D02*
G03*
X196720Y93950I-150J0D01*
G01*
X194180Y98950D02*
G03*
X194480Y98950I150J0D01*
G01*
X195450D02*
G03*
X195750Y98950I150J0D01*
G01*
X198100Y96600D02*
G03*
X198100Y96300I0J-150D01*
G01*
X195625Y107750D02*
G03*
X195325Y107750I-150J0D01*
G01*
X193975Y109100D02*
G03*
X193975Y109400I0J150D01*
G01*
X195325Y110750D02*
G03*
X195625Y110750I150J0D01*
G01*
X196975Y109400D02*
G03*
X196975Y109100I0J-150D01*
G01*
X194425Y108300D02*
G03*
X194425Y108300I-150J0D01*
G01*
X176125Y88895D02*
G03*
X176125Y88895I-25J0D01*
G01*
X177250Y88695D02*
G03*
X177250Y88445I0J-125D01*
G01*
X175650D02*
G03*
X175650Y88695I0J125D01*
G01*
X182193Y93420D02*
G03*
X182193Y93420I-272J0D01*
G01*
X175275Y108400D02*
Y109800D01*
X177875Y108400D02*
Y109800D01*
X175975D02*
X176075Y109700D01*
X177075D01*
X177175Y109800D01*
X175975Y108400D02*
X176075Y108500D01*
X177075D01*
X177175Y108400D01*
X195625Y139450D02*
X195725Y139350D01*
X196725D01*
X196825Y139450D01*
X195625Y138050D02*
X195725Y138150D01*
X196725D01*
X196825Y138050D01*
X194925D02*
Y139450D01*
X197525Y138050D02*
Y139450D01*
X189125Y99025D02*
X190525D01*
X189125Y96425D02*
X190525D01*
X190425Y98225D02*
X190525Y98325D01*
X190425Y97225D02*
Y98225D01*
Y97225D02*
X190525Y97125D01*
X189125Y98325D02*
X189225Y98225D01*
Y97225D02*
Y98225D01*
X189125Y97125D02*
X189225Y97225D01*
X183575Y150625D02*
X183675Y150725D01*
X183575Y149625D02*
Y150625D01*
Y149625D02*
X183675Y149525D01*
X182275Y150725D02*
X182375Y150625D01*
Y149625D02*
Y150625D01*
X182275Y149525D02*
X182375Y149625D01*
X182275Y151425D02*
X183675D01*
X182275Y148825D02*
X183675D01*
X189875Y112525D02*
X191475D01*
X189875Y115125D02*
X191475D01*
X189875Y113425D02*
X189975Y113525D01*
Y113525D02*
Y114125D01*
X189875Y114225D02*
X189975Y114125D01*
X191375Y113525D02*
X191475Y113425D01*
X191375Y113525D02*
Y114125D01*
Y114125D02*
X191475Y114225D01*
X175000Y133650D02*
X175100Y133750D01*
Y133750D02*
Y134350D01*
X175000Y134450D02*
X175100Y134350D01*
X176500Y133750D02*
X176600Y133650D01*
X176500Y133750D02*
Y134350D01*
Y134350D02*
X176600Y134450D01*
X175000Y132750D02*
X176600D01*
X175000Y135350D02*
X176600D01*
X189700Y123775D02*
X191700D01*
X189700Y121775D02*
Y123775D01*
Y121775D02*
X191700D01*
Y123775D01*
X180750Y118050D02*
Y122250D01*
X184150D01*
Y118050D02*
Y122250D01*
X180750Y118050D02*
X184150D01*
X180550Y118730D02*
X180750D01*
X180550D02*
Y119030D01*
X180750D01*
X180550Y120300D02*
X180750D01*
X180550Y120000D02*
Y120300D01*
Y120000D02*
X180750D01*
X180550Y121270D02*
X180750D01*
X180550D02*
Y121570D01*
X180750D01*
X184150Y118730D02*
X184350D01*
Y119030D01*
X184150D02*
X184350D01*
X184150Y121270D02*
X184350D01*
Y121570D01*
X184150D02*
X184350D01*
X181250Y118950D02*
Y121350D01*
X183650D01*
Y118950D02*
Y121350D01*
X181250Y118950D02*
X183650D01*
X189700Y131850D02*
X191700D01*
X189700Y129850D02*
Y131850D01*
Y129850D02*
X191700D01*
Y131850D01*
X182625Y124050D02*
X186825D01*
X182625D02*
Y127450D01*
X186825D01*
Y124050D02*
Y127450D01*
X186145Y123850D02*
Y124050D01*
X185845Y123850D02*
X186145D01*
X185845D02*
Y124050D01*
X184575Y123850D02*
Y124050D01*
Y123850D02*
X184875D01*
Y124050D01*
X183605Y123850D02*
Y124050D01*
X183305Y123850D02*
X183605D01*
X183305D02*
Y124050D01*
X186145Y127450D02*
Y127650D01*
X185845D02*
X186145D01*
X185845Y127450D02*
Y127650D01*
X183605Y127450D02*
Y127650D01*
X183305D02*
X183605D01*
X183305Y127450D02*
Y127650D01*
X183525Y124550D02*
X185925D01*
X183525D02*
Y126950D01*
X185925D01*
Y124550D02*
Y126950D01*
X171600Y120250D02*
Y128250D01*
X161300Y120250D02*
Y128250D01*
X171600D01*
X161300Y120250D02*
X171600D01*
X155150Y167525D02*
X159450D01*
Y160250D02*
Y167525D01*
X155150Y160250D02*
X159450D01*
X155150D02*
Y167550D01*
X155200Y161400D02*
X159500D01*
X155200Y161700D02*
X159500D01*
X196625Y167050D02*
X198625D01*
X196625D02*
Y168300D01*
X198625D01*
Y167050D02*
Y168300D01*
X197725D02*
Y168700D01*
X197525D02*
X197725D01*
X197525Y168300D02*
Y168700D01*
X198375Y168300D02*
Y168700D01*
X198175D02*
X198375D01*
X198175Y168300D02*
Y168700D01*
X197075Y168300D02*
Y168700D01*
X196875D02*
X197075D01*
X196875Y168300D02*
Y168700D01*
Y166650D02*
Y167050D01*
Y166650D02*
X197075D01*
Y167050D01*
X197525Y166650D02*
Y167050D01*
Y166650D02*
X197725D01*
Y167050D01*
X198175Y166650D02*
Y167050D01*
Y166650D02*
X198375D01*
Y167050D01*
X177595Y151082D02*
X179670D01*
X179420Y148907D02*
X179670Y149157D01*
X174670Y153657D02*
X174920Y153907D01*
X174670Y149157D02*
X174920Y148907D01*
X174670Y151557D02*
Y153657D01*
Y149157D02*
Y151257D01*
X178595Y148907D02*
X179420D01*
X179670Y149157D02*
Y151257D01*
X179420Y153907D02*
X179670Y153657D01*
X178115Y152732D02*
Y153907D01*
Y152732D02*
X178765D01*
Y153907D01*
X177595Y151732D02*
X179670D01*
X177595Y151082D02*
Y151732D01*
X179670Y151557D02*
Y153657D01*
X177495Y152732D02*
Y153907D01*
X176845Y152732D02*
X177495D01*
X176845D02*
Y153907D01*
X175575Y148907D02*
Y150082D01*
X176225D01*
Y148907D02*
Y150082D01*
X175575Y152732D02*
Y153907D01*
Y152732D02*
X176225D01*
Y153907D01*
X178765Y148907D02*
Y150082D01*
X178115D02*
X178765D01*
X178115Y148907D02*
Y150082D01*
X177495Y148907D02*
Y150082D01*
X176845D02*
X177495D01*
X176845Y148907D02*
Y150082D01*
X174670Y151082D02*
X175845D01*
Y151732D01*
X174670D02*
X175845D01*
X177320Y148907D02*
X178295D01*
X176045Y153907D02*
X177020D01*
X174920D02*
X175745D01*
X177320D02*
X178295D01*
X178595D02*
X179420D01*
X176045Y148907D02*
X177020D01*
X174920D02*
X175745D01*
X179125Y140200D02*
X180175D01*
X180475D02*
X181525D01*
X181825Y138850D02*
Y139900D01*
Y137500D02*
Y138550D01*
X180475Y137200D02*
X181525D01*
X179125D02*
X180175D01*
X178825Y138850D02*
Y139900D01*
Y137500D02*
Y138550D01*
X179425Y139450D02*
Y140200D01*
X178825Y139450D02*
X179425D01*
X180025D02*
Y140200D01*
Y139450D02*
X180625D01*
Y140200D01*
X181225Y138700D02*
X181675D01*
X181225D02*
Y140200D01*
X179425Y137200D02*
Y137950D01*
X178825D02*
X179425D01*
X180025Y137200D02*
Y137950D01*
X180625D01*
Y137200D02*
Y137950D01*
X181225D02*
X181825D01*
X181225Y137200D02*
Y137950D01*
X178825Y137500D02*
X179125Y137200D01*
X178825Y139900D02*
X179125Y140200D01*
X181525D02*
X181825Y139900D01*
X181525Y137200D02*
X181825Y137500D01*
X194400Y155305D02*
X195000Y154705D01*
X190000D02*
X190600Y155305D01*
X194400Y150305D02*
X195000Y150905D01*
X190000D02*
X190600Y150305D01*
X190600D02*
X194400D01*
X190600Y155305D02*
X194400D01*
X195000Y150905D02*
Y154705D01*
X190000Y150905D02*
Y154705D01*
X196550Y159080D02*
Y159480D01*
X196250D02*
X196550Y159280D01*
X196250Y159080D02*
X196550Y159280D01*
X196250Y159080D02*
Y159480D01*
X195550Y159405D02*
Y159680D01*
Y158880D02*
Y159155D01*
X197150Y159405D02*
Y159680D01*
Y158880D02*
Y159155D01*
X193100Y96775D02*
X195175D01*
X193100Y98700D02*
X193350Y98950D01*
X197850Y93950D02*
X198100Y94200D01*
X197850Y98950D02*
X198100Y98700D01*
Y94200D02*
Y96300D01*
Y96600D02*
Y98700D01*
X193350Y98950D02*
X194175D01*
X193100Y96600D02*
Y98700D01*
Y94200D02*
X193350Y93950D01*
X194655D02*
Y95125D01*
X194005D02*
X194655D01*
X194005Y93950D02*
Y95125D01*
X193100Y96125D02*
X195175D01*
Y96775D01*
X193100Y94200D02*
Y96300D01*
X195275Y93950D02*
Y95125D01*
X195925D01*
Y93950D02*
Y95125D01*
X197195Y97775D02*
Y98950D01*
X196545Y97775D02*
X197195D01*
X196545D02*
Y98950D01*
X197195Y93950D02*
Y95125D01*
X196545D02*
X197195D01*
X196545Y93950D02*
Y95125D01*
X194005Y97775D02*
Y98950D01*
Y97775D02*
X194655D01*
Y98950D01*
X195275Y97775D02*
Y98950D01*
Y97775D02*
X195925D01*
Y98950D01*
X196925Y96775D02*
X198100D01*
X196925Y96125D02*
Y96775D01*
Y96125D02*
X198100D01*
X194475Y98950D02*
X195450D01*
X195750Y93950D02*
X196725D01*
X197025D02*
X197850D01*
X194475D02*
X195450D01*
X193350D02*
X194175D01*
X195750Y98950D02*
X196725D01*
X197025D02*
X197850D01*
X195625Y107750D02*
X196675D01*
X194275D02*
X195325D01*
X193975Y108050D02*
Y109100D01*
Y109400D02*
Y110450D01*
X194275Y110750D02*
X195325D01*
X195625D02*
X196675D01*
X196975Y108050D02*
Y109100D01*
Y109400D02*
Y110450D01*
X196375Y107750D02*
Y108500D01*
X196975D01*
X195775Y107750D02*
Y108500D01*
X195175D02*
X195775D01*
X195175Y107750D02*
Y108500D01*
X194125Y109250D02*
X194575D01*
Y107750D02*
Y109250D01*
X196375Y110000D02*
Y110750D01*
Y110000D02*
X196975D01*
X195775D02*
Y110750D01*
X195175Y110000D02*
X195775D01*
X195175D02*
Y110750D01*
X193975Y110000D02*
X194575D01*
Y110750D01*
X196675D02*
X196975Y110450D01*
X196675Y107750D02*
X196975Y108050D01*
X193975D02*
X194275Y107750D01*
X193975Y110450D02*
X194275Y110750D01*
X176250Y88370D02*
Y88770D01*
Y88570D02*
X176550Y88370D01*
X176250Y88570D02*
X176550Y88770D01*
Y88370D02*
Y88770D01*
X177250Y88170D02*
Y88445D01*
Y88695D02*
Y88970D01*
X175650Y88170D02*
Y88445D01*
Y88695D02*
Y88970D01*
X177800Y93145D02*
X178400Y92545D01*
X182200D02*
X182800Y93145D01*
X177800Y96945D02*
X178400Y97545D01*
X182200D02*
X182800Y96945D01*
X178400Y97545D02*
X182200D01*
X178400Y92545D02*
X182200D01*
X177800Y93145D02*
Y96945D01*
X182800Y93145D02*
Y96945D01*
X197000Y131552D02*
X197508D01*
X197000Y131044D02*
X197508D01*
X197000Y131806D02*
X197508D01*
Y130790D02*
Y131806D01*
X197000Y130790D02*
X197508D01*
X197000D02*
Y131806D01*
X196876Y123484D02*
X197384D01*
X196876Y122976D02*
X197384D01*
X196876Y123738D02*
X197384D01*
Y122722D02*
Y123738D01*
X196876Y122722D02*
X197384D01*
X196876D02*
Y123738D01*
G54D180*
X176829Y118100D02*
G03*
X176829Y118100I-254J0D01*
G01*
X179079Y129950D02*
G03*
X179079Y129950I-254J0D01*
G01*
X182279Y142755D02*
G03*
X182279Y142755I-254J0D01*
G01*
X191029Y105095D02*
G03*
X191029Y105095I-254J0D01*
G01*
X176075Y117600D02*
X179275D01*
Y120800D01*
X176075D02*
X179275D01*
X176900D02*
Y121700D01*
X176500D02*
X176900D01*
X176500Y120800D02*
Y121700D01*
X177550Y120800D02*
Y121700D01*
X177150D02*
X177550D01*
X177150Y120800D02*
Y121700D01*
X178200Y120800D02*
Y121700D01*
X177800D02*
X178200D01*
X177800Y120800D02*
Y121700D01*
X178850Y120800D02*
Y121700D01*
X178450D02*
X178850D01*
X178450Y120800D02*
Y121700D01*
Y116700D02*
Y117600D01*
Y116700D02*
X178850D01*
Y117600D01*
X177800Y116700D02*
Y117600D01*
Y116700D02*
X178200D01*
Y117600D01*
X177150Y116700D02*
Y117600D01*
Y116700D02*
X177550D01*
Y117600D01*
X176500Y116700D02*
Y117600D01*
Y116700D02*
X176900D01*
Y117600D01*
X176075D02*
Y120800D01*
X178325Y127250D02*
Y130450D01*
Y127250D02*
X181525D01*
Y130450D01*
Y129625D02*
X182425D01*
Y130025D01*
X181525D02*
X182425D01*
X181525Y128975D02*
X182425D01*
Y129375D01*
X181525D02*
X182425D01*
X181525Y128325D02*
X182425D01*
Y128725D01*
X181525D02*
X182425D01*
X181525Y127675D02*
X182425D01*
Y128075D01*
X181525D02*
X182425D01*
X177425D02*
X178325D01*
X177425Y127675D02*
Y128075D01*
Y127675D02*
X178325D01*
X177425Y128725D02*
X178325D01*
X177425Y128325D02*
Y128725D01*
Y128325D02*
X178325D01*
X177425Y129375D02*
X178325D01*
X177425Y128975D02*
Y129375D01*
Y128975D02*
X178325D01*
X177425Y130025D02*
X178325D01*
X177425Y129625D02*
Y130025D01*
Y129625D02*
X178325D01*
Y130450D02*
X181525D01*
X182525Y142255D02*
Y145455D01*
X179325D02*
X182525D01*
X179325Y142255D02*
Y145455D01*
X178425Y143080D02*
X179325D01*
X178425Y142680D02*
Y143080D01*
Y142680D02*
X179325D01*
X178425Y143730D02*
X179325D01*
X178425Y143330D02*
Y143730D01*
Y143330D02*
X179325D01*
X178425Y144380D02*
X179325D01*
X178425Y143980D02*
Y144380D01*
Y143980D02*
X179325D01*
X178425Y145030D02*
X179325D01*
X178425Y144630D02*
Y145030D01*
Y144630D02*
X179325D01*
X182525D02*
X183425D01*
Y145030D01*
X182525D02*
X183425D01*
X182525Y143980D02*
X183425D01*
Y144380D01*
X182525D02*
X183425D01*
X182525Y143330D02*
X183425D01*
Y143730D01*
X182525D02*
X183425D01*
X182525Y142680D02*
X183425D01*
Y143080D01*
X182525D02*
X183425D01*
X179325Y142255D02*
X182525D01*
X190275Y102395D02*
Y105595D01*
Y102395D02*
X193475D01*
Y105595D01*
Y104770D02*
X194375D01*
Y105170D01*
X193475D02*
X194375D01*
X193475Y104120D02*
X194375D01*
Y104520D01*
X193475D02*
X194375D01*
X193475Y103470D02*
X194375D01*
Y103870D01*
X193475D02*
X194375D01*
X193475Y102820D02*
X194375D01*
Y103220D01*
X193475D02*
X194375D01*
X189375D02*
X190275D01*
X189375Y102820D02*
Y103220D01*
Y102820D02*
X190275D01*
X189375Y103870D02*
X190275D01*
X189375Y103470D02*
Y103870D01*
Y103470D02*
X190275D01*
X189375Y104520D02*
X190275D01*
X189375Y104120D02*
Y104520D01*
Y104120D02*
X190275D01*
X189375Y105170D02*
X190275D01*
X189375Y104770D02*
Y105170D01*
Y104770D02*
X190275D01*
Y105595D02*
X193475D01*
G54D181*
X162690Y84318D02*
G03*
X162690Y84318I-150J0D01*
G01*
X179450Y164575D02*
G03*
X179450Y164575I-1000J0D01*
G01*
X178700D02*
G03*
X178700Y164575I-250J0D01*
G01*
X201000Y130500D02*
G03*
X201000Y130500I-1000J0D01*
G01*
X200250D02*
G03*
X200250Y130500I-250J0D01*
G01*
X201000Y122500D02*
G03*
X201000Y122500I-1000J0D01*
G01*
X200250D02*
G03*
X200250Y122500I-250J0D01*
G01*
X195400Y83350D02*
G03*
X195400Y83350I-1000J0D01*
G01*
X194650D02*
G03*
X194650Y83350I-250J0D01*
G01*
X174975Y108400D02*
Y109800D01*
Y108400D02*
X178175D01*
Y109800D01*
X174975D02*
X178175D01*
X194625Y138050D02*
X197825D01*
X194625D02*
Y139450D01*
X197825D01*
Y138050D02*
Y139450D01*
X189125Y99325D02*
X190525D01*
X189125Y96125D02*
Y99325D01*
Y96125D02*
X190525D01*
Y99325D01*
X182275Y148525D02*
Y151725D01*
X183675D01*
Y148525D02*
Y151725D01*
X182275Y148525D02*
X183675D01*
X189875Y112225D02*
X191475D01*
Y115425D01*
X189875D02*
X191475D01*
X189875Y112225D02*
Y115425D01*
X176600Y132450D02*
Y135650D01*
X175000Y132450D02*
X176600D01*
X175000D02*
Y135650D01*
X176600D01*
X164206Y131287D02*
Y132913D01*
X163394D02*
X164206D01*
X163394Y131287D02*
Y132913D01*
Y131287D02*
X164206D01*
X163394Y132606D02*
X164206D01*
X163387Y131600D02*
X164200D01*
X187862Y88650D02*
X188675D01*
X187869Y89656D02*
X188681D01*
X187869Y88337D02*
X188681D01*
X187869D02*
Y89963D01*
X188681D01*
Y88337D02*
Y89963D01*
X184125Y159150D02*
X184938D01*
X184119Y158144D02*
X184931D01*
X184119Y159463D02*
X184931D01*
Y157837D02*
Y159463D01*
X184119Y157837D02*
X184931D01*
X184119D02*
Y159463D01*
X193529Y127198D02*
Y128010D01*
X194535Y127191D02*
Y128004D01*
X193216Y127191D02*
Y128004D01*
X194841D01*
Y127191D02*
Y128004D01*
X193216Y127191D02*
X194841D01*
X193475Y119000D02*
Y119813D01*
X194481Y118994D02*
Y119806D01*
X193162Y118994D02*
Y119806D01*
X194788D01*
Y118994D02*
Y119806D01*
X193162Y118994D02*
X194788D01*
X190862Y110006D02*
X192488D01*
X190862Y109194D02*
Y110006D01*
Y109194D02*
X192488D01*
Y110006D01*
X191169Y109194D02*
Y110006D01*
X192175Y109187D02*
Y110000D01*
X176037Y138731D02*
X177663D01*
X176037Y137919D02*
Y138731D01*
Y137919D02*
X177663D01*
Y138731D01*
X176344Y137919D02*
Y138731D01*
X177350Y137912D02*
Y138725D01*
X188112Y120950D02*
X188925D01*
X188119Y121956D02*
X188931D01*
X188119Y120637D02*
X188931D01*
X188119D02*
Y122263D01*
X188931D01*
Y120637D02*
Y122263D01*
X192812Y121250D02*
X193625D01*
X192819Y122256D02*
X193631D01*
X192819Y120937D02*
X193631D01*
X192819D02*
Y122563D01*
X193631D01*
Y120937D02*
Y122563D01*
X191711Y117842D02*
Y119467D01*
X190899D02*
X191711D01*
X190899Y117842D02*
Y119467D01*
Y117842D02*
X191711D01*
X190899Y119161D02*
X191711D01*
X190892Y118155D02*
X191705D01*
X196286Y117842D02*
Y119467D01*
X195474D02*
X196286D01*
X195474Y117842D02*
Y119467D01*
Y117842D02*
X196286D01*
X195474Y119161D02*
X196286D01*
X195467Y118155D02*
X196280D01*
X198425Y117487D02*
Y118300D01*
X197419Y117494D02*
Y118306D01*
X198738Y117494D02*
Y118306D01*
X197112Y117494D02*
X198738D01*
X197112D02*
Y118306D01*
X198738D01*
X188087Y129050D02*
X188900D01*
X188094Y130056D02*
X188906D01*
X188094Y128737D02*
X188906D01*
X188094D02*
Y130363D01*
X188906D01*
Y128737D02*
Y130363D01*
X192841Y129348D02*
X193654D01*
X192847Y130354D02*
X193660D01*
X192847Y129035D02*
X193660D01*
X192847D02*
Y130660D01*
X193660D01*
Y129035D02*
Y130660D01*
X191656Y126037D02*
Y127663D01*
X190844D02*
X191656D01*
X190844Y126037D02*
Y127663D01*
Y126037D02*
X191656D01*
X190844Y127356D02*
X191656D01*
X190837Y126350D02*
X191650D01*
X196360Y126035D02*
Y127660D01*
X195547D02*
X196360D01*
X195547Y126035D02*
Y127660D01*
Y126035D02*
X196360D01*
X195547Y127354D02*
X196360D01*
X195541Y126348D02*
X196354D01*
X198500Y125687D02*
Y126500D01*
X197494Y125694D02*
Y126506D01*
X198813Y125694D02*
Y126506D01*
X197187Y125694D02*
X198813D01*
X197187D02*
Y126506D01*
X198813D01*
X169437Y129294D02*
X171063D01*
Y130106D01*
X169437D02*
X171063D01*
X169437Y129294D02*
Y130106D01*
X170756Y129294D02*
Y130106D01*
X169750Y129300D02*
Y130113D01*
X168162Y119506D02*
X169788D01*
X168162Y118694D02*
Y119506D01*
Y118694D02*
X169788D01*
Y119506D01*
X168469Y118694D02*
Y119506D01*
X169475Y118687D02*
Y119500D01*
X162262Y141119D02*
X163888D01*
Y141931D01*
X162262D02*
X163888D01*
X162262Y141119D02*
Y141931D01*
X163581Y141119D02*
Y141931D01*
X162575Y141125D02*
Y141938D01*
X160737Y142494D02*
X162363D01*
Y143306D01*
X160737D02*
X162363D01*
X160737Y142494D02*
Y143306D01*
X162056Y142494D02*
Y143306D01*
X161050Y142500D02*
Y143313D01*
X156775Y144300D02*
X161275D01*
X156775D02*
Y145800D01*
X161275Y144300D02*
Y152300D01*
X156775D02*
X161275D01*
X156775Y150800D02*
Y152300D01*
X155525Y146300D02*
X156775D01*
X155525D02*
Y150300D01*
X156775D01*
X161275Y144300D02*
Y145550D01*
X156775Y144300D02*
X161275D01*
X156775D02*
Y152300D01*
X161275D01*
Y145550D02*
Y152300D01*
Y150050D02*
X163775D01*
X161275D02*
Y151050D01*
X163775D01*
Y150050D02*
Y151050D01*
X161275Y147800D02*
X163775D01*
X161275D02*
Y148800D01*
X163775D01*
Y147800D02*
Y148800D01*
X161275Y145550D02*
X163775D01*
X161275D02*
Y146550D01*
X163775D01*
Y145550D02*
Y146550D01*
X155850Y131007D02*
Y132531D01*
X158950D01*
X155850Y131007D02*
X158950D01*
Y132531D01*
X158543Y132150D02*
X158924D01*
X158543Y131388D02*
Y132150D01*
Y131388D02*
X158924D01*
X158543Y130372D02*
Y131007D01*
X158162Y130372D02*
X158543D01*
X158162D02*
Y131007D01*
X156257Y130372D02*
Y131007D01*
Y130372D02*
X156638D01*
Y131007D01*
X156257Y132531D02*
Y133166D01*
X156638D01*
Y132531D02*
Y133166D01*
X157273Y132531D02*
Y133166D01*
X157527D01*
Y132531D02*
Y133166D01*
X158162Y132531D02*
Y133166D01*
X158543D01*
Y132531D02*
Y133166D01*
X158282Y137782D02*
X159095D01*
X158276Y136776D02*
X159088D01*
X158276Y138095D02*
X159088D01*
Y136469D02*
Y138095D01*
X158276Y136469D02*
X159088D01*
X158276D02*
Y138095D01*
X194837Y170631D02*
X196463D01*
X194837Y169819D02*
Y170631D01*
Y169819D02*
X196463D01*
Y170631D01*
X195144Y169819D02*
Y170631D01*
X196150Y169812D02*
Y170625D01*
X190394Y167087D02*
Y168713D01*
Y167087D02*
X191206D01*
Y168713D01*
X190394D02*
X191206D01*
X190394Y167394D02*
X191206D01*
X190400Y168400D02*
X191213D01*
X199512Y167131D02*
X201138D01*
X199512Y166319D02*
Y167131D01*
Y166319D02*
X201138D01*
Y167131D01*
X199819Y166319D02*
Y167131D01*
X200825Y166312D02*
Y167125D01*
X195137Y164569D02*
X196763D01*
Y165381D01*
X195137D02*
X196763D01*
X195137Y164569D02*
Y165381D01*
X196456Y164569D02*
Y165381D01*
X195450Y164575D02*
Y165388D01*
X195531Y167087D02*
Y168713D01*
X194719D02*
X195531D01*
X194719Y167087D02*
Y168713D01*
Y167087D02*
X195531D01*
X194719Y168406D02*
X195531D01*
X194712Y167400D02*
X195525D01*
X164206Y86237D02*
Y87863D01*
X163394D02*
X164206D01*
X163394Y86237D02*
Y87863D01*
Y86237D02*
X164206D01*
X163394Y87556D02*
X164206D01*
X163387Y86550D02*
X164200D01*
X166881Y86112D02*
Y87738D01*
X166069D02*
X166881D01*
X166069Y86112D02*
Y87738D01*
Y86112D02*
X166881D01*
X166069Y87431D02*
X166881D01*
X166062Y86425D02*
X166875D01*
X167594Y166937D02*
Y168563D01*
Y166937D02*
X168406D01*
Y168563D01*
X167594D02*
X168406D01*
X167594Y167244D02*
X168406D01*
X167600Y168250D02*
X168413D01*
X167731Y158387D02*
Y160013D01*
X166919D02*
X167731D01*
X166919Y158387D02*
Y160013D01*
Y158387D02*
X167731D01*
X166919Y159706D02*
X167731D01*
X166912Y158700D02*
X167725D01*
X165594Y166937D02*
Y168563D01*
Y166937D02*
X166406D01*
Y168563D01*
X165594D02*
X166406D01*
X165594Y167244D02*
X166406D01*
X165600Y168250D02*
X166413D01*
X166406Y158387D02*
Y160013D01*
X165594D02*
X166406D01*
X165594Y158387D02*
Y160013D01*
Y158387D02*
X166406D01*
X165594Y159706D02*
X166406D01*
X165587Y158700D02*
X166400D01*
X165837Y110006D02*
X167463D01*
X165837Y109194D02*
Y110006D01*
Y109194D02*
X167463D01*
Y110006D01*
X166144Y109194D02*
Y110006D01*
X167150Y109187D02*
Y110000D01*
X165837Y108131D02*
X167463D01*
X165837Y107319D02*
Y108131D01*
Y107319D02*
X167463D01*
Y108131D01*
X166144Y107319D02*
Y108131D01*
X167150Y107312D02*
Y108125D01*
X162350Y81500D02*
Y84500D01*
X164050D01*
X162350Y81500D02*
X164050D01*
Y84500D01*
X161700Y82300D02*
X162350D01*
X161700Y81800D02*
Y82300D01*
Y81800D02*
X162350D01*
X164050D02*
X164700D01*
Y82300D01*
X164050D02*
X164700D01*
X161700Y84200D02*
X162350D01*
X161700Y83700D02*
Y84200D01*
Y83700D02*
X162350D01*
X164050D02*
X164700D01*
Y84200D01*
X164050D02*
X164700D01*
X164050Y82750D02*
X164700D01*
Y83250D01*
X164050D02*
X164700D01*
X161700D02*
X162350D01*
X161700Y82750D02*
Y83250D01*
Y82750D02*
X162350D01*
X177150Y163275D02*
X179750D01*
Y165875D01*
X177150D02*
X179750D01*
X177150Y163275D02*
Y165875D01*
X198700Y129200D02*
Y131800D01*
Y129200D02*
X201300D01*
Y131800D01*
X198700D02*
X201300D01*
X198700Y121200D02*
Y123800D01*
Y121200D02*
X201300D01*
Y123800D01*
X198700D02*
X201300D01*
X193100Y84650D02*
X195700D01*
X193100Y82050D02*
Y84650D01*
Y82050D02*
X195700D01*
Y84650D01*
X176862Y159194D02*
X178488D01*
Y160006D01*
X176862D02*
X178488D01*
X176862Y159194D02*
Y160006D01*
X178181Y159194D02*
Y160006D01*
X177175Y159200D02*
Y160013D01*
X175290Y158082D02*
Y159708D01*
Y158082D02*
X176103D01*
Y159708D01*
X175290D02*
X176103D01*
X175290Y158389D02*
X176103D01*
X175296Y159395D02*
X176109D01*
X176862Y158556D02*
X178488D01*
X176862Y157744D02*
Y158556D01*
Y157744D02*
X178488D01*
Y158556D01*
X177169Y157744D02*
Y158556D01*
X178175Y157737D02*
Y158550D01*
X175975Y154905D02*
Y155718D01*
X176981Y154899D02*
Y155711D01*
X175662Y154899D02*
Y155711D01*
X177288D01*
Y154899D02*
Y155711D01*
X175662Y154899D02*
X177288D01*
X176150Y145875D02*
Y146688D01*
X177156Y145869D02*
Y146681D01*
X175837Y145869D02*
Y146681D01*
X177463D01*
Y145869D02*
Y146681D01*
X175837Y145869D02*
X177463D01*
X185300Y142175D02*
Y142988D01*
X186306Y142169D02*
Y142981D01*
X184987Y142169D02*
Y142981D01*
X186613D01*
Y142169D02*
Y142981D01*
X184987Y142169D02*
X186613D01*
X177087Y139275D02*
Y140725D01*
X178137D01*
X177087Y139275D02*
X178137D01*
Y140725D01*
X178012Y139425D02*
Y139650D01*
X177863Y139425D02*
X178012D01*
X177863Y139650D02*
X178012D01*
X177863Y139425D02*
Y139650D01*
X191300Y142320D02*
X192113D01*
X191294Y141314D02*
X192106D01*
X191294Y142633D02*
X192106D01*
Y141007D02*
Y142633D01*
X191294Y141007D02*
X192106D01*
X191294D02*
Y142633D01*
X191637Y143769D02*
X193263D01*
Y144581D01*
X191637D02*
X193263D01*
X191637Y143769D02*
Y144581D01*
X192956Y143769D02*
Y144581D01*
X191950Y143775D02*
Y144588D01*
X192800Y142320D02*
X193613D01*
X192794Y141314D02*
X193606D01*
X192794Y142633D02*
X193606D01*
Y141007D02*
Y142633D01*
X192794Y141007D02*
X193606D01*
X192794D02*
Y142633D01*
X185931Y147767D02*
Y149393D01*
X185119D02*
X185931D01*
X185119Y147767D02*
Y149393D01*
Y147767D02*
X185931D01*
X185119Y149086D02*
X185931D01*
X185112Y148080D02*
X185925D01*
X186762Y146961D02*
X188388D01*
X186762Y146149D02*
Y146961D01*
Y146149D02*
X188388D01*
Y146961D01*
X187069Y146149D02*
Y146961D01*
X188075Y146142D02*
Y146955D01*
X186637Y152919D02*
X188263D01*
Y153731D01*
X186637D02*
X188263D01*
X186637Y152919D02*
Y153731D01*
X187956Y152919D02*
Y153731D01*
X186950Y152925D02*
Y153738D01*
X197037Y152269D02*
X198663D01*
Y153081D01*
X197037D02*
X198663D01*
X197037Y152269D02*
Y153081D01*
X198356Y152269D02*
Y153081D01*
X197350Y152275D02*
Y153088D01*
X196006Y156417D02*
Y158043D01*
X195194D02*
X196006D01*
X195194Y156417D02*
Y158043D01*
Y156417D02*
X196006D01*
X195194Y157736D02*
X196006D01*
X195187Y156730D02*
X196000D01*
X194312Y88656D02*
X195938D01*
X194312Y87844D02*
Y88656D01*
Y87844D02*
X195938D01*
Y88656D01*
X194619Y87844D02*
Y88656D01*
X195625Y87837D02*
Y88650D01*
X197510Y88142D02*
Y89768D01*
X196697D02*
X197510D01*
X196697Y88142D02*
Y89768D01*
Y88142D02*
X197510D01*
X196697Y89461D02*
X197510D01*
X196691Y88455D02*
X197504D01*
X194312Y89294D02*
X195938D01*
Y90106D01*
X194312D02*
X195938D01*
X194312Y89294D02*
Y90106D01*
X195631Y89294D02*
Y90106D01*
X194625Y89300D02*
Y90113D01*
X196825Y92132D02*
Y92945D01*
X195819Y92139D02*
Y92951D01*
X197138Y92139D02*
Y92951D01*
X195512Y92139D02*
X197138D01*
X195512D02*
Y92951D01*
X197138D01*
X196650Y101162D02*
Y101975D01*
X195644Y101169D02*
Y101981D01*
X196963Y101169D02*
Y101981D01*
X195337Y101169D02*
X196963D01*
X195337D02*
Y101981D01*
X196963D01*
X187500Y104862D02*
Y105675D01*
X186494Y104869D02*
Y105681D01*
X187813Y104869D02*
Y105681D01*
X186187Y104869D02*
X187813D01*
X186187D02*
Y105681D01*
X187813D01*
X192700Y107225D02*
Y108675D01*
X191650Y107225D02*
X192700D01*
X191650Y108675D02*
X192700D01*
X191650Y107225D02*
Y108675D01*
X191775Y108300D02*
Y108525D01*
X191925D01*
X191775Y108300D02*
X191925D01*
Y108525D01*
X180687Y105530D02*
X181500D01*
X180694Y106536D02*
X181506D01*
X180694Y105217D02*
X181506D01*
X180694D02*
Y106843D01*
X181506D01*
Y105217D02*
Y106843D01*
X179537Y104081D02*
X181163D01*
X179537Y103269D02*
Y104081D01*
Y103269D02*
X181163D01*
Y104081D01*
X179844Y103269D02*
Y104081D01*
X180850Y103262D02*
Y104075D01*
X179187Y105530D02*
X180000D01*
X179194Y106536D02*
X180006D01*
X179194Y105217D02*
X180006D01*
X179194D02*
Y106843D01*
X180006D01*
Y105217D02*
Y106843D01*
X186869Y98457D02*
Y100083D01*
Y98457D02*
X187681D01*
Y100083D01*
X186869D02*
X187681D01*
X186869Y98764D02*
X187681D01*
X186875Y99770D02*
X187688D01*
X184412Y100889D02*
X186038D01*
Y101701D01*
X184412D02*
X186038D01*
X184412Y100889D02*
Y101701D01*
X185731Y100889D02*
Y101701D01*
X184725Y100895D02*
Y101708D01*
X184537Y94931D02*
X186163D01*
X184537Y94119D02*
Y94931D01*
Y94119D02*
X186163D01*
Y94931D01*
X184844Y94119D02*
Y94931D01*
X185850Y94112D02*
Y94925D01*
X174137Y95581D02*
X175763D01*
X174137Y94769D02*
Y95581D01*
Y94769D02*
X175763D01*
Y95581D01*
X174444Y94769D02*
Y95581D01*
X175450Y94762D02*
Y95575D01*
X176794Y89807D02*
Y91433D01*
Y89807D02*
X177606D01*
Y91433D01*
X176794D02*
X177606D01*
X176794Y90114D02*
X177606D01*
X176800Y91120D02*
X177613D01*
X180399Y154326D02*
Y155850D01*
X183499D01*
X180399Y154326D02*
X183499D01*
Y155850D01*
X183092Y155469D02*
X183473D01*
X183092Y154707D02*
Y155469D01*
Y154707D02*
X183473D01*
X183092Y153691D02*
Y154326D01*
X182711Y153691D02*
X183092D01*
X182711D02*
Y154326D01*
X180806Y153691D02*
Y154326D01*
Y153691D02*
X181187D01*
Y154326D01*
X180806Y155850D02*
Y156485D01*
X181187D01*
Y155850D02*
Y156485D01*
X181822Y155850D02*
Y156485D01*
X182076D01*
Y155850D02*
Y156485D01*
X182711Y155850D02*
Y156485D01*
X183092D01*
Y155850D02*
Y156485D01*
X181725Y159075D02*
Y159888D01*
X182731Y159069D02*
Y159881D01*
X181412Y159069D02*
Y159881D01*
X183038D01*
Y159069D02*
Y159881D01*
X181412Y159069D02*
X183038D01*
X192401Y92000D02*
Y93524D01*
X189301Y92000D02*
X192401D01*
X189301Y93524D02*
X192401D01*
X189301Y92000D02*
Y93524D01*
X189327Y92381D02*
X189708D01*
Y93143D01*
X189327D02*
X189708D01*
Y93524D02*
Y94159D01*
X190089D01*
Y93524D02*
Y94159D01*
X191994Y93524D02*
Y94159D01*
X191613D02*
X191994D01*
X191613Y93524D02*
Y94159D01*
X191994Y91365D02*
Y92000D01*
X191613Y91365D02*
X191994D01*
X191613D02*
Y92000D01*
X190978Y91365D02*
Y92000D01*
X190724Y91365D02*
X190978D01*
X190724D02*
Y92000D01*
X190089Y91365D02*
Y92000D01*
X189708Y91365D02*
X190089D01*
X189708D02*
Y92000D01*
X191075Y87962D02*
Y88775D01*
X190069Y87969D02*
Y88781D01*
X191388Y87969D02*
Y88781D01*
X189762Y87969D02*
X191388D01*
X189762D02*
Y88781D01*
X191388D01*
X185319Y157837D02*
Y159463D01*
Y157837D02*
X186131D01*
Y159463D01*
X185319D02*
X186131D01*
X185319Y158144D02*
X186131D01*
X185325Y159150D02*
X186138D01*
X186494Y157812D02*
Y159438D01*
Y157812D02*
X187306D01*
Y159438D01*
X186494D02*
X187306D01*
X186494Y158119D02*
X187306D01*
X186500Y159125D02*
X187313D01*
X187481Y88337D02*
Y89963D01*
X186669D02*
X187481D01*
X186669Y88337D02*
Y89963D01*
Y88337D02*
X187481D01*
X186669Y89656D02*
X187481D01*
X186662Y88650D02*
X187475D01*
X186306Y88362D02*
Y89988D01*
X185494D02*
X186306D01*
X185494Y88362D02*
Y89988D01*
Y88362D02*
X186306D01*
X185494Y89681D02*
X186306D01*
X185487Y88675D02*
X186300D01*
G54D182*
X168602Y100797D02*
G03*
X168602Y100797I-180J0D01*
G01*
X187400Y141020D02*
Y142620D01*
Y141020D02*
X188200D01*
Y142620D01*
X187400D02*
X188200D01*
X187400Y142220D02*
X188200D01*
X187400Y141420D02*
X188200D01*
X186750Y120025D02*
X187550D01*
X186750Y119225D02*
X187550D01*
X186750Y118825D02*
X187550D01*
X186750D02*
Y120425D01*
X187550D01*
Y118825D02*
Y120425D01*
X195630Y122105D02*
Y122905D01*
X194830Y122105D02*
Y122905D01*
X194430Y122105D02*
Y122905D01*
X196030D01*
Y122105D02*
Y122905D01*
X194430Y122105D02*
X196030D01*
X188105Y118255D02*
X188905D01*
X188105Y119055D02*
X188905D01*
X188105Y119455D02*
X188905D01*
Y117855D02*
Y119455D01*
X188105Y117855D02*
X188905D01*
X188105D02*
Y119455D01*
X193270Y125745D02*
X194070D01*
X193270Y124945D02*
X194070D01*
X193270Y124545D02*
X194070D01*
X193270D02*
Y126145D01*
X194070D01*
Y124545D02*
Y126145D01*
X200025Y118275D02*
X200825D01*
X200025Y119075D02*
X200825D01*
X200025Y119475D02*
X200825D01*
Y117875D02*
Y119475D01*
X200025Y117875D02*
X200825D01*
X200025D02*
Y119475D01*
X190775Y120600D02*
Y121400D01*
X191575Y120600D02*
Y121400D01*
X191975Y120600D02*
Y121400D01*
X190375Y120600D02*
X191975D01*
X190375D02*
Y121400D01*
X191975D01*
X198325Y119000D02*
Y119800D01*
X197525Y119000D02*
Y119800D01*
X197125Y119000D02*
Y119800D01*
X198725D01*
Y119000D02*
Y119800D01*
X197125Y119000D02*
X198725D01*
X189405Y118255D02*
X190205D01*
X189405Y119055D02*
X190205D01*
X189405Y119455D02*
X190205D01*
Y117855D02*
Y119455D01*
X189405Y117855D02*
X190205D01*
X189405D02*
Y119455D01*
X195704Y130198D02*
Y130998D01*
X194904Y130198D02*
Y130998D01*
X194504Y130198D02*
Y130998D01*
X196104D01*
Y130198D02*
Y130998D01*
X194504Y130198D02*
X196104D01*
X188100Y126450D02*
X188900D01*
X188100Y127250D02*
X188900D01*
X188100Y127650D02*
X188900D01*
Y126050D02*
Y127650D01*
X188100Y126050D02*
X188900D01*
X188100D02*
Y127650D01*
X200100Y126475D02*
X200900D01*
X200100Y127275D02*
X200900D01*
X200100Y127675D02*
X200900D01*
Y126075D02*
Y127675D01*
X200100Y126075D02*
X200900D01*
X200100D02*
Y127675D01*
X190804Y128698D02*
Y129498D01*
X191604Y128698D02*
Y129498D01*
X192004Y128698D02*
Y129498D01*
X190404Y128698D02*
X192004D01*
X190404D02*
Y129498D01*
X192004D01*
X198400Y127200D02*
Y128000D01*
X197600Y127200D02*
Y128000D01*
X197200Y127200D02*
Y128000D01*
X198800D01*
Y127200D02*
Y128000D01*
X197200Y127200D02*
X198800D01*
X189400Y126450D02*
X190200D01*
X189400Y127250D02*
X190200D01*
X189400Y127650D02*
X190200D01*
Y126050D02*
Y127650D01*
X189400Y126050D02*
X190200D01*
X189400D02*
Y127650D01*
X161600Y129450D02*
X162400D01*
X161600Y130250D02*
X162400D01*
X161600Y130650D02*
X162400D01*
Y129050D02*
Y130650D01*
X161600Y129050D02*
X162400D01*
X161600D02*
Y130650D01*
X162650Y143825D02*
Y144625D01*
X163450Y143825D02*
Y144625D01*
X163850Y143825D02*
Y144625D01*
X162250Y143825D02*
X163850D01*
X162250D02*
Y144625D01*
X163850D01*
X164625Y146850D02*
X165425D01*
X164625Y146050D02*
X165425D01*
X164625Y145650D02*
X165425D01*
X164625D02*
Y147250D01*
X165425D01*
Y145650D02*
Y147250D01*
X162000Y152600D02*
X162800D01*
X162000Y153400D02*
X162800D01*
X162000Y153800D02*
X162800D01*
Y152200D02*
Y153800D01*
X162000Y152200D02*
X162800D01*
X162000D02*
Y153800D01*
X158026Y128306D02*
Y129106D01*
X157226Y128306D02*
Y129106D01*
X156826Y128306D02*
Y129106D01*
X158426D01*
Y128306D02*
Y129106D01*
X156826Y128306D02*
X158426D01*
X158326Y134756D02*
Y135556D01*
X157526Y134756D02*
Y135556D01*
X157126Y134756D02*
Y135556D01*
X158726D01*
Y134756D02*
Y135556D01*
X157126Y134756D02*
X158726D01*
X193300Y168250D02*
Y169050D01*
X192500Y168250D02*
Y169050D01*
X192100Y168250D02*
Y169050D01*
X193700D01*
Y168250D02*
Y169050D01*
X192100Y168250D02*
X193700D01*
X164050Y80275D02*
Y81075D01*
X163250Y80275D02*
Y81075D01*
X162850Y80275D02*
Y81075D01*
X164450D01*
Y80275D02*
Y81075D01*
X162850Y80275D02*
X164450D01*
X175375Y156180D02*
Y156980D01*
X174575Y156180D02*
Y156980D01*
X174175Y156180D02*
Y156980D01*
X175775D01*
Y156180D02*
Y156980D01*
X174175Y156180D02*
X175775D01*
X178025Y155655D02*
X178825D01*
X178025Y156455D02*
X178825D01*
X178025Y156855D02*
X178825D01*
Y155255D02*
Y156855D01*
X178025Y155255D02*
X178825D01*
X178025D02*
Y156855D01*
X176250Y147175D02*
Y147975D01*
X177050Y147175D02*
Y147975D01*
X177450Y147175D02*
Y147975D01*
X175850Y147175D02*
X177450D01*
X175850D02*
Y147975D01*
X177450D01*
X177000Y144725D02*
X177800D01*
X177000Y143925D02*
X177800D01*
X177000Y143525D02*
X177800D01*
X177000D02*
Y145125D01*
X177800D01*
Y143525D02*
Y145125D01*
X181850Y146980D02*
Y147780D01*
X182650Y146980D02*
Y147780D01*
X183050Y146980D02*
Y147780D01*
X181450Y146980D02*
X183050D01*
X181450D02*
Y147780D01*
X183050D01*
X181850Y145805D02*
Y146605D01*
X182650Y145805D02*
Y146605D01*
X183050Y145805D02*
Y146605D01*
X181450Y145805D02*
X183050D01*
X181450D02*
Y146605D01*
X183050D01*
X177950Y135250D02*
Y136050D01*
X178750Y135250D02*
Y136050D01*
X179150Y135250D02*
Y136050D01*
X177550Y135250D02*
X179150D01*
X177550D02*
Y136050D01*
X179150D01*
X179175Y141230D02*
Y142030D01*
X179975Y141230D02*
Y142030D01*
X180375Y141230D02*
Y142030D01*
X178775Y141230D02*
X180375D01*
X178775D02*
Y142030D01*
X180375D01*
X184650Y145280D02*
X185450D01*
X184650Y144480D02*
X185450D01*
X184650Y144080D02*
X185450D01*
X184650D02*
Y145680D01*
X185450D01*
Y144080D02*
Y145680D01*
X177200Y136000D02*
X178000D01*
X177200Y136800D02*
X178000D01*
X177200Y137200D02*
X178000D01*
Y135600D02*
Y137200D01*
X177200Y135600D02*
X178000D01*
X177200D02*
Y137200D01*
X177675Y141230D02*
Y142030D01*
X178475Y141230D02*
Y142030D01*
X178875Y141230D02*
Y142030D01*
X177275Y141230D02*
X178875D01*
X177275D02*
Y142030D01*
X178875D01*
X192800Y139520D02*
X193600D01*
X192800Y138720D02*
X193600D01*
X192800Y138320D02*
X193600D01*
X192800D02*
Y139920D01*
X193600D01*
Y138320D02*
Y139920D01*
X189350Y142170D02*
Y142970D01*
X190150Y142170D02*
Y142970D01*
X190550Y142170D02*
Y142970D01*
X188950Y142170D02*
X190550D01*
X188950D02*
Y142970D01*
X190550D01*
X191300Y138720D02*
X192100D01*
X191300Y139520D02*
X192100D01*
X191300Y139920D02*
X192100D01*
Y138320D02*
Y139920D01*
X191300Y138320D02*
X192100D01*
X191300D02*
Y139920D01*
X189625Y145975D02*
X190425D01*
X189625Y146775D02*
X190425D01*
X189625Y147175D02*
X190425D01*
Y145575D02*
Y147175D01*
X189625Y145575D02*
X190425D01*
X189625D02*
Y147175D01*
X190000Y148675D02*
Y149475D01*
X190800Y148675D02*
Y149475D01*
X191200Y148675D02*
Y149475D01*
X189600Y148675D02*
X191200D01*
X189600D02*
Y149475D01*
X191200D01*
X187975Y147455D02*
Y148255D01*
X187175Y147455D02*
Y148255D01*
X186775Y147455D02*
Y148255D01*
X188375D01*
Y147455D02*
Y148255D01*
X186775Y147455D02*
X188375D01*
X195050Y148475D02*
Y149275D01*
X194250Y148475D02*
Y149275D01*
X193850Y148475D02*
Y149275D01*
X195450D01*
Y148475D02*
Y149275D01*
X193850Y148475D02*
X195450D01*
X194500Y145800D02*
X195300D01*
X194500Y146600D02*
X195300D01*
X194500Y147000D02*
X195300D01*
Y145400D02*
Y147000D01*
X194500Y145400D02*
X195300D01*
X194500D02*
Y147000D01*
X187975Y148955D02*
Y149755D01*
X187175Y148955D02*
Y149755D01*
X186775Y148955D02*
Y149755D01*
X188375D01*
Y148955D02*
Y149755D01*
X186775Y148955D02*
X188375D01*
X187550Y150480D02*
Y151280D01*
X186750Y150480D02*
Y151280D01*
X186350Y150480D02*
Y151280D01*
X187950D01*
Y150480D02*
Y151280D01*
X186350Y150480D02*
X187950D01*
X197450Y149675D02*
Y150475D01*
X198250Y149675D02*
Y150475D01*
X198650Y149675D02*
Y150475D01*
X197050Y149675D02*
X198650D01*
X197050D02*
Y150475D01*
X198650D01*
X187550Y151655D02*
Y152455D01*
X186750Y151655D02*
Y152455D01*
X186350Y151655D02*
Y152455D01*
X187950D01*
Y151655D02*
Y152455D01*
X186350Y151655D02*
X187950D01*
X197450Y148475D02*
Y149275D01*
X198250Y148475D02*
Y149275D01*
X198650Y148475D02*
Y149275D01*
X197050Y148475D02*
X198650D01*
X197050D02*
Y149275D01*
X198650D01*
X198250Y151075D02*
Y151875D01*
X197450Y151075D02*
Y151875D01*
X197050Y151075D02*
Y151875D01*
X198650D01*
Y151075D02*
Y151875D01*
X197050Y151075D02*
X198650D01*
X187875Y157500D02*
X188675D01*
X187875Y158300D02*
X188675D01*
X187875Y158700D02*
X188675D01*
Y157100D02*
Y158700D01*
X187875Y157100D02*
X188675D01*
X187875D02*
Y158700D01*
X184875Y155900D02*
Y156700D01*
X185675Y155900D02*
Y156700D01*
X186075Y155900D02*
Y156700D01*
X184475Y155900D02*
X186075D01*
X184475D02*
Y156700D01*
X186075D01*
X187450Y154750D02*
Y155550D01*
X186650Y154750D02*
Y155550D01*
X186250Y154750D02*
Y155550D01*
X187850D01*
Y154750D02*
Y155550D01*
X186250Y154750D02*
X187850D01*
X198250Y153375D02*
Y154175D01*
X197450Y153375D02*
Y154175D01*
X197050Y153375D02*
Y154175D01*
X198650D01*
Y153375D02*
Y154175D01*
X197050Y153375D02*
X198650D01*
X198250Y154475D02*
Y155275D01*
X197450Y154475D02*
Y155275D01*
X197050Y154475D02*
Y155275D01*
X198650D01*
Y154475D02*
Y155275D01*
X197050Y154475D02*
X198650D01*
X189825Y156030D02*
Y156830D01*
X190625Y156030D02*
Y156830D01*
X191025Y156030D02*
Y156830D01*
X189425Y156030D02*
X191025D01*
X189425D02*
Y156830D01*
X191025D01*
X193925Y156105D02*
Y156905D01*
X193125Y156105D02*
Y156905D01*
X192725Y156105D02*
Y156905D01*
X194325D01*
Y156105D02*
Y156905D01*
X192725Y156105D02*
X194325D01*
X189825Y157230D02*
Y158030D01*
X190625Y157230D02*
Y158030D01*
X191025Y157230D02*
Y158030D01*
X189425Y157230D02*
X191025D01*
X189425D02*
Y158030D01*
X191025D01*
X193925Y157505D02*
Y158305D01*
X193125Y157505D02*
Y158305D01*
X192725Y157505D02*
Y158305D01*
X194325D01*
Y157505D02*
Y158305D01*
X192725Y157505D02*
X194325D01*
X195900Y158880D02*
Y159680D01*
X196800Y158880D02*
Y159680D01*
X195550Y158880D02*
X197150D01*
X195550Y159680D02*
X197150D01*
X193175Y164600D02*
Y165400D01*
X192375Y164600D02*
Y165400D01*
X191975Y164600D02*
Y165400D01*
X193575D01*
Y164600D02*
Y165400D01*
X191975Y164600D02*
X193575D01*
X191675Y163350D02*
Y164150D01*
X190875Y163350D02*
Y164150D01*
X190475Y163350D02*
Y164150D01*
X192075D01*
Y163350D02*
Y164150D01*
X190475Y163350D02*
X192075D01*
X197425Y90870D02*
Y91670D01*
X198225Y90870D02*
Y91670D01*
X198625Y90870D02*
Y91670D01*
X197025Y90870D02*
X198625D01*
X197025D02*
Y91670D01*
X198625D01*
X193975Y92195D02*
X194775D01*
X193975Y91395D02*
X194775D01*
X193975Y90995D02*
X194775D01*
X193975D02*
Y92595D01*
X194775D01*
Y90995D02*
Y92595D01*
X196550Y99875D02*
Y100675D01*
X195750Y99875D02*
Y100675D01*
X195350Y99875D02*
Y100675D01*
X196950D01*
Y99875D02*
Y100675D01*
X195350Y99875D02*
X196950D01*
X195000Y103125D02*
X195800D01*
X195000Y103925D02*
X195800D01*
X195000Y104325D02*
X195800D01*
Y102725D02*
Y104325D01*
X195000Y102725D02*
X195800D01*
X195000D02*
Y104325D01*
X190950Y100070D02*
Y100870D01*
X190150Y100070D02*
Y100870D01*
X189750Y100070D02*
Y100870D01*
X191350D01*
Y100070D02*
Y100870D01*
X189750Y100070D02*
X191350D01*
X190950Y101245D02*
Y102045D01*
X190150Y101245D02*
Y102045D01*
X189750Y101245D02*
Y102045D01*
X191350D01*
Y101245D02*
Y102045D01*
X189750Y101245D02*
X191350D01*
X192775Y111825D02*
Y112625D01*
X193575Y111825D02*
Y112625D01*
X193975Y111825D02*
Y112625D01*
X192375Y111825D02*
X193975D01*
X192375D02*
Y112625D01*
X193975D01*
X194325Y105820D02*
Y106620D01*
X195125Y105820D02*
Y106620D01*
X195525Y105820D02*
Y106620D01*
X193925Y105820D02*
X195525D01*
X193925D02*
Y106620D01*
X195525D01*
X187375Y107800D02*
X188175D01*
X187375Y107000D02*
X188175D01*
X187375Y106600D02*
X188175D01*
X187375D02*
Y108200D01*
X188175D01*
Y106600D02*
Y108200D01*
X184600Y106430D02*
X185400D01*
X184600Y105630D02*
X185400D01*
X184600Y105230D02*
X185400D01*
X184600D02*
Y106830D01*
X185400D01*
Y105230D02*
Y106830D01*
X192025Y111875D02*
X192825D01*
X192025Y111075D02*
X192825D01*
X192025Y110675D02*
X192825D01*
X192025D02*
Y112275D01*
X192825D01*
Y110675D02*
Y112275D01*
X192825Y105820D02*
Y106620D01*
X193625Y105820D02*
Y106620D01*
X194025Y105820D02*
Y106620D01*
X192425Y105820D02*
X194025D01*
X192425D02*
Y106620D01*
X194025D01*
X179200Y108330D02*
X180000D01*
X179200Y109130D02*
X180000D01*
X179200Y109530D02*
X180000D01*
Y107930D02*
Y109530D01*
X179200Y107930D02*
X180000D01*
X179200D02*
Y109530D01*
X183450Y104880D02*
Y105680D01*
X182650Y104880D02*
Y105680D01*
X182250Y104880D02*
Y105680D01*
X183850D01*
Y104880D02*
Y105680D01*
X182250Y104880D02*
X183850D01*
X180700Y109130D02*
X181500D01*
X180700Y108330D02*
X181500D01*
X180700Y107930D02*
X181500D01*
X180700D02*
Y109530D01*
X181500D01*
Y107930D02*
Y109530D01*
X182300Y101825D02*
X183100D01*
X182300Y101025D02*
X183100D01*
X182300Y100625D02*
X183100D01*
X182300D02*
Y102225D01*
X183100D01*
Y100625D02*
Y102225D01*
X182800Y98375D02*
Y99175D01*
X182000Y98375D02*
Y99175D01*
X181600Y98375D02*
Y99175D01*
X183200D01*
Y98375D02*
Y99175D01*
X181600Y98375D02*
X183200D01*
X184825Y99595D02*
Y100395D01*
X185625Y99595D02*
Y100395D01*
X186025Y99595D02*
Y100395D01*
X184425Y99595D02*
X186025D01*
X184425D02*
Y100395D01*
X186025D01*
X177750Y98575D02*
Y99375D01*
X178550Y98575D02*
Y99375D01*
X178950Y98575D02*
Y99375D01*
X177350Y98575D02*
X178950D01*
X177350D02*
Y99375D01*
X178950D01*
X177500Y102050D02*
X178300D01*
X177500Y101250D02*
X178300D01*
X177500Y100850D02*
X178300D01*
X177500D02*
Y102450D01*
X178300D01*
Y100850D02*
Y102450D01*
X184825Y98095D02*
Y98895D01*
X185625Y98095D02*
Y98895D01*
X186025Y98095D02*
Y98895D01*
X184425Y98095D02*
X186025D01*
X184425D02*
Y98895D01*
X186025D01*
X185250Y96570D02*
Y97370D01*
X186050Y96570D02*
Y97370D01*
X186450Y96570D02*
Y97370D01*
X184850Y96570D02*
X186450D01*
X184850D02*
Y97370D01*
X186450D01*
X175350Y97375D02*
Y98175D01*
X174550Y97375D02*
Y98175D01*
X174150Y97375D02*
Y98175D01*
X175750D01*
Y97375D02*
Y98175D01*
X174150Y97375D02*
X175750D01*
X185250Y95395D02*
Y96195D01*
X186050Y95395D02*
Y96195D01*
X186450Y95395D02*
Y96195D01*
X184850Y95395D02*
X186450D01*
X184850D02*
Y96195D01*
X186450D01*
X175350Y98575D02*
Y99375D01*
X174550Y98575D02*
Y99375D01*
X174150Y98575D02*
Y99375D01*
X175750D01*
Y98575D02*
Y99375D01*
X174150Y98575D02*
X175750D01*
X174550Y95975D02*
Y96775D01*
X175350Y95975D02*
Y96775D01*
X175750Y95975D02*
Y96775D01*
X174150Y95975D02*
X175750D01*
X174150D02*
Y96775D01*
X175750D01*
X184175Y90350D02*
X184975D01*
X184175Y89550D02*
X184975D01*
X184175Y89150D02*
X184975D01*
X184175D02*
Y90750D01*
X184975D01*
Y89150D02*
Y90750D01*
X187925Y91100D02*
Y91900D01*
X187125Y91100D02*
Y91900D01*
X186725Y91100D02*
Y91900D01*
X188325D01*
Y91100D02*
Y91900D01*
X186725Y91100D02*
X188325D01*
X185375Y92300D02*
Y93100D01*
X186175Y92300D02*
Y93100D01*
X186575Y92300D02*
Y93100D01*
X184975Y92300D02*
X186575D01*
X184975D02*
Y93100D01*
X186575D01*
X174550Y93675D02*
Y94475D01*
X175350Y93675D02*
Y94475D01*
X175750Y93675D02*
Y94475D01*
X174150Y93675D02*
X175750D01*
X174150D02*
Y94475D01*
X175750D01*
X174550Y92575D02*
Y93375D01*
X175350Y92575D02*
Y93375D01*
X175750Y92575D02*
Y93375D01*
X174150Y92575D02*
X175750D01*
X174150D02*
Y93375D01*
X175750D01*
X182975Y91020D02*
Y91820D01*
X182175Y91020D02*
Y91820D01*
X181775Y91020D02*
Y91820D01*
X183375D01*
Y91020D02*
Y91820D01*
X181775Y91020D02*
X183375D01*
X178875Y90945D02*
Y91745D01*
X179675Y90945D02*
Y91745D01*
X180075Y90945D02*
Y91745D01*
X178475Y90945D02*
X180075D01*
X178475D02*
Y91745D01*
X180075D01*
X182975Y89820D02*
Y90620D01*
X182175Y89820D02*
Y90620D01*
X181775Y89820D02*
Y90620D01*
X183375D01*
Y89820D02*
Y90620D01*
X181775Y89820D02*
X183375D01*
X178875Y89545D02*
Y90345D01*
X179675Y89545D02*
Y90345D01*
X180075Y89545D02*
Y90345D01*
X178475Y89545D02*
X180075D01*
X178475D02*
Y90345D01*
X180075D01*
X176900Y88170D02*
Y88970D01*
X176000Y88170D02*
Y88970D01*
X175650D02*
X177250D01*
X175650Y88170D02*
X177250D01*
X180425Y83825D02*
Y84625D01*
X179625Y83825D02*
Y84625D01*
X179225Y83825D02*
Y84625D01*
X180825D01*
Y83825D02*
Y84625D01*
X179225Y83825D02*
X180825D01*
X198250Y155575D02*
Y156375D01*
X197450Y155575D02*
Y156375D01*
X197050Y155575D02*
Y156375D01*
X198650D01*
Y155575D02*
Y156375D01*
X197050Y155575D02*
X198650D01*
X198250Y156675D02*
Y157475D01*
X197450Y156675D02*
Y157475D01*
X197050Y156675D02*
Y157475D01*
X198650D01*
Y156675D02*
Y157475D01*
X197050Y156675D02*
X198650D01*
X174550Y91475D02*
Y92275D01*
X175350Y91475D02*
Y92275D01*
X175750Y91475D02*
Y92275D01*
X174150Y91475D02*
X175750D01*
X174150D02*
Y92275D01*
X175750D01*
X174550Y90375D02*
Y91175D01*
X175350Y90375D02*
Y91175D01*
X175750Y90375D02*
Y91175D01*
X174150Y90375D02*
X175750D01*
X174150D02*
Y91175D01*
X175750D01*
X175375Y128575D02*
X176175D01*
X175375Y129375D02*
X176175D01*
X175375Y129775D02*
X176175D01*
Y128175D02*
Y129775D01*
X175375Y128175D02*
X176175D01*
X175375D02*
Y129775D01*
X181625Y115275D02*
Y116075D01*
X182425Y115275D02*
Y116075D01*
X182825Y115275D02*
Y116075D01*
X181225Y115275D02*
X182825D01*
X181225D02*
Y116075D01*
X182825D01*
X198500Y164825D02*
Y165625D01*
X199300Y164825D02*
Y165625D01*
X199700Y164825D02*
Y165625D01*
X198100Y164825D02*
X199700D01*
X198100D02*
Y165625D01*
X199700D01*
X186750Y129950D02*
X187550D01*
X186750Y129150D02*
X187550D01*
X186750Y128750D02*
X187550D01*
X186750D02*
Y130350D01*
X187550D01*
Y128750D02*
Y130350D01*
X165025Y100075D02*
X169025D01*
X165025D02*
Y105075D01*
X169025D01*
Y100075D02*
Y105075D01*
X168981Y104683D02*
X170124D01*
Y104277D02*
Y104683D01*
X168981Y104277D02*
X170124D01*
X168981Y103413D02*
X170124D01*
Y103007D02*
Y103413D01*
X168981Y103007D02*
X170124D01*
X168981Y102143D02*
X170124D01*
Y101737D02*
Y102143D01*
X168981Y101737D02*
X170124D01*
X168981Y100873D02*
X170124D01*
Y100467D02*
Y100873D01*
X168981Y100467D02*
X170124D01*
X163926D02*
X165069D01*
X163926D02*
Y100873D01*
X165069D01*
X163926Y101737D02*
X165069D01*
X163926D02*
Y102143D01*
X165069D01*
X163926Y103007D02*
X165069D01*
X163926D02*
Y103413D01*
X165069D01*
X163926Y104277D02*
X165069D01*
X163926D02*
Y104683D01*
X165069D01*
X193300Y117550D02*
X194100D01*
X193300Y116750D02*
X194100D01*
X193300Y116350D02*
X194100D01*
X193300D02*
Y117950D01*
X194100D01*
Y116350D02*
Y117950D01*
X163975Y98875D02*
X164775D01*
X163975Y98075D02*
X164775D01*
X163975Y97675D02*
X164775D01*
X163975D02*
Y99275D01*
X164775D01*
Y97675D02*
Y99275D01*
X191450Y148100D02*
X193450D01*
Y146850D02*
Y148100D01*
X191450Y146850D02*
X193450D01*
X191450D02*
Y148100D01*
X191750Y146850D02*
Y148100D01*
X193150Y146850D02*
Y148075D01*
X184075Y153200D02*
X184875D01*
X184075Y152400D02*
X184875D01*
X184075Y152000D02*
X184875D01*
X184075D02*
Y153600D01*
X184875D01*
Y152000D02*
Y153600D01*
X182625Y157634D02*
Y158434D01*
X181825Y157634D02*
Y158434D01*
X181425Y157634D02*
Y158434D01*
X183025D01*
Y157634D02*
Y158434D01*
X181425Y157634D02*
X183025D01*
X179350Y99750D02*
X181350D01*
X179350D02*
Y101000D01*
X181350D01*
Y99750D02*
Y101000D01*
X181050Y99750D02*
Y101000D01*
X179650Y99775D02*
Y101000D01*
X187925Y94650D02*
X188725D01*
X187925Y95450D02*
X188725D01*
X187925Y95850D02*
X188725D01*
Y94250D02*
Y95850D01*
X187925Y94250D02*
X188725D01*
X187925D02*
Y95850D01*
X190175Y89416D02*
Y90216D01*
X190975Y89416D02*
Y90216D01*
X191375Y89416D02*
Y90216D01*
X189775Y89416D02*
X191375D01*
X189775D02*
Y90216D01*
X191375D01*
X195900Y146600D02*
X196700D01*
X195900Y145800D02*
X196700D01*
X195900Y145400D02*
X196700D01*
X195900D02*
Y147000D01*
X196700D01*
Y145400D02*
Y147000D01*
X176100Y101250D02*
X176900D01*
X176100Y102050D02*
X176900D01*
X176100Y102450D02*
X176900D01*
Y100850D02*
Y102450D01*
X176100Y100850D02*
X176900D01*
X176100D02*
Y102450D01*
X190825Y160300D02*
X192825D01*
Y159050D02*
Y160300D01*
X190825Y159050D02*
X192825D01*
X190825D02*
Y160300D01*
X191125Y159050D02*
Y160300D01*
X192525Y159050D02*
Y160275D01*
X179925Y87550D02*
X181925D01*
X179925D02*
Y88800D01*
X181925D01*
Y87550D02*
Y88800D01*
X181625Y87550D02*
Y88800D01*
X180225Y87575D02*
Y88800D01*
X180375Y81875D02*
X181175D01*
X180375Y82675D02*
X181175D01*
X180375Y83075D02*
X181175D01*
Y81475D02*
Y83075D01*
X180375Y81475D02*
X181175D01*
X180375D02*
Y83075D01*
G54D183*
X162700Y131200D02*
X163200D01*
Y131533D01*
X162700Y132033D02*
X162783Y131866D01*
X162950Y131700D01*
X163117D01*
X163200Y131783D01*
Y131950D01*
X163117Y132033D01*
X163033D01*
X162950Y131950D01*
Y131700D01*
X187675Y88250D02*
X187175D01*
Y88500D01*
X187258Y88583D01*
X187425D01*
X187508Y88500D01*
Y88250D01*
Y88417D02*
X187675Y88583D01*
Y89083D02*
Y88750D01*
X187342Y89083D01*
X187258D01*
X187175Y89000D01*
Y88833D01*
X187258Y88750D01*
X187175Y89583D02*
X187258Y89416D01*
X187425Y89250D01*
X187592D01*
X187675Y89333D01*
Y89500D01*
X187592Y89583D01*
X187508D01*
X187425Y89500D01*
Y89250D01*
Y89750D02*
Y90083D01*
X187675Y90583D02*
Y90249D01*
X187342Y90583D01*
X187258D01*
X187175Y90499D01*
Y90333D01*
X187258Y90249D01*
X185125Y159550D02*
X185625D01*
Y159300D01*
X185542Y159217D01*
X185375D01*
X185292Y159300D01*
Y159550D01*
Y159383D02*
X185125Y159217D01*
Y158717D02*
Y159050D01*
X185458Y158717D01*
X185542D01*
X185625Y158800D01*
Y158967D01*
X185542Y159050D01*
X185625Y158217D02*
X185542Y158384D01*
X185375Y158550D01*
X185208D01*
X185125Y158467D01*
Y158300D01*
X185208Y158217D01*
X185292D01*
X185375Y158300D01*
Y158550D01*
Y158050D02*
Y157717D01*
X185125Y157551D02*
Y157384D01*
Y157467D01*
X185625D01*
X185542Y157551D01*
X193129Y128198D02*
Y128697D01*
X193379D01*
X193462Y128614D01*
Y128448D01*
X193379Y128364D01*
X193129D01*
X193295D02*
X193462Y128198D01*
X193962D02*
X193628D01*
X193962Y128531D01*
Y128614D01*
X193878Y128697D01*
X193712D01*
X193628Y128614D01*
X194461Y128198D02*
X194128D01*
X194461Y128531D01*
Y128614D01*
X194378Y128697D01*
X194212D01*
X194128Y128614D01*
X193075Y120000D02*
Y120500D01*
X193325D01*
X193408Y120417D01*
Y120250D01*
X193325Y120167D01*
X193075D01*
X193242D02*
X193408Y120000D01*
X193908D02*
X193575D01*
X193908Y120333D01*
Y120417D01*
X193825Y120500D01*
X193658D01*
X193575Y120417D01*
X194075D02*
X194158Y120500D01*
X194325D01*
X194408Y120417D01*
Y120333D01*
X194325Y120250D01*
X194241D01*
X194325D01*
X194408Y120167D01*
Y120083D01*
X194325Y120000D01*
X194158D01*
X194075Y120083D01*
X192575Y108500D02*
Y109000D01*
X192242D01*
X192075D02*
X191909D01*
X191992D01*
Y108500D01*
X192075Y108583D01*
X191325Y108500D02*
X191492Y108583D01*
X191659Y108750D01*
Y108917D01*
X191575Y109000D01*
X191409D01*
X191325Y108917D01*
Y108833D01*
X191409Y108750D01*
X191659D01*
X177750Y137225D02*
Y137725D01*
X177417D01*
X177250D02*
X177084D01*
X177167D01*
Y137225D01*
X177250Y137308D01*
X176500Y137225D02*
X176667Y137308D01*
X176834Y137475D01*
Y137642D01*
X176750Y137725D01*
X176584D01*
X176500Y137642D01*
Y137558D01*
X176584Y137475D01*
X176834D01*
X190900Y123575D02*
X190483D01*
X190400Y123492D01*
Y123325D01*
X190483Y123242D01*
X190900D01*
X190400Y123075D02*
Y122909D01*
Y122992D01*
X190900D01*
X190817Y123075D01*
Y122659D02*
X190900Y122575D01*
Y122409D01*
X190817Y122325D01*
X190483D01*
X190400Y122409D01*
Y122575D01*
X190483Y122659D01*
X190817D01*
X186233Y119158D02*
X186150Y119075D01*
Y118908D01*
X186233Y118825D01*
X186567D01*
X186650Y118908D01*
Y119075D01*
X186567Y119158D01*
X186650Y119325D02*
Y119491D01*
Y119408D01*
X186150D01*
X186233Y119325D01*
Y119741D02*
X186150Y119825D01*
Y119991D01*
X186233Y120075D01*
X186317D01*
X186400Y119991D01*
X186483Y120075D01*
X186567D01*
X186650Y119991D01*
Y119825D01*
X186567Y119741D01*
X186483D01*
X186400Y119825D01*
X186317Y119741D01*
X186233D01*
X186400Y119825D02*
Y119991D01*
X194763Y123421D02*
X194680Y123504D01*
X194513D01*
X194430Y123421D01*
Y123088D01*
X194513Y123005D01*
X194680D01*
X194763Y123088D01*
X195263Y123005D02*
X194930D01*
X195263Y123338D01*
Y123421D01*
X195180Y123504D01*
X195013D01*
X194930Y123421D01*
X195763Y123504D02*
X195430D01*
Y123255D01*
X195596Y123338D01*
X195680D01*
X195763Y123255D01*
Y123088D01*
X195680Y123005D01*
X195513D01*
X195430Y123088D01*
X182050Y119050D02*
Y119383D01*
Y119217D01*
X182550D01*
Y119883D02*
Y119550D01*
X182217Y119883D01*
X182133D01*
X182050Y119800D01*
Y119633D01*
X182133Y119550D01*
X187425Y120550D02*
X187925D01*
Y120883D01*
X187425Y121383D02*
Y121050D01*
X187675D01*
X187592Y121216D01*
Y121300D01*
X187675Y121383D01*
X187842D01*
X187925Y121300D01*
Y121133D01*
X187842Y121050D01*
X176275Y119600D02*
Y119183D01*
X176358Y119100D01*
X176525D01*
X176608Y119183D01*
Y119600D01*
X176775D02*
X177108D01*
Y119517D01*
X176775Y119183D01*
Y119100D01*
X189422Y119121D02*
X189505Y119205D01*
Y119371D01*
X189422Y119455D01*
X189088D01*
X189005Y119371D01*
Y119205D01*
X189088Y119121D01*
X189005Y118622D02*
Y118955D01*
X189338Y118622D01*
X189422D01*
X189505Y118705D01*
Y118871D01*
X189422Y118955D01*
Y118455D02*
X189505Y118372D01*
Y118205D01*
X189422Y118122D01*
X189338D01*
X189255Y118205D01*
Y118288D01*
Y118205D01*
X189172Y118122D01*
X189088D01*
X189005Y118205D01*
Y118372D01*
X189088Y118455D01*
X192125Y120850D02*
X192625D01*
Y121183D01*
X192208Y121350D02*
X192125Y121433D01*
Y121600D01*
X192208Y121683D01*
X192292D01*
X192375Y121600D01*
X192458Y121683D01*
X192542D01*
X192625Y121600D01*
Y121433D01*
X192542Y121350D01*
X192458D01*
X192375Y121433D01*
X192292Y121350D01*
X192208D01*
X192375Y121433D02*
Y121600D01*
X194453Y124929D02*
X194370Y124845D01*
Y124679D01*
X194453Y124595D01*
X194787D01*
X194870Y124679D01*
Y124845D01*
X194787Y124929D01*
X194870Y125095D02*
Y125262D01*
Y125179D01*
X194370D01*
X194453Y125095D01*
X194370Y125845D02*
Y125512D01*
X194620D01*
X194537Y125678D01*
Y125762D01*
X194620Y125845D01*
X194787D01*
X194870Y125762D01*
Y125595D01*
X194787Y125512D01*
X201342Y119142D02*
X201425Y119225D01*
Y119392D01*
X201342Y119475D01*
X201008D01*
X200925Y119392D01*
Y119225D01*
X201008Y119142D01*
X200925Y118975D02*
Y118809D01*
Y118892D01*
X201425D01*
X201342Y118975D01*
X200925Y118309D02*
X201425D01*
X201175Y118559D01*
Y118225D01*
X190705Y117755D02*
X190205D01*
Y118005D01*
X190288Y118088D01*
X190455D01*
X190538Y118005D01*
Y117755D01*
Y117921D02*
X190705Y118088D01*
Y118588D02*
Y118254D01*
X190372Y118588D01*
X190288D01*
X190205Y118504D01*
Y118338D01*
X190288Y118254D01*
X190705Y118754D02*
Y118921D01*
Y118838D01*
X190205D01*
X190288Y118754D01*
X191642Y120083D02*
X191725Y120000D01*
X191892D01*
X191975Y120083D01*
Y120417D01*
X191892Y120500D01*
X191725D01*
X191642Y120417D01*
X191142Y120500D02*
X191475D01*
X191142Y120167D01*
Y120083D01*
X191225Y120000D01*
X191392D01*
X191475Y120083D01*
X190975Y120417D02*
X190892Y120500D01*
X190725D01*
X190642Y120417D01*
Y120083D01*
X190725Y120000D01*
X190892D01*
X190975Y120083D01*
Y120167D01*
X190892Y120250D01*
X190642D01*
X195474Y117842D02*
X194974D01*
Y118092D01*
X195057Y118175D01*
X195224D01*
X195307Y118092D01*
Y117842D01*
Y118008D02*
X195474Y118175D01*
Y118675D02*
Y118342D01*
X195140Y118675D01*
X195057D01*
X194974Y118592D01*
Y118425D01*
X195057Y118342D01*
Y118841D02*
X194974Y118925D01*
Y119091D01*
X195057Y119175D01*
X195390D01*
X195474Y119091D01*
Y118925D01*
X195390Y118841D01*
X195057D01*
X198275Y118500D02*
Y119000D01*
X197942D01*
X197775Y118583D02*
X197692Y118500D01*
X197525D01*
X197442Y118583D01*
Y118667D01*
X197525Y118750D01*
X197609D01*
X197525D01*
X197442Y118833D01*
Y118917D01*
X197525Y119000D01*
X197692D01*
X197775Y118917D01*
X197908Y120417D02*
X197825Y120500D01*
X197658D01*
X197575Y120417D01*
Y120083D01*
X197658Y120000D01*
X197825D01*
X197908Y120083D01*
X198408Y120000D02*
X198075D01*
X198408Y120333D01*
Y120417D01*
X198325Y120500D01*
X198158D01*
X198075Y120417D01*
X198575D02*
X198658Y120500D01*
X198825D01*
X198908Y120417D01*
Y120333D01*
X198825Y120250D01*
X198908Y120167D01*
Y120083D01*
X198825Y120000D01*
X198658D01*
X198575Y120083D01*
Y120167D01*
X198658Y120250D01*
X198575Y120333D01*
Y120417D01*
X198658Y120250D02*
X198825D01*
X190622Y119121D02*
X190705Y119205D01*
Y119371D01*
X190622Y119455D01*
X190288D01*
X190205Y119371D01*
Y119205D01*
X190288Y119121D01*
X190205Y118622D02*
Y118955D01*
X190538Y118622D01*
X190622D01*
X190705Y118705D01*
Y118871D01*
X190622Y118955D01*
X190205Y118122D02*
Y118455D01*
X190538Y118122D01*
X190622D01*
X190705Y118205D01*
Y118372D01*
X190622Y118455D01*
X194837Y131514D02*
X194754Y131597D01*
X194587D01*
X194504Y131514D01*
Y131181D01*
X194587Y131098D01*
X194754D01*
X194837Y131181D01*
X195337Y131098D02*
X195003D01*
X195337Y131431D01*
Y131514D01*
X195253Y131597D01*
X195087D01*
X195003Y131514D01*
X195753Y131098D02*
Y131597D01*
X195503Y131348D01*
X195836D01*
X190900Y131650D02*
X190483D01*
X190400Y131567D01*
Y131400D01*
X190483Y131317D01*
X190900D01*
X190483Y131150D02*
X190400Y131067D01*
Y130900D01*
X190483Y130817D01*
X190817D01*
X190900Y130900D01*
Y131067D01*
X190817Y131150D01*
X190733D01*
X190650Y131067D01*
Y130817D01*
X185825Y125350D02*
X185492D01*
X185658D01*
Y125850D01*
X185325D02*
X185159D01*
X185242D01*
Y125350D01*
X185325Y125433D01*
X187400Y128650D02*
X187900D01*
Y128983D01*
Y129400D02*
X187400D01*
X187650Y129150D01*
Y129483D01*
X189417Y127317D02*
X189500Y127400D01*
Y127567D01*
X189417Y127650D01*
X189083D01*
X189000Y127567D01*
Y127400D01*
X189083Y127317D01*
X189000Y126817D02*
Y127150D01*
X189333Y126817D01*
X189417D01*
X189500Y126900D01*
Y127067D01*
X189417Y127150D01*
X189000Y126650D02*
Y126484D01*
Y126567D01*
X189500D01*
X189417Y126650D01*
X192154Y128948D02*
X192654D01*
Y129281D01*
X192154Y129447D02*
Y129781D01*
X192237D01*
X192570Y129447D01*
X192654D01*
X180325Y130250D02*
X179908D01*
X179825Y130167D01*
Y130000D01*
X179908Y129917D01*
X180325D01*
Y129417D02*
X180242Y129584D01*
X180075Y129750D01*
X179908D01*
X179825Y129667D01*
Y129500D01*
X179908Y129417D01*
X179992D01*
X180075Y129500D01*
Y129750D01*
X199817Y127092D02*
X199900Y127175D01*
Y127342D01*
X199817Y127425D01*
X199483D01*
X199400Y127342D01*
Y127175D01*
X199483Y127092D01*
X199400Y126925D02*
Y126759D01*
Y126842D01*
X199900D01*
X199817Y126925D01*
Y126509D02*
X199900Y126425D01*
Y126259D01*
X199817Y126175D01*
X199733D01*
X199650Y126259D01*
Y126342D01*
Y126259D01*
X199567Y126175D01*
X199483D01*
X199400Y126259D01*
Y126425D01*
X199483Y126509D01*
X190650Y126200D02*
X190150D01*
Y126450D01*
X190233Y126533D01*
X190400D01*
X190483Y126450D01*
Y126200D01*
Y126367D02*
X190650Y126533D01*
Y126700D02*
Y126866D01*
Y126783D01*
X190150D01*
X190233Y126700D01*
X190567Y127116D02*
X190650Y127200D01*
Y127366D01*
X190567Y127450D01*
X190233D01*
X190150Y127366D01*
Y127200D01*
X190233Y127116D01*
X190317D01*
X190400Y127200D01*
Y127450D01*
X191670Y128181D02*
X191754Y128098D01*
X191920D01*
X192004Y128181D01*
Y128514D01*
X191920Y128598D01*
X191754D01*
X191670Y128514D01*
X191171Y128598D02*
X191504D01*
X191171Y128264D01*
Y128181D01*
X191254Y128098D01*
X191420D01*
X191504Y128181D01*
X191004Y128098D02*
X190671D01*
Y128181D01*
X191004Y128514D01*
Y128598D01*
X195354Y125948D02*
X194854D01*
Y126198D01*
X194937Y126281D01*
X195104D01*
X195187Y126198D01*
Y125948D01*
Y126114D02*
X195354Y126281D01*
Y126447D02*
Y126614D01*
Y126531D01*
X194854D01*
X194937Y126447D01*
Y126864D02*
X194854Y126947D01*
Y127114D01*
X194937Y127197D01*
X195020D01*
X195104Y127114D01*
X195187Y127197D01*
X195270D01*
X195354Y127114D01*
Y126947D01*
X195270Y126864D01*
X195187D01*
X195104Y126947D01*
X195020Y126864D01*
X194937D01*
X195104Y126947D02*
Y127114D01*
X197533Y128517D02*
X197450Y128600D01*
X197283D01*
X197200Y128517D01*
Y128183D01*
X197283Y128100D01*
X197450D01*
X197533Y128183D01*
X198033Y128100D02*
X197700D01*
X198033Y128433D01*
Y128517D01*
X197950Y128600D01*
X197783D01*
X197700Y128517D01*
X198533Y128600D02*
X198366Y128517D01*
X198200Y128350D01*
Y128183D01*
X198283Y128100D01*
X198450D01*
X198533Y128183D01*
Y128267D01*
X198450Y128350D01*
X198200D01*
X198450Y126800D02*
Y127300D01*
X198117D01*
X197617D02*
X197950D01*
X197617Y126967D01*
Y126883D01*
X197700Y126800D01*
X197867D01*
X197950Y126883D01*
X190717Y127317D02*
X190800Y127400D01*
Y127567D01*
X190717Y127650D01*
X190383D01*
X190300Y127567D01*
Y127400D01*
X190383Y127317D01*
X190300Y126817D02*
Y127150D01*
X190633Y126817D01*
X190717D01*
X190800Y126900D01*
Y127067D01*
X190717Y127150D01*
Y126650D02*
X190800Y126567D01*
Y126400D01*
X190717Y126317D01*
X190383D01*
X190300Y126400D01*
Y126567D01*
X190383Y126650D01*
X190717D01*
X169350Y130300D02*
Y130800D01*
X169600D01*
X169683Y130717D01*
Y130550D01*
X169600Y130467D01*
X169350D01*
X169517D02*
X169683Y130300D01*
X169850D02*
X170016D01*
X169933D01*
Y130800D01*
X169850Y130717D01*
X170266Y130800D02*
X170600D01*
Y130717D01*
X170266Y130383D01*
Y130300D01*
X169875Y118500D02*
Y118000D01*
X169625D01*
X169542Y118083D01*
Y118250D01*
X169625Y118333D01*
X169875D01*
X169708D02*
X169542Y118500D01*
X169375D02*
X169209D01*
X169292D01*
Y118000D01*
X169375Y118083D01*
X168625Y118000D02*
X168792Y118083D01*
X168959Y118250D01*
Y118417D01*
X168875Y118500D01*
X168709D01*
X168625Y118417D01*
Y118333D01*
X168709Y118250D01*
X168959D01*
X162917Y130317D02*
X163000Y130400D01*
Y130567D01*
X162917Y130650D01*
X162583D01*
X162500Y130567D01*
Y130400D01*
X162583Y130317D01*
X162500Y130150D02*
Y129984D01*
Y130067D01*
X163000D01*
X162917Y130150D01*
X162583Y129734D02*
X162500Y129650D01*
Y129484D01*
X162583Y129400D01*
X162917D01*
X163000Y129484D01*
Y129650D01*
X162917Y129734D01*
X162833D01*
X162750Y129650D01*
Y129400D01*
X168350Y123800D02*
Y124217D01*
X168267Y124300D01*
X168100D01*
X168017Y124217D01*
Y123800D01*
X167850Y123883D02*
X167767Y123800D01*
X167600D01*
X167517Y123883D01*
Y123967D01*
X167600Y124050D01*
X167517Y124133D01*
Y124217D01*
X167600Y124300D01*
X167767D01*
X167850Y124217D01*
Y124133D01*
X167767Y124050D01*
X167850Y123967D01*
Y123883D01*
X167767Y124050D02*
X167600D01*
X162175Y142125D02*
Y142625D01*
X162425D01*
X162508Y142542D01*
Y142375D01*
X162425Y142292D01*
X162175D01*
X162342D02*
X162508Y142125D01*
X162675Y142208D02*
X162758Y142125D01*
X162925D01*
X163008Y142208D01*
Y142542D01*
X162925Y142625D01*
X162758D01*
X162675Y142542D01*
Y142458D01*
X162758Y142375D01*
X163008D01*
X163517Y143308D02*
X163600Y143225D01*
X163767D01*
X163850Y143308D01*
Y143642D01*
X163767Y143725D01*
X163600D01*
X163517Y143642D01*
X163350Y143225D02*
X163017D01*
Y143308D01*
X163350Y143642D01*
Y143725D01*
X160875Y141700D02*
Y142200D01*
X161125D01*
X161208Y142117D01*
Y141950D01*
X161125Y141867D01*
X160875D01*
X161042D02*
X161208Y141700D01*
X161375Y142117D02*
X161458Y142200D01*
X161625D01*
X161708Y142117D01*
Y142033D01*
X161625Y141950D01*
X161708Y141867D01*
Y141783D01*
X161625Y141700D01*
X161458D01*
X161375Y141783D01*
Y141867D01*
X161458Y141950D01*
X161375Y142033D01*
Y142117D01*
X161458Y141950D02*
X161625D01*
X164108Y145983D02*
X164025Y145900D01*
Y145733D01*
X164108Y145650D01*
X164442D01*
X164525Y145733D01*
Y145900D01*
X164442Y145983D01*
X164525Y146150D02*
Y146316D01*
Y146233D01*
X164025D01*
X164108Y146150D01*
X157717Y166567D02*
X157800Y166650D01*
Y166817D01*
X157717Y166900D01*
X157383D01*
X157300Y166817D01*
Y166650D01*
X157383Y166567D01*
X157300Y166067D02*
Y166400D01*
X157633Y166067D01*
X157717D01*
X157800Y166150D01*
Y166317D01*
X157717Y166400D01*
X163317Y153467D02*
X163400Y153550D01*
Y153717D01*
X163317Y153800D01*
X162983D01*
X162900Y153717D01*
Y153550D01*
X162983Y153467D01*
X163317Y153300D02*
X163400Y153217D01*
Y153050D01*
X163317Y152967D01*
X163233D01*
X163150Y153050D01*
X163067Y152967D01*
X162983D01*
X162900Y153050D01*
Y153217D01*
X162983Y153300D01*
X163067D01*
X163150Y153217D01*
X163233Y153300D01*
X163317D01*
X163150Y153217D02*
Y153050D01*
X158825Y146600D02*
X159242D01*
X159325Y146683D01*
Y146850D01*
X159242Y146933D01*
X158825D01*
Y147433D02*
Y147100D01*
X159075D01*
X158992Y147266D01*
Y147350D01*
X159075Y147433D01*
X159242D01*
X159325Y147350D01*
Y147183D01*
X159242Y147100D01*
X157159Y129623D02*
X157076Y129706D01*
X156909D01*
X156826Y129623D01*
Y129290D01*
X156909Y129206D01*
X157076D01*
X157159Y129290D01*
X157326Y129623D02*
X157409Y129706D01*
X157576D01*
X157659Y129623D01*
Y129539D01*
X157576Y129456D01*
X157492D01*
X157576D01*
X157659Y129373D01*
Y129290D01*
X157576Y129206D01*
X157409D01*
X157326Y129290D01*
X157459Y136073D02*
X157376Y136156D01*
X157209D01*
X157126Y136073D01*
Y135740D01*
X157209Y135656D01*
X157376D01*
X157459Y135740D01*
X157626D02*
X157709Y135656D01*
X157876D01*
X157959Y135740D01*
Y136073D01*
X157876Y136156D01*
X157709D01*
X157626Y136073D01*
Y135989D01*
X157709Y135906D01*
X157959D01*
X158401Y131381D02*
Y131798D01*
X158317Y131881D01*
X158151D01*
X158068Y131798D01*
Y131381D01*
X157651Y131881D02*
Y131381D01*
X157901Y131631D01*
X157568D01*
X159782Y138182D02*
X159282D01*
Y137849D01*
Y137682D02*
Y137516D01*
Y137599D01*
X159782D01*
X159699Y137682D01*
X196550Y169625D02*
Y169125D01*
X196300D01*
X196217Y169208D01*
Y169375D01*
X196300Y169458D01*
X196550D01*
X196383D02*
X196217Y169625D01*
X196050D02*
X195884D01*
X195967D01*
Y169125D01*
X196050Y169208D01*
X195384Y169625D02*
Y169125D01*
X195634Y169375D01*
X195300D01*
X191400Y168800D02*
X191900D01*
Y168550D01*
X191817Y168467D01*
X191650D01*
X191567Y168550D01*
Y168800D01*
Y168633D02*
X191400Y168467D01*
Y168300D02*
Y168134D01*
Y168217D01*
X191900D01*
X191817Y168300D01*
X191900Y167550D02*
Y167884D01*
X191650D01*
X191733Y167717D01*
Y167634D01*
X191650Y167550D01*
X191483D01*
X191400Y167634D01*
Y167800D01*
X191483Y167884D01*
X201225Y166125D02*
Y165625D01*
X200975D01*
X200892Y165708D01*
Y165875D01*
X200975Y165958D01*
X201225D01*
X201058D02*
X200892Y166125D01*
X200392Y165625D02*
X200559Y165708D01*
X200725Y165875D01*
Y166042D01*
X200642Y166125D01*
X200475D01*
X200392Y166042D01*
Y165958D01*
X200475Y165875D01*
X200725D01*
X192433Y169567D02*
X192350Y169650D01*
X192183D01*
X192100Y169567D01*
Y169233D01*
X192183Y169150D01*
X192350D01*
X192433Y169233D01*
X192600Y169150D02*
X192766D01*
X192683D01*
Y169650D01*
X192600Y169567D01*
X193016D02*
X193100Y169650D01*
X193266D01*
X193350Y169567D01*
Y169233D01*
X193266Y169150D01*
X193100D01*
X193016Y169233D01*
Y169567D01*
X195050Y165575D02*
Y166075D01*
X195300D01*
X195383Y165992D01*
Y165825D01*
X195300Y165742D01*
X195050D01*
X195217D02*
X195383Y165575D01*
X195883Y166075D02*
X195550D01*
Y165825D01*
X195716Y165908D01*
X195800D01*
X195883Y165825D01*
Y165658D01*
X195800Y165575D01*
X195633D01*
X195550Y165658D01*
X194525Y167000D02*
X194025D01*
Y167250D01*
X194108Y167333D01*
X194275D01*
X194358Y167250D01*
Y167000D01*
Y167167D02*
X194525Y167333D01*
Y167500D02*
Y167666D01*
Y167583D01*
X194025D01*
X194108Y167500D01*
Y167916D02*
X194025Y168000D01*
Y168166D01*
X194108Y168250D01*
X194192D01*
X194275Y168166D01*
Y168083D01*
Y168166D01*
X194358Y168250D01*
X194442D01*
X194525Y168166D01*
Y168000D01*
X194442Y167916D01*
X196244Y167892D02*
X195828D01*
X195744Y167809D01*
Y167642D01*
X195828Y167559D01*
X196244D01*
X196161Y167392D02*
X196244Y167309D01*
Y167142D01*
X196161Y167059D01*
X196078D01*
X195994Y167142D01*
Y167226D01*
Y167142D01*
X195911Y167059D01*
X195828D01*
X195744Y167142D01*
Y167309D01*
X195828Y167392D01*
X163200Y86150D02*
X162700D01*
Y86400D01*
X162783Y86483D01*
X162950D01*
X163033Y86400D01*
Y86150D01*
Y86317D02*
X163200Y86483D01*
X162700Y86650D02*
Y86983D01*
X162783D01*
X163117Y86650D01*
X163200D01*
X163183Y81591D02*
X163100Y81675D01*
X162933D01*
X162850Y81591D01*
Y81258D01*
X162933Y81175D01*
X163100D01*
X163183Y81258D01*
X163683Y81675D02*
X163516Y81591D01*
X163350Y81425D01*
Y81258D01*
X163433Y81175D01*
X163600D01*
X163683Y81258D01*
Y81342D01*
X163600Y81425D01*
X163350D01*
X165875Y86025D02*
X165375D01*
Y86275D01*
X165458Y86358D01*
X165625D01*
X165708Y86275D01*
Y86025D01*
Y86192D02*
X165875Y86358D01*
Y86525D02*
Y86691D01*
Y86608D01*
X165375D01*
X165458Y86525D01*
Y86941D02*
X165375Y87025D01*
Y87191D01*
X165458Y87275D01*
X165792D01*
X165875Y87191D01*
Y87025D01*
X165792Y86941D01*
X165458D01*
X168600Y168650D02*
X169100D01*
Y168400D01*
X169017Y168317D01*
X168850D01*
X168767Y168400D01*
Y168650D01*
Y168483D02*
X168600Y168317D01*
Y168150D02*
Y167984D01*
Y168067D01*
X169100D01*
X169017Y168150D01*
X166725Y158300D02*
X166225D01*
Y158550D01*
X166308Y158633D01*
X166475D01*
X166558Y158550D01*
Y158300D01*
Y158467D02*
X166725Y158633D01*
Y159133D02*
Y158800D01*
X166392Y159133D01*
X166308D01*
X166225Y159050D01*
Y158883D01*
X166308Y158800D01*
X166600Y168650D02*
X167100D01*
Y168400D01*
X167017Y168317D01*
X166850D01*
X166767Y168400D01*
Y168650D01*
Y168483D02*
X166600Y168317D01*
X167017Y168150D02*
X167100Y168067D01*
Y167900D01*
X167017Y167817D01*
X166933D01*
X166850Y167900D01*
Y167984D01*
Y167900D01*
X166767Y167817D01*
X166683D01*
X166600Y167900D01*
Y168067D01*
X166683Y168150D01*
X165400Y158300D02*
X164900D01*
Y158550D01*
X164983Y158633D01*
X165150D01*
X165233Y158550D01*
Y158300D01*
Y158467D02*
X165400Y158633D01*
Y159050D02*
X164900D01*
X165150Y158800D01*
Y159133D01*
X167550Y109000D02*
Y108500D01*
X167300D01*
X167217Y108583D01*
Y108750D01*
X167300Y108833D01*
X167550D01*
X167383D02*
X167217Y109000D01*
X167050D02*
X166884D01*
X166967D01*
Y108500D01*
X167050Y108583D01*
X166634Y109000D02*
X166467D01*
X166550D01*
Y108500D01*
X166634Y108583D01*
X167550Y107125D02*
Y106625D01*
X167300D01*
X167217Y106708D01*
Y106875D01*
X167300Y106958D01*
X167550D01*
X167383D02*
X167217Y107125D01*
X167050D02*
X166884D01*
X166967D01*
Y106625D01*
X167050Y106708D01*
X166300Y107125D02*
X166634D01*
X166300Y106792D01*
Y106708D01*
X166384Y106625D01*
X166550D01*
X166634Y106708D01*
X163500Y84400D02*
X163083D01*
X163000Y84317D01*
Y84150D01*
X163083Y84067D01*
X163500D01*
X163000Y83900D02*
Y83734D01*
Y83817D01*
X163500D01*
X163417Y83900D01*
X178100Y166000D02*
X178600Y166333D01*
X178100D02*
X178600Y166000D01*
Y166500D02*
Y166666D01*
Y166583D01*
X178100D01*
X178183Y166500D01*
X201425Y130850D02*
X201758Y130350D01*
Y130850D02*
X201425Y130350D01*
X202258D02*
X201925D01*
X202258Y130683D01*
Y130767D01*
X202175Y130850D01*
X202008D01*
X201925Y130767D01*
X201425Y122850D02*
X201758Y122350D01*
Y122850D02*
X201425Y122350D01*
X201925Y122767D02*
X202008Y122850D01*
X202175D01*
X202258Y122767D01*
Y122683D01*
X202175Y122600D01*
X202091D01*
X202175D01*
X202258Y122517D01*
Y122433D01*
X202175Y122350D01*
X202008D01*
X201925Y122433D01*
X194750Y81925D02*
X194250Y81592D01*
X194750D02*
X194250Y81925D01*
Y81175D02*
X194750D01*
X194500Y81425D01*
Y81092D01*
X176775Y160200D02*
Y160700D01*
X177025D01*
X177108Y160617D01*
Y160450D01*
X177025Y160367D01*
X176775D01*
X176942D02*
X177108Y160200D01*
X177608D02*
X177275D01*
X177608Y160533D01*
Y160617D01*
X177525Y160700D01*
X177358D01*
X177275Y160617D01*
X177775Y160700D02*
X178108D01*
Y160617D01*
X177775Y160283D01*
Y160200D01*
X178275Y160450D02*
X178608D01*
X178774Y160200D02*
X178941D01*
X178858D01*
Y160700D01*
X178774Y160617D01*
X176296Y159795D02*
X176796D01*
Y159545D01*
X176713Y159462D01*
X176546D01*
X176463Y159545D01*
Y159795D01*
Y159628D02*
X176296Y159462D01*
Y158962D02*
Y159295D01*
X176630Y158962D01*
X176713D01*
X176796Y159045D01*
Y159212D01*
X176713Y159295D01*
X176380Y158795D02*
X176296Y158712D01*
Y158545D01*
X176380Y158462D01*
X176713D01*
X176796Y158545D01*
Y158712D01*
X176713Y158795D01*
X176630D01*
X176546Y158712D01*
Y158462D01*
Y158295D02*
Y157962D01*
X176296Y157796D02*
Y157629D01*
Y157712D01*
X176796D01*
X176713Y157796D01*
X174508Y157497D02*
X174425Y157580D01*
X174258D01*
X174175Y157497D01*
Y157163D01*
X174258Y157080D01*
X174425D01*
X174508Y157163D01*
X174675Y157497D02*
X174758Y157580D01*
X174925D01*
X175008Y157497D01*
Y157413D01*
X174925Y157330D01*
X174841D01*
X174925D01*
X175008Y157247D01*
Y157163D01*
X174925Y157080D01*
X174758D01*
X174675Y157163D01*
X175508Y157080D02*
X175175D01*
X175508Y157413D01*
Y157497D01*
X175425Y157580D01*
X175258D01*
X175175Y157497D01*
X179342Y156522D02*
X179425Y156605D01*
Y156772D01*
X179342Y156855D01*
X179008D01*
X178925Y156772D01*
Y156605D01*
X179008Y156522D01*
X179342Y156355D02*
X179425Y156272D01*
Y156105D01*
X179342Y156022D01*
X179258D01*
X179175Y156105D01*
Y156189D01*
Y156105D01*
X179092Y156022D01*
X179008D01*
X178925Y156105D01*
Y156272D01*
X179008Y156355D01*
X179342Y155855D02*
X179425Y155772D01*
Y155605D01*
X179342Y155522D01*
X179258D01*
X179175Y155605D01*
X179092Y155522D01*
X179008D01*
X178925Y155605D01*
Y155772D01*
X179008Y155855D01*
X179092D01*
X179175Y155772D01*
X179258Y155855D01*
X179342D01*
X179175Y155772D02*
Y155605D01*
X177117Y146658D02*
X177200Y146575D01*
X177367D01*
X177450Y146658D01*
Y146992D01*
X177367Y147075D01*
X177200D01*
X177117Y146992D01*
X176700Y147075D02*
Y146575D01*
X176950Y146825D01*
X176617D01*
X176117Y146575D02*
X176284Y146658D01*
X176450Y146825D01*
Y146992D01*
X176367Y147075D01*
X176200D01*
X176117Y146992D01*
Y146908D01*
X176200Y146825D01*
X176450D01*
X176483Y143858D02*
X176400Y143775D01*
Y143608D01*
X176483Y143525D01*
X176817D01*
X176900Y143608D01*
Y143775D01*
X176817Y143858D01*
X176400Y144358D02*
Y144025D01*
X176650D01*
X176567Y144191D01*
Y144275D01*
X176650Y144358D01*
X176817D01*
X176900Y144275D01*
Y144108D01*
X176817Y144025D01*
X176900Y144525D02*
Y144691D01*
Y144608D01*
X176400D01*
X176483Y144525D01*
X178745Y159275D02*
Y158775D01*
X178495D01*
X178412Y158858D01*
Y159025D01*
X178495Y159108D01*
X178745D01*
X178578D02*
X178412Y159275D01*
X177912D02*
X178245D01*
X177912Y158942D01*
Y158858D01*
X177995Y158775D01*
X178162D01*
X178245Y158858D01*
X177745D02*
X177662Y158775D01*
X177495D01*
X177412Y158858D01*
Y158942D01*
X177495Y159025D01*
X177412Y159108D01*
Y159192D01*
X177495Y159275D01*
X177662D01*
X177745Y159192D01*
Y159108D01*
X177662Y159025D01*
X177745Y158942D01*
Y158858D01*
X177662Y159025D02*
X177495D01*
X177245D02*
X176912D01*
X176746Y159275D02*
X176579D01*
X176662D01*
Y158775D01*
X176746Y158858D01*
X175575Y156405D02*
Y155905D01*
X175908D01*
X176075Y155988D02*
X176158Y155905D01*
X176325D01*
X176408Y155988D01*
Y156322D01*
X176325Y156405D01*
X176158D01*
X176075Y156322D01*
Y156238D01*
X176158Y156155D01*
X176408D01*
X180545Y153407D02*
Y153074D01*
X180462D01*
X180128Y153407D01*
X180045D01*
Y153074D01*
Y152574D02*
Y152907D01*
X180378Y152574D01*
X180462D01*
X180545Y152657D01*
Y152824D01*
X180462Y152907D01*
X175750Y147375D02*
Y146875D01*
X176083D01*
X176250D02*
X176416D01*
X176333D01*
Y147375D01*
X176250Y147292D01*
X177000Y146875D02*
X176666D01*
X177000Y147208D01*
Y147292D01*
X176916Y147375D01*
X176750D01*
X176666Y147292D01*
X182717Y146463D02*
X182800Y146380D01*
X182967D01*
X183050Y146463D01*
Y146797D01*
X182967Y146880D01*
X182800D01*
X182717Y146797D01*
X182550Y146463D02*
X182467Y146380D01*
X182300D01*
X182217Y146463D01*
Y146547D01*
X182300Y146630D01*
X182384D01*
X182300D01*
X182217Y146713D01*
Y146797D01*
X182300Y146880D01*
X182467D01*
X182550Y146797D01*
X182050D02*
X181967Y146880D01*
X181800D01*
X181717Y146797D01*
Y146463D01*
X181800Y146380D01*
X181967D01*
X182050Y146463D01*
Y146547D01*
X181967Y146630D01*
X181717D01*
X181550D02*
X181217D01*
X181051Y146880D02*
X180884D01*
X180967D01*
Y146380D01*
X181051Y146463D01*
X182717Y145288D02*
X182800Y145205D01*
X182967D01*
X183050Y145288D01*
Y145622D01*
X182967Y145705D01*
X182800D01*
X182717Y145622D01*
X182300Y145705D02*
Y145205D01*
X182550Y145455D01*
X182217D01*
X181800Y145705D02*
Y145205D01*
X182050Y145455D01*
X181717D01*
X181550D02*
X181217D01*
X181051Y145705D02*
X180884D01*
X180967D01*
Y145205D01*
X181051Y145288D01*
X178125Y137400D02*
Y137733D01*
X178208D01*
X178542Y137400D01*
X178625D01*
Y137733D01*
Y138150D02*
X178125D01*
X178375Y137900D01*
Y138233D01*
X178817Y134733D02*
X178900Y134650D01*
X179067D01*
X179150Y134733D01*
Y135067D01*
X179067Y135150D01*
X178900D01*
X178817Y135067D01*
X178317Y134650D02*
X178484Y134733D01*
X178650Y134900D01*
Y135067D01*
X178567Y135150D01*
X178400D01*
X178317Y135067D01*
Y134983D01*
X178400Y134900D01*
X178650D01*
X178150Y134733D02*
X178067Y134650D01*
X177900D01*
X177817Y134733D01*
Y134817D01*
X177900Y134900D01*
X177984D01*
X177900D01*
X177817Y134983D01*
Y135067D01*
X177900Y135150D01*
X178067D01*
X178150Y135067D01*
X182675Y148925D02*
Y149258D01*
X182758D01*
X183092Y148925D01*
X183175D01*
Y149258D01*
Y149425D02*
Y149591D01*
Y149508D01*
X182675D01*
X182758Y149425D01*
X180042Y140713D02*
X180125Y140630D01*
X180292D01*
X180375Y140713D01*
Y141047D01*
X180292Y141130D01*
X180125D01*
X180042Y141047D01*
X179542Y140630D02*
X179875D01*
Y140880D01*
X179709Y140797D01*
X179625D01*
X179542Y140880D01*
Y141047D01*
X179625Y141130D01*
X179792D01*
X179875Y141047D01*
X179375Y140713D02*
X179292Y140630D01*
X179125D01*
X179042Y140713D01*
Y140797D01*
X179125Y140880D01*
X179209D01*
X179125D01*
X179042Y140963D01*
Y141047D01*
X179125Y141130D01*
X179292D01*
X179375Y141047D01*
X184133Y144413D02*
X184050Y144330D01*
Y144163D01*
X184133Y144080D01*
X184467D01*
X184550Y144163D01*
Y144330D01*
X184467Y144413D01*
X184550Y144830D02*
X184050D01*
X184300Y144580D01*
Y144913D01*
X184133Y145080D02*
X184050Y145163D01*
Y145330D01*
X184133Y145413D01*
X184467D01*
X184550Y145330D01*
Y145163D01*
X184467Y145080D01*
X184133D01*
X188717Y142287D02*
X188800Y142370D01*
Y142537D01*
X188717Y142620D01*
X188383D01*
X188300Y142537D01*
Y142370D01*
X188383Y142287D01*
X188717Y142120D02*
X188800Y142037D01*
Y141870D01*
X188717Y141787D01*
X188633D01*
X188550Y141870D01*
Y141954D01*
Y141870D01*
X188467Y141787D01*
X188383D01*
X188300Y141870D01*
Y142037D01*
X188383Y142120D01*
X188800Y141287D02*
X188717Y141454D01*
X188550Y141620D01*
X188383D01*
X188300Y141537D01*
Y141370D01*
X188383Y141287D01*
X188467D01*
X188550Y141370D01*
Y141620D01*
X178517Y136867D02*
X178600Y136950D01*
Y137117D01*
X178517Y137200D01*
X178183D01*
X178100Y137117D01*
Y136950D01*
X178183Y136867D01*
X178600Y136367D02*
X178517Y136534D01*
X178350Y136700D01*
X178183D01*
X178100Y136617D01*
Y136450D01*
X178183Y136367D01*
X178267D01*
X178350Y136450D01*
Y136700D01*
X178100Y135867D02*
Y136200D01*
X178433Y135867D01*
X178517D01*
X178600Y135950D01*
Y136117D01*
X178517Y136200D01*
X184900Y143675D02*
Y143175D01*
X185233D01*
X185400D02*
X185566D01*
X185483D01*
Y143675D01*
X185400Y143592D01*
X185816D02*
X185900Y143675D01*
X186066D01*
X186150Y143592D01*
Y143258D01*
X186066Y143175D01*
X185900D01*
X185816Y143258D01*
Y143592D01*
X178542Y140713D02*
X178625Y140630D01*
X178792D01*
X178875Y140713D01*
Y141047D01*
X178792Y141130D01*
X178625D01*
X178542Y141047D01*
X178042Y140630D02*
X178375D01*
Y140880D01*
X178209Y140797D01*
X178125D01*
X178042Y140880D01*
Y141047D01*
X178125Y141130D01*
X178292D01*
X178375Y141047D01*
X177542Y141130D02*
X177875D01*
X177542Y140797D01*
Y140713D01*
X177625Y140630D01*
X177792D01*
X177875Y140713D01*
X176063Y138925D02*
Y139258D01*
X176146D01*
X176479Y138925D01*
X176562D01*
Y139258D01*
X176146Y139425D02*
X176063Y139508D01*
Y139675D01*
X176146Y139758D01*
X176229D01*
X176313Y139675D01*
Y139591D01*
Y139675D01*
X176396Y139758D01*
X176479D01*
X176562Y139675D01*
Y139508D01*
X176479Y139425D01*
X176100Y135250D02*
Y134917D01*
X176017D01*
X175683Y135250D01*
X175600D01*
Y134917D01*
X176100Y134417D02*
X176017Y134584D01*
X175850Y134750D01*
X175683D01*
X175600Y134667D01*
Y134500D01*
X175683Y134417D01*
X175767D01*
X175850Y134500D01*
Y134750D01*
Y134250D02*
Y133917D01*
X175600Y133750D02*
Y133584D01*
Y133667D01*
X176100D01*
X176017Y133750D01*
X180525Y142455D02*
X180942D01*
X181025Y142538D01*
Y142705D01*
X180942Y142788D01*
X180525D01*
X181025Y142955D02*
Y143121D01*
Y143038D01*
X180525D01*
X180608Y142955D01*
X181025Y143705D02*
Y143371D01*
X180692Y143705D01*
X180608D01*
X180525Y143621D01*
Y143455D01*
X180608Y143371D01*
X192283Y138653D02*
X192200Y138570D01*
Y138403D01*
X192283Y138320D01*
X192617D01*
X192700Y138403D01*
Y138570D01*
X192617Y138653D01*
X192200Y139153D02*
Y138820D01*
X192450D01*
X192367Y138986D01*
Y139070D01*
X192450Y139153D01*
X192617D01*
X192700Y139070D01*
Y138903D01*
X192617Y138820D01*
X192200Y139653D02*
X192283Y139486D01*
X192450Y139320D01*
X192617D01*
X192700Y139403D01*
Y139570D01*
X192617Y139653D01*
X192533D01*
X192450Y139570D01*
Y139320D01*
Y139820D02*
Y140153D01*
X192700Y140319D02*
Y140486D01*
Y140403D01*
X192200D01*
X192283Y140319D01*
X190217Y141653D02*
X190300Y141570D01*
X190467D01*
X190550Y141653D01*
Y141987D01*
X190467Y142070D01*
X190300D01*
X190217Y141987D01*
X189800Y142070D02*
Y141570D01*
X190050Y141820D01*
X189717D01*
X189550Y141653D02*
X189467Y141570D01*
X189300D01*
X189217Y141653D01*
Y141737D01*
X189300Y141820D01*
X189217Y141903D01*
Y141987D01*
X189300Y142070D01*
X189467D01*
X189550Y141987D01*
Y141903D01*
X189467Y141820D01*
X189550Y141737D01*
Y141653D01*
X189467Y141820D02*
X189300D01*
X192617Y139587D02*
X192700Y139670D01*
Y139837D01*
X192617Y139920D01*
X192283D01*
X192200Y139837D01*
Y139670D01*
X192283Y139587D01*
X192700Y139087D02*
Y139420D01*
X192450D01*
X192533Y139254D01*
Y139170D01*
X192450Y139087D01*
X192283D01*
X192200Y139170D01*
Y139337D01*
X192283Y139420D01*
X192700Y138587D02*
Y138920D01*
X192450D01*
X192533Y138754D01*
Y138670D01*
X192450Y138587D01*
X192283D01*
X192200Y138670D01*
Y138837D01*
X192283Y138920D01*
X192450Y138420D02*
Y138087D01*
X192200Y137921D02*
Y137754D01*
Y137837D01*
X192700D01*
X192617Y137921D01*
X192800Y142720D02*
X192300D01*
Y142387D01*
Y142220D02*
Y142054D01*
Y142137D01*
X192800D01*
X192717Y142220D01*
X192300Y141554D02*
X192800D01*
X192550Y141804D01*
Y141470D01*
X191550Y144775D02*
Y145275D01*
X191800D01*
X191883Y145192D01*
Y145025D01*
X191800Y144942D01*
X191550D01*
X191717D02*
X191883Y144775D01*
X192050Y145192D02*
X192133Y145275D01*
X192300D01*
X192383Y145192D01*
Y145108D01*
X192300Y145025D01*
X192216D01*
X192300D01*
X192383Y144942D01*
Y144858D01*
X192300Y144775D01*
X192133D01*
X192050Y144858D01*
X192550Y144775D02*
X192716D01*
X192633D01*
Y145275D01*
X192550Y145192D01*
X197425Y138450D02*
X197092D01*
Y138533D01*
X197425Y138867D01*
Y138950D01*
X197092D01*
X196592Y138450D02*
X196925D01*
Y138700D01*
X196759Y138617D01*
X196675D01*
X196592Y138700D01*
Y138867D01*
X196675Y138950D01*
X196842D01*
X196925Y138867D01*
X194300Y142720D02*
X193800D01*
Y142387D01*
Y142220D02*
Y142054D01*
Y142137D01*
X194300D01*
X194217Y142220D01*
Y141804D02*
X194300Y141720D01*
Y141554D01*
X194217Y141470D01*
X194133D01*
X194050Y141554D01*
Y141637D01*
Y141554D01*
X193967Y141470D01*
X193883D01*
X193800Y141554D01*
Y141720D01*
X193883Y141804D01*
X190942Y146842D02*
X191025Y146925D01*
Y147092D01*
X190942Y147175D01*
X190608D01*
X190525Y147092D01*
Y146925D01*
X190608Y146842D01*
X190525Y146425D02*
X191025D01*
X190775Y146675D01*
Y146342D01*
X190525Y145842D02*
Y146175D01*
X190858Y145842D01*
X190942D01*
X191025Y145925D01*
Y146092D01*
X190942Y146175D01*
X190775Y145675D02*
Y145342D01*
X190525Y145176D02*
Y145009D01*
Y145092D01*
X191025D01*
X190942Y145176D01*
X190867Y148158D02*
X190950Y148075D01*
X191117D01*
X191200Y148158D01*
Y148492D01*
X191117Y148575D01*
X190950D01*
X190867Y148492D01*
X190450Y148575D02*
Y148075D01*
X190700Y148325D01*
X190367D01*
X190200Y148575D02*
X190034D01*
X190117D01*
Y148075D01*
X190200Y148158D01*
X189784Y148325D02*
X189451D01*
X189284Y148575D02*
X189117D01*
X189201D01*
Y148075D01*
X189284Y148158D01*
X187108Y148772D02*
X187025Y148855D01*
X186858D01*
X186775Y148772D01*
Y148438D01*
X186858Y148355D01*
X187025D01*
X187108Y148438D01*
X187275Y148855D02*
X187608D01*
Y148772D01*
X187275Y148438D01*
Y148355D01*
X187775Y148772D02*
X187858Y148855D01*
X188025D01*
X188108Y148772D01*
Y148438D01*
X188025Y148355D01*
X187858D01*
X187775Y148438D01*
Y148772D01*
X188275Y148605D02*
X188608D01*
X188774Y148355D02*
X188941D01*
X188858D01*
Y148855D01*
X188774Y148772D01*
X194183Y149792D02*
X194100Y149875D01*
X193933D01*
X193850Y149792D01*
Y149458D01*
X193933Y149375D01*
X194100D01*
X194183Y149458D01*
X194683Y149875D02*
X194350D01*
Y149625D01*
X194516Y149708D01*
X194600D01*
X194683Y149625D01*
Y149458D01*
X194600Y149375D01*
X194433D01*
X194350Y149458D01*
X194850Y149875D02*
X195183D01*
Y149792D01*
X194850Y149458D01*
Y149375D01*
X195350Y149625D02*
X195683D01*
X195849Y149375D02*
X196016D01*
X195933D01*
Y149875D01*
X195849Y149792D01*
X195817Y146667D02*
X195900Y146750D01*
Y146917D01*
X195817Y147000D01*
X195483D01*
X195400Y146917D01*
Y146750D01*
X195483Y146667D01*
X195900Y146167D02*
X195817Y146334D01*
X195650Y146500D01*
X195483D01*
X195400Y146417D01*
Y146250D01*
X195483Y146167D01*
X195567D01*
X195650Y146250D01*
Y146500D01*
X195817Y146000D02*
X195900Y145917D01*
Y145750D01*
X195817Y145667D01*
X195483D01*
X195400Y145750D01*
Y145917D01*
X195483Y146000D01*
X195817D01*
X187108Y150272D02*
X187025Y150355D01*
X186858D01*
X186775Y150272D01*
Y149938D01*
X186858Y149855D01*
X187025D01*
X187108Y149938D01*
X187275Y150272D02*
X187358Y150355D01*
X187525D01*
X187608Y150272D01*
Y150188D01*
X187525Y150105D01*
X187441D01*
X187525D01*
X187608Y150022D01*
Y149938D01*
X187525Y149855D01*
X187358D01*
X187275Y149938D01*
X187775Y150355D02*
X188108D01*
Y150272D01*
X187775Y149938D01*
Y149855D01*
X188275Y150105D02*
X188608D01*
X188774Y149855D02*
X188941D01*
X188858D01*
Y150355D01*
X188774Y150272D01*
X184925Y147680D02*
X184425D01*
Y147930D01*
X184508Y148013D01*
X184675D01*
X184758Y147930D01*
Y147680D01*
Y147847D02*
X184925Y148013D01*
X184508Y148180D02*
X184425Y148263D01*
Y148430D01*
X184508Y148513D01*
X184592D01*
X184675Y148430D01*
Y148346D01*
Y148430D01*
X184758Y148513D01*
X184842D01*
X184925Y148430D01*
Y148263D01*
X184842Y148180D01*
X184425Y149013D02*
Y148680D01*
X184675D01*
X184592Y148846D01*
Y148930D01*
X184675Y149013D01*
X184842D01*
X184925Y148930D01*
Y148763D01*
X184842Y148680D01*
X186683Y151797D02*
X186600Y151880D01*
X186433D01*
X186350Y151797D01*
Y151463D01*
X186433Y151380D01*
X186600D01*
X186683Y151463D01*
X186850Y151797D02*
X186933Y151880D01*
X187100D01*
X187183Y151797D01*
Y151713D01*
X187100Y151630D01*
X187016D01*
X187100D01*
X187183Y151547D01*
Y151463D01*
X187100Y151380D01*
X186933D01*
X186850Y151463D01*
X187600Y151380D02*
Y151880D01*
X187350Y151630D01*
X187683D01*
X187850D02*
X188183D01*
X188349Y151380D02*
X188516D01*
X188433D01*
Y151880D01*
X188349Y151797D01*
X188475Y145955D02*
Y145455D01*
X188225D01*
X188142Y145538D01*
Y145705D01*
X188225Y145788D01*
X188475D01*
X188308D02*
X188142Y145955D01*
X187975Y145538D02*
X187892Y145455D01*
X187725D01*
X187642Y145538D01*
Y145622D01*
X187725Y145705D01*
X187809D01*
X187725D01*
X187642Y145788D01*
Y145872D01*
X187725Y145955D01*
X187892D01*
X187975Y145872D01*
X187225Y145955D02*
Y145455D01*
X187475Y145705D01*
X187142D01*
X198317Y149358D02*
X198400Y149275D01*
X198567D01*
X198650Y149358D01*
Y149692D01*
X198567Y149775D01*
X198400D01*
X198317Y149692D01*
X197817Y149275D02*
X198150D01*
Y149525D01*
X197984Y149442D01*
X197900D01*
X197817Y149525D01*
Y149692D01*
X197900Y149775D01*
X198067D01*
X198150Y149692D01*
X197650D02*
X197567Y149775D01*
X197400D01*
X197317Y149692D01*
Y149358D01*
X197400Y149275D01*
X197567D01*
X197650Y149358D01*
Y149442D01*
X197567Y149525D01*
X197317D01*
X197150D02*
X196817D01*
X196651Y149775D02*
X196484D01*
X196567D01*
Y149275D01*
X196651Y149358D01*
X186683Y152972D02*
X186600Y153055D01*
X186433D01*
X186350Y152972D01*
Y152638D01*
X186433Y152555D01*
X186600D01*
X186683Y152638D01*
X186850Y152972D02*
X186933Y153055D01*
X187100D01*
X187183Y152972D01*
Y152888D01*
X187100Y152805D01*
X187016D01*
X187100D01*
X187183Y152722D01*
Y152638D01*
X187100Y152555D01*
X186933D01*
X186850Y152638D01*
X187683Y153055D02*
X187350D01*
Y152805D01*
X187516Y152888D01*
X187600D01*
X187683Y152805D01*
Y152638D01*
X187600Y152555D01*
X187433D01*
X187350Y152638D01*
X187850Y152805D02*
X188183D01*
X188349Y152555D02*
X188516D01*
X188433D01*
Y153055D01*
X188349Y152972D01*
X198317Y147958D02*
X198400Y147875D01*
X198567D01*
X198650Y147958D01*
Y148292D01*
X198567Y148375D01*
X198400D01*
X198317Y148292D01*
X197817Y147875D02*
X198150D01*
Y148125D01*
X197984Y148042D01*
X197900D01*
X197817Y148125D01*
Y148292D01*
X197900Y148375D01*
X198067D01*
X198150Y148292D01*
X197650Y147958D02*
X197567Y147875D01*
X197400D01*
X197317Y147958D01*
Y148042D01*
X197400Y148125D01*
X197317Y148208D01*
Y148292D01*
X197400Y148375D01*
X197567D01*
X197650Y148292D01*
Y148208D01*
X197567Y148125D01*
X197650Y148042D01*
Y147958D01*
X197567Y148125D02*
X197400D01*
X197383Y152392D02*
X197300Y152475D01*
X197133D01*
X197050Y152392D01*
Y152058D01*
X197133Y151975D01*
X197300D01*
X197383Y152058D01*
X197883Y152475D02*
X197716Y152392D01*
X197550Y152225D01*
Y152058D01*
X197633Y151975D01*
X197800D01*
X197883Y152058D01*
Y152142D01*
X197800Y152225D01*
X197550D01*
X198050Y152058D02*
X198133Y151975D01*
X198300D01*
X198383Y152058D01*
Y152392D01*
X198300Y152475D01*
X198133D01*
X198050Y152392D01*
Y152308D01*
X198133Y152225D01*
X198383D01*
X189192Y158367D02*
X189275Y158450D01*
Y158617D01*
X189192Y158700D01*
X188858D01*
X188775Y158617D01*
Y158450D01*
X188858Y158367D01*
X189192Y158200D02*
X189275Y158117D01*
Y157950D01*
X189192Y157867D01*
X189108D01*
X189025Y157950D01*
Y158034D01*
Y157950D01*
X188942Y157867D01*
X188858D01*
X188775Y157950D01*
Y158117D01*
X188858Y158200D01*
X189192Y157700D02*
X189275Y157617D01*
Y157450D01*
X189192Y157367D01*
X189108D01*
X189025Y157450D01*
Y157534D01*
Y157450D01*
X188942Y157367D01*
X188858D01*
X188775Y157450D01*
Y157617D01*
X188858Y157700D01*
X186550Y153925D02*
Y154425D01*
X186800D01*
X186883Y154342D01*
Y154175D01*
X186800Y154092D01*
X186550D01*
X186717D02*
X186883Y153925D01*
X187050Y154342D02*
X187133Y154425D01*
X187300D01*
X187383Y154342D01*
Y154258D01*
X187300Y154175D01*
X187216D01*
X187300D01*
X187383Y154092D01*
Y154008D01*
X187300Y153925D01*
X187133D01*
X187050Y154008D01*
X187550Y154342D02*
X187633Y154425D01*
X187800D01*
X187883Y154342D01*
Y154008D01*
X187800Y153925D01*
X187633D01*
X187550Y154008D01*
Y154342D01*
X188050Y154175D02*
X188383D01*
X188549Y153925D02*
X188716D01*
X188633D01*
Y154425D01*
X188549Y154342D01*
X185742Y155383D02*
X185825Y155300D01*
X185992D01*
X186075Y155383D01*
Y155717D01*
X185992Y155800D01*
X185825D01*
X185742Y155717D01*
X185575Y155383D02*
X185492Y155300D01*
X185325D01*
X185242Y155383D01*
Y155467D01*
X185325Y155550D01*
X185409D01*
X185325D01*
X185242Y155633D01*
Y155717D01*
X185325Y155800D01*
X185492D01*
X185575Y155717D01*
X185075Y155383D02*
X184992Y155300D01*
X184825D01*
X184742Y155383D01*
Y155717D01*
X184825Y155800D01*
X184992D01*
X185075Y155717D01*
Y155383D01*
X184575Y155550D02*
X184242D01*
X184076Y155800D02*
X183909D01*
X183992D01*
Y155300D01*
X184076Y155383D01*
X196950Y153275D02*
Y153775D01*
X197200D01*
X197283Y153692D01*
Y153525D01*
X197200Y153442D01*
X196950D01*
X197117D02*
X197283Y153275D01*
X197450Y153692D02*
X197533Y153775D01*
X197700D01*
X197783Y153692D01*
Y153608D01*
X197700Y153525D01*
X197616D01*
X197700D01*
X197783Y153442D01*
Y153358D01*
X197700Y153275D01*
X197533D01*
X197450Y153358D01*
X198283Y153275D02*
X197950D01*
X198283Y153608D01*
Y153692D01*
X198200Y153775D01*
X198033D01*
X197950Y153692D01*
X186583Y156067D02*
X186500Y156150D01*
X186333D01*
X186250Y156067D01*
Y155733D01*
X186333Y155650D01*
X186500D01*
X186583Y155733D01*
X186750Y156067D02*
X186833Y156150D01*
X187000D01*
X187083Y156067D01*
Y155983D01*
X187000Y155900D01*
X186916D01*
X187000D01*
X187083Y155817D01*
Y155733D01*
X187000Y155650D01*
X186833D01*
X186750Y155733D01*
X187250Y155650D02*
X187416D01*
X187333D01*
Y156150D01*
X187250Y156067D01*
X187666Y155900D02*
X187999D01*
X188166Y155650D02*
X188333D01*
X188249D01*
Y156150D01*
X188166Y156067D01*
X197383Y154692D02*
X197300Y154775D01*
X197133D01*
X197050Y154692D01*
Y154358D01*
X197133Y154275D01*
X197300D01*
X197383Y154358D01*
X197883Y154775D02*
X197716Y154692D01*
X197550Y154525D01*
Y154358D01*
X197633Y154275D01*
X197800D01*
X197883Y154358D01*
Y154442D01*
X197800Y154525D01*
X197550D01*
X198050Y154692D02*
X198133Y154775D01*
X198300D01*
X198383Y154692D01*
Y154608D01*
X198300Y154525D01*
X198383Y154442D01*
Y154358D01*
X198300Y154275D01*
X198133D01*
X198050Y154358D01*
Y154442D01*
X198133Y154525D01*
X198050Y154608D01*
Y154692D01*
X198133Y154525D02*
X198300D01*
X198549D02*
X198883D01*
X199049Y154275D02*
X199216D01*
X199133D01*
Y154775D01*
X199049Y154692D01*
X197383Y155792D02*
X197300Y155875D01*
X197133D01*
X197050Y155792D01*
Y155458D01*
X197133Y155375D01*
X197300D01*
X197383Y155458D01*
X197883Y155875D02*
X197716Y155792D01*
X197550Y155625D01*
Y155458D01*
X197633Y155375D01*
X197800D01*
X197883Y155458D01*
Y155542D01*
X197800Y155625D01*
X197550D01*
X198050Y155875D02*
X198383D01*
Y155792D01*
X198050Y155458D01*
Y155375D01*
X198549Y155625D02*
X198883D01*
X199049Y155375D02*
X199216D01*
X199133D01*
Y155875D01*
X199049Y155792D01*
X190800Y153105D02*
Y152688D01*
X190883Y152605D01*
X191050D01*
X191133Y152688D01*
Y153105D01*
X191300Y152605D02*
X191466D01*
X191383D01*
Y153105D01*
X191300Y153022D01*
X191716Y152605D02*
X191883D01*
X191800D01*
Y153105D01*
X191716Y153022D01*
X190692Y155513D02*
X190775Y155430D01*
X190942D01*
X191025Y155513D01*
Y155847D01*
X190942Y155930D01*
X190775D01*
X190692Y155847D01*
X190275Y155930D02*
Y155430D01*
X190525Y155680D01*
X190192D01*
X189692Y155430D02*
X190025D01*
Y155680D01*
X189859Y155597D01*
X189775D01*
X189692Y155680D01*
Y155847D01*
X189775Y155930D01*
X189942D01*
X190025Y155847D01*
X189525Y155680D02*
X189192D01*
X189026Y155930D02*
X188859D01*
X188942D01*
Y155430D01*
X189026Y155513D01*
X193058Y157422D02*
X192975Y157505D01*
X192808D01*
X192725Y157422D01*
Y157088D01*
X192808Y157005D01*
X192975D01*
X193058Y157088D01*
X193558Y157505D02*
X193225D01*
Y157255D01*
X193391Y157338D01*
X193475D01*
X193558Y157255D01*
Y157088D01*
X193475Y157005D01*
X193308D01*
X193225Y157088D01*
X193725Y157422D02*
X193808Y157505D01*
X193975D01*
X194058Y157422D01*
Y157088D01*
X193975Y157005D01*
X193808D01*
X193725Y157088D01*
Y157422D01*
X194225Y157255D02*
X194558D01*
X194724Y157005D02*
X194891D01*
X194808D01*
Y157505D01*
X194724Y157422D01*
X195000Y156330D02*
X194500D01*
Y156580D01*
X194583Y156663D01*
X194750D01*
X194833Y156580D01*
Y156330D01*
Y156497D02*
X195000Y156663D01*
X194583Y156830D02*
X194500Y156913D01*
Y157080D01*
X194583Y157163D01*
X194667D01*
X194750Y157080D01*
Y156996D01*
Y157080D01*
X194833Y157163D01*
X194917D01*
X195000Y157080D01*
Y156913D01*
X194917Y156830D01*
X194583Y157330D02*
X194500Y157413D01*
Y157580D01*
X194583Y157663D01*
X194667D01*
X194750Y157580D01*
Y157496D01*
Y157580D01*
X194833Y157663D01*
X194917D01*
X195000Y157580D01*
Y157413D01*
X194917Y157330D01*
X194750Y157829D02*
Y158163D01*
X195000Y158329D02*
Y158496D01*
Y158413D01*
X194500D01*
X194583Y158329D01*
X190692Y156713D02*
X190775Y156630D01*
X190942D01*
X191025Y156713D01*
Y157047D01*
X190942Y157130D01*
X190775D01*
X190692Y157047D01*
X190275Y157130D02*
Y156630D01*
X190525Y156880D01*
X190192D01*
X190025Y156713D02*
X189942Y156630D01*
X189775D01*
X189692Y156713D01*
Y156797D01*
X189775Y156880D01*
X189859D01*
X189775D01*
X189692Y156963D01*
Y157047D01*
X189775Y157130D01*
X189942D01*
X190025Y157047D01*
X189525Y156880D02*
X189192D01*
X189026Y157130D02*
X188859D01*
X188942D01*
Y156630D01*
X189026Y156713D01*
X193058Y158822D02*
X192975Y158905D01*
X192808D01*
X192725Y158822D01*
Y158488D01*
X192808Y158405D01*
X192975D01*
X193058Y158488D01*
X193475Y158405D02*
Y158905D01*
X193225Y158655D01*
X193558D01*
X193725Y158488D02*
X193808Y158405D01*
X193975D01*
X194058Y158488D01*
Y158822D01*
X193975Y158905D01*
X193808D01*
X193725Y158822D01*
Y158738D01*
X193808Y158655D01*
X194058D01*
X194225D02*
X194558D01*
X194724Y158405D02*
X194891D01*
X194808D01*
Y158905D01*
X194724Y158822D01*
X197150Y158180D02*
Y158680D01*
X196817D01*
X196317Y158180D02*
X196650D01*
Y158680D01*
X196317D01*
X196650Y158430D02*
X196484D01*
X196150Y158180D02*
Y158680D01*
X195900D01*
X195817Y158597D01*
Y158263D01*
X195900Y158180D01*
X196150D01*
X195650Y158680D02*
X195484D01*
X195567D01*
Y158180D01*
X195650Y158263D01*
X195234Y158430D02*
X194901D01*
X194734Y158680D02*
X194568D01*
X194651D01*
Y158180D01*
X194734Y158263D01*
X192308Y165917D02*
X192225Y166000D01*
X192058D01*
X191975Y165917D01*
Y165583D01*
X192058Y165500D01*
X192225D01*
X192308Y165583D01*
X192808Y166000D02*
X192641Y165917D01*
X192475Y165750D01*
Y165583D01*
X192558Y165500D01*
X192725D01*
X192808Y165583D01*
Y165667D01*
X192725Y165750D01*
X192475D01*
X193225Y165500D02*
Y166000D01*
X192975Y165750D01*
X193308D01*
X193475D02*
X193808D01*
X193974Y165500D02*
X194141D01*
X194058D01*
Y166000D01*
X193974Y165917D01*
X190808Y164667D02*
X190725Y164750D01*
X190558D01*
X190475Y164667D01*
Y164333D01*
X190558Y164250D01*
X190725D01*
X190808Y164333D01*
X191225Y164250D02*
Y164750D01*
X190975Y164500D01*
X191308D01*
X191475Y164750D02*
X191808D01*
Y164667D01*
X191475Y164333D01*
Y164250D01*
X191975Y164500D02*
X192308D01*
X192474Y164250D02*
X192641D01*
X192558D01*
Y164750D01*
X192474Y164667D01*
X196025Y87650D02*
Y87150D01*
X195775D01*
X195692Y87233D01*
Y87400D01*
X195775Y87483D01*
X196025D01*
X195858D02*
X195692Y87650D01*
X195192D02*
X195525D01*
X195192Y87317D01*
Y87233D01*
X195275Y87150D01*
X195442D01*
X195525Y87233D01*
X195025Y87150D02*
X194692D01*
Y87233D01*
X195025Y87567D01*
Y87650D01*
X194525Y87400D02*
X194192D01*
X193692Y87650D02*
X194026D01*
X193692Y87317D01*
Y87233D01*
X193776Y87150D01*
X193942D01*
X194026Y87233D01*
X196504Y88055D02*
X196004D01*
Y88305D01*
X196087Y88388D01*
X196254D01*
X196337Y88305D01*
Y88055D01*
Y88222D02*
X196504Y88388D01*
Y88888D02*
Y88555D01*
X196170Y88888D01*
X196087D01*
X196004Y88805D01*
Y88638D01*
X196087Y88555D01*
X196420Y89055D02*
X196504Y89138D01*
Y89305D01*
X196420Y89388D01*
X196087D01*
X196004Y89305D01*
Y89138D01*
X196087Y89055D01*
X196170D01*
X196254Y89138D01*
Y89388D01*
Y89554D02*
Y89888D01*
X196504Y90388D02*
Y90054D01*
X196170Y90388D01*
X196087D01*
X196004Y90304D01*
Y90138D01*
X196087Y90054D01*
X198292Y90353D02*
X198375Y90270D01*
X198542D01*
X198625Y90353D01*
Y90687D01*
X198542Y90770D01*
X198375D01*
X198292Y90687D01*
X198125Y90353D02*
X198042Y90270D01*
X197875D01*
X197792Y90353D01*
Y90437D01*
X197875Y90520D01*
X197959D01*
X197875D01*
X197792Y90603D01*
Y90687D01*
X197875Y90770D01*
X198042D01*
X198125Y90687D01*
X197292Y90770D02*
X197625D01*
X197292Y90437D01*
Y90353D01*
X197375Y90270D01*
X197542D01*
X197625Y90353D01*
X193458Y91328D02*
X193375Y91245D01*
Y91078D01*
X193458Y90995D01*
X193792D01*
X193875Y91078D01*
Y91245D01*
X193792Y91328D01*
X193458Y91495D02*
X193375Y91578D01*
Y91745D01*
X193458Y91828D01*
X193542D01*
X193625Y91745D01*
Y91661D01*
Y91745D01*
X193708Y91828D01*
X193792D01*
X193875Y91745D01*
Y91578D01*
X193792Y91495D01*
X193458Y91995D02*
X193375Y92078D01*
Y92245D01*
X193458Y92328D01*
X193542D01*
X193625Y92245D01*
X193708Y92328D01*
X193792D01*
X193875Y92245D01*
Y92078D01*
X193792Y91995D01*
X193708D01*
X193625Y92078D01*
X193542Y91995D01*
X193458D01*
X193625Y92078D02*
Y92245D01*
X195683Y101192D02*
X195600Y101275D01*
X195433D01*
X195350Y101192D01*
Y100858D01*
X195433Y100775D01*
X195600D01*
X195683Y100858D01*
X196100Y100775D02*
Y101275D01*
X195850Y101025D01*
X196183D01*
X196683Y101275D02*
X196516Y101192D01*
X196350Y101025D01*
Y100858D01*
X196433Y100775D01*
X196600D01*
X196683Y100858D01*
Y100942D01*
X196600Y101025D01*
X196350D01*
X196317Y103992D02*
X196400Y104075D01*
Y104242D01*
X196317Y104325D01*
X195983D01*
X195900Y104242D01*
Y104075D01*
X195983Y103992D01*
X196400Y103492D02*
Y103825D01*
X196150D01*
X196233Y103659D01*
Y103575D01*
X196150Y103492D01*
X195983D01*
X195900Y103575D01*
Y103742D01*
X195983Y103825D01*
X195900Y103325D02*
Y103159D01*
Y103242D01*
X196400D01*
X196317Y103325D01*
X194225Y90300D02*
Y90800D01*
X194475D01*
X194558Y90717D01*
Y90550D01*
X194475Y90467D01*
X194225D01*
X194392D02*
X194558Y90300D01*
X195058D02*
X194725D01*
X195058Y90633D01*
Y90717D01*
X194975Y90800D01*
X194808D01*
X194725Y90717D01*
X195225D02*
X195308Y90800D01*
X195475D01*
X195558Y90717D01*
Y90633D01*
X195475Y90550D01*
X195558Y90467D01*
Y90383D01*
X195475Y90300D01*
X195308D01*
X195225Y90383D01*
Y90467D01*
X195308Y90550D01*
X195225Y90633D01*
Y90717D01*
X195308Y90550D02*
X195475D01*
X195725D02*
X196058D01*
X196558Y90300D02*
X196224D01*
X196558Y90633D01*
Y90717D01*
X196474Y90800D01*
X196308D01*
X196224Y90717D01*
X197225Y91445D02*
Y91945D01*
X196892D01*
X196725Y91862D02*
X196642Y91945D01*
X196475D01*
X196392Y91862D01*
Y91528D01*
X196475Y91445D01*
X196642D01*
X196725Y91528D01*
Y91612D01*
X196642Y91695D01*
X196392D01*
X192225Y94450D02*
Y94783D01*
X192308D01*
X192642Y94450D01*
X192725D01*
Y94783D01*
Y95283D02*
Y94950D01*
X192392Y95283D01*
X192308D01*
X192225Y95200D01*
Y95033D01*
X192308Y94950D01*
X197050Y100475D02*
Y100975D01*
X196717D01*
X196550D02*
X196384D01*
X196467D01*
Y100475D01*
X196550Y100558D01*
X195800Y100975D02*
X196134D01*
X195800Y100642D01*
Y100558D01*
X195884Y100475D01*
X196050D01*
X196134Y100558D01*
X190083Y101387D02*
X190000Y101470D01*
X189833D01*
X189750Y101387D01*
Y101053D01*
X189833Y100970D01*
X190000D01*
X190083Y101053D01*
X190250Y101387D02*
X190333Y101470D01*
X190500D01*
X190583Y101387D01*
Y101303D01*
X190500Y101220D01*
X190416D01*
X190500D01*
X190583Y101137D01*
Y101053D01*
X190500Y100970D01*
X190333D01*
X190250Y101053D01*
X190750D02*
X190833Y100970D01*
X191000D01*
X191083Y101053D01*
Y101387D01*
X191000Y101470D01*
X190833D01*
X190750Y101387D01*
Y101303D01*
X190833Y101220D01*
X191083D01*
X191250D02*
X191583D01*
X192083Y100970D02*
X191749D01*
X192083Y101303D01*
Y101387D01*
X191999Y101470D01*
X191833D01*
X191749Y101387D01*
X190083Y102562D02*
X190000Y102645D01*
X189833D01*
X189750Y102562D01*
Y102228D01*
X189833Y102145D01*
X190000D01*
X190083Y102228D01*
X190500Y102145D02*
Y102645D01*
X190250Y102395D01*
X190583D01*
X191000Y102145D02*
Y102645D01*
X190750Y102395D01*
X191083D01*
X191250D02*
X191583D01*
X192083Y102145D02*
X191749D01*
X192083Y102478D01*
Y102562D01*
X191999Y102645D01*
X191833D01*
X191749Y102562D01*
X197675Y110550D02*
Y110217D01*
X197592D01*
X197258Y110550D01*
X197175D01*
Y110217D01*
Y109800D02*
X197675D01*
X197425Y110050D01*
Y109717D01*
X193642Y111308D02*
X193725Y111225D01*
X193892D01*
X193975Y111308D01*
Y111642D01*
X193892Y111725D01*
X193725D01*
X193642Y111642D01*
X193142Y111225D02*
X193309Y111308D01*
X193475Y111475D01*
Y111642D01*
X193392Y111725D01*
X193225D01*
X193142Y111642D01*
Y111558D01*
X193225Y111475D01*
X193475D01*
X192975Y111308D02*
X192892Y111225D01*
X192725D01*
X192642Y111308D01*
Y111392D01*
X192725Y111475D01*
X192809D01*
X192725D01*
X192642Y111558D01*
Y111642D01*
X192725Y111725D01*
X192892D01*
X192975Y111642D01*
X190125Y98925D02*
Y98592D01*
X190042D01*
X189708Y98925D01*
X189625D01*
Y98592D01*
Y98425D02*
Y98259D01*
Y98342D01*
X190125D01*
X190042Y98425D01*
X195192Y105303D02*
X195275Y105220D01*
X195442D01*
X195525Y105303D01*
Y105637D01*
X195442Y105720D01*
X195275D01*
X195192Y105637D01*
X194692Y105220D02*
X195025D01*
Y105470D01*
X194859Y105387D01*
X194775D01*
X194692Y105470D01*
Y105637D01*
X194775Y105720D01*
X194942D01*
X195025Y105637D01*
X194525Y105303D02*
X194442Y105220D01*
X194275D01*
X194192Y105303D01*
Y105387D01*
X194275Y105470D01*
X194359D01*
X194275D01*
X194192Y105553D01*
Y105637D01*
X194275Y105720D01*
X194442D01*
X194525Y105637D01*
X186858Y106933D02*
X186775Y106850D01*
Y106683D01*
X186858Y106600D01*
X187192D01*
X187275Y106683D01*
Y106850D01*
X187192Y106933D01*
X187275Y107350D02*
X186775D01*
X187025Y107100D01*
Y107433D01*
X186858Y107600D02*
X186775Y107683D01*
Y107850D01*
X186858Y107933D01*
X187192D01*
X187275Y107850D01*
Y107683D01*
X187192Y107600D01*
X186858D01*
X184083Y105563D02*
X184000Y105480D01*
Y105313D01*
X184083Y105230D01*
X184417D01*
X184500Y105313D01*
Y105480D01*
X184417Y105563D01*
X184083Y105730D02*
X184000Y105813D01*
Y105980D01*
X184083Y106063D01*
X184167D01*
X184250Y105980D01*
Y105896D01*
Y105980D01*
X184333Y106063D01*
X184417D01*
X184500Y105980D01*
Y105813D01*
X184417Y105730D01*
X184000Y106563D02*
X184083Y106396D01*
X184250Y106230D01*
X184417D01*
X184500Y106313D01*
Y106480D01*
X184417Y106563D01*
X184333D01*
X184250Y106480D01*
Y106230D01*
X191508Y111008D02*
X191425Y110925D01*
Y110758D01*
X191508Y110675D01*
X191842D01*
X191925Y110758D01*
Y110925D01*
X191842Y111008D01*
X191425Y111508D02*
X191508Y111341D01*
X191675Y111175D01*
X191842D01*
X191925Y111258D01*
Y111425D01*
X191842Y111508D01*
X191758D01*
X191675Y111425D01*
Y111175D01*
X191925Y112008D02*
Y111675D01*
X191592Y112008D01*
X191508D01*
X191425Y111925D01*
Y111758D01*
X191508Y111675D01*
X187900Y104175D02*
Y104675D01*
X187567D01*
X187400D02*
X187234D01*
X187317D01*
Y104175D01*
X187400Y104258D01*
X186984D02*
X186900Y104175D01*
X186734D01*
X186650Y104258D01*
Y104592D01*
X186734Y104675D01*
X186900D01*
X186984Y104592D01*
Y104258D01*
X193692Y105303D02*
X193775Y105220D01*
X193942D01*
X194025Y105303D01*
Y105637D01*
X193942Y105720D01*
X193775D01*
X193692Y105637D01*
X193192Y105220D02*
X193525D01*
Y105470D01*
X193359Y105387D01*
X193275D01*
X193192Y105470D01*
Y105637D01*
X193275Y105720D01*
X193442D01*
X193525Y105637D01*
X192692Y105720D02*
X193025D01*
X192692Y105387D01*
Y105303D01*
X192775Y105220D01*
X192942D01*
X193025Y105303D01*
X193725Y109025D02*
Y108692D01*
X193642D01*
X193308Y109025D01*
X193225D01*
Y108692D01*
X193642Y108525D02*
X193725Y108442D01*
Y108275D01*
X193642Y108192D01*
X193558D01*
X193475Y108275D01*
Y108359D01*
Y108275D01*
X193392Y108192D01*
X193308D01*
X193225Y108275D01*
Y108442D01*
X193308Y108525D01*
X190375Y112625D02*
Y112958D01*
X190458D01*
X190792Y112625D01*
X190875D01*
Y112958D01*
X190375Y113458D02*
X190458Y113291D01*
X190625Y113125D01*
X190792D01*
X190875Y113208D01*
Y113375D01*
X190792Y113458D01*
X190708D01*
X190625Y113375D01*
Y113125D01*
Y113625D02*
Y113958D01*
X190875Y114458D02*
Y114124D01*
X190542Y114458D01*
X190458D01*
X190375Y114374D01*
Y114208D01*
X190458Y114124D01*
X192275Y105395D02*
X191858D01*
X191775Y105312D01*
Y105145D01*
X191858Y105062D01*
X192275D01*
X191775Y104895D02*
Y104729D01*
Y104812D01*
X192275D01*
X192192Y104895D01*
X191775Y104145D02*
Y104479D01*
X192108Y104145D01*
X192192D01*
X192275Y104229D01*
Y104395D01*
X192192Y104479D01*
X180517Y109197D02*
X180600Y109280D01*
Y109447D01*
X180517Y109530D01*
X180183D01*
X180100Y109447D01*
Y109280D01*
X180183Y109197D01*
X180600Y108697D02*
Y109030D01*
X180350D01*
X180433Y108864D01*
Y108780D01*
X180350Y108697D01*
X180183D01*
X180100Y108780D01*
Y108947D01*
X180183Y109030D01*
X180600Y108197D02*
X180517Y108364D01*
X180350Y108530D01*
X180183D01*
X180100Y108447D01*
Y108280D01*
X180183Y108197D01*
X180267D01*
X180350Y108280D01*
Y108530D01*
Y108031D02*
Y107697D01*
X180100Y107197D02*
Y107531D01*
X180433Y107197D01*
X180517D01*
X180600Y107281D01*
Y107447D01*
X180517Y107531D01*
X182583Y106197D02*
X182500Y106280D01*
X182333D01*
X182250Y106197D01*
Y105863D01*
X182333Y105780D01*
X182500D01*
X182583Y105863D01*
X183000Y105780D02*
Y106280D01*
X182750Y106030D01*
X183083D01*
X183250Y106197D02*
X183333Y106280D01*
X183500D01*
X183583Y106197D01*
Y106113D01*
X183500Y106030D01*
X183583Y105947D01*
Y105863D01*
X183500Y105780D01*
X183333D01*
X183250Y105863D01*
Y105947D01*
X183333Y106030D01*
X183250Y106113D01*
Y106197D01*
X183333Y106030D02*
X183500D01*
X180183Y108263D02*
X180100Y108180D01*
Y108013D01*
X180183Y107930D01*
X180517D01*
X180600Y108013D01*
Y108180D01*
X180517Y108263D01*
X180100Y108763D02*
Y108430D01*
X180350D01*
X180267Y108596D01*
Y108680D01*
X180350Y108763D01*
X180517D01*
X180600Y108680D01*
Y108513D01*
X180517Y108430D01*
X180100Y109263D02*
Y108930D01*
X180350D01*
X180267Y109096D01*
Y109180D01*
X180350Y109263D01*
X180517D01*
X180600Y109180D01*
Y109013D01*
X180517Y108930D01*
X180350Y109430D02*
Y109763D01*
X180600Y110263D02*
Y109929D01*
X180267Y110263D01*
X180183D01*
X180100Y110179D01*
Y110013D01*
X180183Y109929D01*
X180000Y105130D02*
X180500D01*
Y105463D01*
Y105630D02*
Y105796D01*
Y105713D01*
X180000D01*
X180083Y105630D01*
X180500Y106296D02*
X180000D01*
X180250Y106046D01*
Y106380D01*
X181250Y103075D02*
Y102575D01*
X181000D01*
X180917Y102658D01*
Y102825D01*
X181000Y102908D01*
X181250D01*
X181083D02*
X180917Y103075D01*
X180750Y102658D02*
X180667Y102575D01*
X180500D01*
X180417Y102658D01*
Y102742D01*
X180500Y102825D01*
X180584D01*
X180500D01*
X180417Y102908D01*
Y102992D01*
X180500Y103075D01*
X180667D01*
X180750Y102992D01*
X180250Y103075D02*
X180084D01*
X180167D01*
Y102575D01*
X180250Y102658D01*
X175375Y109400D02*
X175708D01*
Y109317D01*
X175375Y108983D01*
Y108900D01*
X175708D01*
X176208Y109400D02*
X175875D01*
Y109150D01*
X176041Y109233D01*
X176125D01*
X176208Y109150D01*
Y108983D01*
X176125Y108900D01*
X175958D01*
X175875Y108983D01*
X178500Y105130D02*
X179000D01*
Y105463D01*
Y105630D02*
Y105796D01*
Y105713D01*
X178500D01*
X178583Y105630D01*
Y106046D02*
X178500Y106130D01*
Y106296D01*
X178583Y106380D01*
X178667D01*
X178750Y106296D01*
Y106213D01*
Y106296D01*
X178833Y106380D01*
X178917D01*
X179000Y106296D01*
Y106130D01*
X178917Y106046D01*
X181783Y100958D02*
X181700Y100875D01*
Y100708D01*
X181783Y100625D01*
X182117D01*
X182200Y100708D01*
Y100875D01*
X182117Y100958D01*
X182200Y101375D02*
X181700D01*
X181950Y101125D01*
Y101458D01*
X182200Y101958D02*
Y101625D01*
X181867Y101958D01*
X181783D01*
X181700Y101875D01*
Y101708D01*
X181783Y101625D01*
X181950Y102124D02*
Y102458D01*
X182200Y102958D02*
Y102624D01*
X181867Y102958D01*
X181783D01*
X181700Y102874D01*
Y102708D01*
X181783Y102624D01*
X181933Y99692D02*
X181850Y99775D01*
X181683D01*
X181600Y99692D01*
Y99358D01*
X181683Y99275D01*
X181850D01*
X181933Y99358D01*
X182350Y99275D02*
Y99775D01*
X182100Y99525D01*
X182433D01*
X182600Y99275D02*
X182766D01*
X182683D01*
Y99775D01*
X182600Y99692D01*
X183016Y99525D02*
X183349D01*
X183849Y99275D02*
X183516D01*
X183849Y99608D01*
Y99692D01*
X183766Y99775D01*
X183599D01*
X183516Y99692D01*
X185692Y99078D02*
X185775Y98995D01*
X185942D01*
X186025Y99078D01*
Y99412D01*
X185942Y99495D01*
X185775D01*
X185692Y99412D01*
X185525Y98995D02*
X185192D01*
Y99078D01*
X185525Y99412D01*
Y99495D01*
X185025Y99078D02*
X184942Y98995D01*
X184775D01*
X184692Y99078D01*
Y99412D01*
X184775Y99495D01*
X184942D01*
X185025Y99412D01*
Y99078D01*
X184525Y99245D02*
X184192D01*
X183692Y99495D02*
X184026D01*
X183692Y99162D01*
Y99078D01*
X183776Y98995D01*
X183942D01*
X184026Y99078D01*
X178617Y98058D02*
X178700Y97975D01*
X178867D01*
X178950Y98058D01*
Y98392D01*
X178867Y98475D01*
X178700D01*
X178617Y98392D01*
X178117Y97975D02*
X178450D01*
Y98225D01*
X178284Y98142D01*
X178200D01*
X178117Y98225D01*
Y98392D01*
X178200Y98475D01*
X178367D01*
X178450Y98392D01*
X177950Y97975D02*
X177617D01*
Y98058D01*
X177950Y98392D01*
Y98475D01*
X177450Y98225D02*
X177117D01*
X176617Y98475D02*
X176951D01*
X176617Y98142D01*
Y98058D01*
X176701Y97975D01*
X176867D01*
X176951Y98058D01*
X176983Y101183D02*
X176900Y101100D01*
Y100933D01*
X176983Y100850D01*
X177317D01*
X177400Y100933D01*
Y101100D01*
X177317Y101183D01*
X176900Y101683D02*
X176983Y101516D01*
X177150Y101350D01*
X177317D01*
X177400Y101433D01*
Y101600D01*
X177317Y101683D01*
X177233D01*
X177150Y101600D01*
Y101350D01*
X176983Y101850D02*
X176900Y101933D01*
Y102100D01*
X176983Y102183D01*
X177317D01*
X177400Y102100D01*
Y101933D01*
X177317Y101850D01*
X176983D01*
X177150Y102350D02*
Y102683D01*
X177400Y103183D02*
Y102849D01*
X177067Y103183D01*
X176983D01*
X176900Y103099D01*
Y102933D01*
X176983Y102849D01*
X185692Y97578D02*
X185775Y97495D01*
X185942D01*
X186025Y97578D01*
Y97912D01*
X185942Y97995D01*
X185775D01*
X185692Y97912D01*
X185525Y97578D02*
X185442Y97495D01*
X185275D01*
X185192Y97578D01*
Y97662D01*
X185275Y97745D01*
X185359D01*
X185275D01*
X185192Y97828D01*
Y97912D01*
X185275Y97995D01*
X185442D01*
X185525Y97912D01*
X185025Y97495D02*
X184692D01*
Y97578D01*
X185025Y97912D01*
Y97995D01*
X187875Y100170D02*
X188375D01*
Y99920D01*
X188292Y99837D01*
X188125D01*
X188042Y99920D01*
Y100170D01*
Y100003D02*
X187875Y99837D01*
X188292Y99670D02*
X188375Y99587D01*
Y99420D01*
X188292Y99337D01*
X188208D01*
X188125Y99420D01*
Y99504D01*
Y99420D01*
X188042Y99337D01*
X187958D01*
X187875Y99420D01*
Y99587D01*
X187958Y99670D01*
X188375Y98837D02*
Y99170D01*
X188125D01*
X188208Y99004D01*
Y98920D01*
X188125Y98837D01*
X187958D01*
X187875Y98920D01*
Y99087D01*
X187958Y99170D01*
X186117Y96053D02*
X186200Y95970D01*
X186367D01*
X186450Y96053D01*
Y96387D01*
X186367Y96470D01*
X186200D01*
X186117Y96387D01*
X185950Y96053D02*
X185867Y95970D01*
X185700D01*
X185617Y96053D01*
Y96137D01*
X185700Y96220D01*
X185784D01*
X185700D01*
X185617Y96303D01*
Y96387D01*
X185700Y96470D01*
X185867D01*
X185950Y96387D01*
X185200Y96470D02*
Y95970D01*
X185450Y96220D01*
X185117D01*
X184950D02*
X184617D01*
X184117Y96470D02*
X184451D01*
X184117Y96137D01*
Y96053D01*
X184201Y95970D01*
X184367D01*
X184451Y96053D01*
X184325Y101895D02*
Y102395D01*
X184575D01*
X184658Y102312D01*
Y102145D01*
X184575Y102062D01*
X184325D01*
X184492D02*
X184658Y101895D01*
X184825Y102312D02*
X184908Y102395D01*
X185075D01*
X185158Y102312D01*
Y102228D01*
X185075Y102145D01*
X184991D01*
X185075D01*
X185158Y102062D01*
Y101978D01*
X185075Y101895D01*
X184908D01*
X184825Y101978D01*
X185575Y101895D02*
Y102395D01*
X185325Y102145D01*
X185658D01*
X174483Y98692D02*
X174400Y98775D01*
X174233D01*
X174150Y98692D01*
Y98358D01*
X174233Y98275D01*
X174400D01*
X174483Y98358D01*
X174983Y98775D02*
X174650D01*
Y98525D01*
X174816Y98608D01*
X174900D01*
X174983Y98525D01*
Y98358D01*
X174900Y98275D01*
X174733D01*
X174650Y98358D01*
X175150D02*
X175233Y98275D01*
X175400D01*
X175483Y98358D01*
Y98692D01*
X175400Y98775D01*
X175233D01*
X175150Y98692D01*
Y98608D01*
X175233Y98525D01*
X175483D01*
X175650D02*
X175983D01*
X176483Y98275D02*
X176149D01*
X176483Y98608D01*
Y98692D01*
X176399Y98775D01*
X176233D01*
X176149Y98692D01*
X186117Y94878D02*
X186200Y94795D01*
X186367D01*
X186450Y94878D01*
Y95212D01*
X186367Y95295D01*
X186200D01*
X186117Y95212D01*
X185950Y94878D02*
X185867Y94795D01*
X185700D01*
X185617Y94878D01*
Y94962D01*
X185700Y95045D01*
X185784D01*
X185700D01*
X185617Y95128D01*
Y95212D01*
X185700Y95295D01*
X185867D01*
X185950Y95212D01*
X185117Y94795D02*
X185450D01*
Y95045D01*
X185284Y94962D01*
X185200D01*
X185117Y95045D01*
Y95212D01*
X185200Y95295D01*
X185367D01*
X185450Y95212D01*
X184950Y95045D02*
X184617D01*
X184117Y95295D02*
X184451D01*
X184117Y94962D01*
Y94878D01*
X184201Y94795D01*
X184367D01*
X184451Y94878D01*
X174483Y99892D02*
X174400Y99975D01*
X174233D01*
X174150Y99892D01*
Y99558D01*
X174233Y99475D01*
X174400D01*
X174483Y99558D01*
X174983Y99975D02*
X174650D01*
Y99725D01*
X174816Y99808D01*
X174900D01*
X174983Y99725D01*
Y99558D01*
X174900Y99475D01*
X174733D01*
X174650Y99558D01*
X175150Y99892D02*
X175233Y99975D01*
X175400D01*
X175483Y99892D01*
Y99808D01*
X175400Y99725D01*
X175483Y99642D01*
Y99558D01*
X175400Y99475D01*
X175233D01*
X175150Y99558D01*
Y99642D01*
X175233Y99725D01*
X175150Y99808D01*
Y99892D01*
X175233Y99725D02*
X175400D01*
X175650D02*
X175983D01*
X176483Y99475D02*
X176149D01*
X176483Y99808D01*
Y99892D01*
X176399Y99975D01*
X176233D01*
X176149Y99892D01*
X175417Y95458D02*
X175500Y95375D01*
X175667D01*
X175750Y95458D01*
Y95792D01*
X175667Y95875D01*
X175500D01*
X175417Y95792D01*
X174917Y95375D02*
X175084Y95458D01*
X175250Y95625D01*
Y95792D01*
X175167Y95875D01*
X175000D01*
X174917Y95792D01*
Y95708D01*
X175000Y95625D01*
X175250D01*
X174750Y95792D02*
X174667Y95875D01*
X174500D01*
X174417Y95792D01*
Y95458D01*
X174500Y95375D01*
X174667D01*
X174750Y95458D01*
Y95542D01*
X174667Y95625D01*
X174417D01*
X183658Y89483D02*
X183575Y89400D01*
Y89233D01*
X183658Y89150D01*
X183992D01*
X184075Y89233D01*
Y89400D01*
X183992Y89483D01*
X183658Y89650D02*
X183575Y89733D01*
Y89900D01*
X183658Y89983D01*
X183742D01*
X183825Y89900D01*
Y89816D01*
Y89900D01*
X183908Y89983D01*
X183992D01*
X184075Y89900D01*
Y89733D01*
X183992Y89650D01*
X183658Y90150D02*
X183575Y90233D01*
Y90400D01*
X183658Y90483D01*
X183742D01*
X183825Y90400D01*
Y90316D01*
Y90400D01*
X183908Y90483D01*
X183992D01*
X184075Y90400D01*
Y90233D01*
X183992Y90150D01*
X183825Y90650D02*
Y90983D01*
X184075Y91483D02*
Y91149D01*
X183742Y91483D01*
X183658D01*
X183575Y91399D01*
Y91233D01*
X183658Y91149D01*
X186250Y93925D02*
Y93425D01*
X186000D01*
X185917Y93508D01*
Y93675D01*
X186000Y93758D01*
X186250D01*
X186083D02*
X185917Y93925D01*
X185750Y93508D02*
X185667Y93425D01*
X185500D01*
X185417Y93508D01*
Y93592D01*
X185500Y93675D01*
X185584D01*
X185500D01*
X185417Y93758D01*
Y93842D01*
X185500Y93925D01*
X185667D01*
X185750Y93842D01*
X185250Y93508D02*
X185167Y93425D01*
X185000D01*
X184917Y93508D01*
Y93842D01*
X185000Y93925D01*
X185167D01*
X185250Y93842D01*
Y93508D01*
X184750Y93675D02*
X184417D01*
X183917Y93925D02*
X184251D01*
X183917Y93592D01*
Y93508D01*
X184001Y93425D01*
X184167D01*
X184251Y93508D01*
X187058Y92417D02*
X186975Y92500D01*
X186808D01*
X186725Y92417D01*
Y92083D01*
X186808Y92000D01*
X186975D01*
X187058Y92083D01*
X187225Y92417D02*
X187308Y92500D01*
X187475D01*
X187558Y92417D01*
Y92333D01*
X187475Y92250D01*
X187391D01*
X187475D01*
X187558Y92167D01*
Y92083D01*
X187475Y92000D01*
X187308D01*
X187225Y92083D01*
X187725Y92417D02*
X187808Y92500D01*
X187975D01*
X188058Y92417D01*
Y92083D01*
X187975Y92000D01*
X187808D01*
X187725Y92083D01*
Y92417D01*
X188225Y92250D02*
X188558D01*
X189058Y92000D02*
X188724D01*
X189058Y92333D01*
Y92417D01*
X188974Y92500D01*
X188808D01*
X188724Y92417D01*
X175850Y94575D02*
Y94075D01*
X175600D01*
X175517Y94158D01*
Y94325D01*
X175600Y94408D01*
X175850D01*
X175683D02*
X175517Y94575D01*
X175350Y94158D02*
X175267Y94075D01*
X175100D01*
X175017Y94158D01*
Y94242D01*
X175100Y94325D01*
X175184D01*
X175100D01*
X175017Y94408D01*
Y94492D01*
X175100Y94575D01*
X175267D01*
X175350Y94492D01*
X174517Y94575D02*
X174850D01*
X174517Y94242D01*
Y94158D01*
X174600Y94075D01*
X174767D01*
X174850Y94158D01*
X186242Y91783D02*
X186325Y91700D01*
X186492D01*
X186575Y91783D01*
Y92117D01*
X186492Y92200D01*
X186325D01*
X186242Y92117D01*
X186075Y91783D02*
X185992Y91700D01*
X185825D01*
X185742Y91783D01*
Y91867D01*
X185825Y91950D01*
X185909D01*
X185825D01*
X185742Y92033D01*
Y92117D01*
X185825Y92200D01*
X185992D01*
X186075Y92117D01*
X185575Y92200D02*
X185409D01*
X185492D01*
Y91700D01*
X185575Y91783D01*
X185159Y91950D02*
X184826D01*
X184326Y92200D02*
X184659D01*
X184326Y91867D01*
Y91783D01*
X184409Y91700D01*
X184576D01*
X184659Y91783D01*
X175417Y93158D02*
X175500Y93075D01*
X175667D01*
X175750Y93158D01*
Y93492D01*
X175667Y93575D01*
X175500D01*
X175417Y93492D01*
X174917Y93075D02*
X175084Y93158D01*
X175250Y93325D01*
Y93492D01*
X175167Y93575D01*
X175000D01*
X174917Y93492D01*
Y93408D01*
X175000Y93325D01*
X175250D01*
X174750Y93158D02*
X174667Y93075D01*
X174500D01*
X174417Y93158D01*
Y93242D01*
X174500Y93325D01*
X174417Y93408D01*
Y93492D01*
X174500Y93575D01*
X174667D01*
X174750Y93492D01*
Y93408D01*
X174667Y93325D01*
X174750Y93242D01*
Y93158D01*
X174667Y93325D02*
X174500D01*
X174250D02*
X173917D01*
X173417Y93575D02*
X173751D01*
X173417Y93242D01*
Y93158D01*
X173501Y93075D01*
X173667D01*
X173751Y93158D01*
X175417Y92058D02*
X175500Y91975D01*
X175667D01*
X175750Y92058D01*
Y92392D01*
X175667Y92475D01*
X175500D01*
X175417Y92392D01*
X174917Y91975D02*
X175084Y92058D01*
X175250Y92225D01*
Y92392D01*
X175167Y92475D01*
X175000D01*
X174917Y92392D01*
Y92308D01*
X175000Y92225D01*
X175250D01*
X174750Y91975D02*
X174417D01*
Y92058D01*
X174750Y92392D01*
Y92475D01*
X174250Y92225D02*
X173917D01*
X173417Y92475D02*
X173751D01*
X173417Y92142D01*
Y92058D01*
X173501Y91975D01*
X173667D01*
X173751Y92058D01*
X182108Y92337D02*
X182025Y92420D01*
X181858D01*
X181775Y92337D01*
Y92003D01*
X181858Y91920D01*
X182025D01*
X182108Y92003D01*
X182525Y91920D02*
Y92420D01*
X182275Y92170D01*
X182608D01*
X183108Y92420D02*
X182775D01*
Y92170D01*
X182941Y92253D01*
X183025D01*
X183108Y92170D01*
Y92003D01*
X183025Y91920D01*
X182858D01*
X182775Y92003D01*
X183275Y92170D02*
X183608D01*
X184108Y91920D02*
X183774D01*
X184108Y92253D01*
Y92337D01*
X184024Y92420D01*
X183858D01*
X183774Y92337D01*
X179742Y90428D02*
X179825Y90345D01*
X179992D01*
X180075Y90428D01*
Y90762D01*
X179992Y90845D01*
X179825D01*
X179742Y90762D01*
X179242Y90345D02*
X179575D01*
Y90595D01*
X179409Y90512D01*
X179325D01*
X179242Y90595D01*
Y90762D01*
X179325Y90845D01*
X179492D01*
X179575Y90762D01*
X179075Y90428D02*
X178992Y90345D01*
X178825D01*
X178742Y90428D01*
Y90762D01*
X178825Y90845D01*
X178992D01*
X179075Y90762D01*
Y90428D01*
X178576Y90595D02*
X178242D01*
X177742Y90845D02*
X178076D01*
X177742Y90512D01*
Y90428D01*
X177826Y90345D01*
X177992D01*
X178076Y90428D01*
X177800Y91520D02*
X178300D01*
Y91270D01*
X178217Y91187D01*
X178050D01*
X177967Y91270D01*
Y91520D01*
Y91353D02*
X177800Y91187D01*
X178217Y91020D02*
X178300Y90937D01*
Y90770D01*
X178217Y90687D01*
X178133D01*
X178050Y90770D01*
Y90854D01*
Y90770D01*
X177967Y90687D01*
X177883D01*
X177800Y90770D01*
Y90937D01*
X177883Y91020D01*
X178217Y90520D02*
X178300Y90437D01*
Y90270D01*
X178217Y90187D01*
X178133D01*
X178050Y90270D01*
Y90354D01*
Y90270D01*
X177967Y90187D01*
X177883D01*
X177800Y90270D01*
Y90437D01*
X177883Y90520D01*
X178050Y90020D02*
Y89687D01*
X177800Y89187D02*
Y89521D01*
X178133Y89187D01*
X178217D01*
X178300Y89271D01*
Y89437D01*
X178217Y89521D01*
X182108Y91137D02*
X182025Y91220D01*
X181858D01*
X181775Y91137D01*
Y90803D01*
X181858Y90720D01*
X182025D01*
X182108Y90803D01*
X182525Y90720D02*
Y91220D01*
X182275Y90970D01*
X182608D01*
X182775Y91137D02*
X182858Y91220D01*
X183025D01*
X183108Y91137D01*
Y91053D01*
X183025Y90970D01*
X182941D01*
X183025D01*
X183108Y90887D01*
Y90803D01*
X183025Y90720D01*
X182858D01*
X182775Y90803D01*
X183275Y90970D02*
X183608D01*
X184108Y90720D02*
X183774D01*
X184108Y91053D01*
Y91137D01*
X184024Y91220D01*
X183858D01*
X183774Y91137D01*
X179742Y89028D02*
X179825Y88945D01*
X179992D01*
X180075Y89028D01*
Y89362D01*
X179992Y89445D01*
X179825D01*
X179742Y89362D01*
X179325Y89445D02*
Y88945D01*
X179575Y89195D01*
X179242D01*
X179075Y89362D02*
X178992Y89445D01*
X178825D01*
X178742Y89362D01*
Y89028D01*
X178825Y88945D01*
X178992D01*
X179075Y89028D01*
Y89112D01*
X178992Y89195D01*
X178742D01*
X178576D02*
X178242D01*
X177742Y89445D02*
X178076D01*
X177742Y89112D01*
Y89028D01*
X177826Y88945D01*
X177992D01*
X178076Y89028D01*
X175650Y89670D02*
Y89170D01*
X175983D01*
X176483Y89670D02*
X176150D01*
Y89170D01*
X176483D01*
X176150Y89420D02*
X176316D01*
X176650Y89670D02*
Y89170D01*
X176900D01*
X176983Y89253D01*
Y89587D01*
X176900Y89670D01*
X176650D01*
X177150Y89170D02*
X177316D01*
X177233D01*
Y89670D01*
X177150Y89587D01*
X177566Y89420D02*
X177899D01*
X178399Y89170D02*
X178066D01*
X178399Y89503D01*
Y89587D01*
X178316Y89670D01*
X178149D01*
X178066Y89587D01*
X179558Y85142D02*
X179475Y85225D01*
X179308D01*
X179225Y85142D01*
Y84808D01*
X179308Y84725D01*
X179475D01*
X179558Y84808D01*
X179975Y84725D02*
Y85225D01*
X179725Y84975D01*
X180058D01*
X180225Y85225D02*
X180558D01*
Y85142D01*
X180225Y84808D01*
Y84725D01*
X180725Y84975D02*
X181058D01*
X181558Y84725D02*
X181224D01*
X181558Y85058D01*
Y85142D01*
X181474Y85225D01*
X181308D01*
X181224Y85142D01*
X182000Y94745D02*
Y95162D01*
X181917Y95245D01*
X181750D01*
X181667Y95162D01*
Y94745D01*
X181500Y95245D02*
X181334D01*
X181417D01*
Y94745D01*
X181500Y94828D01*
X181084Y95245D02*
X180917D01*
X181000D01*
Y94745D01*
X181084Y94828D01*
X197383Y156892D02*
X197300Y156975D01*
X197133D01*
X197050Y156892D01*
Y156558D01*
X197133Y156475D01*
X197300D01*
X197383Y156558D01*
X197883Y156975D02*
X197716Y156892D01*
X197550Y156725D01*
Y156558D01*
X197633Y156475D01*
X197800D01*
X197883Y156558D01*
Y156642D01*
X197800Y156725D01*
X197550D01*
X198383Y156975D02*
X198216Y156892D01*
X198050Y156725D01*
Y156558D01*
X198133Y156475D01*
X198300D01*
X198383Y156558D01*
Y156642D01*
X198300Y156725D01*
X198050D01*
X198549D02*
X198883D01*
X199049Y156475D02*
X199216D01*
X199133D01*
Y156975D01*
X199049Y156892D01*
X197383Y157992D02*
X197300Y158075D01*
X197133D01*
X197050Y157992D01*
Y157658D01*
X197133Y157575D01*
X197300D01*
X197383Y157658D01*
X197883Y158075D02*
X197716Y157992D01*
X197550Y157825D01*
Y157658D01*
X197633Y157575D01*
X197800D01*
X197883Y157658D01*
Y157742D01*
X197800Y157825D01*
X197550D01*
X198383Y158075D02*
X198050D01*
Y157825D01*
X198216Y157908D01*
X198300D01*
X198383Y157825D01*
Y157658D01*
X198300Y157575D01*
X198133D01*
X198050Y157658D01*
X175417Y90958D02*
X175500Y90875D01*
X175667D01*
X175750Y90958D01*
Y91292D01*
X175667Y91375D01*
X175500D01*
X175417Y91292D01*
X174917Y90875D02*
X175084Y90958D01*
X175250Y91125D01*
Y91292D01*
X175167Y91375D01*
X175000D01*
X174917Y91292D01*
Y91208D01*
X175000Y91125D01*
X175250D01*
X174417Y90875D02*
X174584Y90958D01*
X174750Y91125D01*
Y91292D01*
X174667Y91375D01*
X174500D01*
X174417Y91292D01*
Y91208D01*
X174500Y91125D01*
X174750D01*
X174250D02*
X173917D01*
X173417Y91375D02*
X173751D01*
X173417Y91042D01*
Y90958D01*
X173501Y90875D01*
X173667D01*
X173751Y90958D01*
X175417Y89858D02*
X175500Y89775D01*
X175667D01*
X175750Y89858D01*
Y90192D01*
X175667Y90275D01*
X175500D01*
X175417Y90192D01*
X174917Y89775D02*
X175084Y89858D01*
X175250Y90025D01*
Y90192D01*
X175167Y90275D01*
X175000D01*
X174917Y90192D01*
Y90108D01*
X175000Y90025D01*
X175250D01*
X174417Y89775D02*
X174750D01*
Y90025D01*
X174584Y89942D01*
X174500D01*
X174417Y90025D01*
Y90192D01*
X174500Y90275D01*
X174667D01*
X174750Y90192D01*
X174250Y90025D02*
X173917D01*
X173417Y90275D02*
X173751D01*
X173417Y89942D01*
Y89858D01*
X173501Y89775D01*
X173667D01*
X173751Y89858D01*
X198153Y131564D02*
Y131898D01*
X197654D01*
Y131564D01*
X197904Y131898D02*
Y131731D01*
X198070Y131065D02*
X198153Y131148D01*
Y131314D01*
X198070Y131398D01*
X197987D01*
X197904Y131314D01*
Y131148D01*
X197820Y131065D01*
X197737D01*
X197654Y131148D01*
Y131314D01*
X197737Y131398D01*
X198153Y130898D02*
X197654D01*
Y130648D01*
X197737Y130565D01*
X198070D01*
X198153Y130648D01*
Y130898D01*
X197654Y130398D02*
Y130232D01*
Y130315D01*
X198153D01*
X198070Y130398D01*
X198030Y123496D02*
Y123830D01*
X197530D01*
Y123496D01*
X197780Y123830D02*
Y123663D01*
X197947Y122997D02*
X198030Y123080D01*
Y123246D01*
X197947Y123330D01*
X197863D01*
X197780Y123246D01*
Y123080D01*
X197697Y122997D01*
X197613D01*
X197530Y123080D01*
Y123246D01*
X197613Y123330D01*
X198030Y122830D02*
X197530D01*
Y122580D01*
X197613Y122497D01*
X197947D01*
X198030Y122580D01*
Y122830D01*
X197530Y121997D02*
Y122330D01*
X197863Y121997D01*
X197947D01*
X198030Y122080D01*
Y122247D01*
X197947Y122330D01*
X176692Y129442D02*
X176775Y129525D01*
Y129692D01*
X176692Y129775D01*
X176358D01*
X176275Y129692D01*
Y129525D01*
X176358Y129442D01*
X176275Y129275D02*
Y129109D01*
Y129192D01*
X176775D01*
X176692Y129275D01*
X176275Y128859D02*
Y128692D01*
Y128775D01*
X176775D01*
X176692Y128859D01*
X182492Y114758D02*
X182575Y114675D01*
X182742D01*
X182825Y114758D01*
Y115092D01*
X182742Y115175D01*
X182575D01*
X182492Y115092D01*
X182325Y115175D02*
X182159D01*
X182242D01*
Y114675D01*
X182325Y114758D01*
X181575Y115175D02*
X181909D01*
X181575Y114842D01*
Y114758D01*
X181659Y114675D01*
X181825D01*
X181909Y114758D01*
X199367Y164308D02*
X199450Y164225D01*
X199617D01*
X199700Y164308D01*
Y164642D01*
X199617Y164725D01*
X199450D01*
X199367Y164642D01*
X198950Y164725D02*
Y164225D01*
X199200Y164475D01*
X198867D01*
X186233Y129083D02*
X186150Y129000D01*
Y128833D01*
X186233Y128750D01*
X186567D01*
X186650Y128833D01*
Y129000D01*
X186567Y129083D01*
X186650Y129250D02*
Y129416D01*
Y129333D01*
X186150D01*
X186233Y129250D01*
X186150Y129666D02*
Y130000D01*
X186233D01*
X186567Y129666D01*
X186650D01*
X167325Y104475D02*
X166908D01*
X166825Y104392D01*
Y104225D01*
X166908Y104142D01*
X167325D01*
X166825Y103642D02*
Y103975D01*
X167158Y103642D01*
X167242D01*
X167325Y103725D01*
Y103892D01*
X167242Y103975D01*
X192783Y116683D02*
X192700Y116600D01*
Y116433D01*
X192783Y116350D01*
X193117D01*
X193200Y116433D01*
Y116600D01*
X193117Y116683D01*
X193200Y116850D02*
Y117016D01*
Y116933D01*
X192700D01*
X192783Y116850D01*
X192700Y117600D02*
X192783Y117433D01*
X192950Y117266D01*
X193117D01*
X193200Y117350D01*
Y117516D01*
X193117Y117600D01*
X193033D01*
X192950Y117516D01*
Y117266D01*
X163458Y98008D02*
X163375Y97925D01*
Y97758D01*
X163458Y97675D01*
X163792D01*
X163875Y97758D01*
Y97925D01*
X163792Y98008D01*
X163375Y98508D02*
Y98175D01*
X163625D01*
X163542Y98341D01*
Y98425D01*
X163625Y98508D01*
X163792D01*
X163875Y98425D01*
Y98258D01*
X163792Y98175D01*
X191450Y148775D02*
Y148275D01*
X191783D01*
X191950D02*
X192116D01*
X192033D01*
Y148775D01*
X191950Y148692D01*
X192700Y148775D02*
X192366D01*
Y148525D01*
X192533Y148608D01*
X192616D01*
X192700Y148525D01*
Y148358D01*
X192616Y148275D01*
X192450D01*
X192366Y148358D01*
X192866Y148525D02*
X193199D01*
X193366Y148275D02*
X193533D01*
X193449D01*
Y148775D01*
X193366Y148692D01*
X183558Y152333D02*
X183475Y152250D01*
Y152083D01*
X183558Y152000D01*
X183892D01*
X183975Y152083D01*
Y152250D01*
X183892Y152333D01*
X183475Y152833D02*
Y152500D01*
X183725D01*
X183642Y152666D01*
Y152750D01*
X183725Y152833D01*
X183892D01*
X183975Y152750D01*
Y152583D01*
X183892Y152500D01*
X183975Y153250D02*
X183475D01*
X183725Y153000D01*
Y153333D01*
Y153500D02*
Y153833D01*
X183975Y153999D02*
Y154166D01*
Y154083D01*
X183475D01*
X183558Y153999D01*
X181758Y158951D02*
X181675Y159034D01*
X181508D01*
X181425Y158951D01*
Y158617D01*
X181508Y158534D01*
X181675D01*
X181758Y158617D01*
X181925Y159034D02*
X182258D01*
Y158951D01*
X181925Y158617D01*
Y158534D01*
X182425D02*
X182591D01*
X182508D01*
Y159034D01*
X182425Y158951D01*
X182841Y158784D02*
X183174D01*
X183341Y158534D02*
X183508D01*
X183424D01*
Y159034D01*
X183341Y158951D01*
X182950Y154700D02*
Y155117D01*
X182867Y155200D01*
X182700D01*
X182617Y155117D01*
Y154700D01*
X182450Y155200D02*
X182284D01*
X182367D01*
Y154700D01*
X182450Y154783D01*
X182034D02*
X181950Y154700D01*
X181784D01*
X181700Y154783D01*
Y154867D01*
X181784Y154950D01*
X181867D01*
X181784D01*
X181700Y155033D01*
Y155117D01*
X181784Y155200D01*
X181950D01*
X182034Y155117D01*
X181325Y160575D02*
Y160075D01*
X181658D01*
X181825D02*
X181991D01*
X181908D01*
Y160575D01*
X181825Y160492D01*
X182241Y160575D02*
X182575D01*
Y160492D01*
X182241Y160158D01*
Y160075D01*
X182741Y160325D02*
X183074D01*
X183241Y160075D02*
X183408D01*
X183324D01*
Y160575D01*
X183241Y160492D01*
X181350Y99075D02*
Y99575D01*
X181017D01*
X180850D02*
X180684D01*
X180767D01*
Y99075D01*
X180850Y99158D01*
X180100Y99075D02*
X180434D01*
Y99325D01*
X180267Y99242D01*
X180184D01*
X180100Y99325D01*
Y99492D01*
X180184Y99575D01*
X180350D01*
X180434Y99492D01*
X189242Y95517D02*
X189325Y95600D01*
Y95767D01*
X189242Y95850D01*
X188908D01*
X188825Y95767D01*
Y95600D01*
X188908Y95517D01*
X189325Y95017D02*
Y95350D01*
X189075D01*
X189158Y95184D01*
Y95100D01*
X189075Y95017D01*
X188908D01*
X188825Y95100D01*
Y95267D01*
X188908Y95350D01*
X188825Y94600D02*
X189325D01*
X189075Y94850D01*
Y94517D01*
Y94350D02*
Y94017D01*
X188825Y93517D02*
Y93851D01*
X189158Y93517D01*
X189242D01*
X189325Y93601D01*
Y93767D01*
X189242Y93851D01*
X191042Y88899D02*
X191125Y88816D01*
X191292D01*
X191375Y88899D01*
Y89232D01*
X191292Y89316D01*
X191125D01*
X191042Y89232D01*
X190875Y88816D02*
X190542D01*
Y88899D01*
X190875Y89232D01*
Y89316D01*
X190375D02*
X190209D01*
X190292D01*
Y88816D01*
X190375Y88899D01*
X189959Y89066D02*
X189626D01*
X189126Y89316D02*
X189459D01*
X189126Y88983D01*
Y88899D01*
X189209Y88816D01*
X189376D01*
X189459Y88899D01*
X189850Y93150D02*
Y92733D01*
X189933Y92650D01*
X190100D01*
X190183Y92733D01*
Y93150D01*
X190350Y92650D02*
X190516D01*
X190433D01*
Y93150D01*
X190350Y93067D01*
X190766D02*
X190850Y93150D01*
X191016D01*
X191100Y93067D01*
Y92983D01*
X191016Y92900D01*
X190933D01*
X191016D01*
X191100Y92817D01*
Y92733D01*
X191016Y92650D01*
X190850D01*
X190766Y92733D01*
X191475Y87275D02*
Y87775D01*
X191142D01*
X190975D02*
X190809D01*
X190892D01*
Y87275D01*
X190975Y87358D01*
X190559Y87275D02*
X190225D01*
Y87358D01*
X190559Y87692D01*
Y87775D01*
X190059Y87525D02*
X189726D01*
X189226Y87775D02*
X189559D01*
X189226Y87442D01*
Y87358D01*
X189309Y87275D01*
X189476D01*
X189559Y87358D01*
X195383Y145733D02*
X195300Y145650D01*
Y145483D01*
X195383Y145400D01*
X195717D01*
X195800Y145483D01*
Y145650D01*
X195717Y145733D01*
X195300Y146233D02*
X195383Y146066D01*
X195550Y145900D01*
X195717D01*
X195800Y145983D01*
Y146150D01*
X195717Y146233D01*
X195633D01*
X195550Y146150D01*
Y145900D01*
X195800Y146400D02*
Y146566D01*
Y146483D01*
X195300D01*
X195383Y146400D01*
X177417Y102117D02*
X177500Y102200D01*
Y102367D01*
X177417Y102450D01*
X177083D01*
X177000Y102367D01*
Y102200D01*
X177083Y102117D01*
X177500Y101617D02*
X177417Y101784D01*
X177250Y101950D01*
X177083D01*
X177000Y101867D01*
Y101700D01*
X177083Y101617D01*
X177167D01*
X177250Y101700D01*
Y101950D01*
X177000Y101450D02*
Y101284D01*
Y101367D01*
X177500D01*
X177417Y101450D01*
X177250Y101034D02*
Y100701D01*
X177000Y100201D02*
Y100534D01*
X177333Y100201D01*
X177417D01*
X177500Y100284D01*
Y100451D01*
X177417Y100534D01*
X186325Y159550D02*
X186825D01*
Y159300D01*
X186742Y159217D01*
X186575D01*
X186492Y159300D01*
Y159550D01*
Y159383D02*
X186325Y159217D01*
Y158717D02*
Y159050D01*
X186658Y158717D01*
X186742D01*
X186825Y158800D01*
Y158967D01*
X186742Y159050D01*
X186825Y158217D02*
Y158550D01*
X186575D01*
X186658Y158384D01*
Y158300D01*
X186575Y158217D01*
X186408D01*
X186325Y158300D01*
Y158467D01*
X186408Y158550D01*
X186575Y158050D02*
Y157717D01*
X186325Y157551D02*
Y157384D01*
Y157467D01*
X186825D01*
X186742Y157551D01*
X187500Y159525D02*
X188000D01*
Y159275D01*
X187917Y159192D01*
X187750D01*
X187667Y159275D01*
Y159525D01*
Y159358D02*
X187500Y159192D01*
Y158692D02*
Y159025D01*
X187833Y158692D01*
X187917D01*
X188000Y158775D01*
Y158942D01*
X187917Y159025D01*
X187500Y158275D02*
X188000D01*
X187750Y158525D01*
Y158192D01*
Y158025D02*
Y157692D01*
X187500Y157526D02*
Y157359D01*
Y157442D01*
X188000D01*
X187917Y157526D01*
X186475Y88250D02*
X185975D01*
Y88500D01*
X186058Y88583D01*
X186225D01*
X186308Y88500D01*
Y88250D01*
Y88417D02*
X186475Y88583D01*
Y89083D02*
Y88750D01*
X186142Y89083D01*
X186058D01*
X185975Y89000D01*
Y88833D01*
X186058Y88750D01*
X185975Y89583D02*
Y89250D01*
X186225D01*
X186142Y89416D01*
Y89500D01*
X186225Y89583D01*
X186392D01*
X186475Y89500D01*
Y89333D01*
X186392Y89250D01*
X186225Y89750D02*
Y90083D01*
X186475Y90583D02*
Y90249D01*
X186142Y90583D01*
X186058D01*
X185975Y90499D01*
Y90333D01*
X186058Y90249D01*
X185300Y88275D02*
X184800D01*
Y88525D01*
X184883Y88608D01*
X185050D01*
X185133Y88525D01*
Y88275D01*
Y88442D02*
X185300Y88608D01*
Y89108D02*
Y88775D01*
X184967Y89108D01*
X184883D01*
X184800Y89025D01*
Y88858D01*
X184883Y88775D01*
X185300Y89525D02*
X184800D01*
X185050Y89275D01*
Y89608D01*
Y89774D02*
Y90108D01*
X185300Y90608D02*
Y90274D01*
X184967Y90608D01*
X184883D01*
X184800Y90524D01*
Y90358D01*
X184883Y90274D01*
X190825Y160975D02*
Y160475D01*
X191158D01*
X191325D02*
X191491D01*
X191408D01*
Y160975D01*
X191325Y160892D01*
X191741Y160475D02*
X191908D01*
X191825D01*
Y160975D01*
X191741Y160892D01*
X192158Y160725D02*
X192491D01*
X192658Y160475D02*
X192824D01*
X192741D01*
Y160975D01*
X192658Y160892D01*
X181925Y86875D02*
Y87375D01*
X181592D01*
X181425D02*
X181259D01*
X181342D01*
Y86875D01*
X181425Y86958D01*
X181009Y87375D02*
X180842D01*
X180925D01*
Y86875D01*
X181009Y86958D01*
X180592Y87125D02*
X180259D01*
X179759Y87375D02*
X180092D01*
X179759Y87042D01*
Y86958D01*
X179842Y86875D01*
X180009D01*
X180092Y86958D01*
X181692Y82742D02*
X181775Y82825D01*
Y82992D01*
X181692Y83075D01*
X181358D01*
X181275Y82992D01*
Y82825D01*
X181358Y82742D01*
X181775Y82242D02*
X181692Y82409D01*
X181525Y82575D01*
X181358D01*
X181275Y82492D01*
Y82325D01*
X181358Y82242D01*
X181442D01*
X181525Y82325D01*
Y82575D01*
X181275Y81825D02*
X181775D01*
X181525Y82075D01*
Y81742D01*
Y81575D02*
Y81242D01*
X181275Y80742D02*
Y81076D01*
X181608Y80742D01*
X181692D01*
X181775Y80826D01*
Y80992D01*
X181692Y81076D01*
M02*
