%FSLAX43Y43*%
%MOMM*%
G71*
G01*
G75*
G04 Layer_Physical_Order=4*
G04 Layer_Color=12517376*
%ADD10R,1.000X0.700*%
%ADD11R,0.700X0.800*%
%ADD12R,0.700X1.000*%
%ADD13R,0.800X0.700*%
%ADD14R,0.700X0.800*%
%ADD15R,1.600X0.800*%
%ADD16R,0.800X0.800*%
%ADD17R,0.800X0.800*%
%ADD18R,0.450X0.250*%
%ADD19R,0.800X2.000*%
%ADD20R,1.500X0.760*%
%ADD21R,0.400X1.200*%
%ADD22R,2.600X1.900*%
%ADD23R,0.760X1.500*%
%ADD24R,1.200X0.400*%
%ADD25R,1.900X2.600*%
%ADD26R,0.600X2.000*%
%ADD27O,0.600X2.000*%
%ADD28R,2.600X2.600*%
%ADD29R,2.000X1.500*%
%ADD30R,2.000X1.500*%
%ADD31R,2.000X3.800*%
%ADD32R,0.600X1.270*%
%ADD33R,0.350X0.900*%
%ADD34R,1.000X0.700*%
%ADD35R,1.000X0.700*%
%ADD36R,1.100X2.200*%
%ADD37R,1.000X1.050*%
%ADD38R,2.200X1.100*%
%ADD39R,1.050X1.000*%
%ADD40R,0.840X1.600*%
%ADD41R,2.400X0.840*%
%ADD42R,1.600X0.840*%
%ADD43R,0.800X1.500*%
%ADD44R,0.800X2.250*%
%ADD45R,0.350X0.280*%
G04:AMPARAMS|DCode=46|XSize=0.3mm|YSize=0.65mm|CornerRadius=0.075mm|HoleSize=0mm|Usage=FLASHONLY|Rotation=0.000|XOffset=0mm|YOffset=0mm|HoleType=Round|Shape=RoundedRectangle|*
%AMROUNDEDRECTD46*
21,1,0.300,0.500,0,0,0.0*
21,1,0.150,0.650,0,0,0.0*
1,1,0.150,0.075,-0.250*
1,1,0.150,-0.075,-0.250*
1,1,0.150,-0.075,0.250*
1,1,0.150,0.075,0.250*
%
%ADD46ROUNDEDRECTD46*%
G04:AMPARAMS|DCode=47|XSize=0.3mm|YSize=0.65mm|CornerRadius=0.075mm|HoleSize=0mm|Usage=FLASHONLY|Rotation=270.000|XOffset=0mm|YOffset=0mm|HoleType=Round|Shape=RoundedRectangle|*
%AMROUNDEDRECTD47*
21,1,0.300,0.500,0,0,270.0*
21,1,0.150,0.650,0,0,270.0*
1,1,0.150,-0.250,-0.075*
1,1,0.150,-0.250,0.075*
1,1,0.150,0.250,0.075*
1,1,0.150,0.250,-0.075*
%
%ADD47ROUNDEDRECTD47*%
%ADD48R,3.300X3.300*%
%ADD49R,0.500X0.500*%
%ADD50R,1.270X0.640*%
%ADD51R,0.900X1.300*%
%ADD52C,0.750*%
%ADD53C,0.500*%
%ADD54C,0.250*%
%ADD55C,0.350*%
%ADD56C,0.965*%
%ADD57C,0.900*%
%ADD58C,0.700*%
%ADD59C,0.200*%
%ADD60C,0.300*%
%ADD61R,11.925X2.000*%
%ADD62R,6.200X2.000*%
%ADD63R,9.650X1.875*%
%ADD64R,2.000X30.000*%
%ADD65R,8.425X2.000*%
%ADD66R,18.025X2.000*%
%ADD67R,3.400X2.000*%
%ADD68R,24.500X1.950*%
%ADD69C,1.000*%
%ADD70R,4.000X4.000*%
%ADD71R,4.000X4.000*%
%ADD72C,0.500*%
%ADD73C,0.900*%
%ADD74C,0.700*%
%ADD75C,1.016*%
%ADD76C,1.900*%
G04:AMPARAMS|DCode=77|XSize=4.3mm|YSize=4.3mm|CornerRadius=0mm|HoleSize=0mm|Usage=FLASHONLY|Rotation=0.000|XOffset=0mm|YOffset=0mm|HoleType=Round|Shape=Relief|Width=0.5mm|Gap=0.25mm|Entries=4|*
%AMTHD77*
7,0,0,4.300,3.800,0.500,45*
%
%ADD77THD77*%
G04:AMPARAMS|DCode=78|XSize=1.754mm|YSize=1.754mm|CornerRadius=0mm|HoleSize=0mm|Usage=FLASHONLY|Rotation=0.000|XOffset=0mm|YOffset=0mm|HoleType=Round|Shape=Relief|Width=0.5mm|Gap=0.25mm|Entries=4|*
%AMTHD78*
7,0,0,1.754,1.254,0.500,45*
%
%ADD78THD78*%
%ADD79C,1.100*%
%ADD80C,0.345*%
%ADD81R,1.000X2.540*%
G36*
X204245Y174644D02*
Y78356D01*
X202894Y77005D01*
X156106D01*
X154755Y78356D01*
Y84245D01*
X158250D01*
Y84239D01*
X158691Y84283D01*
X159115Y84411D01*
X159506Y84620D01*
X159849Y84901D01*
X160130Y85244D01*
X160339Y85635D01*
X160467Y86059D01*
X160511Y86500D01*
X160505D01*
Y112500D01*
X160511D01*
X160467Y112941D01*
X160339Y113365D01*
X160130Y113756D01*
X159849Y114099D01*
X159506Y114380D01*
X159115Y114589D01*
X158691Y114717D01*
X158250Y114761D01*
Y114755D01*
X154755D01*
Y174644D01*
X156106Y175995D01*
X160745D01*
Y172500D01*
X160739D01*
X160783Y172059D01*
X160911Y171635D01*
X161120Y171244D01*
X161401Y170901D01*
X161744Y170620D01*
X162135Y170411D01*
X162559Y170283D01*
X163000Y170239D01*
Y170245D01*
X175441D01*
X175482Y170125D01*
X175322Y170003D01*
X175170Y169804D01*
X175074Y169573D01*
X175067Y169514D01*
X175000D01*
D01*
X175000Y169514D01*
X175000D01*
Y169514D01*
D01*
X173000D01*
D01*
X173000Y169514D01*
X173000D01*
Y169514D01*
D01*
X171000D01*
D01*
X171000Y169514D01*
X171000D01*
Y169514D01*
D01*
X169090D01*
X169090Y169514D01*
Y169514D01*
X169000Y169514D01*
X169000D01*
D01*
X168910Y169514D01*
X168910Y169514D01*
Y169514D01*
X167090D01*
X167090Y169514D01*
Y169514D01*
X167000Y169514D01*
D01*
X167000Y169514D01*
X167000Y169514D01*
D01*
X167000D01*
X166910Y169514D01*
X166910Y169514D01*
Y169514D01*
X165000D01*
Y169514D01*
Y169514D01*
X165000D01*
Y169514D01*
X163000D01*
D01*
X163000Y169514D01*
X163000D01*
Y169514D01*
D01*
X161000D01*
Y166628D01*
X160902Y166616D01*
X160671Y166520D01*
X160472Y166368D01*
X160320Y166169D01*
X160224Y165938D01*
X160192Y165690D01*
X160224Y165442D01*
X160320Y165211D01*
X160459Y165030D01*
X160398Y164885D01*
X160373Y164689D01*
Y164604D01*
X160373Y164599D01*
X160367Y164550D01*
X160399Y164302D01*
X160495Y164071D01*
X160647Y163872D01*
X160846Y163720D01*
X161000Y163656D01*
Y160886D01*
X163000D01*
D01*
X163000Y160886D01*
X163000Y160886D01*
X163000D01*
Y160886D01*
Y160886D01*
X165000D01*
X165000Y160886D01*
Y160886D01*
X165040Y160881D01*
X165067Y160850D01*
X165099Y160602D01*
X165195Y160371D01*
X165347Y160172D01*
X165546Y160020D01*
X165777Y159924D01*
X166025Y159892D01*
X166273Y159924D01*
X166504Y160020D01*
X166703Y160172D01*
X166816Y160187D01*
X166871Y160145D01*
X167102Y160049D01*
X167350Y160017D01*
X167598Y160049D01*
X167829Y160145D01*
X168028Y160297D01*
X168180Y160496D01*
X168276Y160727D01*
X168296Y160886D01*
X169000D01*
Y160886D01*
X169000D01*
X169000Y160886D01*
X169090Y160886D01*
X169090Y160886D01*
Y160886D01*
X171000D01*
D01*
X171000Y160886D01*
X171000Y160886D01*
X171000D01*
Y160886D01*
Y160886D01*
X173000D01*
Y160886D01*
D01*
X173000Y160886D01*
X173000D01*
Y160886D01*
X175000D01*
D01*
X175000Y160886D01*
X175000Y160886D01*
X175000D01*
Y160886D01*
Y160886D01*
X175650D01*
Y162656D01*
Y164312D01*
X175785Y164415D01*
X175793Y164426D01*
X175936D01*
X175880Y164540D01*
X175961Y164645D01*
X176072Y164913D01*
X176109Y165200D01*
X176072Y165487D01*
X175961Y165755D01*
X175880Y165860D01*
X175936Y165974D01*
X177000D01*
Y167733D01*
X177123Y167749D01*
X177354Y167845D01*
X177553Y167997D01*
X177705Y168196D01*
X177801Y168427D01*
X177833Y168675D01*
X177801Y168923D01*
X177705Y169154D01*
X177553Y169353D01*
X177354Y169505D01*
X177123Y169601D01*
X176902Y169630D01*
X176830Y169804D01*
X176678Y170003D01*
X176479Y170155D01*
X176497Y170245D01*
X189000D01*
Y170239D01*
X189441Y170283D01*
X189865Y170411D01*
X190256Y170620D01*
X190599Y170901D01*
X190880Y171244D01*
X191089Y171635D01*
X191217Y172059D01*
X191261Y172500D01*
X191255D01*
Y175995D01*
X202894D01*
X204245Y174644D01*
D02*
G37*
%LPC*%
G36*
X177000Y162306D02*
X176350D01*
Y160886D01*
X177000D01*
Y162306D01*
D02*
G37*
G36*
Y164426D02*
X176350D01*
Y163006D01*
X177000D01*
Y164426D01*
D02*
G37*
%LPD*%
G54D52*
X176000Y168675D02*
X176875D01*
X175850D02*
X176000D01*
X170000Y162656D02*
Y164400D01*
X171950Y165950D02*
Y167694D01*
X168000Y166025D02*
Y167744D01*
X166000Y166050D02*
Y167744D01*
X171950Y167694D02*
X172000Y167744D01*
X170000Y165950D02*
Y167744D01*
X176000D02*
Y168450D01*
Y168450D02*
Y168675D01*
Y169325D01*
G54D53*
X164000Y166208D02*
Y167744D01*
X161150Y164710D02*
X161473D01*
X162000Y164183D01*
X173825Y162831D02*
Y164450D01*
Y162831D02*
X174000Y162656D01*
X172000D02*
Y164525D01*
X162000Y166208D02*
Y167744D01*
X161482Y165690D02*
X162000Y166208D01*
X161150Y165690D02*
X161482D01*
X162000Y162656D02*
Y164183D01*
X164244Y166208D02*
X164248Y166212D01*
X164000Y166208D02*
X164244D01*
X164000Y162656D02*
Y164183D01*
X161129Y164689D02*
X161150Y164710D01*
X161129Y164604D02*
Y164689D01*
Y164604D02*
X161183Y164550D01*
X161325D01*
X165025Y165208D02*
Y165300D01*
X164000Y164183D02*
X165025Y165208D01*
G54D54*
X172050Y162025D02*
Y162706D01*
X172000Y161975D02*
Y162656D01*
G54D55*
X167350Y160975D02*
X168000Y161625D01*
Y162656D01*
X166000Y160875D02*
X166025Y160850D01*
X166000Y160875D02*
Y162656D01*
G54D56*
X173975Y166125D02*
Y167769D01*
X173800Y165950D02*
X173975Y166125D01*
Y167769D02*
X174000Y167744D01*
G54D69*
X175000Y165200D02*
D03*
X163000D02*
D03*
G54D70*
X157000Y170950D02*
D03*
X202000D02*
D03*
G54D71*
X157000Y82050D02*
D03*
G54D72*
X178675Y118800D02*
D03*
X176675Y119600D02*
D03*
X178675D02*
D03*
X177675D02*
D03*
Y118800D02*
D03*
X176675D02*
D03*
X179525Y127850D02*
D03*
X180325Y129850D02*
D03*
Y127850D02*
D03*
Y128850D02*
D03*
X179525D02*
D03*
Y129850D02*
D03*
X181325Y144855D02*
D03*
X180525Y142855D02*
D03*
Y144855D02*
D03*
Y143855D02*
D03*
X181325D02*
D03*
Y142855D02*
D03*
X191475Y102995D02*
D03*
X192275Y104995D02*
D03*
Y102995D02*
D03*
Y103995D02*
D03*
X191475D02*
D03*
Y104995D02*
D03*
X190700Y130100D02*
D03*
Y131100D02*
D03*
Y131600D02*
D03*
Y130600D02*
D03*
Y122525D02*
D03*
Y122025D02*
D03*
Y123025D02*
D03*
Y123525D02*
D03*
G54D73*
X176875Y168675D02*
D03*
X174250Y134050D02*
D03*
X182425Y131775D02*
D03*
X164975Y96750D02*
D03*
X170000Y164400D02*
D03*
X179700Y155275D02*
D03*
X173825Y164450D02*
D03*
X172000Y164525D02*
D03*
X187300Y162050D02*
D03*
X172400Y160500D02*
D03*
X167350Y160975D02*
D03*
X166025Y160850D02*
D03*
X167325Y157375D02*
D03*
X171950Y165950D02*
D03*
X166000Y166050D02*
D03*
X167000Y169675D02*
D03*
X177800Y165875D02*
D03*
X170000Y165950D02*
D03*
X168000Y166025D02*
D03*
X176125Y164500D02*
D03*
X179025Y165875D02*
D03*
X162000Y131500D02*
D03*
X192075Y83350D02*
D03*
X185900Y85800D02*
D03*
X191000D02*
D03*
X193000D02*
D03*
X196825Y83325D02*
D03*
X176500Y103350D02*
D03*
X192100Y89816D02*
D03*
X195900Y85800D02*
D03*
X198400D02*
D03*
X200400D02*
D03*
Y89800D02*
D03*
Y92800D02*
D03*
Y98800D02*
D03*
Y101800D02*
D03*
Y95800D02*
D03*
Y104800D02*
D03*
Y107800D02*
D03*
X190700Y113800D02*
D03*
X192250D02*
D03*
X194400D02*
D03*
X200400Y110800D02*
D03*
Y113800D02*
D03*
X197400D02*
D03*
X172400Y85800D02*
D03*
Y87800D02*
D03*
Y90800D02*
D03*
Y93800D02*
D03*
X178400Y85800D02*
D03*
X175400D02*
D03*
X172400Y96800D02*
D03*
Y102800D02*
D03*
Y105800D02*
D03*
Y99800D02*
D03*
Y108800D02*
D03*
Y111800D02*
D03*
Y113800D02*
D03*
X174400D02*
D03*
X180400D02*
D03*
X183400D02*
D03*
X186400D02*
D03*
X189150D02*
D03*
X177400D02*
D03*
X176555Y107725D02*
D03*
X176580Y109100D02*
D03*
X176633Y110444D02*
D03*
X197525Y107475D02*
D03*
X195500Y109250D02*
D03*
X193300Y107950D02*
D03*
X197950Y94425D02*
D03*
X192400Y96450D02*
D03*
X193200Y98475D02*
D03*
X196050Y96450D02*
D03*
X198975Y96475D02*
D03*
X188525Y97725D02*
D03*
X189800D02*
D03*
X191175D02*
D03*
X198600Y88775D02*
D03*
X196500Y87500D02*
D03*
X192950Y93475D02*
D03*
X177900Y103350D02*
D03*
X177394Y99771D02*
D03*
X179600Y110355D02*
D03*
X181319Y110347D02*
D03*
X196425Y104225D02*
D03*
X178525Y88900D02*
D03*
X178525Y90645D02*
D03*
X178320Y87520D02*
D03*
X194375Y100275D02*
D03*
X192200Y101650D02*
D03*
X183100Y97575D02*
D03*
X187750Y101375D02*
D03*
X192200Y100450D02*
D03*
X195300Y91025D02*
D03*
X185000Y107555D02*
D03*
X198575Y92175D02*
D03*
X190925Y107700D02*
D03*
Y110625D02*
D03*
X196300Y144500D02*
D03*
X196245Y140125D02*
D03*
X196220Y138750D02*
D03*
X196167Y137406D02*
D03*
X194900Y144500D02*
D03*
X191481Y137503D02*
D03*
X167075Y128650D02*
D03*
X157275Y165200D02*
D03*
X163825Y143125D02*
D03*
X165025Y144725D02*
D03*
X162425Y154800D02*
D03*
X163430Y153830D02*
D03*
X161150Y165690D02*
D03*
X189225Y145650D02*
D03*
X195406Y148078D02*
D03*
X193750Y166450D02*
D03*
X190800Y166425D02*
D03*
X200600Y165275D02*
D03*
X197625Y169725D02*
D03*
X164248Y166212D02*
D03*
X173800Y165950D02*
D03*
X194275Y157205D02*
D03*
X193200Y137495D02*
D03*
X181625Y150125D02*
D03*
X183000D02*
D03*
X180600Y147400D02*
D03*
Y146200D02*
D03*
X185050Y146475D02*
D03*
X187800Y140295D02*
D03*
X177500Y156825D02*
D03*
X174225Y155675D02*
D03*
X174200Y159075D02*
D03*
X176300Y160300D02*
D03*
X194480Y160330D02*
D03*
X194275Y158950D02*
D03*
X189650Y148225D02*
D03*
X185375Y155175D02*
D03*
X180700Y158034D02*
D03*
X176375Y143625D02*
D03*
X178425Y147575D02*
D03*
X179600Y149375D02*
D03*
X176750Y151400D02*
D03*
X180400D02*
D03*
X173825Y151375D02*
D03*
X174850Y153425D02*
D03*
X177000Y162350D02*
D03*
X180875Y164475D02*
D03*
X179775Y162350D02*
D03*
X172400Y134050D02*
D03*
Y137050D02*
D03*
Y140050D02*
D03*
Y143050D02*
D03*
Y146050D02*
D03*
Y149050D02*
D03*
Y152050D02*
D03*
Y155050D02*
D03*
Y158050D02*
D03*
X175800Y134050D02*
D03*
X177400D02*
D03*
X178425Y140225D02*
D03*
X180550Y134050D02*
D03*
X183650D02*
D03*
X186400D02*
D03*
X189400D02*
D03*
X192400D02*
D03*
X195400D02*
D03*
X200400D02*
D03*
Y160050D02*
D03*
Y157050D02*
D03*
Y154050D02*
D03*
Y151050D02*
D03*
Y148050D02*
D03*
Y145050D02*
D03*
Y142050D02*
D03*
Y139050D02*
D03*
Y136050D02*
D03*
X194400Y162050D02*
D03*
X197400D02*
D03*
X200400D02*
D03*
X181825Y162350D02*
D03*
X189900Y162050D02*
D03*
X198400Y134050D02*
D03*
X170875Y119900D02*
D03*
X157382Y131732D02*
D03*
X156857Y127657D02*
D03*
X156282Y135157D02*
D03*
X161825Y80650D02*
D03*
X160750Y83000D02*
D03*
X175275Y162350D02*
D03*
X203700Y144500D02*
D03*
Y147500D02*
D03*
Y150500D02*
D03*
Y153500D02*
D03*
Y156500D02*
D03*
Y159500D02*
D03*
Y162500D02*
D03*
Y165500D02*
D03*
Y168275D02*
D03*
X188500Y125175D02*
D03*
X195300Y124000D02*
D03*
X199675Y132900D02*
D03*
X201300Y127600D02*
D03*
Y129800D02*
D03*
Y131200D02*
D03*
X198200Y132000D02*
D03*
X195300Y121000D02*
D03*
X185300Y117050D02*
D03*
X185750Y120175D02*
D03*
X187700Y117075D02*
D03*
X189800D02*
D03*
X192850Y116400D02*
D03*
X203700Y117500D02*
D03*
Y120500D02*
D03*
Y123500D02*
D03*
Y126500D02*
D03*
Y129500D02*
D03*
Y132500D02*
D03*
Y135500D02*
D03*
Y138500D02*
D03*
Y141500D02*
D03*
Y90500D02*
D03*
Y93500D02*
D03*
Y96500D02*
D03*
Y99500D02*
D03*
Y102500D02*
D03*
Y105500D02*
D03*
Y108500D02*
D03*
Y111500D02*
D03*
Y114500D02*
D03*
X201300Y119400D02*
D03*
X195300Y129000D02*
D03*
X198200Y121000D02*
D03*
Y124000D02*
D03*
X201300Y121775D02*
D03*
Y123200D02*
D03*
X195325Y131950D02*
D03*
X182500Y125700D02*
D03*
X185250Y125675D02*
D03*
X181105Y118402D02*
D03*
X179330Y116977D02*
D03*
X179980Y119577D02*
D03*
X189775Y125150D02*
D03*
X198200Y129000D02*
D03*
X189600Y129100D02*
D03*
X189675Y121000D02*
D03*
X199600Y119450D02*
D03*
Y127625D02*
D03*
X192850Y124600D02*
D03*
X182000Y117000D02*
D03*
X176550Y140000D02*
D03*
X175150Y138550D02*
D03*
X179125Y138700D02*
D03*
X182075Y138325D02*
D03*
X181550Y135725D02*
D03*
X180325Y138725D02*
D03*
X177675Y122350D02*
D03*
X182500Y122775D02*
D03*
Y120150D02*
D03*
X182950Y128850D02*
D03*
X185275Y128875D02*
D03*
X185725Y122975D02*
D03*
X180100Y122775D02*
D03*
X179500Y125700D02*
D03*
X176500D02*
D03*
X173900D02*
D03*
Y122700D02*
D03*
Y119700D02*
D03*
Y117700D02*
D03*
Y130200D02*
D03*
Y128200D02*
D03*
X189175Y110625D02*
D03*
X197525Y111025D02*
D03*
X188575Y78750D02*
D03*
X191575D02*
D03*
X194575D02*
D03*
X197575D02*
D03*
X200575D02*
D03*
X203575D02*
D03*
Y87750D02*
D03*
Y84750D02*
D03*
Y81750D02*
D03*
X185575Y78750D02*
D03*
X193725Y82050D02*
D03*
X182475Y82000D02*
D03*
X185475D02*
D03*
X188475D02*
D03*
X191475D02*
D03*
X200400D02*
D03*
X179075Y81750D02*
D03*
X179575Y78750D02*
D03*
X182575D02*
D03*
X195125Y82050D02*
D03*
X193050Y174475D02*
D03*
X196050D02*
D03*
X199050D02*
D03*
X202050D02*
D03*
X176575Y78750D02*
D03*
X173575D02*
D03*
X170575D02*
D03*
X167575D02*
D03*
X164575D02*
D03*
X198300Y82000D02*
D03*
X189421Y158679D02*
D03*
X189900Y155650D02*
D03*
X185525Y150200D02*
D03*
X184275Y150125D02*
D03*
X185375Y152050D02*
D03*
X189700Y150275D02*
D03*
X183150Y99546D02*
D03*
X183005Y92151D02*
D03*
X187425Y95795D02*
D03*
X182500Y85800D02*
D03*
X183620Y89120D02*
D03*
X156300Y174475D02*
D03*
X159300D02*
D03*
X155575Y78750D02*
D03*
X158575D02*
D03*
X161575D02*
D03*
X183150Y107050D02*
D03*
X183175Y103925D02*
D03*
X188725Y108175D02*
D03*
X187800Y168825D02*
D03*
X193725Y109625D02*
D03*
X196650Y109250D02*
D03*
X156200Y124825D02*
D03*
X156175Y116600D02*
D03*
X183925Y168800D02*
D03*
X179800Y168825D02*
D03*
X200375Y168275D02*
D03*
X184375Y165450D02*
D03*
X160750Y114775D02*
D03*
X166800Y114625D02*
D03*
X173000Y169675D02*
D03*
X162975D02*
D03*
X193775Y170450D02*
D03*
X191875Y170425D02*
D03*
X186125Y103750D02*
D03*
X187950Y131775D02*
D03*
X187100Y125700D02*
D03*
X182525Y139850D02*
D03*
X188625Y165425D02*
D03*
X161475Y87825D02*
D03*
X187575Y123725D02*
D03*
X185700Y130975D02*
D03*
X179100Y131775D02*
D03*
X176000Y169325D02*
D03*
X187375Y92700D02*
D03*
X183575Y102195D02*
D03*
X186650Y97750D02*
D03*
X161325Y164550D02*
D03*
X165025Y165300D02*
D03*
G54D74*
X193500Y151805D02*
D03*
Y153805D02*
D03*
X192500Y152805D02*
D03*
X179300Y96045D02*
D03*
X181300D02*
D03*
X179300Y94045D02*
D03*
X181300D02*
D03*
X180300Y95045D02*
D03*
X191500Y151805D02*
D03*
Y153805D02*
D03*
G54D81*
X162000Y162656D02*
D03*
Y167744D02*
D03*
X164000D02*
D03*
Y162656D02*
D03*
X166000Y167744D02*
D03*
Y162656D02*
D03*
X168000Y167744D02*
D03*
Y162656D02*
D03*
X170000Y167744D02*
D03*
Y162656D02*
D03*
X172000Y167744D02*
D03*
Y162656D02*
D03*
X174000Y167744D02*
D03*
Y162656D02*
D03*
X176000D02*
D03*
Y167744D02*
D03*
M02*
