M48
;Layer_Color=9474304
;FILE_FORMAT=4:3
METRIC,TZ
;TYPE=PLATED
T3F00S00C0.400
%
T03
X163825Y93150
X165200Y94375
X176450Y96215
X177305Y92176
X182225Y89300
X185700Y87600
X186937Y87601
X188275Y87600
X192125Y88375
X187425Y94475
X185650Y102225
X181580Y101726
X174155Y109752
X168825Y109750
X165925Y110850
X164175Y107725
X176950Y115750
X176100Y116900
X180750Y80650
X199600Y117950
Y126100
X197775Y141350
X191125Y146250
X186825Y145650
X185375Y153375
X190575Y158550
X195475Y155675
X196356Y151504
X170600Y148150
X169550Y145600
X170275Y142550
X163400Y139775
Y138350
X162000Y136125
X165200Y132850
X165825Y128675
X168350
X177080Y130800
X178230Y130978
X184300Y130100
X184275Y122250
X166400Y119125
X165025
Y148325
X164550Y152200
X163300
X168250Y155675
X169550Y157475
X180700Y159475
X184525Y160250
X185750Y160175
X187750Y160200
X198125Y164150
X202475Y166725
M30
