%FSLAX24Y24*%
%MOIN*%
G70*
G01*
G75*
G04 Layer_Color=16777215*
%ADD10P,0.0490X8X202.5*%
%ADD11O,0.0138X0.0197*%
%ADD12O,0.0197X0.0138*%
%ADD13R,0.0787X0.1063*%
%ADD14R,0.1063X0.0787*%
%ADD15R,0.0315X0.0315*%
%ADD16R,0.0315X0.0315*%
%ADD17R,0.1024X0.1024*%
%ADD18R,0.0591X0.0299*%
%ADD19R,0.0394X0.0276*%
%ADD20R,0.0394X0.0276*%
%ADD21R,0.0787X0.1496*%
%ADD22R,0.0787X0.0591*%
%ADD23R,0.0787X0.0591*%
%ADD24R,0.0138X0.0354*%
%ADD25O,0.0236X0.0787*%
%ADD26R,0.0236X0.0787*%
%ADD27R,0.0433X0.0866*%
%ADD28R,0.0394X0.0413*%
%ADD29R,0.0630X0.0331*%
%ADD30R,0.0331X0.0630*%
%ADD31R,0.0945X0.0331*%
%ADD32R,0.0110X0.0138*%
%ADD33R,0.0394X0.0276*%
%ADD34R,0.0276X0.0315*%
%ADD35R,0.0276X0.0315*%
%ADD36R,0.0630X0.0315*%
G04:AMPARAMS|DCode=37|XSize=11.8mil|YSize=25.6mil|CornerRadius=3mil|HoleSize=0mil|Usage=FLASHONLY|Rotation=180.000|XOffset=0mil|YOffset=0mil|HoleType=Round|Shape=RoundedRectangle|*
%AMROUNDEDRECTD37*
21,1,0.0118,0.0197,0,0,180.0*
21,1,0.0059,0.0256,0,0,180.0*
1,1,0.0059,-0.0030,0.0098*
1,1,0.0059,0.0030,0.0098*
1,1,0.0059,0.0030,-0.0098*
1,1,0.0059,-0.0030,-0.0098*
%
%ADD37ROUNDEDRECTD37*%
G04:AMPARAMS|DCode=38|XSize=11.8mil|YSize=25.6mil|CornerRadius=3mil|HoleSize=0mil|Usage=FLASHONLY|Rotation=270.000|XOffset=0mil|YOffset=0mil|HoleType=Round|Shape=RoundedRectangle|*
%AMROUNDEDRECTD38*
21,1,0.0118,0.0197,0,0,270.0*
21,1,0.0059,0.0256,0,0,270.0*
1,1,0.0059,-0.0098,-0.0030*
1,1,0.0059,-0.0098,0.0030*
1,1,0.0059,0.0098,0.0030*
1,1,0.0059,0.0098,-0.0030*
%
%ADD38ROUNDEDRECTD38*%
%ADD39R,0.1299X0.1299*%
%ADD40R,0.0197X0.0197*%
%ADD41R,0.0500X0.0252*%
%ADD42R,0.0236X0.0500*%
%ADD43R,0.0354X0.0512*%
%ADD44R,0.0866X0.0433*%
%ADD45R,0.0413X0.0394*%
%ADD46R,0.0500X0.0236*%
%ADD47R,0.0299X0.0591*%
%ADD48R,0.0276X0.0394*%
%ADD49R,0.0315X0.0276*%
%ADD50R,0.0630X0.0236*%
%ADD51R,0.0709X0.0472*%
%ADD52R,0.0591X0.0118*%
%ADD53R,0.1024X0.0748*%
%ADD54R,0.0157X0.0472*%
%ADD55R,0.0472X0.0157*%
%ADD56R,0.0748X0.1024*%
%ADD57C,0.0295*%
%ADD58C,0.0079*%
%ADD59C,0.0098*%
%ADD60C,0.0197*%
%ADD61C,0.0138*%
%ADD62C,0.0276*%
%ADD63C,0.0136*%
%ADD64C,0.0380*%
%ADD65C,0.0118*%
%ADD66C,0.0354*%
%ADD67R,0.0787X1.2451*%
%ADD68R,0.0787X1.2441*%
%ADD69R,0.6496X0.1772*%
%ADD70R,0.3297X0.0787*%
%ADD71R,0.4695X0.0787*%
%ADD72R,0.2441X0.0787*%
%ADD73R,0.4114X0.1772*%
%ADD74R,0.0787X2.1142*%
%ADD75R,0.3337X0.0787*%
%ADD76R,0.0787X1.4764*%
%ADD77R,0.2421X0.0787*%
%ADD78R,0.0787X0.2441*%
%ADD79R,0.1575X0.1575*%
%ADD80C,0.0394*%
%ADD81R,0.1575X0.1575*%
%ADD82C,0.0354*%
%ADD83C,0.0315*%
%ADD84C,0.0276*%
%ADD85C,0.0197*%
%ADD86C,0.0400*%
G04:AMPARAMS|DCode=87|XSize=169.291mil|YSize=169.291mil|CornerRadius=0mil|HoleSize=0mil|Usage=FLASHONLY|Rotation=0.000|XOffset=0mil|YOffset=0mil|HoleType=Round|Shape=Relief|Width=19.7mil|Gap=9.8mil|Entries=4|*
%AMTHD87*
7,0,0,0.1693,0.1496,0.0197,45*
%
%ADD87THD87*%
%ADD88C,0.0866*%
%ADD89C,0.0551*%
%ADD90R,0.0394X0.1000*%
%ADD91C,0.0039*%
%ADD92C,0.0236*%
%ADD93C,0.0080*%
%ADD94C,0.0100*%
%ADD95C,0.0060*%
%ADD96C,0.0059*%
%ADD97R,0.0138X0.0512*%
%ADD98R,0.0118X0.1014*%
%ADD99R,0.0128X0.0551*%
%ADD100R,0.0551X0.0128*%
%ADD101R,0.1014X0.0118*%
%ADD102R,0.0098X0.0128*%
%ADD103R,0.0108X0.0128*%
%ADD104R,0.0138X0.0512*%
%ADD105R,0.0945X0.0669*%
%ADD106R,0.0669X0.0945*%
%ADD107R,0.0866X0.0669*%
%ADD108R,0.0866X0.0669*%
%ADD109R,0.0866X0.1575*%
%ADD110R,0.0177X0.0472*%
%ADD111R,0.0177X0.0472*%
%ADD112R,0.0591X0.0423*%
%ADD113R,0.0423X0.0591*%
%ADD114R,0.0984X0.0157*%
%ADD115R,0.0157X0.1299*%
%ADD116R,0.1772X0.0787*%
%ADD117R,0.0787X0.9833*%
%ADD118R,0.3337X0.0787*%
%ADD119R,0.0787X1.0000*%
%ADD120R,0.4134X0.0787*%
%ADD121R,0.6496X0.0787*%
%ADD122R,0.0787X1.0039*%
%ADD123R,0.3297X0.0787*%
%ADD124R,0.0787X1.0039*%
%ADD125R,2.0215X0.1161*%
%ADD126R,2.0207X0.1157*%
%ADD127R,0.4134X0.0787*%
%ADD128R,0.6496X0.0787*%
%ADD129R,0.0787X1.0669*%
%ADD130R,0.0787X0.2205*%
%ADD131R,0.0787X0.2441*%
%ADD132R,0.0787X0.4567*%
%ADD133R,0.0669X0.0157*%
%ADD134R,0.0768X0.0167*%
%ADD135O,0.0197X0.0256*%
%ADD136O,0.0256X0.0197*%
%ADD137R,0.0374X0.0374*%
%ADD138R,0.0374X0.0374*%
%ADD139R,0.1083X0.1083*%
%ADD140R,0.0650X0.0358*%
%ADD141R,0.0433X0.0315*%
%ADD142R,0.0433X0.0315*%
%ADD143R,0.0846X0.1555*%
%ADD144R,0.0846X0.0650*%
%ADD145R,0.0846X0.0650*%
%ADD146O,0.0295X0.0846*%
%ADD147R,0.0295X0.0846*%
%ADD148R,0.0492X0.0925*%
%ADD149R,0.0453X0.0472*%
%ADD150R,0.0709X0.0409*%
%ADD151R,0.0409X0.0709*%
%ADD152R,0.1024X0.0409*%
%ADD153R,0.0390X0.0689*%
%ADD154R,0.0150X0.0177*%
%ADD155R,0.0453X0.0335*%
%ADD156R,0.0335X0.0374*%
%ADD157R,0.0335X0.0374*%
%ADD158R,0.0689X0.0374*%
G04:AMPARAMS|DCode=159|XSize=15.7mil|YSize=29.5mil|CornerRadius=4.9mil|HoleSize=0mil|Usage=FLASHONLY|Rotation=180.000|XOffset=0mil|YOffset=0mil|HoleType=Round|Shape=RoundedRectangle|*
%AMROUNDEDRECTD159*
21,1,0.0157,0.0197,0,0,180.0*
21,1,0.0059,0.0295,0,0,180.0*
1,1,0.0098,-0.0030,0.0098*
1,1,0.0098,0.0030,0.0098*
1,1,0.0098,0.0030,-0.0098*
1,1,0.0098,-0.0030,-0.0098*
%
%ADD159ROUNDEDRECTD159*%
G04:AMPARAMS|DCode=160|XSize=15.7mil|YSize=29.5mil|CornerRadius=4.9mil|HoleSize=0mil|Usage=FLASHONLY|Rotation=270.000|XOffset=0mil|YOffset=0mil|HoleType=Round|Shape=RoundedRectangle|*
%AMROUNDEDRECTD160*
21,1,0.0157,0.0197,0,0,270.0*
21,1,0.0059,0.0295,0,0,270.0*
1,1,0.0098,-0.0098,-0.0030*
1,1,0.0098,-0.0098,0.0030*
1,1,0.0098,0.0098,0.0030*
1,1,0.0098,0.0098,-0.0030*
%
%ADD160ROUNDEDRECTD160*%
%ADD161R,0.0256X0.0256*%
%ADD162R,0.0559X0.0311*%
%ADD163R,0.0295X0.0559*%
%ADD164R,0.0413X0.0571*%
%ADD165R,0.0925X0.0492*%
%ADD166R,0.0472X0.0453*%
%ADD167R,0.0559X0.0295*%
%ADD168R,0.0358X0.0650*%
%ADD169R,0.0335X0.0453*%
%ADD170R,0.0374X0.0335*%
%ADD171R,0.0689X0.0295*%
%ADD172R,0.0768X0.0532*%
%ADD173R,0.0217X0.0532*%
%ADD174R,0.0532X0.0217*%
%ADD175R,0.1634X0.1634*%
%ADD176C,0.0512*%
%ADD177R,0.1634X0.1634*%
%ADD178R,2.0283X0.2343*%
%ADD179R,2.0236X0.1181*%
%ADD180R,0.0453X0.1059*%
%ADD181C,0.0008*%
%ADD182C,0.0010*%
%ADD183C,0.0008*%
%ADD184C,0.0010*%
%ADD185C,0.0012*%
G54D58*
X78120Y66132D02*
G03*
X78120Y66132I-10J0D01*
G01*
G54D91*
X75453Y50581D02*
G03*
X75453Y50581I-98J0D01*
G01*
Y46791D02*
G03*
X75453Y46791I-98J0D01*
G01*
G54D181*
X69114Y34467D02*
G03*
X69114Y34565I0J49D01*
G01*
X69744D02*
G03*
X69744Y34467I0J-49D01*
G01*
X69301Y34644D02*
G03*
X69301Y34644I-10J0D01*
G01*
X71890Y45925D02*
G03*
X71890Y45925I-79J0D01*
G01*
X63268Y48524D02*
G03*
X63268Y48524I-197J0D01*
G01*
X77953Y37677D02*
G03*
X77953Y37559I0J-59D01*
G01*
X76909Y38602D02*
G03*
X77028Y38602I59J0D01*
G01*
X76409D02*
G03*
X76528Y38602I59J0D01*
G01*
X77528Y36634D02*
G03*
X77409Y36634I-59J0D01*
G01*
Y38602D02*
G03*
X77528Y38602I59J0D01*
G01*
X77028Y36634D02*
G03*
X76909Y36634I-59J0D01*
G01*
Y38602D02*
G03*
X77028Y38602I59J0D01*
G01*
X76528Y36634D02*
G03*
X76409Y36634I-59J0D01*
G01*
X75984Y37559D02*
G03*
X75984Y37677I0J59D01*
G01*
X76260Y36860D02*
G03*
X76260Y36860I-98J0D01*
G01*
X71690Y36425D02*
G03*
X71690Y36425I-107J0D01*
G01*
X77618Y62778D02*
G03*
X77618Y62679I0J-49D01*
G01*
X76988D02*
G03*
X76988Y62778I0J49D01*
G01*
X77451Y62600D02*
G03*
X77451Y62600I-10J0D01*
G01*
X75256Y60819D02*
G03*
X75256Y60819I-107J0D01*
G01*
X68768Y59570D02*
G03*
X68768Y59688I0J59D01*
G01*
X69811Y58644D02*
G03*
X69693Y58644I-59J0D01*
G01*
X70311D02*
G03*
X70193Y58644I-59J0D01*
G01*
X69193Y60613D02*
G03*
X69311Y60613I59J0D01*
G01*
Y58644D02*
G03*
X69193Y58644I-59J0D01*
G01*
X69693Y60613D02*
G03*
X69811Y60613I59J0D01*
G01*
Y58644D02*
G03*
X69693Y58644I-59J0D01*
G01*
X70193Y60613D02*
G03*
X70311Y60613I59J0D01*
G01*
X70736Y59688D02*
G03*
X70736Y59570I0J-59D01*
G01*
X70657Y60387D02*
G03*
X70657Y60387I-98J0D01*
G01*
X71762Y49626D02*
G03*
X71762Y49626I-79J0D01*
G01*
X65404Y35325D02*
G03*
X65404Y35325I-118J0D01*
G01*
Y37293D02*
G03*
X65404Y37293I-118J0D01*
G01*
Y39262D02*
G03*
X65404Y39262I-118J0D01*
G01*
Y41230D02*
G03*
X65404Y41230I-118J0D01*
G01*
X75561Y50374D02*
Y51949D01*
X73986Y50374D02*
X75561D01*
X73986D02*
Y51949D01*
X75561D01*
X73986Y48159D02*
X75561D01*
X73986Y46585D02*
Y48159D01*
Y46585D02*
X75561D01*
Y48159D01*
X61102Y63661D02*
X62795D01*
X61102Y63543D02*
X62795D01*
X61083Y63091D02*
Y65965D01*
Y63091D02*
X62776D01*
Y65955D01*
X61083D02*
X62776D01*
X69114Y34565D02*
Y34673D01*
Y34358D02*
Y34467D01*
X69744Y34565D02*
Y34673D01*
Y34358D02*
Y34467D01*
X69468Y34437D02*
Y34594D01*
X69350Y34516D02*
X69468Y34594D01*
X69350Y34516D02*
X69468Y34437D01*
X69350D02*
Y34594D01*
X70768Y45787D02*
X71713D01*
Y46732D01*
X70768D02*
X71713D01*
X70768Y45787D02*
Y46732D01*
X71909Y46819D02*
X71988D01*
Y46701D02*
Y46819D01*
X71909Y46701D02*
X71988D01*
X71909Y45819D02*
X71988D01*
Y45701D02*
Y45819D01*
X71909Y45701D02*
X71988D01*
X70492Y46819D02*
X70571D01*
X70492Y46701D02*
Y46819D01*
Y46701D02*
X70571D01*
X70492Y46201D02*
X70571D01*
X70492D02*
Y46319D01*
X70571D01*
X70492Y45819D02*
X70571D01*
X70492Y45701D02*
Y45819D01*
Y45701D02*
X70571D01*
Y45433D02*
X71909D01*
Y47087D01*
X70571D02*
X71909D01*
X70571Y45433D02*
Y47087D01*
X78100Y65610D02*
Y65768D01*
X78022Y65610D02*
X78100D01*
X78022D02*
Y65768D01*
X77844Y65610D02*
Y65768D01*
X77766Y65610D02*
X77844D01*
X77766D02*
Y65768D01*
X77589Y65610D02*
Y65768D01*
X77510Y65610D02*
X77589D01*
X77510D02*
Y65768D01*
Y66260D02*
Y66417D01*
X77589D01*
Y66260D02*
Y66417D01*
X78022Y66260D02*
Y66417D01*
X78100D01*
Y66260D02*
Y66417D01*
X77766Y66260D02*
Y66417D01*
X77844D01*
Y66260D02*
Y66417D01*
X78199Y65768D02*
Y66260D01*
X77411D02*
X78199D01*
X77411Y65768D02*
Y66260D01*
Y65768D02*
X78199D01*
X62717Y47343D02*
X66772D01*
X62717Y50492D02*
X66772D01*
X62717Y47343D02*
Y50492D01*
X66772Y47343D02*
Y50492D01*
X77530Y38602D02*
X77854D01*
X77028D02*
X77411D01*
X76083Y36634D02*
X76407D01*
X76526D02*
X76909D01*
X77530D02*
X77854D01*
X77028D02*
X77411D01*
X76526Y38602D02*
X76909D01*
X77490Y37490D02*
X77953D01*
X77490D02*
Y37746D01*
X77953D01*
X77096Y38140D02*
Y38602D01*
X76841Y38140D02*
X77096D01*
X76841D02*
Y38602D01*
X76596Y38140D02*
Y38602D01*
X76341Y38140D02*
X76596D01*
X76341D02*
Y38602D01*
X77341Y36634D02*
Y37096D01*
X77596D01*
Y36634D02*
Y37096D01*
X77341Y38140D02*
Y38602D01*
Y38140D02*
X77596D01*
Y38602D01*
X77096Y36634D02*
Y37096D01*
X76841D02*
X77096D01*
X76841Y36634D02*
Y37096D01*
X75984Y36732D02*
Y37559D01*
X76801Y37490D02*
Y37746D01*
X75984Y37490D02*
X76801D01*
X76341Y36634D02*
Y37096D01*
X76596D01*
Y36634D02*
Y37096D01*
X75984Y36732D02*
X76083Y36634D01*
X75984Y37677D02*
Y38504D01*
X76083Y38602D02*
X76407D01*
X77953Y37677D02*
Y38504D01*
Y36732D02*
Y37559D01*
X77854Y38602D02*
X77953Y38504D01*
X77854Y36634D02*
X77953Y36732D01*
X75984Y38504D02*
X76083Y38602D01*
X75984Y37746D02*
X76801D01*
X69341Y41339D02*
X69380Y41299D01*
X68947Y41339D02*
X69341D01*
X68907Y41299D02*
X68947Y41339D01*
X69341Y41811D02*
X69380Y41850D01*
X68947Y41811D02*
X69341D01*
X68907Y41850D02*
X68947Y41811D01*
X69656Y41299D02*
Y41850D01*
X68632Y41299D02*
Y41850D01*
X74803Y43268D02*
X74843Y43307D01*
X74803Y43032D02*
Y43268D01*
Y43032D02*
X74843Y42992D01*
X74213Y43307D02*
X74252Y43268D01*
Y43032D02*
Y43268D01*
X74213Y42992D02*
X74252Y43032D01*
X74213Y43661D02*
X74843D01*
X74213Y42638D02*
X74843D01*
X71929Y36317D02*
Y37813D01*
X69961Y36317D02*
Y37813D01*
X70197Y36081D02*
X71693D01*
X70197Y38049D02*
X71693D01*
X71693D02*
X71929Y37813D01*
X69961D02*
X70197Y38049D01*
X71693Y36081D02*
X71929Y36317D01*
X69961D02*
X70197Y36081D01*
X78109Y48225D02*
Y48625D01*
Y48225D02*
X78309D01*
Y48625D01*
X78109D02*
X78309D01*
X78109Y48325D02*
X78309D01*
X78109Y48525D02*
X78309D01*
X78138Y51375D02*
Y51775D01*
Y51375D02*
X78338D01*
Y51775D01*
X78138D02*
X78338D01*
X78138Y51475D02*
X78338D01*
X78138Y51675D02*
X78338D01*
X77618Y62571D02*
Y62679D01*
Y62778D02*
Y62886D01*
X76988Y62571D02*
Y62679D01*
Y62778D02*
Y62886D01*
X77264Y62650D02*
Y62807D01*
Y62650D02*
X77382Y62728D01*
X77264Y62807D02*
X77382Y62728D01*
Y62650D02*
Y62807D01*
X74803Y59431D02*
Y60927D01*
X76772Y59431D02*
Y60927D01*
X75039Y61163D02*
X76535D01*
X75039Y59195D02*
X76535D01*
X74803Y59431D02*
X75039Y59195D01*
X76535D02*
X76772Y59431D01*
X74803Y60927D02*
X75039Y61163D01*
X76535D02*
X76772Y60927D01*
X68866Y58644D02*
X69191D01*
X69309D02*
X69693D01*
X70313Y60613D02*
X70638D01*
X69811D02*
X70195D01*
X68866D02*
X69191D01*
X69309D02*
X69693D01*
X69811Y58644D02*
X70195D01*
X68768Y59757D02*
X69230D01*
Y59501D02*
Y59757D01*
X68768Y59501D02*
X69230D01*
X69624Y58644D02*
Y59107D01*
X69880D01*
Y58644D02*
Y59107D01*
X70124Y58644D02*
Y59107D01*
X70380D01*
Y58644D02*
Y59107D01*
X69380Y60150D02*
Y60613D01*
X69124Y60150D02*
X69380D01*
X69124D02*
Y60613D01*
X69380Y58644D02*
Y59107D01*
X69124D02*
X69380D01*
X69124Y58644D02*
Y59107D01*
X69624Y60150D02*
Y60613D01*
Y60150D02*
X69880D01*
Y60613D01*
X70736Y59688D02*
Y60515D01*
X69919Y59501D02*
Y59757D01*
X70736D01*
X70380Y60150D02*
Y60613D01*
X70124Y60150D02*
X70380D01*
X70124D02*
Y60613D01*
X70638D02*
X70736Y60515D01*
Y58743D02*
Y59570D01*
X70313Y58644D02*
X70638D01*
X68768Y58743D02*
Y59570D01*
Y59688D02*
Y60515D01*
Y58743D02*
X68866Y58644D01*
X68768Y60515D02*
X68866Y60613D01*
X70638Y58644D02*
X70736Y58743D01*
X69919Y59501D02*
X70736D01*
X71821Y48583D02*
Y49528D01*
X70876D02*
X71821D01*
X70876Y48583D02*
Y49528D01*
Y48583D02*
X71821D01*
X70789Y49724D02*
Y49803D01*
X70907D01*
Y49724D02*
Y49803D01*
X71789Y49724D02*
Y49803D01*
X71907D01*
Y49724D02*
Y49803D01*
X70789Y48307D02*
Y48386D01*
Y48307D02*
X70907D01*
Y48386D01*
X71407Y48307D02*
Y48386D01*
X71289Y48307D02*
X71407D01*
X71289D02*
Y48386D01*
X71789Y48307D02*
Y48386D01*
Y48307D02*
X71907D01*
Y48386D01*
X72175D02*
Y49724D01*
X70522D02*
X72175D01*
X70522Y48386D02*
Y49724D01*
Y48386D02*
X72175D01*
X71850Y54557D02*
X72480D01*
X71850Y53533D02*
X72480D01*
X72441Y54163D02*
X72480Y54203D01*
X72441Y53927D02*
Y54163D01*
Y53927D02*
X72480Y53888D01*
X71850Y54203D02*
X71890Y54163D01*
Y53927D02*
Y54163D01*
X71850Y53888D02*
X71890Y53927D01*
X71762Y58760D02*
X72313D01*
X71762Y59783D02*
X72313D01*
X71762Y59035D02*
X71801Y59075D01*
Y59468D01*
X71762Y59508D02*
X71801Y59468D01*
X72274Y59075D02*
X72313Y59035D01*
X72274Y59075D02*
Y59468D01*
X72313Y59508D01*
X74415Y37831D02*
X74455Y37870D01*
Y38264D01*
X74415Y38303D02*
X74455Y38264D01*
X74927Y37870D02*
X74967Y37831D01*
X74927Y37870D02*
Y38264D01*
X74967Y38303D01*
X74415Y37555D02*
X74967D01*
X74415Y38579D02*
X74967D01*
X78110Y55423D02*
Y55974D01*
X77087Y55423D02*
Y55974D01*
X77795Y55463D02*
X77835Y55423D01*
X77402Y55463D02*
X77795D01*
X77362Y55423D02*
X77402Y55463D01*
X77795Y55935D02*
X77835Y55974D01*
X77402Y55935D02*
X77795D01*
X77362Y55974D02*
X77402Y55935D01*
X64911Y34941D02*
X65502D01*
X64911Y35138D02*
X65502D01*
Y34941D02*
Y35138D01*
X63425Y34055D02*
Y35630D01*
X65098D01*
Y34055D02*
Y35630D01*
X63425Y34055D02*
X65098D01*
X65502Y34547D02*
Y34744D01*
X64911D02*
X65502D01*
X64911Y34547D02*
X65502D01*
X64911Y36909D02*
X65502D01*
X64911Y37106D02*
X65502D01*
Y36909D02*
Y37106D01*
X63425Y36024D02*
Y37598D01*
X65098D01*
Y36024D02*
Y37598D01*
X63425Y36024D02*
X65098D01*
X65502Y36516D02*
Y36713D01*
X64911D02*
X65502D01*
X64911Y36516D02*
X65502D01*
X64911Y38878D02*
X65502D01*
X64911Y39075D02*
X65502D01*
Y38878D02*
Y39075D01*
X63425Y37992D02*
Y39567D01*
X65098D01*
Y37992D02*
Y39567D01*
X63425Y37992D02*
X65098D01*
X65502Y38484D02*
Y38681D01*
X64911D02*
X65502D01*
X64911Y38484D02*
X65502D01*
X64911Y40846D02*
X65502D01*
X64911Y41043D02*
X65502D01*
Y40846D02*
Y41043D01*
X63425Y39961D02*
Y41535D01*
X65098D01*
Y39961D02*
Y41535D01*
X63425Y39961D02*
X65098D01*
X65502Y40453D02*
Y40650D01*
X64911D02*
X65502D01*
X64911Y40453D02*
X65502D01*
G54D182*
X63352Y32724D02*
G03*
X63352Y32724I-59J0D01*
G01*
X76594Y32402D02*
G03*
X76594Y32402I-98J0D01*
G01*
X76890D02*
G03*
X76890Y32402I-394J0D01*
G01*
X80030Y48228D02*
G03*
X80030Y48228I-98J0D01*
G01*
X80325D02*
G03*
X80325Y48228I-394J0D01*
G01*
X80020Y51378D02*
G03*
X80020Y51378I-98J0D01*
G01*
X80315D02*
G03*
X80315Y51378I-394J0D01*
G01*
X70354Y64833D02*
G03*
X70354Y64833I-98J0D01*
G01*
X70650D02*
G03*
X70650Y64833I-394J0D01*
G01*
X64827Y42972D02*
G03*
X64827Y42972I-63J0D01*
G01*
X71420Y40960D02*
Y41600D01*
X71100D02*
X71420D01*
X71100Y40960D02*
Y41600D01*
Y40960D02*
X71420D01*
X71100Y41479D02*
X71420D01*
X71097Y41083D02*
X71417D01*
X62963Y32106D02*
X63218D01*
X62963D02*
Y32303D01*
X63218D01*
X63888D02*
X64144D01*
Y32106D02*
Y32303D01*
X63888Y32106D02*
X64144D01*
X63888Y32677D02*
X64144D01*
Y32480D02*
Y32677D01*
X63888Y32480D02*
X64144D01*
X62963D02*
X63218D01*
X62963D02*
Y32677D01*
X63218D01*
X63888Y31929D02*
X64144D01*
Y31732D02*
Y31929D01*
X63888Y31732D02*
X64144D01*
X62963D02*
X63218D01*
X62963D02*
Y31929D01*
X63218D01*
X63888Y31614D02*
Y32795D01*
X63218Y31614D02*
X63888D01*
X63218Y32795D02*
X63888D01*
X63218Y31614D02*
Y32795D01*
X64478Y57303D02*
Y57697D01*
X63494D02*
X64478D01*
X63494Y57303D02*
Y57697D01*
Y57303D02*
X64478D01*
Y58189D02*
Y58583D01*
X63494D02*
X64478D01*
X63494Y58189D02*
Y58583D01*
Y58189D02*
X64478D01*
Y59075D02*
Y59469D01*
X63494D02*
X64478D01*
X63494Y59075D02*
Y59469D01*
Y59075D02*
X64478D01*
X63494Y57303D02*
Y59961D01*
X61722D02*
X63494D01*
X61722Y56811D02*
Y59961D01*
Y56811D02*
X63494D01*
Y57303D01*
X61230Y59173D02*
X61722D01*
X61230Y57598D02*
Y59173D01*
Y57598D02*
X61722D01*
Y59370D02*
Y59961D01*
X63494D01*
Y56811D02*
Y59961D01*
X61722Y56811D02*
Y57402D01*
Y56811D02*
X63494D01*
X77008Y31890D02*
Y32913D01*
X75984Y31890D02*
X77008D01*
X75984D02*
Y32913D01*
X77008D01*
X75325Y41777D02*
X75413D01*
Y41718D02*
Y41777D01*
X75325Y41718D02*
Y41777D01*
Y41718D02*
X75413D01*
X75266Y41668D02*
X75837D01*
X75266D02*
Y42082D01*
X75837Y41668D02*
Y42082D01*
X75266D02*
X75837D01*
X68514Y41850D02*
X69774D01*
Y41299D02*
Y41850D01*
X68514Y41299D02*
X69774D01*
X68514D02*
Y41850D01*
X74213Y42520D02*
Y43780D01*
X74843D01*
Y42520D02*
Y43780D01*
X74213Y42520D02*
X74843D01*
X74670Y34599D02*
X75310D01*
X74670Y34279D02*
Y34599D01*
Y34279D02*
X75310D01*
Y34599D01*
X74791Y34279D02*
Y34599D01*
X75187Y34276D02*
Y34596D01*
X74649Y35616D02*
Y35866D01*
Y35616D02*
X74799D01*
Y35866D01*
X75049Y35616D02*
Y35866D01*
Y35616D02*
X75149D01*
Y35866D01*
X75399Y35616D02*
Y35866D01*
Y35616D02*
X75549D01*
Y35866D01*
X75399Y36466D02*
Y36716D01*
X75549D01*
Y36466D02*
Y36716D01*
X74799Y36466D02*
Y36716D01*
X74649D02*
X74799D01*
X74649Y36466D02*
Y36716D01*
X74499Y36316D02*
X74649D01*
Y36016D02*
Y36316D01*
X74499Y36016D02*
X74649D01*
X74489Y35866D02*
Y36466D01*
X75709D01*
X74489Y35866D02*
X75709D01*
Y36466D01*
X73450Y34547D02*
X73770D01*
X73452Y34943D02*
X73772D01*
X73452Y34424D02*
X73772D01*
X73452D02*
Y35064D01*
X73772D01*
Y34424D02*
Y35064D01*
X72987Y34557D02*
X73307D01*
X72990Y34953D02*
X73310D01*
X72990Y34434D02*
X73310D01*
X72990D02*
Y35074D01*
X73310D01*
Y34434D02*
Y35074D01*
X73425Y62667D02*
X73745D01*
X73423Y62271D02*
X73743D01*
X73423Y62790D02*
X73743D01*
Y62150D02*
Y62790D01*
X73423Y62150D02*
X73743D01*
X73423D02*
Y62790D01*
X72963Y62677D02*
X73283D01*
X72960Y62281D02*
X73280D01*
X72960Y62800D02*
X73280D01*
Y62160D02*
Y62800D01*
X72960Y62160D02*
X73280D01*
X72960D02*
Y62800D01*
X71422Y62645D02*
X72062D01*
Y62965D01*
X71422D02*
X72062D01*
X71422Y62645D02*
Y62965D01*
X71941Y62645D02*
Y62965D01*
X71545Y62648D02*
Y62968D01*
X72084Y61378D02*
Y61628D01*
X71934D02*
X72084D01*
X71934Y61378D02*
Y61628D01*
X71684Y61378D02*
Y61628D01*
X71584D02*
X71684D01*
X71584Y61378D02*
Y61628D01*
X71334Y61378D02*
Y61628D01*
X71184D02*
X71334D01*
X71184Y61378D02*
Y61628D01*
X71334Y60528D02*
Y60778D01*
X71184Y60528D02*
X71334D01*
X71184D02*
Y60778D01*
X71934Y60528D02*
Y60778D01*
Y60528D02*
X72084D01*
Y60778D01*
Y60928D02*
X72234D01*
X72084D02*
Y61228D01*
X72234D01*
X72244Y60778D02*
Y61378D01*
X71023Y60778D02*
X72244D01*
X71023Y61378D02*
X72244D01*
X71023Y60778D02*
Y61378D01*
X69567Y35520D02*
X69887D01*
X69564Y35123D02*
X69884D01*
X69564Y35643D02*
X69884D01*
Y35003D02*
Y35643D01*
X69564Y35003D02*
X69884D01*
X69564D02*
Y35643D01*
X69035Y36954D02*
Y37274D01*
X68639Y36956D02*
Y37276D01*
X69159Y36956D02*
Y37276D01*
X68519Y36956D02*
X69159D01*
X68519D02*
Y37276D01*
X69159D01*
X73130Y36698D02*
Y37018D01*
X72734Y36700D02*
Y37020D01*
X73253Y36700D02*
Y37020D01*
X72613Y36700D02*
X73253D01*
X72613D02*
Y37020D01*
X73253D01*
X72687Y39368D02*
Y39688D01*
X73083Y39366D02*
Y39686D01*
X72564Y39366D02*
Y39686D01*
X73204D01*
Y39366D02*
Y39686D01*
X72564Y39366D02*
X73204D01*
X73533Y38925D02*
X73853D01*
X73531Y38529D02*
X73851D01*
X73531Y39048D02*
X73851D01*
Y38408D02*
Y39048D01*
X73531Y38408D02*
X73851D01*
X73531D02*
Y39048D01*
X70829Y40960D02*
Y41600D01*
X70509D02*
X70829D01*
X70509Y40960D02*
Y41600D01*
Y40960D02*
X70829D01*
X70509Y41479D02*
X70829D01*
X70507Y41083D02*
X70827D01*
X71161Y40280D02*
Y40600D01*
X70765Y40283D02*
Y40603D01*
X71285Y40283D02*
Y40603D01*
X70645Y40283D02*
X71285D01*
X70645D02*
Y40603D01*
X71285D01*
X73430Y40603D02*
X74070D01*
X73430Y40283D02*
Y40603D01*
Y40283D02*
X74070D01*
Y40603D01*
X73551Y40283D02*
Y40603D01*
X73947Y40280D02*
Y40600D01*
X76865Y39727D02*
X77505D01*
X76865Y39407D02*
Y39727D01*
Y39407D02*
X77505D01*
Y39727D01*
X76986Y39407D02*
Y39727D01*
X77382Y39404D02*
Y39724D01*
X76944Y36241D02*
X77584D01*
X76944Y35921D02*
Y36241D01*
Y35921D02*
X77584D01*
Y36241D01*
X77064Y35921D02*
Y36241D01*
X77461Y35918D02*
Y36238D01*
X76585Y34803D02*
Y35123D01*
X76981Y34801D02*
Y35121D01*
X76462Y34801D02*
Y35121D01*
X77101D01*
Y34801D02*
Y35121D01*
X76462Y34801D02*
X77101D01*
X77408Y34470D02*
X77728D01*
X77410Y34867D02*
X77730D01*
X77410Y34347D02*
X77730D01*
X77410D02*
Y34987D01*
X77730D01*
Y34347D02*
Y34987D01*
X76978Y34227D02*
Y34547D01*
X76582Y34230D02*
Y34550D01*
X77101Y34230D02*
Y34550D01*
X76462Y34230D02*
X77101D01*
X76462D02*
Y34550D01*
X77101D01*
X76845Y61724D02*
X77165D01*
X76848Y62121D02*
X77168D01*
X76848Y61601D02*
X77168D01*
X76848D02*
Y62241D01*
X77168D01*
Y61601D02*
Y62241D01*
X77697Y59970D02*
Y60290D01*
X78093Y59968D02*
Y60288D01*
X77574Y59968D02*
Y60288D01*
X78214D01*
Y59968D02*
Y60288D01*
X77574Y59968D02*
X78214D01*
X73602Y60226D02*
Y60546D01*
X73999Y60224D02*
Y60544D01*
X73479Y60224D02*
Y60544D01*
X74119D01*
Y60224D02*
Y60544D01*
X73479Y60224D02*
X74119D01*
X74045Y57556D02*
Y57876D01*
X73649Y57558D02*
Y57878D01*
X74168Y57558D02*
Y57878D01*
X73528Y57558D02*
X74168D01*
X73528D02*
Y57878D01*
X74168D01*
X72879Y58319D02*
X73199D01*
X72881Y58715D02*
X73201D01*
X72881Y58196D02*
X73201D01*
X72881D02*
Y58836D01*
X73201D01*
Y58196D02*
Y58836D01*
X75854Y55674D02*
Y56314D01*
Y55674D02*
X76174D01*
Y56314D01*
X75854D02*
X76174D01*
X75854Y55795D02*
X76174D01*
X75856Y56191D02*
X76176D01*
X75571Y56654D02*
Y56974D01*
X75967Y56651D02*
Y56971D01*
X75448Y56651D02*
Y56971D01*
X76088D01*
Y56651D02*
Y56971D01*
X75448Y56651D02*
X76088D01*
X75312Y55674D02*
Y56314D01*
Y55674D02*
X75632D01*
Y56314D01*
X75312D02*
X75632D01*
X75312Y55795D02*
X75632D01*
X75315Y56191D02*
X75635D01*
X71299Y55561D02*
X71388D01*
X71299D02*
Y55620D01*
X71388Y55561D02*
Y55620D01*
X71299D02*
X71388D01*
X70876Y55669D02*
X71447D01*
Y55256D02*
Y55669D01*
X70876Y55256D02*
Y55669D01*
Y55256D02*
X71447D01*
X72682Y56651D02*
X73322D01*
Y56971D01*
X72682D02*
X73322D01*
X72682Y56651D02*
Y56971D01*
X73201Y56651D02*
Y56971D01*
X72805Y56654D02*
Y56974D01*
X69227Y57576D02*
X69867D01*
Y57896D01*
X69227D02*
X69867D01*
X69227Y57576D02*
Y57896D01*
X69747Y57576D02*
Y57896D01*
X69350Y57579D02*
Y57899D01*
X69129Y61003D02*
X69769D01*
Y61323D01*
X69129D02*
X69769D01*
X69129Y61003D02*
Y61323D01*
X69648Y61003D02*
Y61323D01*
X69252Y61006D02*
Y61326D01*
X70148Y62121D02*
Y62441D01*
X69751Y62123D02*
Y62443D01*
X70271Y62123D02*
Y62443D01*
X69631Y62123D02*
X70271D01*
X69631D02*
Y62443D01*
X70271D01*
X68985Y62774D02*
X69305D01*
X68982Y62377D02*
X69302D01*
X68982Y62897D02*
X69302D01*
Y62257D02*
Y62897D01*
X68982Y62257D02*
X69302D01*
X68982D02*
Y62897D01*
X69754Y62697D02*
Y63017D01*
X70150Y62694D02*
Y63014D01*
X69631Y62694D02*
Y63014D01*
X70271D01*
Y62694D02*
Y63014D01*
X69631Y62694D02*
X70271D01*
X79419Y48740D02*
X80443D01*
Y47717D02*
Y48740D01*
X79419Y47717D02*
X80443D01*
X79419D02*
Y48740D01*
X79409Y51890D02*
X80433D01*
Y50866D02*
Y51890D01*
X79409Y50866D02*
X80433D01*
X79409D02*
Y51890D01*
X69744Y64321D02*
Y65344D01*
X70768D01*
Y64321D02*
Y65344D01*
X69744Y64321D02*
X70768D01*
X63829Y44567D02*
Y44887D01*
X64225Y44564D02*
Y44884D01*
X63706Y44564D02*
Y44884D01*
X64346D01*
Y44564D02*
Y44884D01*
X63706Y44564D02*
X64346D01*
X63829Y45069D02*
Y45389D01*
X64225Y45066D02*
Y45386D01*
X63706Y45066D02*
Y45386D01*
X64346D01*
Y45066D02*
Y45386D01*
X63706Y45066D02*
X64346D01*
X65192Y62480D02*
X65512D01*
X65194Y62877D02*
X65514D01*
X65194Y62357D02*
X65514D01*
X65194D02*
Y62997D01*
X65514D01*
Y62357D02*
Y62997D01*
X65197Y66240D02*
X65517D01*
X65194Y65844D02*
X65514D01*
X65194Y66363D02*
X65514D01*
Y65723D02*
Y66363D01*
X65194Y65723D02*
X65514D01*
X65194D02*
Y66363D01*
X65713Y62480D02*
X66033D01*
X65716Y62877D02*
X66036D01*
X65716Y62357D02*
X66036D01*
X65716D02*
Y62997D01*
X66036D01*
Y62357D02*
Y62997D01*
X65984Y66240D02*
X66304D01*
X65982Y65844D02*
X66302D01*
X65982Y66363D02*
X66302D01*
Y65723D02*
Y66363D01*
X65982Y65723D02*
X66302D01*
X65982D02*
Y66363D01*
X65807Y32067D02*
Y32387D01*
X66203Y32064D02*
Y32384D01*
X65684Y32064D02*
Y32384D01*
X66324D01*
Y32064D02*
Y32384D01*
X65684Y32064D02*
X66324D01*
X65256Y33031D02*
Y33351D01*
X65652Y33029D02*
Y33349D01*
X65133Y33029D02*
Y33349D01*
X65773D01*
Y33029D02*
Y33349D01*
X65133Y33029D02*
X65773D01*
X76658Y65906D02*
X76978D01*
X76661Y66302D02*
X76981D01*
X76661Y65782D02*
X76981D01*
X76661D02*
Y66422D01*
X76981D01*
Y65782D02*
Y66422D01*
X76949Y64793D02*
Y65113D01*
X77345Y64791D02*
Y65111D01*
X76826Y64791D02*
Y65111D01*
X77466D01*
Y64791D02*
Y65111D01*
X76826Y64791D02*
X77466D01*
X79065Y65477D02*
Y65797D01*
X78669Y65480D02*
Y65800D01*
X79188Y65480D02*
Y65800D01*
X78548Y65480D02*
X79188D01*
X78548D02*
Y65800D01*
X79188D01*
X74961Y66299D02*
X75281D01*
X74958Y65903D02*
X75278D01*
X74958Y66422D02*
X75278D01*
Y65782D02*
Y66422D01*
X74958Y65782D02*
X75278D01*
X74958D02*
Y66422D01*
X77224Y66855D02*
Y67175D01*
X76828Y66858D02*
Y67178D01*
X77348Y66858D02*
Y67178D01*
X76708Y66858D02*
X77348D01*
X76708D02*
Y67178D01*
X77348D01*
X61110Y54404D02*
Y55044D01*
Y54404D02*
X61430D01*
Y55044D01*
X61110D02*
X61430D01*
X61110Y54525D02*
X61430D01*
X61112Y54921D02*
X61432D01*
X62417Y54377D02*
X62667D01*
X62417Y54227D02*
Y54377D01*
Y54227D02*
X62667D01*
X62417Y53977D02*
X62667D01*
X62417Y53877D02*
Y53977D01*
Y53877D02*
X62667D01*
X62417Y53627D02*
X62667D01*
X62417Y53477D02*
Y53627D01*
Y53477D02*
X62667D01*
X63267Y53627D02*
X63517D01*
Y53477D02*
Y53627D01*
X63267Y53477D02*
X63517D01*
X63267Y54227D02*
X63517D01*
Y54377D01*
X63267D02*
X63517D01*
X63117D02*
Y54527D01*
X62817Y54377D02*
X63117D01*
X62817D02*
Y54527D01*
X62667Y54537D02*
X63267D01*
Y53317D02*
Y54537D01*
X62667Y53317D02*
Y54537D01*
Y53317D02*
X63267D01*
X63406Y56102D02*
Y56422D01*
X63802Y56100D02*
Y56420D01*
X63282Y56100D02*
Y56420D01*
X63922D01*
Y56100D02*
Y56420D01*
X63282Y56100D02*
X63922D01*
X64006Y55561D02*
Y55881D01*
X64402Y55559D02*
Y55879D01*
X63883Y55559D02*
Y55879D01*
X64523D01*
Y55559D02*
Y55879D01*
X63883Y55559D02*
X64523D01*
X65935Y46727D02*
Y47047D01*
X65539Y46730D02*
Y47050D01*
X66058Y46730D02*
Y47050D01*
X65418Y46730D02*
X66058D01*
X65418D02*
Y47050D01*
X66058D01*
X66043Y50906D02*
Y51226D01*
X66440Y50903D02*
Y51223D01*
X65920Y50903D02*
Y51223D01*
X66560D01*
Y50903D02*
Y51223D01*
X65920Y50903D02*
X66560D01*
X73538Y52916D02*
X74178D01*
X73538Y52596D02*
Y52916D01*
Y52596D02*
X74178D01*
Y52916D01*
X73659Y52596D02*
Y52916D01*
X74055Y52593D02*
Y52913D01*
X77150Y48967D02*
X77470D01*
X77153Y49363D02*
X77473D01*
X77153Y48843D02*
X77473D01*
X77153D02*
Y49483D01*
X77473D01*
Y48843D02*
Y49483D01*
X76339Y48711D02*
Y49031D01*
X76735Y48708D02*
Y49028D01*
X76215Y48708D02*
Y49028D01*
X76855D01*
Y48708D02*
Y49028D01*
X76215Y48708D02*
X76855D01*
X76902Y50763D02*
Y51403D01*
X76582D02*
X76902D01*
X76582Y50763D02*
Y51403D01*
Y50763D02*
X76902D01*
X76582Y51282D02*
X76902D01*
X76580Y50886D02*
X76900D01*
X75888Y49355D02*
Y49995D01*
X75568D02*
X75888D01*
X75568Y49355D02*
Y49995D01*
Y49355D02*
X75888D01*
X75568Y49875D02*
X75888D01*
X75566Y49478D02*
X75886D01*
X76806Y44717D02*
X77446D01*
X76806Y44397D02*
Y44717D01*
Y44397D02*
X77446D01*
Y44717D01*
X76927Y44397D02*
Y44717D01*
X77323Y44395D02*
Y44715D01*
X77141Y45167D02*
X77461D01*
X77143Y45564D02*
X77463D01*
X77143Y45044D02*
X77463D01*
X77143D02*
Y45684D01*
X77463D01*
Y45044D02*
Y45684D01*
X76339Y44911D02*
Y45231D01*
X76735Y44909D02*
Y45229D01*
X76215Y44909D02*
Y45229D01*
X76855D01*
Y44909D02*
Y45229D01*
X76215Y44909D02*
X76855D01*
X76902Y46963D02*
Y47603D01*
X76582D02*
X76902D01*
X76582Y46963D02*
Y47603D01*
Y46963D02*
X76902D01*
X76582Y47483D02*
X76902D01*
X76580Y47087D02*
X76900D01*
X75888Y45556D02*
Y46196D01*
X75568D02*
X75888D01*
X75568Y45556D02*
Y46196D01*
Y45556D02*
X75888D01*
X75568Y46075D02*
X75888D01*
X75566Y45679D02*
X75886D01*
X72106Y55187D02*
Y55507D01*
X72503Y55184D02*
Y55504D01*
X71983Y55184D02*
Y55504D01*
X72623D01*
Y55184D02*
Y55504D01*
X71983Y55184D02*
X72623D01*
X74547Y41816D02*
Y42136D01*
X74151Y41818D02*
Y42138D01*
X74670Y41818D02*
Y42138D01*
X74030Y41818D02*
X74670D01*
X74030D02*
Y42138D01*
X74670D01*
X77143Y46373D02*
Y47013D01*
Y46373D02*
X77463D01*
Y47013D01*
X77143D02*
X77463D01*
X77143Y46494D02*
X77463D01*
X77146Y46890D02*
X77466D01*
X77153Y50172D02*
Y50812D01*
Y50172D02*
X77473D01*
Y50812D01*
X77153D02*
X77473D01*
X77153Y50293D02*
X77473D01*
X77156Y50689D02*
X77476D01*
X72488Y62160D02*
Y62800D01*
Y62160D02*
X72808D01*
Y62800D01*
X72488D02*
X72808D01*
X72488Y62281D02*
X72808D01*
X72490Y62677D02*
X72810D01*
X74245Y34424D02*
Y35064D01*
X73925D02*
X74245D01*
X73925Y34424D02*
Y35064D01*
Y34424D02*
X74245D01*
X73925Y34943D02*
X74245D01*
X73922Y34547D02*
X74242D01*
X63548Y51585D02*
X63868D01*
X63551Y51981D02*
X63871D01*
X63551Y51462D02*
X63871D01*
X63551D02*
Y52101D01*
X63871D01*
Y51462D02*
Y52101D01*
X71850Y54675D02*
X72480D01*
X71850Y53415D02*
Y54675D01*
Y53415D02*
X72480D01*
Y54675D01*
X71762Y58642D02*
X72313D01*
Y59902D01*
X71762D02*
X72313D01*
X71762Y58642D02*
Y59902D01*
X74967Y37437D02*
Y38697D01*
X74415Y37437D02*
X74967D01*
X74415D02*
Y38697D01*
X74967D01*
X78228Y55423D02*
Y55974D01*
X76968D02*
X78228D01*
X76968Y55423D02*
Y55974D01*
Y55423D02*
X78228D01*
X73602Y45438D02*
Y45758D01*
X73206Y45440D02*
Y45760D01*
X73726Y45440D02*
Y45760D01*
X73086Y45440D02*
X73726D01*
X73086D02*
Y45760D01*
X73726D01*
X74331Y45807D02*
X74902D01*
Y45394D02*
Y45807D01*
X74331Y45394D02*
Y45807D01*
Y45394D02*
X74902D01*
X74390Y45443D02*
X74478D01*
X74390D02*
Y45502D01*
X74478Y45443D02*
Y45502D01*
X74390D02*
X74478D01*
X73406Y47864D02*
X73726D01*
X73403Y47468D02*
X73723D01*
X73403Y47987D02*
X73723D01*
Y47347D02*
Y47987D01*
X73403Y47347D02*
X73723D01*
X73403D02*
Y47987D01*
X73602Y49267D02*
Y49587D01*
X73206Y49269D02*
Y49589D01*
X73726Y49269D02*
Y49589D01*
X73086Y49269D02*
X73726D01*
X73086D02*
Y49589D01*
X73726D01*
X74341Y49513D02*
X74911D01*
Y49099D02*
Y49513D01*
X74341Y49099D02*
Y49513D01*
Y49099D02*
X74911D01*
X74400Y49149D02*
X74488D01*
X74400D02*
Y49208D01*
X74488Y49149D02*
Y49208D01*
X74400D02*
X74488D01*
X73406Y51644D02*
X73726D01*
X73403Y51247D02*
X73723D01*
X73403Y51767D02*
X73723D01*
Y51127D02*
Y51767D01*
X73403Y51127D02*
X73723D01*
X73403D02*
Y51767D01*
X66375Y35015D02*
Y35655D01*
Y35015D02*
X66695D01*
Y35655D01*
X66375D02*
X66695D01*
X66375Y35135D02*
X66695D01*
X66378Y35531D02*
X66698D01*
X66375Y36973D02*
Y37613D01*
Y36973D02*
X66695D01*
Y37613D01*
X66375D02*
X66695D01*
X66375Y37094D02*
X66695D01*
X66378Y37490D02*
X66698D01*
X66385Y38952D02*
Y39592D01*
Y38952D02*
X66705D01*
Y39592D01*
X66385D02*
X66705D01*
X66385Y39072D02*
X66705D01*
X66388Y39469D02*
X66708D01*
X66375Y40920D02*
Y41560D01*
Y40920D02*
X66695D01*
Y41560D01*
X66375D02*
X66695D01*
X66375Y41041D02*
X66695D01*
X66378Y41437D02*
X66698D01*
X65844Y35015D02*
Y35655D01*
Y35015D02*
X66164D01*
Y35655D01*
X65844D02*
X66164D01*
X65844Y35135D02*
X66164D01*
X65846Y35531D02*
X66166D01*
X65844Y36973D02*
Y37613D01*
Y36973D02*
X66164D01*
Y37613D01*
X65844D02*
X66164D01*
X65844Y37094D02*
X66164D01*
X65846Y37490D02*
X66166D01*
X65854Y38952D02*
Y39592D01*
Y38952D02*
X66174D01*
Y39592D01*
X65854D02*
X66174D01*
X65854Y39072D02*
X66174D01*
X65856Y39469D02*
X66176D01*
X65844Y40920D02*
Y41560D01*
Y40920D02*
X66164D01*
Y41560D01*
X65844D02*
X66164D01*
X65844Y41041D02*
X66164D01*
X65846Y41437D02*
X66166D01*
X65709Y42972D02*
X66102D01*
Y43051D01*
X65709D02*
X66102D01*
X65709Y42776D02*
X66102D01*
Y42854D01*
X65709D02*
X66102D01*
X65709Y42579D02*
X66102D01*
Y42657D01*
X65709D02*
X66102D01*
X65709Y42382D02*
X66102D01*
Y42461D01*
X65709D02*
X66102D01*
X65709Y42185D02*
X66102D01*
Y42264D01*
X65709D02*
X66102D01*
X64094Y42972D02*
X64488D01*
X64094D02*
Y43051D01*
X64488D01*
X64094Y42776D02*
X64488D01*
X64094D02*
Y42854D01*
X64488D01*
X64094Y42579D02*
X64488D01*
X64094D02*
Y42657D01*
X64488D01*
X64094Y42382D02*
X64488D01*
X64094D02*
Y42461D01*
X64488D01*
X64094Y42185D02*
X64488D01*
X64094D02*
Y42264D01*
X64488D01*
Y42008D02*
Y43228D01*
X65709D01*
Y42008D02*
Y43228D01*
X64488Y42008D02*
X65709D01*
G54D183*
X66524Y43772D02*
G03*
X66524Y43772I-71J0D01*
G01*
X71732Y51220D02*
Y51850D01*
Y51220D02*
X72047D01*
Y51850D01*
X71732D02*
X72047D01*
X71732Y51693D02*
X72047D01*
X71732Y51378D02*
X72047D01*
X70079Y49813D02*
Y50443D01*
Y49813D02*
X70394D01*
Y50443D01*
X70079D02*
X70394D01*
X70079Y50285D02*
X70394D01*
X70079Y49970D02*
X70394D01*
X68888Y47815D02*
Y48445D01*
X68573D02*
X68888D01*
X68573Y47815D02*
Y48445D01*
Y47815D02*
X68888D01*
X68573Y47972D02*
X68888D01*
X68573Y48287D02*
X68888D01*
X70010Y47205D02*
X70640D01*
Y47520D01*
X70010D02*
X70640D01*
X70010Y47205D02*
Y47520D01*
X70167Y47205D02*
Y47520D01*
X70482Y47205D02*
Y47520D01*
X69114Y34358D02*
X69744D01*
X69114Y34673D02*
X69744D01*
X69252Y34358D02*
Y34673D01*
X69606Y34358D02*
Y34673D01*
X64684Y45302D02*
X65134D01*
X64684Y45142D02*
Y45302D01*
Y45142D02*
X65134D01*
X64684Y44802D02*
X65134D01*
X64684Y44642D02*
Y44802D01*
Y44642D02*
X65134D01*
X64684Y44302D02*
X65134D01*
X64684Y44142D02*
Y44302D01*
Y44142D02*
X65134D01*
X64684Y43802D02*
X65134D01*
X64684Y43642D02*
Y43802D01*
Y43642D02*
X65134D01*
X66674D02*
X67124D01*
Y43802D01*
X66674D02*
X67124D01*
X66674Y44142D02*
X67124D01*
Y44302D01*
X66674D02*
X67124D01*
X66674Y44642D02*
X67124D01*
Y44802D01*
X66674D02*
X67124D01*
X66674Y45142D02*
X67124D01*
Y45302D01*
X66674D02*
X67124D01*
X66691Y43488D02*
Y45457D01*
X65116D02*
X66691D01*
X65116Y43488D02*
Y45457D01*
Y43488D02*
X66691D01*
X70915Y34124D02*
Y34606D01*
X71467Y34114D02*
Y34606D01*
X71585Y34114D02*
Y34606D01*
X70797D02*
X71585D01*
X70797Y34114D02*
Y34606D01*
Y34114D02*
X71585D01*
X70974Y31683D02*
Y32313D01*
Y31683D02*
X71289D01*
Y32313D01*
X70974D02*
X71289D01*
X70974Y32156D02*
X71289D01*
X70974Y31841D02*
X71289D01*
X75797Y62638D02*
Y63120D01*
X75246Y62638D02*
Y63130D01*
X75128Y62638D02*
Y63130D01*
Y62638D02*
X75915D01*
Y63130D01*
X75128D02*
X75915D01*
X69291Y39350D02*
Y39980D01*
Y39350D02*
X69606D01*
Y39980D01*
X69291D02*
X69606D01*
X69291Y39823D02*
X69606D01*
X69291Y39508D02*
X69606D01*
X77441Y57264D02*
Y57894D01*
X77126D02*
X77441D01*
X77126Y57264D02*
Y57894D01*
Y57264D02*
X77441D01*
X77126Y57421D02*
X77441D01*
X77126Y57736D02*
X77441D01*
X74675Y35164D02*
X75305D01*
X74675Y34849D02*
Y35164D01*
Y34849D02*
X75305D01*
Y35164D01*
X75148Y34849D02*
Y35164D01*
X74833Y34849D02*
Y35164D01*
X73947Y36752D02*
Y37382D01*
Y36752D02*
X74262D01*
Y37382D01*
X73947D02*
X74262D01*
X73947Y37224D02*
X74262D01*
X73947Y36909D02*
X74262D01*
X70689Y38927D02*
Y39409D01*
X71240Y38917D02*
Y39409D01*
X71358Y38917D02*
Y39409D01*
X70571D02*
X71358D01*
X70571Y38917D02*
Y39409D01*
Y38917D02*
X71358D01*
X71427Y62080D02*
X72057D01*
Y62395D01*
X71427D02*
X72057D01*
X71427Y62080D02*
Y62395D01*
X71585Y62080D02*
Y62395D01*
X71900Y62080D02*
Y62395D01*
X72785Y59862D02*
Y60492D01*
X72470D02*
X72785D01*
X72470Y59862D02*
Y60492D01*
Y59862D02*
X72785D01*
X72470Y60020D02*
X72785D01*
X72470Y60335D02*
X72785D01*
X76043Y57835D02*
Y58317D01*
X75492Y57835D02*
Y58327D01*
X75374Y57835D02*
Y58327D01*
Y57835D02*
X76161D01*
Y58327D01*
X75374D02*
X76161D01*
X64065Y43593D02*
Y44222D01*
Y43593D02*
X64380D01*
Y44222D01*
X64065D02*
X64380D01*
X64065Y44065D02*
X64380D01*
X64065Y43750D02*
X64380D01*
X72451Y48455D02*
X73081D01*
Y48770D01*
X72451D02*
X73081D01*
X72451Y48455D02*
Y48770D01*
X72608Y48455D02*
Y48770D01*
X72923Y48455D02*
Y48770D01*
X75364Y49360D02*
Y49990D01*
X75049D02*
X75364D01*
X75049Y49360D02*
Y49990D01*
Y49360D02*
X75364D01*
X75049Y49518D02*
X75364D01*
X75049Y49833D02*
X75364D01*
X77992Y65207D02*
X78622D01*
X77992Y64892D02*
Y65207D01*
Y64892D02*
X78622D01*
Y65207D01*
X78465Y64892D02*
Y65207D01*
X78150Y64892D02*
Y65207D01*
X69311Y44498D02*
X69941D01*
X69311Y44183D02*
Y44498D01*
Y44183D02*
X69941D01*
Y44498D01*
X69783Y44183D02*
Y44498D01*
X69468Y44183D02*
Y44498D01*
X68455Y51102D02*
Y51732D01*
Y51102D02*
X68770D01*
Y51732D01*
X68455D02*
X68770D01*
X68455Y51575D02*
X68770D01*
X68455Y51260D02*
X68770D01*
X68524Y35541D02*
X69154D01*
X68524Y35226D02*
Y35541D01*
Y35226D02*
X69154D01*
Y35541D01*
X68996Y35226D02*
Y35541D01*
X68681Y35226D02*
Y35541D01*
X68524Y35974D02*
X69154D01*
X68524Y35659D02*
Y35974D01*
Y35659D02*
X69154D01*
Y35974D01*
X68996Y35659D02*
Y35974D01*
X68681Y35659D02*
Y35974D01*
X77579Y61703D02*
X78209D01*
Y62018D01*
X77579D02*
X78209D01*
X77579Y61703D02*
Y62018D01*
X77736Y61703D02*
Y62018D01*
X78051Y61703D02*
Y62018D01*
X77579Y61270D02*
X78209D01*
Y61585D01*
X77579D02*
X78209D01*
X77579Y61270D02*
Y61585D01*
X77736Y61270D02*
Y61585D01*
X78051Y61270D02*
Y61585D01*
X70522Y32608D02*
X71152D01*
Y32923D01*
X70522D02*
X71152D01*
X70522Y32608D02*
Y32923D01*
X70679Y32608D02*
Y32923D01*
X70994Y32608D02*
Y32923D01*
X70226Y35215D02*
X70856D01*
X70226Y34900D02*
Y35215D01*
Y34900D02*
X70856D01*
Y35215D01*
X70699Y34900D02*
Y35215D01*
X70384Y34900D02*
Y35215D01*
X71526Y35008D02*
X72156D01*
Y35323D01*
X71526D02*
X72156D01*
X71526Y35008D02*
Y35323D01*
X71683Y35008D02*
Y35323D01*
X71998Y35008D02*
Y35323D01*
X70226Y35766D02*
X70856D01*
X70226Y35451D02*
Y35766D01*
Y35451D02*
X70856D01*
Y35766D01*
X70699Y35451D02*
Y35766D01*
X70384Y35451D02*
Y35766D01*
X71526Y35480D02*
X72156D01*
Y35795D01*
X71526D02*
X72156D01*
X71526Y35480D02*
Y35795D01*
X71683Y35480D02*
Y35795D01*
X71998Y35480D02*
Y35795D01*
X68524Y36407D02*
X69154D01*
X68524Y36093D02*
Y36407D01*
Y36093D02*
X69154D01*
Y36407D01*
X68996Y36093D02*
Y36407D01*
X68681Y36093D02*
Y36407D01*
X68524Y36841D02*
X69154D01*
X68524Y36526D02*
Y36841D01*
Y36526D02*
X69154D01*
Y36841D01*
X68996Y36526D02*
Y36841D01*
X68681Y36526D02*
Y36841D01*
X72785Y36299D02*
X73415D01*
X72785Y35984D02*
Y36299D01*
Y35984D02*
X73415D01*
Y36299D01*
X73258Y35984D02*
Y36299D01*
X72943Y35984D02*
Y36299D01*
X73474Y35512D02*
X74104D01*
Y35827D01*
X73474D02*
X74104D01*
X73474Y35512D02*
Y35827D01*
X73632Y35512D02*
Y35827D01*
X73947Y35512D02*
Y35827D01*
X72785Y34744D02*
Y35374D01*
X72470D02*
X72785D01*
X72470Y34744D02*
Y35374D01*
Y34744D02*
X72785D01*
X72470Y34902D02*
X72785D01*
X72470Y35217D02*
X72785D01*
X68524Y37746D02*
X69154D01*
X68524Y37431D02*
Y37746D01*
Y37431D02*
X69154D01*
Y37746D01*
X68996Y37431D02*
Y37746D01*
X68681Y37431D02*
Y37746D01*
X68524Y38455D02*
X69154D01*
Y38770D01*
X68524D02*
X69154D01*
X68524Y38455D02*
Y38770D01*
X68681Y38455D02*
Y38770D01*
X68996Y38455D02*
Y38770D01*
X72736Y37518D02*
X73366D01*
X72736Y37203D02*
Y37518D01*
Y37203D02*
X73366D01*
Y37518D01*
X73209Y37203D02*
Y37518D01*
X72894Y37203D02*
Y37518D01*
X68524Y37982D02*
X69154D01*
Y38297D01*
X68524D02*
X69154D01*
X68524Y37982D02*
Y38297D01*
X68681Y37982D02*
Y38297D01*
X68996Y37982D02*
Y38297D01*
X72736Y37980D02*
X73366D01*
X72736Y37665D02*
Y37980D01*
Y37665D02*
X73366D01*
Y37980D01*
X73209Y37665D02*
Y37980D01*
X72894Y37665D02*
Y37980D01*
X72569Y38581D02*
X73199D01*
X72569Y38266D02*
Y38581D01*
Y38266D02*
X73199D01*
Y38581D01*
X73041Y38266D02*
Y38581D01*
X72726Y38266D02*
Y38581D01*
X70157Y39350D02*
Y39980D01*
X69843D02*
X70157D01*
X69843Y39350D02*
Y39980D01*
Y39350D02*
X70157D01*
X69843Y39508D02*
X70157D01*
X69843Y39823D02*
X70157D01*
X69783Y38770D02*
X70413D01*
X69783Y38455D02*
Y38770D01*
Y38455D02*
X70413D01*
Y38770D01*
X70256Y38455D02*
Y38770D01*
X69941Y38455D02*
Y38770D01*
X72569Y39171D02*
X73199D01*
X72569Y38856D02*
Y39171D01*
Y38856D02*
X73199D01*
Y39171D01*
X73041Y38856D02*
Y39171D01*
X72726Y38856D02*
Y39171D01*
X71457Y38376D02*
X72087D01*
Y38691D01*
X71457D02*
X72087D01*
X71457Y38376D02*
Y38691D01*
X71614Y38376D02*
Y38691D01*
X71929Y38376D02*
Y38691D01*
X72047Y39262D02*
Y39892D01*
X71732D02*
X72047D01*
X71732Y39262D02*
Y39892D01*
Y39262D02*
X72047D01*
X71732Y39419D02*
X72047D01*
X71732Y39734D02*
X72047D01*
X71752Y41417D02*
X72382D01*
Y41732D01*
X71752D02*
X72382D01*
X71752Y41417D02*
Y41732D01*
X71909Y41417D02*
Y41732D01*
X72224Y41417D02*
Y41732D01*
X71791Y40285D02*
X72421D01*
Y40600D01*
X71791D02*
X72421D01*
X71791Y40285D02*
Y40600D01*
X71949Y40285D02*
Y40600D01*
X72264Y40285D02*
Y40600D01*
X70335Y40965D02*
Y41594D01*
X70020D02*
X70335D01*
X70020Y40965D02*
Y41594D01*
Y40965D02*
X70335D01*
X70020Y41122D02*
X70335D01*
X70020Y41437D02*
X70335D01*
X76535Y41378D02*
Y42008D01*
X76220D02*
X76535D01*
X76220Y41378D02*
Y42008D01*
Y41378D02*
X76535D01*
X76220Y41535D02*
X76535D01*
X76220Y41850D02*
X76535D01*
X73100Y40423D02*
Y41053D01*
X72785D02*
X73100D01*
X72785Y40423D02*
Y41053D01*
Y40423D02*
X73100D01*
X72785Y40581D02*
X73100D01*
X72785Y40896D02*
X73100D01*
X73445Y41191D02*
X74075D01*
X73445Y40876D02*
Y41191D01*
Y40876D02*
X74075D01*
Y41191D01*
X73917Y40876D02*
Y41191D01*
X73602Y40876D02*
Y41191D01*
X74661Y39453D02*
X75291D01*
Y39768D01*
X74661D02*
X75291D01*
X74661Y39453D02*
Y39768D01*
X74819Y39453D02*
Y39768D01*
X75134Y39453D02*
Y39768D01*
X74661Y38990D02*
X75291D01*
Y39305D01*
X74661D02*
X75291D01*
X74661Y38990D02*
Y39305D01*
X74819Y38990D02*
Y39305D01*
X75134Y38990D02*
Y39305D01*
X76728Y40035D02*
Y40665D01*
Y40035D02*
X77043D01*
Y40665D01*
X76728D02*
X77043D01*
X76728Y40508D02*
X77043D01*
X76728Y40193D02*
X77043D01*
X76866Y38913D02*
X77496D01*
Y39228D01*
X76866D02*
X77496D01*
X76866Y38913D02*
Y39228D01*
X77024Y38913D02*
Y39228D01*
X77339Y38913D02*
Y39228D01*
X76624Y35472D02*
Y36102D01*
X76309D02*
X76624D01*
X76309Y35472D02*
Y36102D01*
Y35472D02*
X76624D01*
X76309Y35630D02*
X76624D01*
X76309Y35945D02*
X76624D01*
X77539Y35736D02*
X78169D01*
X77539Y35421D02*
Y35736D01*
Y35421D02*
X78169D01*
Y35736D01*
X78012Y35421D02*
Y35736D01*
X77697Y35421D02*
Y35736D01*
X74990Y64311D02*
X75620D01*
Y64626D01*
X74990D02*
X75620D01*
X74990Y64311D02*
Y64626D01*
X75148Y64311D02*
Y64626D01*
X75463Y64311D02*
Y64626D01*
X75581Y64803D02*
X76211D01*
Y65118D01*
X75581D02*
X76211D01*
X75581Y64803D02*
Y65118D01*
X75738Y64803D02*
Y65118D01*
X76053Y64803D02*
Y65118D01*
X76988Y62886D02*
X77618D01*
X76988Y62571D02*
X77618D01*
X77480D02*
Y62886D01*
X77126Y62571D02*
Y62886D01*
X75876Y62030D02*
X76506D01*
Y62344D01*
X75876D02*
X76506D01*
X75876Y62030D02*
Y62344D01*
X76033Y62030D02*
Y62344D01*
X76348Y62030D02*
Y62344D01*
X74577Y62236D02*
X75207D01*
X74577Y61921D02*
Y62236D01*
Y61921D02*
X75207D01*
Y62236D01*
X75049Y61921D02*
Y62236D01*
X74734Y61921D02*
Y62236D01*
X75876Y61478D02*
X76506D01*
Y61793D01*
X75876D02*
X76506D01*
X75876Y61478D02*
Y61793D01*
X76033Y61478D02*
Y61793D01*
X76348Y61478D02*
Y61793D01*
X74577Y61764D02*
X75207D01*
X74577Y61449D02*
Y61764D01*
Y61449D02*
X75207D01*
Y61764D01*
X75049Y61449D02*
Y61764D01*
X74734Y61449D02*
Y61764D01*
X77579Y60837D02*
X78209D01*
Y61152D01*
X77579D02*
X78209D01*
X77579Y60837D02*
Y61152D01*
X77736Y60837D02*
Y61152D01*
X78051Y60837D02*
Y61152D01*
X77579Y60404D02*
X78209D01*
Y60718D01*
X77579D02*
X78209D01*
X77579Y60404D02*
Y60718D01*
X77736Y60404D02*
Y60718D01*
X78051Y60404D02*
Y60718D01*
X73327Y60945D02*
X73957D01*
Y61260D01*
X73327D02*
X73957D01*
X73327Y60945D02*
Y61260D01*
X73484Y60945D02*
Y61260D01*
X73799Y60945D02*
Y61260D01*
X72628Y61713D02*
X73258D01*
X72628Y61398D02*
Y61713D01*
Y61398D02*
X73258D01*
Y61713D01*
X73100Y61398D02*
Y61713D01*
X72785Y61398D02*
Y61713D01*
X73967Y61870D02*
Y62500D01*
Y61870D02*
X74282D01*
Y62500D01*
X73967D02*
X74282D01*
X73967Y62343D02*
X74282D01*
X73967Y62028D02*
X74282D01*
X77579Y59498D02*
X78209D01*
Y59813D01*
X77579D02*
X78209D01*
X77579Y59498D02*
Y59813D01*
X77736Y59498D02*
Y59813D01*
X78051Y59498D02*
Y59813D01*
X77579Y58789D02*
X78209D01*
X77579Y58474D02*
Y58789D01*
Y58474D02*
X78209D01*
Y58789D01*
X78051Y58474D02*
Y58789D01*
X77736Y58474D02*
Y58789D01*
X73366Y59726D02*
X73996D01*
Y60041D01*
X73366D02*
X73996D01*
X73366Y59726D02*
Y60041D01*
X73524Y59726D02*
Y60041D01*
X73839Y59726D02*
Y60041D01*
X77579Y59262D02*
X78209D01*
X77579Y58947D02*
Y59262D01*
Y58947D02*
X78209D01*
Y59262D01*
X78051Y58947D02*
Y59262D01*
X77736Y58947D02*
Y59262D01*
X73366Y59264D02*
X73996D01*
Y59579D01*
X73366D02*
X73996D01*
X73366Y59264D02*
Y59579D01*
X73524Y59264D02*
Y59579D01*
X73839Y59264D02*
Y59579D01*
X73533Y58663D02*
X74163D01*
Y58978D01*
X73533D02*
X74163D01*
X73533Y58663D02*
Y58978D01*
X73691Y58663D02*
Y58978D01*
X74006Y58663D02*
Y58978D01*
X76575Y57264D02*
Y57894D01*
Y57264D02*
X76890D01*
Y57894D01*
X76575D02*
X76890D01*
X76575Y57736D02*
X76890D01*
X76575Y57421D02*
X76890D01*
X76319Y58474D02*
X76949D01*
Y58789D01*
X76319D02*
X76949D01*
X76319Y58474D02*
Y58789D01*
X76476Y58474D02*
Y58789D01*
X76791Y58474D02*
Y58789D01*
X73533Y58073D02*
X74163D01*
Y58388D01*
X73533D02*
X74163D01*
X73533Y58073D02*
Y58388D01*
X73691Y58073D02*
Y58388D01*
X74006Y58073D02*
Y58388D01*
X74646Y58868D02*
X75276D01*
X74646Y58553D02*
Y58868D01*
Y58553D02*
X75276D01*
Y58868D01*
X75118Y58553D02*
Y58868D01*
X74803Y58553D02*
Y58868D01*
X74656Y57333D02*
Y57963D01*
Y57333D02*
X74970D01*
Y57963D01*
X74656D02*
X74970D01*
X74656Y57805D02*
X74970D01*
X74656Y57490D02*
X74970D01*
X74350Y55856D02*
X74980D01*
X74350Y55541D02*
Y55856D01*
Y55541D02*
X74980D01*
Y55856D01*
X74823Y55541D02*
Y55856D01*
X74508Y55541D02*
Y55856D01*
X74390Y56968D02*
X75020D01*
X74390Y56654D02*
Y56968D01*
Y56654D02*
X75020D01*
Y56968D01*
X74862Y56654D02*
Y56968D01*
X74547Y56654D02*
Y56968D01*
X76388Y55679D02*
Y56309D01*
Y55679D02*
X76703D01*
Y56309D01*
X76388D02*
X76703D01*
X76388Y56152D02*
X76703D01*
X76388Y55837D02*
X76703D01*
X70246Y55256D02*
Y55886D01*
Y55256D02*
X70561D01*
Y55886D01*
X70246D02*
X70561D01*
X70246Y55728D02*
X70561D01*
X70246Y55413D02*
X70561D01*
X72687Y56102D02*
X73317D01*
Y56417D01*
X72687D02*
X73317D01*
X72687Y56102D02*
Y56417D01*
X72844Y56102D02*
Y56417D01*
X73159Y56102D02*
Y56417D01*
X71437Y57886D02*
X72067D01*
X71437Y57571D02*
Y57886D01*
Y57571D02*
X72067D01*
Y57886D01*
X71909Y57571D02*
Y57886D01*
X71594Y57571D02*
Y57886D01*
X71437Y58348D02*
X72067D01*
X71437Y58033D02*
Y58348D01*
Y58033D02*
X72067D01*
Y58348D01*
X71909Y58033D02*
Y58348D01*
X71594Y58033D02*
Y58348D01*
X70000Y56632D02*
Y57262D01*
X69685D02*
X70000D01*
X69685Y56632D02*
Y57262D01*
Y56632D02*
X70000D01*
X69685Y56789D02*
X70000D01*
X69685Y57104D02*
X70000D01*
X69232Y58376D02*
X69862D01*
X69232Y58061D02*
Y58376D01*
Y58061D02*
X69862D01*
Y58376D01*
X69705Y58061D02*
Y58376D01*
X69390Y58061D02*
Y58376D01*
X70089Y61144D02*
Y61774D01*
Y61144D02*
X70404D01*
Y61774D01*
X70089D02*
X70404D01*
X70089Y61616D02*
X70404D01*
X70089Y61301D02*
X70404D01*
X68543Y61508D02*
X69173D01*
Y61823D01*
X68543D02*
X69173D01*
X68543Y61508D02*
Y61823D01*
X68701Y61508D02*
Y61823D01*
X69016Y61508D02*
Y61823D01*
X65226Y31624D02*
Y32254D01*
X64911D02*
X65226D01*
X64911Y31624D02*
Y32254D01*
Y31624D02*
X65226D01*
X64911Y31781D02*
X65226D01*
X64911Y32096D02*
X65226D01*
X75630Y66240D02*
X76260D01*
Y66555D01*
X75630D02*
X76260D01*
X75630Y66240D02*
Y66555D01*
X75787Y66240D02*
Y66555D01*
X76102Y66240D02*
Y66555D01*
X61919Y53819D02*
Y54449D01*
X61604D02*
X61919D01*
X61604Y53819D02*
Y54449D01*
Y53819D02*
X61919D01*
X61604Y53976D02*
X61919D01*
X61604Y54291D02*
X61919D01*
X64341Y53809D02*
Y54439D01*
X64026D02*
X64341D01*
X64026Y53809D02*
Y54439D01*
Y53809D02*
X64341D01*
X64026Y53967D02*
X64341D01*
X64026Y54281D02*
X64341D01*
X63780Y59921D02*
Y60551D01*
Y59921D02*
X64094D01*
Y60551D01*
X63780D02*
X64094D01*
X63780Y60394D02*
X64094D01*
X63780Y60079D02*
X64094D01*
X65128Y57343D02*
Y57972D01*
X64813D02*
X65128D01*
X64813Y57343D02*
Y57972D01*
Y57343D02*
X65128D01*
X64813Y57500D02*
X65128D01*
X64813Y57815D02*
X65128D01*
X63878Y56939D02*
X64508D01*
X63878Y56624D02*
Y56939D01*
Y56624D02*
X64508D01*
Y56939D01*
X64350Y56624D02*
Y56939D01*
X64035Y56624D02*
Y56939D01*
X62835Y50807D02*
Y51437D01*
Y50807D02*
X63150D01*
Y51437D01*
X62835D02*
X63150D01*
X62835Y51280D02*
X63150D01*
X62835Y50965D02*
X63150D01*
X77638Y49587D02*
Y50217D01*
Y49587D02*
X77953D01*
Y50217D01*
X77638D02*
X77953D01*
X77638Y50059D02*
X77953D01*
X77638Y49744D02*
X77953D01*
X76083Y50177D02*
Y50807D01*
Y50177D02*
X76398D01*
Y50807D01*
X76083D02*
X76398D01*
X76083Y50650D02*
X76398D01*
X76083Y50335D02*
X76398D01*
X74951Y52913D02*
X75581D01*
X74951Y52598D02*
Y52913D01*
Y52598D02*
X75581D01*
Y52913D01*
X75423Y52598D02*
Y52913D01*
X75108Y52598D02*
Y52913D01*
X76220Y49222D02*
X76850D01*
Y49537D01*
X76220D02*
X76850D01*
X76220Y49222D02*
Y49537D01*
X76378Y49222D02*
Y49537D01*
X76693Y49222D02*
Y49537D01*
X77234Y51220D02*
X77864D01*
Y51535D01*
X77234D02*
X77864D01*
X77234Y51220D02*
Y51535D01*
X77392Y51220D02*
Y51535D01*
X77707Y51220D02*
Y51535D01*
X77953Y46378D02*
Y47008D01*
X77638D02*
X77953D01*
X77638Y46378D02*
Y47008D01*
Y46378D02*
X77953D01*
X77638Y46535D02*
X77953D01*
X77638Y46850D02*
X77953D01*
X76073Y46378D02*
Y47008D01*
Y46378D02*
X76388D01*
Y47008D01*
X76073D02*
X76388D01*
X76073Y46850D02*
X76388D01*
X76073Y46535D02*
X76388D01*
X77756Y44902D02*
Y45532D01*
Y44902D02*
X78071D01*
Y45532D01*
X77756D02*
X78071D01*
X77756Y45374D02*
X78071D01*
X77756Y45059D02*
X78071D01*
X72451Y52106D02*
X73081D01*
Y52421D01*
X72451D02*
X73081D01*
X72451Y52106D02*
Y52421D01*
X72608Y52106D02*
Y52421D01*
X72923Y52106D02*
Y52421D01*
X76220Y45433D02*
X76850D01*
Y45748D01*
X76220D02*
X76850D01*
X76220Y45433D02*
Y45748D01*
X76378Y45433D02*
Y45748D01*
X76693Y45433D02*
Y45748D01*
X76722Y48071D02*
X77352D01*
Y48386D01*
X76722D02*
X77352D01*
X76722Y48071D02*
Y48386D01*
X76880Y48071D02*
Y48386D01*
X77195Y48071D02*
Y48386D01*
X75374Y45561D02*
Y46191D01*
X75059D02*
X75374D01*
X75059Y45561D02*
Y46191D01*
Y45561D02*
X75374D01*
X75059Y45718D02*
X75374D01*
X75059Y46033D02*
X75374D01*
X73701Y56358D02*
X74016D01*
X73701Y56673D02*
X74016D01*
X73701Y56831D02*
X74016D01*
Y56201D02*
Y56831D01*
X73701Y56201D02*
X74016D01*
X73701D02*
Y56831D01*
X72894Y47234D02*
X73209D01*
X72894Y46919D02*
X73209D01*
X72894Y46762D02*
X73209D01*
X72894D02*
Y47392D01*
X73209D01*
Y46762D02*
Y47392D01*
X73839Y45955D02*
Y46270D01*
X74154Y45955D02*
Y46270D01*
X74311Y45955D02*
Y46270D01*
X73681Y45955D02*
X74311D01*
X73681D02*
Y46270D01*
X74311D01*
X73701Y48307D02*
Y48622D01*
X74016Y48307D02*
Y48622D01*
X74173Y48307D02*
Y48622D01*
X73543Y48307D02*
X74173D01*
X73543D02*
Y48622D01*
X74173D01*
X72923Y47805D02*
Y48120D01*
X72608Y47805D02*
Y48120D01*
X72451Y47805D02*
Y48120D01*
X73081D01*
Y47805D02*
Y48120D01*
X72451Y47805D02*
X73081D01*
X72904Y51014D02*
X73218D01*
X72904Y50699D02*
X73218D01*
X72904Y50541D02*
X73218D01*
X72904D02*
Y51171D01*
X73218D01*
Y50541D02*
Y51171D01*
X73839Y49783D02*
Y50098D01*
X74154Y49783D02*
Y50098D01*
X74311Y49783D02*
Y50098D01*
X73681Y49783D02*
X74311D01*
X73681D02*
Y50098D01*
X74311D01*
X73701Y52106D02*
Y52421D01*
X74016Y52106D02*
Y52421D01*
X74173Y52106D02*
Y52421D01*
X73543Y52106D02*
X74173D01*
X73543D02*
Y52421D01*
X74173D01*
X72923Y51585D02*
Y51900D01*
X72608Y51585D02*
Y51900D01*
X72451Y51585D02*
Y51900D01*
X73081D01*
Y51585D02*
Y51900D01*
X72451Y51585D02*
X73081D01*
X67018Y42579D02*
Y42894D01*
X66703Y42579D02*
Y42894D01*
X66545Y42579D02*
Y42894D01*
X67175D01*
Y42579D02*
Y42894D01*
X66545Y42579D02*
X67175D01*
G54D184*
X68870Y45817D02*
G03*
X68870Y45817I-100J0D01*
G01*
X69913Y51801D02*
G03*
X69913Y51801I-100J0D01*
G01*
X71813Y56329D02*
G03*
X71813Y56329I-100J0D01*
G01*
X75169Y40964D02*
G03*
X75169Y40964I-100J0D01*
G01*
X68573Y45620D02*
Y46880D01*
X68898Y45266D02*
Y45620D01*
X68740Y45266D02*
X68898D01*
X68740D02*
Y45620D01*
X69154Y45266D02*
Y45620D01*
X68996Y45266D02*
X69154D01*
X68996D02*
Y45620D01*
X69409Y45266D02*
Y45620D01*
X69252Y45266D02*
X69409D01*
X69252D02*
Y45620D01*
X69665Y45266D02*
Y45620D01*
X69508Y45266D02*
X69665D01*
X69508D02*
Y45620D01*
Y46880D02*
Y47234D01*
X69665D01*
Y46880D02*
Y47234D01*
X69252Y46880D02*
Y47234D01*
X69409D01*
Y46880D02*
Y47234D01*
X68996Y46880D02*
Y47234D01*
X69154D01*
Y46880D02*
Y47234D01*
X68740Y46880D02*
Y47234D01*
X68898D01*
Y46880D02*
Y47234D01*
X68573Y46880D02*
X69833D01*
Y45620D02*
Y46880D01*
X68573Y45620D02*
X69833D01*
X69616Y50738D02*
Y51998D01*
Y50738D02*
X70876D01*
Y51998D01*
Y51673D02*
X71230D01*
Y51831D01*
X70876D02*
X71230D01*
X70876Y51417D02*
X71230D01*
Y51575D01*
X70876D02*
X71230D01*
X70876Y51161D02*
X71230D01*
Y51319D01*
X70876D02*
X71230D01*
X70876Y50906D02*
X71230D01*
Y51063D01*
X70876D02*
X71230D01*
X69262D02*
X69616D01*
X69262Y50906D02*
Y51063D01*
Y50906D02*
X69616D01*
X69262Y51319D02*
X69616D01*
X69262Y51161D02*
Y51319D01*
Y51161D02*
X69616D01*
X69262Y51575D02*
X69616D01*
X69262Y51417D02*
Y51575D01*
Y51417D02*
X69616D01*
X69262Y51831D02*
X69616D01*
X69262Y51673D02*
Y51831D01*
Y51673D02*
X69616D01*
Y51998D02*
X70876D01*
X70650Y56132D02*
X71909D01*
Y56457D02*
X72264D01*
Y56299D02*
Y56457D01*
X71909Y56299D02*
X72264D01*
X71909Y56713D02*
X72264D01*
Y56555D02*
Y56713D01*
X71909Y56555D02*
X72264D01*
X71909Y56969D02*
X72264D01*
Y56811D02*
Y56969D01*
X71909Y56811D02*
X72264D01*
X71909Y57224D02*
X72264D01*
Y57067D02*
Y57224D01*
X71909Y57067D02*
X72264D01*
X70295D02*
X70650D01*
X70295D02*
Y57224D01*
X70650D01*
X70295Y56811D02*
X70650D01*
X70295D02*
Y56969D01*
X70650D01*
X70295Y56555D02*
X70650D01*
X70295D02*
Y56713D01*
X70650D01*
X70295Y56299D02*
X70650D01*
X70295D02*
Y56457D01*
X70650D01*
Y56132D02*
Y57392D01*
X71909D01*
Y56132D02*
Y57392D01*
X74872Y39902D02*
Y41161D01*
Y39902D02*
X76132D01*
Y41161D01*
Y40837D02*
X76486D01*
Y40994D01*
X76132D02*
X76486D01*
X76132Y40581D02*
X76486D01*
Y40738D01*
X76132D02*
X76486D01*
X76132Y40325D02*
X76486D01*
Y40482D01*
X76132D02*
X76486D01*
X76132Y40069D02*
X76486D01*
Y40226D01*
X76132D02*
X76486D01*
X74518D02*
X74872D01*
X74518Y40069D02*
Y40226D01*
Y40069D02*
X74872D01*
X74518Y40482D02*
X74872D01*
X74518Y40325D02*
Y40482D01*
Y40325D02*
X74872D01*
X74518Y40738D02*
X74872D01*
X74518Y40581D02*
Y40738D01*
Y40581D02*
X74872D01*
X74518Y40994D02*
X74872D01*
X74518Y40837D02*
Y40994D01*
Y40837D02*
X74872D01*
Y41161D02*
X76132D01*
G54D185*
X75128Y51043D02*
Y51207D01*
X75095Y51240D01*
X75030D01*
X74997Y51207D01*
Y51043D01*
X74931Y51240D02*
X74866D01*
X74898D01*
Y51043D01*
X74931Y51076D01*
X74767D02*
X74734Y51043D01*
X74669D01*
X74636Y51076D01*
Y51207D01*
X74669Y51240D01*
X74734D01*
X74767Y51207D01*
Y51076D01*
X75128Y47254D02*
Y47418D01*
X75095Y47451D01*
X75030D01*
X74997Y47418D01*
Y47254D01*
X74931Y47451D02*
X74866D01*
X74898D01*
Y47254D01*
X74931Y47287D01*
X74767Y47451D02*
X74702D01*
X74734D01*
Y47254D01*
X74767Y47287D01*
X72251Y51719D02*
X72283Y51752D01*
Y51818D01*
X72251Y51850D01*
X72119D01*
X72087Y51818D01*
Y51752D01*
X72119Y51719D01*
X72087Y51654D02*
Y51588D01*
Y51621D01*
X72283D01*
X72251Y51654D01*
X72087Y51391D02*
X72283D01*
X72185Y51490D01*
Y51358D01*
X70597Y50312D02*
X70630Y50345D01*
Y50410D01*
X70597Y50443D01*
X70466D01*
X70433Y50410D01*
Y50345D01*
X70466Y50312D01*
X70433Y50246D02*
Y50181D01*
Y50213D01*
X70630D01*
X70597Y50246D01*
X70630Y49951D02*
Y50082D01*
X70531D01*
X70564Y50017D01*
Y49984D01*
X70531Y49951D01*
X70466D01*
X70433Y49984D01*
Y50049D01*
X70466Y50082D01*
X68369Y47946D02*
X68337Y47913D01*
Y47848D01*
X68369Y47815D01*
X68501D01*
X68533Y47848D01*
Y47913D01*
X68501Y47946D01*
X68533Y48012D02*
Y48077D01*
Y48045D01*
X68337D01*
X68369Y48012D01*
X68337Y48307D02*
X68369Y48241D01*
X68435Y48176D01*
X68501D01*
X68533Y48209D01*
Y48274D01*
X68501Y48307D01*
X68468D01*
X68435Y48274D01*
Y48176D01*
X70141Y47723D02*
X70108Y47756D01*
X70043D01*
X70010Y47723D01*
Y47592D01*
X70043Y47559D01*
X70108D01*
X70141Y47592D01*
X70207Y47559D02*
X70272D01*
X70239D01*
Y47756D01*
X70207Y47723D01*
X70371Y47756D02*
X70502D01*
Y47723D01*
X70371Y47592D01*
Y47559D01*
X62093Y65577D02*
X62126Y65610D01*
Y65676D01*
X62093Y65709D01*
X61962D01*
X61929Y65676D01*
Y65610D01*
X61962Y65577D01*
X61929Y65381D02*
Y65512D01*
X62060Y65381D01*
X62093D01*
X62126Y65413D01*
Y65479D01*
X62093Y65512D01*
X70827Y40925D02*
X71024D01*
Y41056D01*
Y41122D02*
Y41188D01*
Y41155D01*
X70827D01*
X70860Y41122D01*
Y41286D02*
X70827Y41319D01*
Y41384D01*
X70860Y41417D01*
X70892D01*
X70925Y41384D01*
X70958Y41417D01*
X70991D01*
X71024Y41384D01*
Y41319D01*
X70991Y41286D01*
X70958D01*
X70925Y41319D01*
X70892Y41286D01*
X70860D01*
X70925Y41319D02*
Y41384D01*
X69114Y34949D02*
Y34752D01*
X69245D01*
X69442Y34949D02*
X69311D01*
Y34752D01*
X69442D01*
X69311Y34850D02*
X69377D01*
X69508Y34949D02*
Y34752D01*
X69606D01*
X69639Y34785D01*
Y34916D01*
X69606Y34949D01*
X69508D01*
X69705Y34752D02*
X69770D01*
X69737D01*
Y34949D01*
X69705Y34916D01*
X71083Y45827D02*
Y45958D01*
Y45892D01*
X71280D01*
Y46155D02*
Y46024D01*
X71148Y46155D01*
X71116D01*
X71083Y46122D01*
Y46056D01*
X71116Y46024D01*
X63671Y32756D02*
X63507D01*
X63474Y32723D01*
Y32658D01*
X63507Y32625D01*
X63671D01*
X63474Y32559D02*
Y32494D01*
Y32526D01*
X63671D01*
X63638Y32559D01*
X62530Y57717D02*
X62694D01*
X62726Y57749D01*
Y57815D01*
X62694Y57848D01*
X62530D01*
Y58045D02*
X62562Y57979D01*
X62628Y57913D01*
X62694D01*
X62726Y57946D01*
Y58012D01*
X62694Y58045D01*
X62661D01*
X62628Y58012D01*
Y57913D01*
X77262Y66099D02*
X77098D01*
X77065Y66066D01*
Y66001D01*
X77098Y65968D01*
X77262D01*
X77065Y65804D02*
X77262D01*
X77163Y65902D01*
Y65771D01*
X65492Y48740D02*
Y48904D01*
X65459Y48937D01*
X65394D01*
X65361Y48904D01*
Y48740D01*
X65295Y48904D02*
X65263Y48937D01*
X65197D01*
X65164Y48904D01*
Y48773D01*
X65197Y48740D01*
X65263D01*
X65295Y48773D01*
Y48806D01*
X65263Y48839D01*
X65164D01*
X76634Y31841D02*
X76437Y31709D01*
X76634D02*
X76437Y31841D01*
Y31545D02*
X76634D01*
X76535Y31644D01*
Y31513D01*
X75640Y36831D02*
Y36962D01*
X75673D01*
X75804Y36831D01*
X75837D01*
Y36962D01*
Y37126D02*
X75640D01*
X75738Y37027D01*
Y37159D01*
X75128Y42485D02*
X75259D01*
Y42452D01*
X75128Y42321D01*
Y42288D01*
X75259D01*
X75456Y42485D02*
X75325D01*
Y42387D01*
X75390Y42420D01*
X75423D01*
X75456Y42387D01*
Y42321D01*
X75423Y42288D01*
X75358D01*
X75325Y42321D01*
X68671Y41693D02*
X68802D01*
Y41660D01*
X68671Y41529D01*
Y41496D01*
X68802D01*
X68999Y41693D02*
X68934Y41660D01*
X68868Y41594D01*
Y41529D01*
X68901Y41496D01*
X68966D01*
X68999Y41529D01*
Y41562D01*
X68966Y41594D01*
X68868D01*
X74410Y42677D02*
Y42808D01*
X74442D01*
X74573Y42677D01*
X74606D01*
Y42808D01*
X74410Y42874D02*
Y43005D01*
X74442D01*
X74573Y42874D01*
X74606D01*
X71614Y36947D02*
Y37111D01*
X71581Y37144D01*
X71516D01*
X71483Y37111D01*
Y36947D01*
X71417Y37144D02*
X71352D01*
X71385D01*
Y36947D01*
X71417Y36980D01*
X71122Y37144D02*
X71253D01*
X71122Y37013D01*
Y36980D01*
X71155Y36947D01*
X71221D01*
X71253Y36980D01*
X78563Y48530D02*
Y48661D01*
X78366D01*
Y48530D01*
X78465Y48661D02*
Y48596D01*
X78530Y48333D02*
X78563Y48366D01*
Y48432D01*
X78530Y48465D01*
X78497D01*
X78465Y48432D01*
Y48366D01*
X78432Y48333D01*
X78399D01*
X78366Y48366D01*
Y48432D01*
X78399Y48465D01*
X78563Y48268D02*
X78366D01*
Y48169D01*
X78399Y48137D01*
X78530D01*
X78563Y48169D01*
Y48268D01*
X78366Y47940D02*
Y48071D01*
X78497Y47940D01*
X78530D01*
X78563Y47973D01*
Y48038D01*
X78530Y48071D01*
X66022Y45220D02*
X65858D01*
X65825Y45188D01*
Y45122D01*
X65858Y45089D01*
X66022D01*
X65825Y44892D02*
Y45024D01*
X65956Y44892D01*
X65989D01*
X66022Y44925D01*
Y44991D01*
X65989Y45024D01*
X75344Y34006D02*
Y34203D01*
X75213D01*
X75017D02*
X75148D01*
X75017Y34072D01*
Y34039D01*
X75049Y34006D01*
X75115D01*
X75148Y34039D01*
X74951Y34203D02*
X74885D01*
X74918D01*
Y34006D01*
X74951Y34039D01*
X74705Y36319D02*
Y36155D01*
X74738Y36122D01*
X74803D01*
X74836Y36155D01*
Y36319D01*
X74902Y36122D02*
X74967D01*
X74934D01*
Y36319D01*
X74902Y36286D01*
X75164Y36122D02*
Y36319D01*
X75065Y36220D01*
X75197D01*
X73376Y34390D02*
X73179D01*
Y34488D01*
X73212Y34521D01*
X73278D01*
X73310Y34488D01*
Y34390D01*
Y34455D02*
X73376Y34521D01*
X73212Y34587D02*
X73179Y34619D01*
Y34685D01*
X73212Y34718D01*
X73245D01*
X73278Y34685D01*
Y34652D01*
Y34685D01*
X73310Y34718D01*
X73343D01*
X73376Y34685D01*
Y34619D01*
X73343Y34587D01*
X73212Y34783D02*
X73179Y34816D01*
Y34882D01*
X73212Y34915D01*
X73245D01*
X73278Y34882D01*
Y34849D01*
Y34882D01*
X73310Y34915D01*
X73343D01*
X73376Y34882D01*
Y34816D01*
X73343Y34783D01*
X71585Y33848D02*
Y34045D01*
X71453D01*
X71388D02*
X71322D01*
X71355D01*
Y33848D01*
X71388Y33881D01*
X71093Y33848D02*
X71224D01*
Y33947D01*
X71158Y33914D01*
X71125D01*
X71093Y33947D01*
Y34012D01*
X71125Y34045D01*
X71191D01*
X71224Y34012D01*
X71493Y32182D02*
X71526Y32215D01*
Y32280D01*
X71493Y32313D01*
X71362D01*
X71329Y32280D01*
Y32215D01*
X71362Y32182D01*
X71526Y32116D02*
Y31985D01*
X71493D01*
X71362Y32116D01*
X71329D01*
Y31788D02*
Y31919D01*
X71460Y31788D01*
X71493D01*
X71526Y31821D01*
Y31887D01*
X71493Y31919D01*
X75128Y63396D02*
Y63199D01*
X75259D01*
X75325D02*
X75390D01*
X75358D01*
Y63396D01*
X75325Y63363D01*
X75620Y63396D02*
X75489D01*
Y63297D01*
X75554Y63330D01*
X75587D01*
X75620Y63297D01*
Y63232D01*
X75587Y63199D01*
X75522D01*
X75489Y63232D01*
X72913Y34400D02*
X72717D01*
Y34498D01*
X72749Y34531D01*
X72815D01*
X72848Y34498D01*
Y34400D01*
Y34465D02*
X72913Y34531D01*
X72749Y34596D02*
X72717Y34629D01*
Y34695D01*
X72749Y34728D01*
X72782D01*
X72815Y34695D01*
Y34662D01*
Y34695D01*
X72848Y34728D01*
X72881D01*
X72913Y34695D01*
Y34629D01*
X72881Y34596D01*
X72913Y34924D02*
Y34793D01*
X72782Y34924D01*
X72749D01*
X72717Y34892D01*
Y34826D01*
X72749Y34793D01*
X73819Y62825D02*
X74016D01*
Y62726D01*
X73983Y62694D01*
X73917D01*
X73884Y62726D01*
Y62825D01*
Y62759D02*
X73819Y62694D01*
X73983Y62628D02*
X74016Y62595D01*
Y62530D01*
X73983Y62497D01*
X73950D01*
X73917Y62530D01*
Y62562D01*
Y62530D01*
X73884Y62497D01*
X73852D01*
X73819Y62530D01*
Y62595D01*
X73852Y62628D01*
X73819Y62300D02*
Y62431D01*
X73950Y62300D01*
X73983D01*
X74016Y62333D01*
Y62398D01*
X73983Y62431D01*
X73356Y62835D02*
X73553D01*
Y62736D01*
X73520Y62703D01*
X73455D01*
X73422Y62736D01*
Y62835D01*
Y62769D02*
X73356Y62703D01*
X73520Y62638D02*
X73553Y62605D01*
Y62539D01*
X73520Y62507D01*
X73487D01*
X73455Y62539D01*
Y62572D01*
Y62539D01*
X73422Y62507D01*
X73389D01*
X73356Y62539D01*
Y62605D01*
X73389Y62638D01*
X73520Y62441D02*
X73553Y62408D01*
Y62343D01*
X73520Y62310D01*
X73487D01*
X73455Y62343D01*
Y62375D01*
Y62343D01*
X73422Y62310D01*
X73389D01*
X73356Y62343D01*
Y62408D01*
X73389Y62441D01*
X69810Y39849D02*
X69842Y39882D01*
Y39948D01*
X69810Y39980D01*
X69678D01*
X69646Y39948D01*
Y39882D01*
X69678Y39849D01*
X69842Y39784D02*
Y39652D01*
X69810D01*
X69678Y39784D01*
X69646D01*
Y39587D02*
Y39521D01*
Y39554D01*
X69842D01*
X69810Y39587D01*
X76923Y57395D02*
X76890Y57362D01*
Y57297D01*
X76923Y57264D01*
X77054D01*
X77087Y57297D01*
Y57362D01*
X77054Y57395D01*
X76890Y57461D02*
Y57592D01*
X76923D01*
X77054Y57461D01*
X77087D01*
Y57657D02*
Y57723D01*
Y57690D01*
X76890D01*
X76923Y57657D01*
X75174Y34645D02*
X75207Y34613D01*
X75272D01*
X75305Y34645D01*
Y34777D01*
X75272Y34809D01*
X75207D01*
X75174Y34777D01*
X75108Y34613D02*
X74977D01*
Y34645D01*
X75108Y34777D01*
Y34809D01*
X74912Y34777D02*
X74879Y34809D01*
X74813D01*
X74780Y34777D01*
Y34645D01*
X74813Y34613D01*
X74879D01*
X74912Y34645D01*
Y34678D01*
X74879Y34711D01*
X74780D01*
X74465Y37251D02*
X74498Y37283D01*
Y37349D01*
X74465Y37382D01*
X74334D01*
X74301Y37349D01*
Y37283D01*
X74334Y37251D01*
X74498Y37054D02*
X74465Y37120D01*
X74400Y37185D01*
X74334D01*
X74301Y37152D01*
Y37087D01*
X74334Y37054D01*
X74367D01*
X74400Y37087D01*
Y37185D01*
X74301Y36890D02*
X74498D01*
X74400Y36988D01*
Y36857D01*
X71358Y38652D02*
Y38848D01*
X71227D01*
X71161D02*
X71096D01*
X71129D01*
Y38652D01*
X71161Y38684D01*
X70997Y38816D02*
X70965Y38848D01*
X70899D01*
X70866Y38816D01*
Y38684D01*
X70899Y38652D01*
X70965D01*
X70997Y38684D01*
Y38717D01*
X70965Y38750D01*
X70866D01*
X71388Y63238D02*
Y63041D01*
X71519D01*
X71716D02*
X71585D01*
X71716Y63173D01*
Y63205D01*
X71683Y63238D01*
X71617D01*
X71585Y63205D01*
X71781Y63041D02*
X71847D01*
X71814D01*
Y63238D01*
X71781Y63205D01*
X72028Y60925D02*
Y61089D01*
X71995Y61122D01*
X71929D01*
X71896Y61089D01*
Y60925D01*
X71831Y61122D02*
X71765D01*
X71798D01*
Y60925D01*
X71831Y60958D01*
X71568Y61122D02*
Y60925D01*
X71667Y61024D01*
X71536D01*
X71558Y62599D02*
X71526Y62632D01*
X71460D01*
X71427Y62599D01*
Y62468D01*
X71460Y62435D01*
X71526D01*
X71558Y62468D01*
X71624Y62632D02*
X71755D01*
Y62599D01*
X71624Y62468D01*
Y62435D01*
X71821Y62468D02*
X71854Y62435D01*
X71919D01*
X71952Y62468D01*
Y62599D01*
X71919Y62632D01*
X71854D01*
X71821Y62599D01*
Y62566D01*
X71854Y62533D01*
X71952D01*
X72267Y59993D02*
X72234Y59961D01*
Y59895D01*
X72267Y59862D01*
X72398D01*
X72431Y59895D01*
Y59961D01*
X72398Y59993D01*
X72234Y60190D02*
X72267Y60125D01*
X72333Y60059D01*
X72398D01*
X72431Y60092D01*
Y60157D01*
X72398Y60190D01*
X72366D01*
X72333Y60157D01*
Y60059D01*
X72431Y60354D02*
X72234D01*
X72333Y60256D01*
Y60387D01*
X75374Y58592D02*
Y58396D01*
X75505D01*
X75571D02*
X75636D01*
X75604D01*
Y58592D01*
X75571Y58560D01*
X75735Y58428D02*
X75768Y58396D01*
X75833D01*
X75866Y58428D01*
Y58560D01*
X75833Y58592D01*
X75768D01*
X75735Y58560D01*
Y58527D01*
X75768Y58494D01*
X75866D01*
X64583Y44091D02*
X64616Y44124D01*
Y44190D01*
X64583Y44222D01*
X64452D01*
X64419Y44190D01*
Y44124D01*
X64452Y44091D01*
X64616Y43894D02*
Y44026D01*
X64518D01*
X64550Y43960D01*
Y43927D01*
X64518Y43894D01*
X64452D01*
X64419Y43927D01*
Y43993D01*
X64452Y44026D01*
X72582Y48973D02*
X72549Y49006D01*
X72484D01*
X72451Y48973D01*
Y48842D01*
X72484Y48809D01*
X72549D01*
X72582Y48842D01*
X72779Y48809D02*
X72648D01*
X72779Y48940D01*
Y48973D01*
X72746Y49006D01*
X72680D01*
X72648Y48973D01*
X72844Y48842D02*
X72877Y48809D01*
X72943D01*
X72976Y48842D01*
Y48973D01*
X72943Y49006D01*
X72877D01*
X72844Y48973D01*
Y48940D01*
X72877Y48907D01*
X72976D01*
X74846Y49491D02*
X74813Y49459D01*
Y49393D01*
X74846Y49360D01*
X74977D01*
X75010Y49393D01*
Y49459D01*
X74977Y49491D01*
X74846Y49557D02*
X74813Y49590D01*
Y49655D01*
X74846Y49688D01*
X74879D01*
X74911Y49655D01*
Y49623D01*
Y49655D01*
X74944Y49688D01*
X74977D01*
X75010Y49655D01*
Y49590D01*
X74977Y49557D01*
X75010Y49885D02*
Y49754D01*
X74879Y49885D01*
X74846D01*
X74813Y49852D01*
Y49787D01*
X74846Y49754D01*
X78491Y64688D02*
X78524Y64656D01*
X78589D01*
X78622Y64688D01*
Y64820D01*
X78589Y64852D01*
X78524D01*
X78491Y64820D01*
X78327Y64852D02*
Y64656D01*
X78425Y64754D01*
X78294D01*
X69810Y43980D02*
X69843Y43947D01*
X69908D01*
X69941Y43980D01*
Y44111D01*
X69908Y44144D01*
X69843D01*
X69810Y44111D01*
X69744Y44144D02*
X69679D01*
X69711D01*
Y43947D01*
X69744Y43980D01*
X69580D02*
X69547Y43947D01*
X69482D01*
X69449Y43980D01*
Y44013D01*
X69482Y44045D01*
X69515D01*
X69482D01*
X69449Y44078D01*
Y44111D01*
X69482Y44144D01*
X69547D01*
X69580Y44111D01*
X68973Y51601D02*
X69006Y51634D01*
Y51699D01*
X68973Y51732D01*
X68842D01*
X68809Y51699D01*
Y51634D01*
X68842Y51601D01*
X68809Y51536D02*
Y51470D01*
Y51503D01*
X69006D01*
X68973Y51536D01*
X68809Y51240D02*
Y51372D01*
X68940Y51240D01*
X68973D01*
X69006Y51273D01*
Y51339D01*
X68973Y51372D01*
X78592Y51680D02*
Y51811D01*
X78396D01*
Y51680D01*
X78494Y51811D02*
Y51745D01*
X78560Y51483D02*
X78592Y51516D01*
Y51581D01*
X78560Y51614D01*
X78527D01*
X78494Y51581D01*
Y51516D01*
X78461Y51483D01*
X78428D01*
X78396Y51516D01*
Y51581D01*
X78428Y51614D01*
X78592Y51417D02*
X78396D01*
Y51319D01*
X78428Y51286D01*
X78560D01*
X78592Y51319D01*
Y51417D01*
X78396Y51221D02*
Y51155D01*
Y51188D01*
X78592D01*
X78560Y51221D01*
X69022Y35023D02*
X69055Y34990D01*
X69121D01*
X69154Y35023D01*
Y35154D01*
X69121Y35187D01*
X69055D01*
X69022Y35154D01*
X68957Y34990D02*
X68826D01*
Y35023D01*
X68957Y35154D01*
Y35187D01*
X68760Y35023D02*
X68727Y34990D01*
X68662D01*
X68629Y35023D01*
Y35056D01*
X68662Y35089D01*
X68694D01*
X68662D01*
X68629Y35121D01*
Y35154D01*
X68662Y35187D01*
X68727D01*
X68760Y35154D01*
X69022Y35456D02*
X69055Y35423D01*
X69121D01*
X69154Y35456D01*
Y35587D01*
X69121Y35620D01*
X69055D01*
X69022Y35587D01*
X68957Y35423D02*
X68826D01*
Y35456D01*
X68957Y35587D01*
Y35620D01*
X68662D02*
Y35423D01*
X68760Y35522D01*
X68629D01*
X77710Y62221D02*
X77677Y62254D01*
X77612D01*
X77579Y62221D01*
Y62090D01*
X77612Y62057D01*
X77677D01*
X77710Y62090D01*
X77776Y62254D02*
X77907D01*
Y62221D01*
X77776Y62090D01*
Y62057D01*
X77972Y62221D02*
X78005Y62254D01*
X78071D01*
X78103Y62221D01*
Y62188D01*
X78071Y62155D01*
X78038D01*
X78071D01*
X78103Y62123D01*
Y62090D01*
X78071Y62057D01*
X78005D01*
X77972Y62090D01*
X77710Y61788D02*
X77677Y61821D01*
X77612D01*
X77579Y61788D01*
Y61657D01*
X77612Y61624D01*
X77677D01*
X77710Y61657D01*
X77776Y61821D02*
X77907D01*
Y61788D01*
X77776Y61657D01*
Y61624D01*
X78071D02*
Y61821D01*
X77972Y61722D01*
X78103D01*
X70653Y33127D02*
X70620Y33159D01*
X70554D01*
X70522Y33127D01*
Y32995D01*
X70554Y32963D01*
X70620D01*
X70653Y32995D01*
X70850Y33159D02*
X70718D01*
Y33061D01*
X70784Y33094D01*
X70817D01*
X70850Y33061D01*
Y32995D01*
X70817Y32963D01*
X70751D01*
X70718Y32995D01*
X70915Y33127D02*
X70948Y33159D01*
X71014D01*
X71046Y33127D01*
Y33094D01*
X71014Y33061D01*
X71046Y33028D01*
Y32995D01*
X71014Y32963D01*
X70948D01*
X70915Y32995D01*
Y33028D01*
X70948Y33061D01*
X70915Y33094D01*
Y33127D01*
X70948Y33061D02*
X71014D01*
X70725Y34696D02*
X70758Y34663D01*
X70823D01*
X70856Y34696D01*
Y34827D01*
X70823Y34860D01*
X70758D01*
X70725Y34827D01*
X70528Y34663D02*
X70594Y34696D01*
X70660Y34762D01*
Y34827D01*
X70627Y34860D01*
X70561D01*
X70528Y34827D01*
Y34795D01*
X70561Y34762D01*
X70660D01*
X70463Y34696D02*
X70430Y34663D01*
X70364D01*
X70332Y34696D01*
Y34827D01*
X70364Y34860D01*
X70430D01*
X70463Y34827D01*
Y34696D01*
X71657Y35526D02*
X71624Y35559D01*
X71558D01*
X71526Y35526D01*
Y35395D01*
X71558Y35362D01*
X71624D01*
X71657Y35395D01*
X71854Y35559D02*
X71722D01*
Y35461D01*
X71788Y35493D01*
X71821D01*
X71854Y35461D01*
Y35395D01*
X71821Y35362D01*
X71755D01*
X71722Y35395D01*
X72018Y35362D02*
Y35559D01*
X71919Y35461D01*
X72050D01*
X69961Y35677D02*
X70157D01*
Y35579D01*
X70125Y35546D01*
X70059D01*
X70026Y35579D01*
Y35677D01*
Y35612D02*
X69961Y35546D01*
Y35382D02*
X70157D01*
X70059Y35480D01*
Y35349D01*
X69961Y35284D02*
Y35218D01*
Y35251D01*
X70157D01*
X70125Y35284D01*
X70725Y35247D02*
X70758Y35215D01*
X70823D01*
X70856Y35247D01*
Y35379D01*
X70823Y35411D01*
X70758D01*
X70725Y35379D01*
X70528Y35215D02*
X70594Y35247D01*
X70660Y35313D01*
Y35379D01*
X70627Y35411D01*
X70561D01*
X70528Y35379D01*
Y35346D01*
X70561Y35313D01*
X70660D01*
X70463Y35411D02*
X70397D01*
X70430D01*
Y35215D01*
X70463Y35247D01*
X71657Y35999D02*
X71624Y36031D01*
X71558D01*
X71526Y35999D01*
Y35867D01*
X71558Y35835D01*
X71624D01*
X71657Y35867D01*
X71854Y36031D02*
X71722D01*
Y35933D01*
X71788Y35966D01*
X71821D01*
X71854Y35933D01*
Y35867D01*
X71821Y35835D01*
X71755D01*
X71722Y35867D01*
X72050Y36031D02*
X71985Y35999D01*
X71919Y35933D01*
Y35867D01*
X71952Y35835D01*
X72018D01*
X72050Y35867D01*
Y35900D01*
X72018Y35933D01*
X71919D01*
X69022Y35889D02*
X69055Y35856D01*
X69121D01*
X69154Y35889D01*
Y36020D01*
X69121Y36053D01*
X69055D01*
X69022Y36020D01*
X68957Y35856D02*
X68826D01*
Y35889D01*
X68957Y36020D01*
Y36053D01*
X68629Y35856D02*
X68760D01*
Y35955D01*
X68694Y35922D01*
X68662D01*
X68629Y35955D01*
Y36020D01*
X68662Y36053D01*
X68727D01*
X68760Y36020D01*
X69022Y36322D02*
X69055Y36289D01*
X69121D01*
X69154Y36322D01*
Y36453D01*
X69121Y36486D01*
X69055D01*
X69022Y36453D01*
X68957Y36289D02*
X68826D01*
Y36322D01*
X68957Y36453D01*
Y36486D01*
X68629Y36289D02*
X68694Y36322D01*
X68760Y36388D01*
Y36453D01*
X68727Y36486D01*
X68662D01*
X68629Y36453D01*
Y36421D01*
X68662Y36388D01*
X68760D01*
X73284Y35781D02*
X73317Y35748D01*
X73383D01*
X73415Y35781D01*
Y35912D01*
X73383Y35945D01*
X73317D01*
X73284Y35912D01*
X73120Y35945D02*
Y35748D01*
X73219Y35846D01*
X73087D01*
X72891Y35945D02*
X73022D01*
X72891Y35814D01*
Y35781D01*
X72923Y35748D01*
X72989D01*
X73022Y35781D01*
X69193Y36880D02*
Y36683D01*
X69095D01*
X69062Y36716D01*
Y36782D01*
X69095Y36814D01*
X69193D01*
X69127D02*
X69062Y36880D01*
X68898D02*
Y36683D01*
X68996Y36782D01*
X68865D01*
X68799Y36716D02*
X68767Y36683D01*
X68701D01*
X68668Y36716D01*
Y36847D01*
X68701Y36880D01*
X68767D01*
X68799Y36847D01*
Y36716D01*
X73606Y36030D02*
X73573Y36063D01*
X73507D01*
X73474Y36030D01*
Y35899D01*
X73507Y35866D01*
X73573D01*
X73606Y35899D01*
X73770Y35866D02*
Y36063D01*
X73671Y35965D01*
X73802D01*
X73868Y35866D02*
X73934D01*
X73901D01*
Y36063D01*
X73868Y36030D01*
X73287Y36624D02*
Y36427D01*
X73189D01*
X73156Y36460D01*
Y36526D01*
X73189Y36558D01*
X73287D01*
X73222D02*
X73156Y36624D01*
X73091Y36460D02*
X73058Y36427D01*
X72992D01*
X72959Y36460D01*
Y36493D01*
X72992Y36526D01*
X73025D01*
X72992D01*
X72959Y36558D01*
Y36591D01*
X72992Y36624D01*
X73058D01*
X73091Y36591D01*
X72894Y36460D02*
X72861Y36427D01*
X72795D01*
X72763Y36460D01*
Y36493D01*
X72795Y36526D01*
X72763Y36558D01*
Y36591D01*
X72795Y36624D01*
X72861D01*
X72894Y36591D01*
Y36558D01*
X72861Y36526D01*
X72894Y36493D01*
Y36460D01*
X72861Y36526D02*
X72795D01*
X72267Y34875D02*
X72234Y34842D01*
Y34777D01*
X72267Y34744D01*
X72398D01*
X72431Y34777D01*
Y34842D01*
X72398Y34875D01*
X72431Y35039D02*
X72234D01*
X72333Y34941D01*
Y35072D01*
X72431Y35236D02*
X72234D01*
X72333Y35138D01*
Y35269D01*
X69022Y37228D02*
X69055Y37195D01*
X69121D01*
X69154Y37228D01*
Y37359D01*
X69121Y37392D01*
X69055D01*
X69022Y37359D01*
X68957Y37195D02*
X68826D01*
Y37228D01*
X68957Y37359D01*
Y37392D01*
X68760Y37195D02*
X68629D01*
Y37228D01*
X68760Y37359D01*
Y37392D01*
X68655Y38973D02*
X68622Y39006D01*
X68556D01*
X68524Y38973D01*
Y38842D01*
X68556Y38809D01*
X68622D01*
X68655Y38842D01*
X68852Y39006D02*
X68786Y38973D01*
X68720Y38907D01*
Y38842D01*
X68753Y38809D01*
X68819D01*
X68852Y38842D01*
Y38875D01*
X68819Y38907D01*
X68720D01*
X68917Y38973D02*
X68950Y39006D01*
X69016D01*
X69048Y38973D01*
Y38940D01*
X69016Y38907D01*
X69048Y38875D01*
Y38842D01*
X69016Y38809D01*
X68950D01*
X68917Y38842D01*
Y38875D01*
X68950Y38907D01*
X68917Y38940D01*
Y38973D01*
X68950Y38907D02*
X69016D01*
X73235Y36999D02*
X73268Y36967D01*
X73333D01*
X73366Y36999D01*
Y37131D01*
X73333Y37163D01*
X73268D01*
X73235Y37131D01*
X73071Y37163D02*
Y36967D01*
X73169Y37065D01*
X73038D01*
X72841Y36967D02*
X72907Y36999D01*
X72973Y37065D01*
Y37131D01*
X72940Y37163D01*
X72874D01*
X72841Y37131D01*
Y37098D01*
X72874Y37065D01*
X72973D01*
X68655Y38501D02*
X68622Y38533D01*
X68556D01*
X68524Y38501D01*
Y38369D01*
X68556Y38337D01*
X68622D01*
X68655Y38369D01*
X68852Y38533D02*
X68786Y38501D01*
X68720Y38435D01*
Y38369D01*
X68753Y38337D01*
X68819D01*
X68852Y38369D01*
Y38402D01*
X68819Y38435D01*
X68720D01*
X68917Y38369D02*
X68950Y38337D01*
X69016D01*
X69048Y38369D01*
Y38501D01*
X69016Y38533D01*
X68950D01*
X68917Y38501D01*
Y38468D01*
X68950Y38435D01*
X69048D01*
X72530Y39762D02*
Y39959D01*
X72628D01*
X72661Y39926D01*
Y39860D01*
X72628Y39827D01*
X72530D01*
X72595D02*
X72661Y39762D01*
X72825D02*
Y39959D01*
X72726Y39860D01*
X72858D01*
X73054Y39762D02*
X72923D01*
X73054Y39893D01*
Y39926D01*
X73021Y39959D01*
X72956D01*
X72923Y39926D01*
X73235Y37462D02*
X73268Y37429D01*
X73333D01*
X73366Y37462D01*
Y37593D01*
X73333Y37626D01*
X73268D01*
X73235Y37593D01*
X73071Y37626D02*
Y37429D01*
X73169Y37528D01*
X73038D01*
X72841Y37429D02*
X72973D01*
Y37528D01*
X72907Y37495D01*
X72874D01*
X72841Y37528D01*
Y37593D01*
X72874Y37626D01*
X72940D01*
X72973Y37593D01*
X73927Y39083D02*
X74124D01*
Y38984D01*
X74091Y38951D01*
X74026D01*
X73993Y38984D01*
Y39083D01*
Y39017D02*
X73927Y38951D01*
Y38788D02*
X74124D01*
X74026Y38886D01*
Y38755D01*
X74091Y38689D02*
X74124Y38656D01*
Y38591D01*
X74091Y38558D01*
X74058D01*
X74026Y38591D01*
Y38624D01*
Y38591D01*
X73993Y38558D01*
X73960D01*
X73927Y38591D01*
Y38656D01*
X73960Y38689D01*
X73068Y38062D02*
X73100Y38030D01*
X73166D01*
X73199Y38062D01*
Y38194D01*
X73166Y38226D01*
X73100D01*
X73068Y38194D01*
X72904Y38226D02*
Y38030D01*
X73002Y38128D01*
X72871D01*
X72805Y38062D02*
X72772Y38030D01*
X72707D01*
X72674Y38062D01*
Y38095D01*
X72707Y38128D01*
X72674Y38161D01*
Y38194D01*
X72707Y38226D01*
X72772D01*
X72805Y38194D01*
Y38161D01*
X72772Y38128D01*
X72805Y38095D01*
Y38062D01*
X72772Y38128D02*
X72707D01*
X69639Y39482D02*
X69606Y39449D01*
Y39383D01*
X69639Y39350D01*
X69770D01*
X69803Y39383D01*
Y39449D01*
X69770Y39482D01*
X69606Y39547D02*
Y39678D01*
X69639D01*
X69770Y39547D01*
X69803D01*
X69639Y39744D02*
X69606Y39777D01*
Y39842D01*
X69639Y39875D01*
X69770D01*
X69803Y39842D01*
Y39777D01*
X69770Y39744D01*
X69639D01*
X70282Y38251D02*
X70315Y38219D01*
X70381D01*
X70413Y38251D01*
Y38383D01*
X70381Y38415D01*
X70315D01*
X70282Y38383D01*
X70085Y38219D02*
X70151Y38251D01*
X70217Y38317D01*
Y38383D01*
X70184Y38415D01*
X70118D01*
X70085Y38383D01*
Y38350D01*
X70118Y38317D01*
X70217D01*
X70020Y38219D02*
X69889D01*
Y38251D01*
X70020Y38383D01*
Y38415D01*
X73068Y38653D02*
X73100Y38620D01*
X73166D01*
X73199Y38653D01*
Y38784D01*
X73166Y38817D01*
X73100D01*
X73068Y38784D01*
X73002Y38620D02*
X72871D01*
Y38653D01*
X73002Y38784D01*
Y38817D01*
X72805Y38653D02*
X72772Y38620D01*
X72707D01*
X72674Y38653D01*
Y38686D01*
X72707Y38719D01*
X72674Y38751D01*
Y38784D01*
X72707Y38817D01*
X72772D01*
X72805Y38784D01*
Y38751D01*
X72772Y38719D01*
X72805Y38686D01*
Y38653D01*
X72772Y38719D02*
X72707D01*
X71588Y38894D02*
X71555Y38927D01*
X71489D01*
X71457Y38894D01*
Y38763D01*
X71489Y38730D01*
X71555D01*
X71588Y38763D01*
X71785Y38927D02*
X71653D01*
Y38829D01*
X71719Y38861D01*
X71752D01*
X71785Y38829D01*
Y38763D01*
X71752Y38730D01*
X71686D01*
X71653Y38763D01*
X71981Y38730D02*
X71850D01*
X71981Y38861D01*
Y38894D01*
X71949Y38927D01*
X71883D01*
X71850Y38894D01*
X71529Y39393D02*
X71496Y39360D01*
Y39295D01*
X71529Y39262D01*
X71660D01*
X71693Y39295D01*
Y39360D01*
X71660Y39393D01*
X71496Y39590D02*
Y39459D01*
X71595D01*
X71562Y39524D01*
Y39557D01*
X71595Y39590D01*
X71660D01*
X71693Y39557D01*
Y39491D01*
X71660Y39459D01*
X71529Y39655D02*
X71496Y39688D01*
Y39754D01*
X71529Y39787D01*
X71562D01*
X71595Y39754D01*
Y39721D01*
Y39754D01*
X71627Y39787D01*
X71660D01*
X71693Y39754D01*
Y39688D01*
X71660Y39655D01*
X70236Y40925D02*
X70433D01*
Y41056D01*
Y41122D02*
Y41188D01*
Y41155D01*
X70236D01*
X70269Y41122D01*
X70236Y41286D02*
Y41417D01*
X70269D01*
X70400Y41286D01*
X70433D01*
X71319Y40207D02*
Y40010D01*
X71220D01*
X71188Y40043D01*
Y40108D01*
X71220Y40141D01*
X71319D01*
X71253D02*
X71188Y40207D01*
X71122Y40043D02*
X71089Y40010D01*
X71024D01*
X70991Y40043D01*
Y40075D01*
X71024Y40108D01*
X71057D01*
X71024D01*
X70991Y40141D01*
Y40174D01*
X71024Y40207D01*
X71089D01*
X71122Y40174D01*
X70925D02*
X70893Y40207D01*
X70827D01*
X70794Y40174D01*
Y40043D01*
X70827Y40010D01*
X70893D01*
X70925Y40043D01*
Y40075D01*
X70893Y40108D01*
X70794D01*
X71883Y41936D02*
X71850Y41968D01*
X71785D01*
X71752Y41936D01*
Y41804D01*
X71785Y41772D01*
X71850D01*
X71883Y41804D01*
X72080Y41968D02*
X72014Y41936D01*
X71949Y41870D01*
Y41804D01*
X71982Y41772D01*
X72047D01*
X72080Y41804D01*
Y41837D01*
X72047Y41870D01*
X71949D01*
X72277Y41968D02*
X72146D01*
Y41870D01*
X72211Y41903D01*
X72244D01*
X72277Y41870D01*
Y41804D01*
X72244Y41772D01*
X72178D01*
X72146Y41804D01*
X71923Y40804D02*
X71890Y40837D01*
X71824D01*
X71791Y40804D01*
Y40673D01*
X71824Y40640D01*
X71890D01*
X71923Y40673D01*
X72119Y40837D02*
X71988D01*
Y40738D01*
X72054Y40771D01*
X72087D01*
X72119Y40738D01*
Y40673D01*
X72087Y40640D01*
X72021D01*
X71988Y40673D01*
X72185D02*
X72218Y40640D01*
X72283D01*
X72316Y40673D01*
Y40804D01*
X72283Y40837D01*
X72218D01*
X72185Y40804D01*
Y40771D01*
X72218Y40738D01*
X72316D01*
X69816Y41096D02*
X69784Y41063D01*
Y40997D01*
X69816Y40965D01*
X69948D01*
X69980Y40997D01*
Y41063D01*
X69948Y41096D01*
X69784Y41293D02*
X69816Y41227D01*
X69882Y41161D01*
X69948D01*
X69980Y41194D01*
Y41260D01*
X69948Y41293D01*
X69915D01*
X69882Y41260D01*
Y41161D01*
X69784Y41489D02*
X69816Y41424D01*
X69882Y41358D01*
X69948D01*
X69980Y41391D01*
Y41457D01*
X69948Y41489D01*
X69915D01*
X69882Y41457D01*
Y41358D01*
X76017Y41509D02*
X75984Y41476D01*
Y41411D01*
X76017Y41378D01*
X76148D01*
X76181Y41411D01*
Y41476D01*
X76148Y41509D01*
X75984Y41706D02*
X76017Y41640D01*
X76083Y41575D01*
X76148D01*
X76181Y41608D01*
Y41673D01*
X76148Y41706D01*
X76116D01*
X76083Y41673D01*
Y41575D01*
X76017Y41772D02*
X75984Y41804D01*
Y41870D01*
X76017Y41903D01*
X76050D01*
X76083Y41870D01*
Y41837D01*
Y41870D01*
X76116Y41903D01*
X76148D01*
X76181Y41870D01*
Y41804D01*
X76148Y41772D01*
X74104Y40010D02*
Y40207D01*
X73973D01*
X73908D02*
X73842D01*
X73875D01*
Y40010D01*
X73908Y40043D01*
X73645Y40207D02*
Y40010D01*
X73744Y40108D01*
X73612D01*
X72582Y40554D02*
X72549Y40522D01*
Y40456D01*
X72582Y40423D01*
X72713D01*
X72746Y40456D01*
Y40522D01*
X72713Y40554D01*
X72746Y40718D02*
X72549D01*
X72648Y40620D01*
Y40751D01*
X72549Y40817D02*
Y40948D01*
X72582D01*
X72713Y40817D01*
X72746D01*
X73944Y40673D02*
X73976Y40640D01*
X74042D01*
X74075Y40673D01*
Y40804D01*
X74042Y40837D01*
X73976D01*
X73944Y40804D01*
X73747Y40640D02*
X73878D01*
Y40738D01*
X73812Y40705D01*
X73780D01*
X73747Y40738D01*
Y40804D01*
X73780Y40837D01*
X73845D01*
X73878Y40804D01*
X73681Y40837D02*
X73616D01*
X73648D01*
Y40640D01*
X73681Y40673D01*
X74809Y38539D02*
Y38408D01*
X74776D01*
X74645Y38539D01*
X74612D01*
Y38408D01*
X74776Y38343D02*
X74809Y38310D01*
Y38244D01*
X74776Y38211D01*
X74743D01*
X74711Y38244D01*
Y38277D01*
Y38244D01*
X74678Y38211D01*
X74645D01*
X74612Y38244D01*
Y38310D01*
X74645Y38343D01*
X74793Y39971D02*
X74760Y40004D01*
X74694D01*
X74661Y39971D01*
Y39840D01*
X74694Y39807D01*
X74760D01*
X74793Y39840D01*
X74989Y40004D02*
X74858D01*
Y39905D01*
X74924Y39938D01*
X74957D01*
X74989Y39905D01*
Y39840D01*
X74957Y39807D01*
X74891D01*
X74858Y39840D01*
X75186Y40004D02*
X75055D01*
Y39905D01*
X75121Y39938D01*
X75153D01*
X75186Y39905D01*
Y39840D01*
X75153Y39807D01*
X75088D01*
X75055Y39840D01*
X74793Y39508D02*
X74760Y39541D01*
X74694D01*
X74661Y39508D01*
Y39377D01*
X74694Y39344D01*
X74760D01*
X74793Y39377D01*
X74989Y39541D02*
X74858D01*
Y39443D01*
X74924Y39476D01*
X74957D01*
X74989Y39443D01*
Y39377D01*
X74957Y39344D01*
X74891D01*
X74858Y39377D01*
X75055Y39508D02*
X75088Y39541D01*
X75153D01*
X75186Y39508D01*
Y39377D01*
X75153Y39344D01*
X75088D01*
X75055Y39377D01*
Y39508D01*
X77539Y39134D02*
Y39331D01*
X77408D01*
X77343D02*
X77277D01*
X77310D01*
Y39134D01*
X77343Y39167D01*
X77047Y39134D02*
X77113Y39167D01*
X77179Y39232D01*
Y39298D01*
X77146Y39331D01*
X77080D01*
X77047Y39298D01*
Y39265D01*
X77080Y39232D01*
X77179D01*
X77618Y35648D02*
Y35844D01*
X77487D01*
X77421D02*
X77356D01*
X77389D01*
Y35648D01*
X77421Y35680D01*
X77257D02*
X77225Y35648D01*
X77159D01*
X77126Y35680D01*
Y35713D01*
X77159Y35746D01*
X77192D01*
X77159D01*
X77126Y35779D01*
Y35812D01*
X77159Y35844D01*
X77225D01*
X77257Y35812D01*
X76427Y35197D02*
Y35394D01*
X76526D01*
X76558Y35361D01*
Y35295D01*
X76526Y35262D01*
X76427D01*
X76493D02*
X76558Y35197D01*
X76624Y35361D02*
X76657Y35394D01*
X76722D01*
X76755Y35361D01*
Y35328D01*
X76722Y35295D01*
X76690D01*
X76722D01*
X76755Y35262D01*
Y35230D01*
X76722Y35197D01*
X76657D01*
X76624Y35230D01*
X76952Y35394D02*
X76886Y35361D01*
X76821Y35295D01*
Y35230D01*
X76854Y35197D01*
X76919D01*
X76952Y35230D01*
Y35262D01*
X76919Y35295D01*
X76821D01*
X77247Y40534D02*
X77279Y40567D01*
Y40633D01*
X77247Y40665D01*
X77115D01*
X77083Y40633D01*
Y40567D01*
X77115Y40534D01*
X77279Y40337D02*
X77247Y40403D01*
X77181Y40469D01*
X77115D01*
X77083Y40436D01*
Y40370D01*
X77115Y40337D01*
X77148D01*
X77181Y40370D01*
Y40469D01*
X77083Y40141D02*
Y40272D01*
X77214Y40141D01*
X77247D01*
X77279Y40173D01*
Y40239D01*
X77247Y40272D01*
X76997Y39432D02*
X76965Y39464D01*
X76899D01*
X76866Y39432D01*
Y39301D01*
X76899Y39268D01*
X76965D01*
X76997Y39301D01*
X77194Y39464D02*
X77063D01*
Y39366D01*
X77129Y39399D01*
X77161D01*
X77194Y39366D01*
Y39301D01*
X77161Y39268D01*
X77096D01*
X77063Y39301D01*
X77260Y39464D02*
X77391D01*
Y39432D01*
X77260Y39301D01*
Y39268D01*
X76106Y35604D02*
X76073Y35571D01*
Y35505D01*
X76106Y35472D01*
X76237D01*
X76270Y35505D01*
Y35571D01*
X76237Y35604D01*
X76270Y35768D02*
X76073D01*
X76171Y35669D01*
Y35800D01*
X76237Y35866D02*
X76270Y35899D01*
Y35964D01*
X76237Y35997D01*
X76106D01*
X76073Y35964D01*
Y35899D01*
X76106Y35866D01*
X76138D01*
X76171Y35899D01*
Y35997D01*
X78038Y35218D02*
X78071Y35185D01*
X78137D01*
X78169Y35218D01*
Y35349D01*
X78137Y35382D01*
X78071D01*
X78038Y35349D01*
X77874Y35382D02*
Y35185D01*
X77973Y35284D01*
X77841D01*
X77776Y35218D02*
X77743Y35185D01*
X77677D01*
X77645Y35218D01*
Y35251D01*
X77677Y35284D01*
X77710D01*
X77677D01*
X77645Y35316D01*
Y35349D01*
X77677Y35382D01*
X77743D01*
X77776Y35349D01*
X77334Y34313D02*
X77137D01*
Y34411D01*
X77170Y34444D01*
X77236D01*
X77268Y34411D01*
Y34313D01*
Y34379D02*
X77334Y34444D01*
X77170Y34510D02*
X77137Y34543D01*
Y34608D01*
X77170Y34641D01*
X77203D01*
X77236Y34608D01*
Y34575D01*
Y34608D01*
X77268Y34641D01*
X77301D01*
X77334Y34608D01*
Y34543D01*
X77301Y34510D01*
X77137Y34707D02*
Y34838D01*
X77170D01*
X77301Y34707D01*
X77334D01*
X77136Y34154D02*
Y33957D01*
X77037D01*
X77005Y33990D01*
Y34055D01*
X77037Y34088D01*
X77136D01*
X77070D02*
X77005Y34154D01*
X76939Y33990D02*
X76906Y33957D01*
X76841D01*
X76808Y33990D01*
Y34022D01*
X76841Y34055D01*
X76873D01*
X76841D01*
X76808Y34088D01*
Y34121D01*
X76841Y34154D01*
X76906D01*
X76939Y34121D01*
X76611Y33957D02*
X76742D01*
Y34055D01*
X76677Y34022D01*
X76644D01*
X76611Y34055D01*
Y34121D01*
X76644Y34154D01*
X76709D01*
X76742Y34121D01*
X75121Y64829D02*
X75089Y64862D01*
X75023D01*
X74990Y64829D01*
Y64698D01*
X75023Y64665D01*
X75089D01*
X75121Y64698D01*
X75318Y64862D02*
X75187D01*
Y64764D01*
X75253Y64797D01*
X75285D01*
X75318Y64764D01*
Y64698D01*
X75285Y64665D01*
X75220D01*
X75187Y64698D01*
X75384Y64829D02*
X75417Y64862D01*
X75482D01*
X75515Y64829D01*
Y64797D01*
X75482Y64764D01*
X75515Y64731D01*
Y64698D01*
X75482Y64665D01*
X75417D01*
X75384Y64698D01*
Y64731D01*
X75417Y64764D01*
X75384Y64797D01*
Y64829D01*
X75417Y64764D02*
X75482D01*
X75712Y65321D02*
X75679Y65354D01*
X75613D01*
X75581Y65321D01*
Y65190D01*
X75613Y65157D01*
X75679D01*
X75712Y65190D01*
X75777Y65354D02*
X75909D01*
Y65321D01*
X75777Y65190D01*
Y65157D01*
X76105D02*
X75974D01*
X76105Y65289D01*
Y65321D01*
X76073Y65354D01*
X76007D01*
X75974Y65321D01*
X77618Y62295D02*
Y62492D01*
X77487D01*
X77290Y62295D02*
X77421D01*
Y62492D01*
X77290D01*
X77421Y62394D02*
X77356D01*
X77225Y62295D02*
Y62492D01*
X77126D01*
X77093Y62459D01*
Y62328D01*
X77126Y62295D01*
X77225D01*
X77028Y62492D02*
X76962D01*
X76995D01*
Y62295D01*
X77028Y62328D01*
X76007Y62548D02*
X75974Y62581D01*
X75909D01*
X75876Y62548D01*
Y62417D01*
X75909Y62384D01*
X75974D01*
X76007Y62417D01*
X76204Y62581D02*
X76138Y62548D01*
X76073Y62482D01*
Y62417D01*
X76106Y62384D01*
X76171D01*
X76204Y62417D01*
Y62449D01*
X76171Y62482D01*
X76073D01*
X76270Y62548D02*
X76302Y62581D01*
X76368D01*
X76401Y62548D01*
Y62417D01*
X76368Y62384D01*
X76302D01*
X76270Y62417D01*
Y62548D01*
X75075Y61718D02*
X75108Y61685D01*
X75174D01*
X75207Y61718D01*
Y61849D01*
X75174Y61882D01*
X75108D01*
X75075Y61849D01*
X74879Y61685D02*
X75010D01*
Y61783D01*
X74944Y61751D01*
X74912D01*
X74879Y61783D01*
Y61849D01*
X74912Y61882D01*
X74977D01*
X75010Y61849D01*
X74715Y61882D02*
Y61685D01*
X74813Y61783D01*
X74682D01*
X76772Y61567D02*
X76575D01*
Y61665D01*
X76608Y61698D01*
X76673D01*
X76706Y61665D01*
Y61567D01*
Y61633D02*
X76772Y61698D01*
Y61862D02*
X76575D01*
X76673Y61764D01*
Y61895D01*
X76772Y61961D02*
Y62026D01*
Y61993D01*
X76575D01*
X76608Y61961D01*
X76007Y61997D02*
X75974Y62029D01*
X75909D01*
X75876Y61997D01*
Y61865D01*
X75909Y61833D01*
X75974D01*
X76007Y61865D01*
X76204Y62029D02*
X76138Y61997D01*
X76073Y61931D01*
Y61865D01*
X76106Y61833D01*
X76171D01*
X76204Y61865D01*
Y61898D01*
X76171Y61931D01*
X76073D01*
X76270Y61833D02*
X76335D01*
X76302D01*
Y62029D01*
X76270Y61997D01*
X75075Y61245D02*
X75108Y61213D01*
X75174D01*
X75207Y61245D01*
Y61377D01*
X75174Y61409D01*
X75108D01*
X75075Y61377D01*
X74879Y61213D02*
X75010D01*
Y61311D01*
X74944Y61278D01*
X74912D01*
X74879Y61311D01*
Y61377D01*
X74912Y61409D01*
X74977D01*
X75010Y61377D01*
X74682Y61213D02*
X74748Y61245D01*
X74813Y61311D01*
Y61377D01*
X74780Y61409D01*
X74715D01*
X74682Y61377D01*
Y61344D01*
X74715Y61311D01*
X74813D01*
X75118Y60297D02*
Y60133D01*
X75151Y60100D01*
X75216D01*
X75249Y60133D01*
Y60297D01*
X75315Y60100D02*
X75380D01*
X75348D01*
Y60297D01*
X75315Y60264D01*
X75610Y60100D02*
X75479D01*
X75610Y60232D01*
Y60264D01*
X75577Y60297D01*
X75512D01*
X75479Y60264D01*
X77710Y61355D02*
X77677Y61388D01*
X77612D01*
X77579Y61355D01*
Y61224D01*
X77612Y61191D01*
X77677D01*
X77710Y61224D01*
X77776Y61388D02*
X77907D01*
Y61355D01*
X77776Y61224D01*
Y61191D01*
X78103Y61388D02*
X77972D01*
Y61289D01*
X78038Y61322D01*
X78071D01*
X78103Y61289D01*
Y61224D01*
X78071Y61191D01*
X78005D01*
X77972Y61224D01*
X77710Y60922D02*
X77677Y60955D01*
X77612D01*
X77579Y60922D01*
Y60791D01*
X77612Y60758D01*
X77677D01*
X77710Y60791D01*
X77776Y60955D02*
X77907D01*
Y60922D01*
X77776Y60791D01*
Y60758D01*
X78103Y60955D02*
X78038Y60922D01*
X77972Y60856D01*
Y60791D01*
X78005Y60758D01*
X78071D01*
X78103Y60791D01*
Y60823D01*
X78071Y60856D01*
X77972D01*
X73458Y61463D02*
X73425Y61496D01*
X73360D01*
X73327Y61463D01*
Y61332D01*
X73360Y61299D01*
X73425D01*
X73458Y61332D01*
X73622Y61299D02*
Y61496D01*
X73524Y61398D01*
X73655D01*
X73852Y61299D02*
X73720D01*
X73852Y61430D01*
Y61463D01*
X73819Y61496D01*
X73753D01*
X73720Y61463D01*
X77539Y60364D02*
Y60561D01*
X77638D01*
X77671Y60528D01*
Y60463D01*
X77638Y60430D01*
X77539D01*
X77605D02*
X77671Y60364D01*
X77835D02*
Y60561D01*
X77736Y60463D01*
X77867D01*
X77933Y60528D02*
X77966Y60561D01*
X78031D01*
X78064Y60528D01*
Y60397D01*
X78031Y60364D01*
X77966D01*
X77933Y60397D01*
Y60528D01*
X73127Y61194D02*
X73159Y61161D01*
X73225D01*
X73258Y61194D01*
Y61325D01*
X73225Y61358D01*
X73159D01*
X73127Y61325D01*
X72963Y61358D02*
Y61161D01*
X73061Y61260D01*
X72930D01*
X72864Y61358D02*
X72799D01*
X72832D01*
Y61161D01*
X72864Y61194D01*
X73445Y60620D02*
Y60817D01*
X73543D01*
X73576Y60784D01*
Y60718D01*
X73543Y60686D01*
X73445D01*
X73510D02*
X73576Y60620D01*
X73642Y60784D02*
X73674Y60817D01*
X73740D01*
X73773Y60784D01*
Y60751D01*
X73740Y60718D01*
X73707D01*
X73740D01*
X73773Y60686D01*
Y60653D01*
X73740Y60620D01*
X73674D01*
X73642Y60653D01*
X73838Y60784D02*
X73871Y60817D01*
X73937D01*
X73970Y60784D01*
Y60751D01*
X73937Y60718D01*
X73970Y60686D01*
Y60653D01*
X73937Y60620D01*
X73871D01*
X73838Y60653D01*
Y60686D01*
X73871Y60718D01*
X73838Y60751D01*
Y60784D01*
X73871Y60718D02*
X73937D01*
X74485Y62369D02*
X74518Y62402D01*
Y62467D01*
X74485Y62500D01*
X74354D01*
X74321Y62467D01*
Y62402D01*
X74354Y62369D01*
X74321Y62205D02*
X74518D01*
X74419Y62303D01*
Y62172D01*
X74321Y62008D02*
X74518D01*
X74419Y62106D01*
Y61975D01*
X77710Y60016D02*
X77677Y60049D01*
X77612D01*
X77579Y60016D01*
Y59885D01*
X77612Y59852D01*
X77677D01*
X77710Y59885D01*
X77776Y60049D02*
X77907D01*
Y60016D01*
X77776Y59885D01*
Y59852D01*
X77972Y60049D02*
X78103D01*
Y60016D01*
X77972Y59885D01*
Y59852D01*
X78077Y58271D02*
X78110Y58238D01*
X78176D01*
X78209Y58271D01*
Y58402D01*
X78176Y58435D01*
X78110D01*
X78077Y58402D01*
X77881Y58238D02*
X77946Y58271D01*
X78012Y58337D01*
Y58402D01*
X77979Y58435D01*
X77913D01*
X77881Y58402D01*
Y58369D01*
X77913Y58337D01*
X78012D01*
X77815Y58271D02*
X77782Y58238D01*
X77717D01*
X77684Y58271D01*
Y58304D01*
X77717Y58337D01*
X77684Y58369D01*
Y58402D01*
X77717Y58435D01*
X77782D01*
X77815Y58402D01*
Y58369D01*
X77782Y58337D01*
X77815Y58304D01*
Y58271D01*
X77782Y58337D02*
X77717D01*
X73497Y60245D02*
X73465Y60277D01*
X73399D01*
X73366Y60245D01*
Y60114D01*
X73399Y60081D01*
X73465D01*
X73497Y60114D01*
X73661Y60081D02*
Y60277D01*
X73563Y60179D01*
X73694D01*
X73891Y60277D02*
X73825Y60245D01*
X73760Y60179D01*
Y60114D01*
X73793Y60081D01*
X73858D01*
X73891Y60114D01*
Y60146D01*
X73858Y60179D01*
X73760D01*
X78077Y58822D02*
X78110Y58789D01*
X78176D01*
X78209Y58822D01*
Y58953D01*
X78176Y58986D01*
X78110D01*
X78077Y58953D01*
X77881Y58789D02*
X77946Y58822D01*
X78012Y58888D01*
Y58953D01*
X77979Y58986D01*
X77913D01*
X77881Y58953D01*
Y58921D01*
X77913Y58888D01*
X78012D01*
X77815Y58953D02*
X77782Y58986D01*
X77717D01*
X77684Y58953D01*
Y58822D01*
X77717Y58789D01*
X77782D01*
X77815Y58822D01*
Y58855D01*
X77782Y58888D01*
X77684D01*
X74203Y57482D02*
Y57285D01*
X74104D01*
X74072Y57318D01*
Y57384D01*
X74104Y57417D01*
X74203D01*
X74137D02*
X74072Y57482D01*
X73908D02*
Y57285D01*
X74006Y57384D01*
X73875D01*
X73678Y57482D02*
X73809D01*
X73678Y57351D01*
Y57318D01*
X73711Y57285D01*
X73776D01*
X73809Y57318D01*
X73497Y59782D02*
X73465Y59815D01*
X73399D01*
X73366Y59782D01*
Y59651D01*
X73399Y59618D01*
X73465D01*
X73497Y59651D01*
X73661Y59618D02*
Y59815D01*
X73563Y59717D01*
X73694D01*
X73891Y59815D02*
X73760D01*
Y59717D01*
X73825Y59749D01*
X73858D01*
X73891Y59717D01*
Y59651D01*
X73858Y59618D01*
X73793D01*
X73760Y59651D01*
X72805Y58161D02*
X72608D01*
Y58260D01*
X72641Y58293D01*
X72707D01*
X72740Y58260D01*
Y58161D01*
Y58227D02*
X72805Y58293D01*
Y58457D02*
X72608D01*
X72707Y58358D01*
Y58489D01*
X72641Y58555D02*
X72608Y58588D01*
Y58653D01*
X72641Y58686D01*
X72674D01*
X72707Y58653D01*
Y58621D01*
Y58653D01*
X72740Y58686D01*
X72772D01*
X72805Y58653D01*
Y58588D01*
X72772Y58555D01*
X73665Y59182D02*
X73632Y59215D01*
X73566D01*
X73533Y59182D01*
Y59051D01*
X73566Y59018D01*
X73632D01*
X73665Y59051D01*
X73829Y59018D02*
Y59215D01*
X73730Y59116D01*
X73861D01*
X73927Y59182D02*
X73960Y59215D01*
X74025D01*
X74058Y59182D01*
Y59149D01*
X74025Y59116D01*
X74058Y59083D01*
Y59051D01*
X74025Y59018D01*
X73960D01*
X73927Y59051D01*
Y59083D01*
X73960Y59116D01*
X73927Y59149D01*
Y59182D01*
X73960Y59116D02*
X74025D01*
X77093Y57763D02*
X77126Y57795D01*
Y57861D01*
X77093Y57894D01*
X76962D01*
X76929Y57861D01*
Y57795D01*
X76962Y57763D01*
X77126Y57697D02*
Y57566D01*
X77093D01*
X76962Y57697D01*
X76929D01*
X77093Y57500D02*
X77126Y57467D01*
Y57402D01*
X77093Y57369D01*
X76962D01*
X76929Y57402D01*
Y57467D01*
X76962Y57500D01*
X77093D01*
X76450Y58993D02*
X76417Y59026D01*
X76352D01*
X76319Y58993D01*
Y58862D01*
X76352Y58829D01*
X76417D01*
X76450Y58862D01*
X76647Y59026D02*
X76581Y58993D01*
X76516Y58927D01*
Y58862D01*
X76548Y58829D01*
X76614D01*
X76647Y58862D01*
Y58894D01*
X76614Y58927D01*
X76516D01*
X76712Y59026D02*
X76844D01*
Y58993D01*
X76712Y58862D01*
Y58829D01*
X73665Y58591D02*
X73632Y58624D01*
X73566D01*
X73533Y58591D01*
Y58460D01*
X73566Y58427D01*
X73632D01*
X73665Y58460D01*
X73730Y58624D02*
X73861D01*
Y58591D01*
X73730Y58460D01*
Y58427D01*
X73927Y58591D02*
X73960Y58624D01*
X74025D01*
X74058Y58591D01*
Y58558D01*
X74025Y58526D01*
X74058Y58493D01*
Y58460D01*
X74025Y58427D01*
X73960D01*
X73927Y58460D01*
Y58493D01*
X73960Y58526D01*
X73927Y58558D01*
Y58591D01*
X73960Y58526D02*
X74025D01*
X75144Y58350D02*
X75177Y58317D01*
X75243D01*
X75276Y58350D01*
Y58481D01*
X75243Y58514D01*
X75177D01*
X75144Y58481D01*
X74948Y58317D02*
X75079D01*
Y58415D01*
X75013Y58383D01*
X74980D01*
X74948Y58415D01*
Y58481D01*
X74980Y58514D01*
X75046D01*
X75079Y58481D01*
X74751Y58514D02*
X74882D01*
X74751Y58383D01*
Y58350D01*
X74784Y58317D01*
X74849D01*
X74882Y58350D01*
X75174Y57831D02*
X75207Y57864D01*
Y57930D01*
X75174Y57963D01*
X75043D01*
X75010Y57930D01*
Y57864D01*
X75043Y57831D01*
X75207Y57635D02*
Y57766D01*
X75108D01*
X75141Y57700D01*
Y57667D01*
X75108Y57635D01*
X75043D01*
X75010Y57667D01*
Y57733D01*
X75043Y57766D01*
X75174Y57569D02*
X75207Y57536D01*
Y57471D01*
X75174Y57438D01*
X75141D01*
X75108Y57471D01*
Y57503D01*
Y57471D01*
X75075Y57438D01*
X75043D01*
X75010Y57471D01*
Y57536D01*
X75043Y57569D01*
X76447Y56348D02*
X76250D01*
Y56217D01*
Y56152D02*
Y56086D01*
Y56119D01*
X76447D01*
X76414Y56152D01*
X76447Y55988D02*
Y55856D01*
X76414D01*
X76283Y55988D01*
X76250D01*
X78071Y55581D02*
X77940D01*
Y55614D01*
X78071Y55745D01*
Y55778D01*
X77940D01*
X77743Y55581D02*
X77808Y55614D01*
X77874Y55679D01*
Y55745D01*
X77841Y55778D01*
X77776D01*
X77743Y55745D01*
Y55712D01*
X77776Y55679D01*
X77874D01*
X75413Y57047D02*
Y57244D01*
X75512D01*
X75545Y57211D01*
Y57146D01*
X75512Y57113D01*
X75413D01*
X75479D02*
X75545Y57047D01*
X75610Y57211D02*
X75643Y57244D01*
X75709D01*
X75741Y57211D01*
Y57178D01*
X75709Y57146D01*
X75676D01*
X75709D01*
X75741Y57113D01*
Y57080D01*
X75709Y57047D01*
X75643D01*
X75610Y57080D01*
X75807D02*
X75840Y57047D01*
X75905D01*
X75938Y57080D01*
Y57211D01*
X75905Y57244D01*
X75840D01*
X75807Y57211D01*
Y57178D01*
X75840Y57146D01*
X75938D01*
X75905Y56348D02*
X75709D01*
Y56217D01*
Y56152D02*
Y56086D01*
Y56119D01*
X75905D01*
X75873Y56152D01*
Y55988D02*
X75905Y55955D01*
Y55889D01*
X75873Y55856D01*
X75840D01*
X75807Y55889D01*
X75774Y55856D01*
X75741D01*
X75709Y55889D01*
Y55955D01*
X75741Y55988D01*
X75774D01*
X75807Y55955D01*
X75840Y55988D01*
X75873D01*
X75807Y55955D02*
Y55889D01*
X74849Y55338D02*
X74882Y55305D01*
X74948D01*
X74980Y55338D01*
Y55469D01*
X74948Y55502D01*
X74882D01*
X74849Y55469D01*
X74652Y55305D02*
X74718Y55338D01*
X74784Y55404D01*
Y55469D01*
X74751Y55502D01*
X74685D01*
X74652Y55469D01*
Y55436D01*
X74685Y55404D01*
X74784D01*
X74456Y55305D02*
X74587D01*
Y55404D01*
X74521Y55371D01*
X74488D01*
X74456Y55404D01*
Y55469D01*
X74488Y55502D01*
X74554D01*
X74587Y55469D01*
X74888Y56450D02*
X74921Y56417D01*
X74987D01*
X75020Y56450D01*
Y56581D01*
X74987Y56614D01*
X74921D01*
X74888Y56581D01*
X74692Y56417D02*
X74823D01*
Y56516D01*
X74757Y56483D01*
X74724D01*
X74692Y56516D01*
Y56581D01*
X74724Y56614D01*
X74790D01*
X74823Y56581D01*
X74626D02*
X74593Y56614D01*
X74528D01*
X74495Y56581D01*
Y56450D01*
X74528Y56417D01*
X74593D01*
X74626Y56450D01*
Y56483D01*
X74593Y56516D01*
X74495D01*
X76906Y56178D02*
X76939Y56211D01*
Y56276D01*
X76906Y56309D01*
X76775D01*
X76742Y56276D01*
Y56211D01*
X76775Y56178D01*
X76939Y55981D02*
X76906Y56047D01*
X76841Y56112D01*
X76775D01*
X76742Y56079D01*
Y56014D01*
X76775Y55981D01*
X76808D01*
X76841Y56014D01*
Y56112D01*
X76939Y55784D02*
X76906Y55850D01*
X76841Y55915D01*
X76775D01*
X76742Y55883D01*
Y55817D01*
X76775Y55784D01*
X76808D01*
X76841Y55817D01*
Y55915D01*
X72283Y54518D02*
Y54387D01*
X72251D01*
X72119Y54518D01*
X72087D01*
Y54387D01*
X72283Y54321D02*
Y54190D01*
X72251D01*
X72119Y54321D01*
X72087D01*
X71585Y54852D02*
X71453D01*
Y54885D01*
X71585Y55016D01*
Y55049D01*
X71453D01*
X71257Y54852D02*
X71388D01*
Y54951D01*
X71322Y54918D01*
X71289D01*
X71257Y54951D01*
Y55016D01*
X71289Y55049D01*
X71355D01*
X71388Y55016D01*
X70764Y55755D02*
X70797Y55787D01*
Y55853D01*
X70764Y55886D01*
X70633D01*
X70600Y55853D01*
Y55787D01*
X70633Y55755D01*
X70797Y55558D02*
X70764Y55623D01*
X70699Y55689D01*
X70633D01*
X70600Y55656D01*
Y55591D01*
X70633Y55558D01*
X70666D01*
X70699Y55591D01*
Y55689D01*
X70764Y55492D02*
X70797Y55459D01*
Y55394D01*
X70764Y55361D01*
X70732D01*
X70699Y55394D01*
Y55427D01*
Y55394D01*
X70666Y55361D01*
X70633D01*
X70600Y55394D01*
Y55459D01*
X70633Y55492D01*
X72648Y57244D02*
Y57047D01*
X72779D01*
X72844D02*
X72910D01*
X72877D01*
Y57244D01*
X72844Y57211D01*
X73107Y57047D02*
Y57244D01*
X73008Y57146D01*
X73140D01*
X74219Y56700D02*
X74252Y56732D01*
Y56798D01*
X74219Y56831D01*
X74088D01*
X74055Y56798D01*
Y56732D01*
X74088Y56700D01*
X74055Y56536D02*
X74252D01*
X74154Y56634D01*
Y56503D01*
X74252Y56437D02*
Y56306D01*
X74219D01*
X74088Y56437D01*
X74055D01*
X72818Y56621D02*
X72785Y56653D01*
X72720D01*
X72687Y56621D01*
Y56489D01*
X72720Y56457D01*
X72785D01*
X72818Y56489D01*
X73015Y56653D02*
X72884D01*
Y56555D01*
X72949Y56588D01*
X72982D01*
X73015Y56555D01*
Y56489D01*
X72982Y56457D01*
X72917D01*
X72884Y56489D01*
X73081Y56457D02*
X73146D01*
X73113D01*
Y56653D01*
X73081Y56621D01*
X71919Y58799D02*
Y58930D01*
X71952D01*
X72083Y58799D01*
X72116D01*
Y58930D01*
X71952Y58996D02*
X71919Y59029D01*
Y59094D01*
X71952Y59127D01*
X71985D01*
X72018Y59094D01*
Y59062D01*
Y59094D01*
X72051Y59127D01*
X72083D01*
X72116Y59094D01*
Y59029D01*
X72083Y58996D01*
X71936Y57368D02*
X71969Y57335D01*
X72034D01*
X72067Y57368D01*
Y57499D01*
X72034Y57531D01*
X71969D01*
X71936Y57499D01*
X71739Y57335D02*
X71870D01*
Y57433D01*
X71805Y57400D01*
X71772D01*
X71739Y57433D01*
Y57499D01*
X71772Y57531D01*
X71837D01*
X71870Y57499D01*
X71542Y57335D02*
X71673D01*
Y57433D01*
X71608Y57400D01*
X71575D01*
X71542Y57433D01*
Y57499D01*
X71575Y57531D01*
X71641D01*
X71673Y57499D01*
X71936Y57830D02*
X71969Y57797D01*
X72034D01*
X72067Y57830D01*
Y57961D01*
X72034Y57994D01*
X71969D01*
X71936Y57961D01*
X71739Y57797D02*
X71870D01*
Y57896D01*
X71805Y57863D01*
X71772D01*
X71739Y57896D01*
Y57961D01*
X71772Y57994D01*
X71837D01*
X71870Y57961D01*
X71673Y57830D02*
X71641Y57797D01*
X71575D01*
X71542Y57830D01*
Y57961D01*
X71575Y57994D01*
X71641D01*
X71673Y57961D01*
Y57830D01*
X69193Y58169D02*
Y57972D01*
X69324D01*
X69390D02*
X69455D01*
X69422D01*
Y58169D01*
X69390Y58136D01*
X69685Y58169D02*
X69619Y58136D01*
X69554Y58071D01*
Y58005D01*
X69586Y57972D01*
X69652D01*
X69685Y58005D01*
Y58038D01*
X69652Y58071D01*
X69554D01*
X71081Y60416D02*
Y60285D01*
X71048D01*
X70917Y60416D01*
X70884D01*
Y60285D01*
Y60121D02*
X71081D01*
X70982Y60219D01*
Y60088D01*
X69094Y61596D02*
Y61400D01*
X69226D01*
X69291D02*
X69357D01*
X69324D01*
Y61596D01*
X69291Y61564D01*
X69455D02*
X69488Y61596D01*
X69554D01*
X69586Y61564D01*
Y61531D01*
X69554Y61498D01*
X69521D01*
X69554D01*
X69586Y61465D01*
Y61432D01*
X69554Y61400D01*
X69488D01*
X69455Y61432D01*
X70372Y62726D02*
Y62530D01*
X70274D01*
X70241Y62562D01*
Y62628D01*
X70274Y62661D01*
X70372D01*
X70306D02*
X70241Y62726D01*
X70175Y62562D02*
X70142Y62530D01*
X70077D01*
X70044Y62562D01*
Y62595D01*
X70077Y62628D01*
X70110D01*
X70077D01*
X70044Y62661D01*
Y62694D01*
X70077Y62726D01*
X70142D01*
X70175Y62694D01*
X69847Y62530D02*
X69913Y62562D01*
X69978Y62628D01*
Y62694D01*
X69946Y62726D01*
X69880D01*
X69847Y62694D01*
Y62661D01*
X69880Y62628D01*
X69978D01*
X69482Y56763D02*
X69449Y56730D01*
Y56665D01*
X69482Y56632D01*
X69613D01*
X69646Y56665D01*
Y56730D01*
X69613Y56763D01*
X69449Y56960D02*
X69482Y56894D01*
X69547Y56829D01*
X69613D01*
X69646Y56861D01*
Y56927D01*
X69613Y56960D01*
X69580D01*
X69547Y56927D01*
Y56829D01*
X69646Y57157D02*
Y57025D01*
X69514Y57157D01*
X69482D01*
X69449Y57124D01*
Y57058D01*
X69482Y57025D01*
X69731Y57858D02*
X69764Y57825D01*
X69829D01*
X69862Y57858D01*
Y57989D01*
X69829Y58022D01*
X69764D01*
X69731Y57989D01*
X69534Y57825D02*
X69665D01*
Y57923D01*
X69600Y57890D01*
X69567D01*
X69534Y57923D01*
Y57989D01*
X69567Y58022D01*
X69633D01*
X69665Y57989D01*
X69469Y57825D02*
X69337D01*
Y57858D01*
X69469Y57989D01*
Y58022D01*
X70607Y61642D02*
X70640Y61675D01*
Y61741D01*
X70607Y61774D01*
X70476D01*
X70443Y61741D01*
Y61675D01*
X70476Y61642D01*
X70443Y61478D02*
X70640D01*
X70541Y61577D01*
Y61446D01*
X70476Y61380D02*
X70443Y61347D01*
Y61282D01*
X70476Y61249D01*
X70607D01*
X70640Y61282D01*
Y61347D01*
X70607Y61380D01*
X70574D01*
X70541Y61347D01*
Y61249D01*
X68674Y62026D02*
X68642Y62059D01*
X68576D01*
X68543Y62026D01*
Y61895D01*
X68576Y61862D01*
X68642D01*
X68674Y61895D01*
X68838Y61862D02*
Y62059D01*
X68740Y61961D01*
X68871D01*
X68937Y62026D02*
X68970Y62059D01*
X69035D01*
X69068Y62026D01*
Y61993D01*
X69035Y61961D01*
X69002D01*
X69035D01*
X69068Y61928D01*
Y61895D01*
X69035Y61862D01*
X68970D01*
X68937Y61895D01*
X69379Y62931D02*
X69575D01*
Y62833D01*
X69543Y62800D01*
X69477D01*
X69444Y62833D01*
Y62931D01*
Y62866D02*
X69379Y62800D01*
X69543Y62734D02*
X69575Y62702D01*
Y62636D01*
X69543Y62603D01*
X69510D01*
X69477Y62636D01*
Y62669D01*
Y62636D01*
X69444Y62603D01*
X69411D01*
X69379Y62636D01*
Y62702D01*
X69411Y62734D01*
X69575Y62538D02*
Y62406D01*
X69543D01*
X69411Y62538D01*
X69379D01*
X69596Y63091D02*
Y63287D01*
X69695D01*
X69728Y63255D01*
Y63189D01*
X69695Y63156D01*
X69596D01*
X69662D02*
X69728Y63091D01*
X69793Y63255D02*
X69826Y63287D01*
X69892D01*
X69924Y63255D01*
Y63222D01*
X69892Y63189D01*
X69859D01*
X69892D01*
X69924Y63156D01*
Y63123D01*
X69892Y63091D01*
X69826D01*
X69793Y63123D01*
X70121Y63287D02*
X69990D01*
Y63189D01*
X70056Y63222D01*
X70088D01*
X70121Y63189D01*
Y63123D01*
X70088Y63091D01*
X70023D01*
X69990Y63123D01*
X80492Y48366D02*
X80623Y48169D01*
Y48366D02*
X80492Y48169D01*
X80689Y48333D02*
X80722Y48366D01*
X80787D01*
X80820Y48333D01*
Y48300D01*
X80787Y48268D01*
X80755D01*
X80787D01*
X80820Y48235D01*
Y48202D01*
X80787Y48169D01*
X80722D01*
X80689Y48202D01*
X80482Y51516D02*
X80613Y51319D01*
Y51516D02*
X80482Y51319D01*
X80810D02*
X80679D01*
X80810Y51450D01*
Y51483D01*
X80777Y51516D01*
X80712D01*
X80679Y51483D01*
X70118Y65394D02*
X70315Y65525D01*
X70118D02*
X70315Y65394D01*
Y65590D02*
Y65656D01*
Y65623D01*
X70118D01*
X70151Y65590D01*
X63671Y44961D02*
Y45157D01*
X63770D01*
X63802Y45125D01*
Y45059D01*
X63770Y45026D01*
X63671D01*
X63737D02*
X63802Y44961D01*
X63868D02*
X63934D01*
X63901D01*
Y45157D01*
X63868Y45125D01*
X64163Y45157D02*
X64098Y45125D01*
X64032Y45059D01*
Y44993D01*
X64065Y44961D01*
X64130D01*
X64163Y44993D01*
Y45026D01*
X64130Y45059D01*
X64032D01*
X63671Y45463D02*
Y45659D01*
X63770D01*
X63802Y45627D01*
Y45561D01*
X63770Y45528D01*
X63671D01*
X63737D02*
X63802Y45463D01*
X63868D02*
X63934D01*
X63901D01*
Y45659D01*
X63868Y45627D01*
X64032D02*
X64065Y45659D01*
X64130D01*
X64163Y45627D01*
Y45594D01*
X64130Y45561D01*
X64098D01*
X64130D01*
X64163Y45528D01*
Y45495D01*
X64130Y45463D01*
X64065D01*
X64032Y45495D01*
X65118Y62323D02*
X64921D01*
Y62421D01*
X64954Y62454D01*
X65020D01*
X65053Y62421D01*
Y62323D01*
Y62388D02*
X65118Y62454D01*
Y62618D02*
X64921D01*
X65020Y62520D01*
Y62651D01*
X65591Y66398D02*
X65787D01*
Y66299D01*
X65755Y66266D01*
X65689D01*
X65656Y66299D01*
Y66398D01*
Y66332D02*
X65591Y66266D01*
X65755Y66201D02*
X65787Y66168D01*
Y66102D01*
X65755Y66070D01*
X65722D01*
X65689Y66102D01*
Y66135D01*
Y66102D01*
X65656Y66070D01*
X65623D01*
X65591Y66102D01*
Y66168D01*
X65623Y66201D01*
X65640Y62323D02*
X65443D01*
Y62421D01*
X65476Y62454D01*
X65541D01*
X65574Y62421D01*
Y62323D01*
Y62388D02*
X65640Y62454D01*
Y62651D02*
Y62520D01*
X65509Y62651D01*
X65476D01*
X65443Y62618D01*
Y62552D01*
X65476Y62520D01*
X66378Y66398D02*
X66575D01*
Y66299D01*
X66542Y66266D01*
X66476D01*
X66444Y66299D01*
Y66398D01*
Y66332D02*
X66378Y66266D01*
Y66201D02*
Y66135D01*
Y66168D01*
X66575D01*
X66542Y66201D01*
X65650Y32461D02*
Y32657D01*
X65748D01*
X65781Y32625D01*
Y32559D01*
X65748Y32526D01*
X65650D01*
X65715D02*
X65781Y32461D01*
X65846D02*
X65912D01*
X65879D01*
Y32657D01*
X65846Y32625D01*
X66010Y32461D02*
X66076D01*
X66043D01*
Y32657D01*
X66010Y32625D01*
X64708Y31755D02*
X64675Y31722D01*
Y31657D01*
X64708Y31624D01*
X64839D01*
X64872Y31657D01*
Y31722D01*
X64839Y31755D01*
X64675Y31952D02*
X64708Y31886D01*
X64774Y31821D01*
X64839D01*
X64872Y31854D01*
Y31919D01*
X64839Y31952D01*
X64806D01*
X64774Y31919D01*
Y31821D01*
X65098Y33425D02*
Y33622D01*
X65197D01*
X65230Y33589D01*
Y33524D01*
X65197Y33491D01*
X65098D01*
X65164D02*
X65230Y33425D01*
X65295D02*
X65361D01*
X65328D01*
Y33622D01*
X65295Y33589D01*
X65590Y33622D02*
X65459D01*
Y33524D01*
X65525Y33556D01*
X65558D01*
X65590Y33524D01*
Y33458D01*
X65558Y33425D01*
X65492D01*
X65459Y33458D01*
X76585Y65748D02*
X76388D01*
Y65846D01*
X76421Y65879D01*
X76486D01*
X76519Y65846D01*
Y65748D01*
Y65814D02*
X76585Y65879D01*
Y65945D02*
Y66010D01*
Y65978D01*
X76388D01*
X76421Y65945D01*
X76388Y66109D02*
Y66240D01*
X76421D01*
X76552Y66109D01*
X76585D01*
X76791Y65187D02*
Y65384D01*
X76890D01*
X76923Y65351D01*
Y65285D01*
X76890Y65253D01*
X76791D01*
X76857D02*
X76923Y65187D01*
X77119Y65384D02*
X76988D01*
Y65285D01*
X77054Y65318D01*
X77087D01*
X77119Y65285D01*
Y65220D01*
X77087Y65187D01*
X77021D01*
X76988Y65220D01*
X75761Y66758D02*
X75728Y66791D01*
X75663D01*
X75630Y66758D01*
Y66627D01*
X75663Y66594D01*
X75728D01*
X75761Y66627D01*
X75827Y66594D02*
X75892D01*
X75860D01*
Y66791D01*
X75827Y66758D01*
X75991Y66594D02*
X76056D01*
X76024D01*
Y66791D01*
X75991Y66758D01*
X79222Y65404D02*
Y65207D01*
X79124D01*
X79091Y65240D01*
Y65305D01*
X79124Y65338D01*
X79222D01*
X79157D02*
X79091Y65404D01*
X78894Y65207D02*
X78960Y65240D01*
X79026Y65305D01*
Y65371D01*
X78993Y65404D01*
X78927D01*
X78894Y65371D01*
Y65338D01*
X78927Y65305D01*
X79026D01*
X75354Y66457D02*
X75551D01*
Y66358D01*
X75518Y66325D01*
X75453D01*
X75420Y66358D01*
Y66457D01*
Y66391D02*
X75354Y66325D01*
Y66129D02*
Y66260D01*
X75486Y66129D01*
X75518D01*
X75551Y66162D01*
Y66227D01*
X75518Y66260D01*
Y66063D02*
X75551Y66030D01*
Y65965D01*
X75518Y65932D01*
X75486D01*
X75453Y65965D01*
Y65998D01*
Y65965D01*
X75420Y65932D01*
X75387D01*
X75354Y65965D01*
Y66030D01*
X75387Y66063D01*
X77382Y66782D02*
Y66585D01*
X77284D01*
X77251Y66618D01*
Y66683D01*
X77284Y66716D01*
X77382D01*
X77316D02*
X77251Y66782D01*
X77185D02*
X77120D01*
X77152D01*
Y66585D01*
X77185Y66618D01*
X77021D02*
X76988Y66585D01*
X76923D01*
X76890Y66618D01*
Y66650D01*
X76923Y66683D01*
X76890Y66716D01*
Y66749D01*
X76923Y66782D01*
X76988D01*
X77021Y66749D01*
Y66716D01*
X76988Y66683D01*
X77021Y66650D01*
Y66618D01*
X76988Y66683D02*
X76923D01*
X61703Y55079D02*
X61506D01*
Y54948D01*
Y54882D02*
Y54816D01*
Y54849D01*
X61703D01*
X61670Y54882D01*
X63120Y54321D02*
X62956D01*
X62923Y54288D01*
Y54222D01*
X62956Y54190D01*
X63120D01*
Y53993D02*
Y54124D01*
X63022D01*
X63054Y54058D01*
Y54026D01*
X63022Y53993D01*
X62956D01*
X62923Y54026D01*
Y54091D01*
X62956Y54124D01*
X61401Y53950D02*
X61368Y53917D01*
Y53852D01*
X61401Y53819D01*
X61532D01*
X61565Y53852D01*
Y53917D01*
X61532Y53950D01*
X61565Y54016D02*
Y54081D01*
Y54048D01*
X61368D01*
X61401Y54016D01*
Y54180D02*
X61368Y54212D01*
Y54278D01*
X61401Y54311D01*
X61532D01*
X61565Y54278D01*
Y54212D01*
X61532Y54180D01*
X61401D01*
X63822Y53940D02*
X63789Y53907D01*
Y53842D01*
X63822Y53809D01*
X63953D01*
X63986Y53842D01*
Y53907D01*
X63953Y53940D01*
X63822Y54006D02*
X63789Y54039D01*
Y54104D01*
X63822Y54137D01*
X63855D01*
X63888Y54104D01*
Y54071D01*
Y54104D01*
X63921Y54137D01*
X63953D01*
X63986Y54104D01*
Y54039D01*
X63953Y54006D01*
X64298Y60420D02*
X64331Y60453D01*
Y60518D01*
X64298Y60551D01*
X64167D01*
X64134Y60518D01*
Y60453D01*
X64167Y60420D01*
Y60354D02*
X64134Y60322D01*
Y60256D01*
X64167Y60223D01*
X64298D01*
X64331Y60256D01*
Y60322D01*
X64298Y60354D01*
X64265D01*
X64232Y60322D01*
Y60223D01*
X64610Y57474D02*
X64577Y57441D01*
Y57375D01*
X64610Y57343D01*
X64741D01*
X64774Y57375D01*
Y57441D01*
X64741Y57474D01*
X64774Y57539D02*
Y57605D01*
Y57572D01*
X64577D01*
X64610Y57539D01*
X63337Y55787D02*
Y55984D01*
X63435D01*
X63468Y55951D01*
Y55886D01*
X63435Y55853D01*
X63337D01*
X63402D02*
X63468Y55787D01*
X63533Y55984D02*
X63665D01*
Y55951D01*
X63533Y55820D01*
Y55787D01*
X64377Y56421D02*
X64409Y56388D01*
X64475D01*
X64508Y56421D01*
Y56552D01*
X64475Y56585D01*
X64409D01*
X64377Y56552D01*
X64311Y56388D02*
X64180D01*
Y56421D01*
X64311Y56552D01*
Y56585D01*
X63848Y55955D02*
Y56152D01*
X63947D01*
X63980Y56119D01*
Y56053D01*
X63947Y56020D01*
X63848D01*
X63914D02*
X63980Y55955D01*
X64045Y56119D02*
X64078Y56152D01*
X64144D01*
X64176Y56119D01*
Y56086D01*
X64144Y56053D01*
X64176Y56020D01*
Y55988D01*
X64144Y55955D01*
X64078D01*
X64045Y55988D01*
Y56020D01*
X64078Y56053D01*
X64045Y56086D01*
Y56119D01*
X64078Y56053D02*
X64144D01*
X63353Y51306D02*
X63386Y51339D01*
Y51404D01*
X63353Y51437D01*
X63222D01*
X63189Y51404D01*
Y51339D01*
X63222Y51306D01*
X63353Y51240D02*
X63386Y51207D01*
Y51142D01*
X63353Y51109D01*
X63320D01*
X63287Y51142D01*
Y51175D01*
Y51142D01*
X63255Y51109D01*
X63222D01*
X63189Y51142D01*
Y51207D01*
X63222Y51240D01*
X63189Y50945D02*
X63386D01*
X63287Y51043D01*
Y50912D01*
X66093Y46654D02*
Y46457D01*
X65994D01*
X65961Y46490D01*
Y46555D01*
X65994Y46588D01*
X66093D01*
X66027D02*
X65961Y46654D01*
X65765D02*
X65896D01*
X65765Y46522D01*
Y46490D01*
X65797Y46457D01*
X65863D01*
X65896Y46490D01*
X65601Y46654D02*
Y46457D01*
X65699Y46555D01*
X65568D01*
X65886Y51299D02*
Y51496D01*
X65984D01*
X66017Y51463D01*
Y51398D01*
X65984Y51365D01*
X65886D01*
X65951D02*
X66017Y51299D01*
X66214D02*
X66083D01*
X66214Y51430D01*
Y51463D01*
X66181Y51496D01*
X66115D01*
X66083Y51463D01*
X66411Y51496D02*
X66279D01*
Y51398D01*
X66345Y51430D01*
X66378D01*
X66411Y51398D01*
Y51332D01*
X66378Y51299D01*
X66312D01*
X66279Y51332D01*
X74035Y53032D02*
Y53228D01*
X73904D01*
X73707D02*
X73839D01*
X73707Y53097D01*
Y53064D01*
X73740Y53032D01*
X73806D01*
X73839Y53064D01*
X78156Y50085D02*
X78189Y50118D01*
Y50184D01*
X78156Y50217D01*
X78025D01*
X77992Y50184D01*
Y50118D01*
X78025Y50085D01*
X78156Y50020D02*
X78189Y49987D01*
Y49921D01*
X78156Y49889D01*
X78123D01*
X78091Y49921D01*
Y49954D01*
Y49921D01*
X78058Y49889D01*
X78025D01*
X77992Y49921D01*
Y49987D01*
X78025Y50020D01*
X78189Y49823D02*
Y49692D01*
X78156D01*
X78025Y49823D01*
X77992D01*
X77077Y48809D02*
X76880D01*
Y48907D01*
X76913Y48940D01*
X76978D01*
X77011Y48907D01*
Y48809D01*
Y48875D02*
X77077Y48940D01*
Y49137D02*
Y49006D01*
X76946Y49137D01*
X76913D01*
X76880Y49104D01*
Y49039D01*
X76913Y49006D01*
Y49203D02*
X76880Y49235D01*
Y49301D01*
X76913Y49334D01*
X76946D01*
X76978Y49301D01*
X77011Y49334D01*
X77044D01*
X77077Y49301D01*
Y49235D01*
X77044Y49203D01*
X77011D01*
X76978Y49235D01*
X76946Y49203D01*
X76913D01*
X76978Y49235D02*
Y49301D01*
X76601Y50676D02*
X76634Y50709D01*
Y50774D01*
X76601Y50807D01*
X76470D01*
X76437Y50774D01*
Y50709D01*
X76470Y50676D01*
X76601Y50610D02*
X76634Y50578D01*
Y50512D01*
X76601Y50479D01*
X76568D01*
X76535Y50512D01*
Y50545D01*
Y50512D01*
X76503Y50479D01*
X76470D01*
X76437Y50512D01*
Y50578D01*
X76470Y50610D01*
X76601Y50414D02*
X76634Y50381D01*
Y50315D01*
X76601Y50282D01*
X76568D01*
X76535Y50315D01*
X76503Y50282D01*
X76470D01*
X76437Y50315D01*
Y50381D01*
X76470Y50414D01*
X76503D01*
X76535Y50381D01*
X76568Y50414D01*
X76601D01*
X76535Y50381D02*
Y50315D01*
X76280Y49104D02*
Y49301D01*
X76378D01*
X76411Y49268D01*
Y49203D01*
X76378Y49170D01*
X76280D01*
X76345D02*
X76411Y49104D01*
X76608D02*
X76476D01*
X76608Y49236D01*
Y49268D01*
X76575Y49301D01*
X76509D01*
X76476Y49268D01*
X76804Y49301D02*
X76739Y49268D01*
X76673Y49203D01*
Y49137D01*
X76706Y49104D01*
X76771D01*
X76804Y49137D01*
Y49170D01*
X76771Y49203D01*
X76673D01*
X75351Y53025D02*
X75384Y52992D01*
X75449D01*
X75482Y53025D01*
Y53156D01*
X75449Y53189D01*
X75384D01*
X75351Y53156D01*
X75286Y53189D02*
X75220D01*
X75253D01*
Y52992D01*
X75286Y53025D01*
X75122D02*
X75089Y52992D01*
X75023D01*
X74990Y53025D01*
Y53058D01*
X75023Y53091D01*
X74990Y53123D01*
Y53156D01*
X75023Y53189D01*
X75089D01*
X75122Y53156D01*
Y53123D01*
X75089Y53091D01*
X75122Y53058D01*
Y53025D01*
X75089Y53091D02*
X75023D01*
X76309Y50728D02*
X76506D01*
Y50860D01*
Y50925D02*
Y50991D01*
Y50958D01*
X76309D01*
X76342Y50925D01*
X76506Y51089D02*
Y51155D01*
Y51122D01*
X76309D01*
X76342Y51089D01*
X76352Y49741D02*
X76319Y49774D01*
X76253D01*
X76220Y49741D01*
Y49610D01*
X76253Y49577D01*
X76319D01*
X76352Y49610D01*
X76417Y49741D02*
X76450Y49774D01*
X76516D01*
X76548Y49741D01*
Y49708D01*
X76516Y49675D01*
X76483D01*
X76516D01*
X76548Y49642D01*
Y49610D01*
X76516Y49577D01*
X76450D01*
X76417Y49610D01*
X76614Y49741D02*
X76647Y49774D01*
X76712D01*
X76745Y49741D01*
Y49610D01*
X76712Y49577D01*
X76647D01*
X76614Y49610D01*
Y49741D01*
X75295Y49321D02*
X75492D01*
Y49452D01*
X75328Y49518D02*
X75295Y49550D01*
Y49616D01*
X75328Y49649D01*
X75361D01*
X75394Y49616D01*
X75427Y49649D01*
X75459D01*
X75492Y49616D01*
Y49550D01*
X75459Y49518D01*
X75427D01*
X75394Y49550D01*
X75361Y49518D01*
X75328D01*
X75394Y49550D02*
Y49616D01*
X71782Y48898D02*
X71650D01*
X71716D01*
Y49094D01*
X71585D02*
X71519D01*
X71552D01*
Y48898D01*
X71585Y48931D01*
X77365Y51739D02*
X77333Y51772D01*
X77267D01*
X77234Y51739D01*
Y51608D01*
X77267Y51575D01*
X77333D01*
X77365Y51608D01*
X77431Y51739D02*
X77464Y51772D01*
X77529D01*
X77562Y51739D01*
Y51706D01*
X77529Y51673D01*
X77497D01*
X77529D01*
X77562Y51640D01*
Y51608D01*
X77529Y51575D01*
X77464D01*
X77431Y51608D01*
X77759Y51772D02*
X77628D01*
Y51673D01*
X77693Y51706D01*
X77726D01*
X77759Y51673D01*
Y51608D01*
X77726Y51575D01*
X77661D01*
X77628Y51608D01*
X77395Y46686D02*
X77362Y46654D01*
Y46588D01*
X77395Y46555D01*
X77526D01*
X77559Y46588D01*
Y46654D01*
X77526Y46686D01*
X77395Y46752D02*
X77362Y46785D01*
Y46850D01*
X77395Y46883D01*
X77428D01*
X77461Y46850D01*
Y46817D01*
Y46850D01*
X77493Y46883D01*
X77526D01*
X77559Y46850D01*
Y46785D01*
X77526Y46752D01*
Y46949D02*
X77559Y46981D01*
Y47047D01*
X77526Y47080D01*
X77395D01*
X77362Y47047D01*
Y46981D01*
X77395Y46949D01*
X77428D01*
X77461Y46981D01*
Y47080D01*
X77264Y44793D02*
Y44990D01*
X77133D01*
X77067Y44826D02*
X77034Y44793D01*
X76969D01*
X76936Y44826D01*
Y44859D01*
X76969Y44892D01*
X77001D01*
X76969D01*
X76936Y44925D01*
Y44957D01*
X76969Y44990D01*
X77034D01*
X77067Y44957D01*
X77143Y45044D02*
X76946D01*
Y45143D01*
X76979Y45175D01*
X77045D01*
X77078Y45143D01*
Y45044D01*
Y45110D02*
X77143Y45175D01*
Y45372D02*
Y45241D01*
X77012Y45372D01*
X76979D01*
X76946Y45339D01*
Y45274D01*
X76979Y45241D01*
X77110Y45438D02*
X77143Y45471D01*
Y45536D01*
X77110Y45569D01*
X76979D01*
X76946Y45536D01*
Y45471D01*
X76979Y45438D01*
X77012D01*
X77045Y45471D01*
Y45569D01*
X76591Y46877D02*
X76624Y46909D01*
Y46975D01*
X76591Y47008D01*
X76460D01*
X76427Y46975D01*
Y46909D01*
X76460Y46877D01*
X76427Y46713D02*
X76624D01*
X76526Y46811D01*
Y46680D01*
X76591Y46614D02*
X76624Y46582D01*
Y46516D01*
X76591Y46483D01*
X76460D01*
X76427Y46516D01*
Y46582D01*
X76460Y46614D01*
X76591D01*
X76181Y45305D02*
Y45502D01*
X76279D01*
X76312Y45469D01*
Y45404D01*
X76279Y45371D01*
X76181D01*
X76247D02*
X76312Y45305D01*
X76509D02*
X76378D01*
X76509Y45436D01*
Y45469D01*
X76476Y45502D01*
X76411D01*
X76378Y45469D01*
X76575Y45502D02*
X76706D01*
Y45469D01*
X76575Y45338D01*
Y45305D01*
X78274Y45400D02*
X78307Y45433D01*
Y45499D01*
X78274Y45532D01*
X78143D01*
X78110Y45499D01*
Y45433D01*
X78143Y45400D01*
X78110Y45335D02*
Y45269D01*
Y45302D01*
X78307D01*
X78274Y45335D01*
X78143Y45171D02*
X78110Y45138D01*
Y45072D01*
X78143Y45040D01*
X78274D01*
X78307Y45072D01*
Y45138D01*
X78274Y45171D01*
X78241D01*
X78209Y45138D01*
Y45040D01*
X72602Y51955D02*
X72569Y51988D01*
X72503D01*
X72470Y51955D01*
Y51824D01*
X72503Y51791D01*
X72569D01*
X72602Y51824D01*
X72798Y51791D02*
X72667D01*
X72798Y51923D01*
Y51955D01*
X72766Y51988D01*
X72700D01*
X72667Y51955D01*
X72864D02*
X72897Y51988D01*
X72962D01*
X72995Y51955D01*
Y51923D01*
X72962Y51890D01*
X72995Y51857D01*
Y51824D01*
X72962Y51791D01*
X72897D01*
X72864Y51824D01*
Y51857D01*
X72897Y51890D01*
X72864Y51923D01*
Y51955D01*
X72897Y51890D02*
X72962D01*
X76309Y46929D02*
X76506D01*
Y47060D01*
Y47126D02*
Y47192D01*
Y47159D01*
X76309D01*
X76342Y47126D01*
X76506Y47421D02*
Y47290D01*
X76375Y47421D01*
X76342D01*
X76309Y47388D01*
Y47323D01*
X76342Y47290D01*
X76352Y45951D02*
X76319Y45984D01*
X76253D01*
X76220Y45951D01*
Y45820D01*
X76253Y45787D01*
X76319D01*
X76352Y45820D01*
X76417Y45951D02*
X76450Y45984D01*
X76516D01*
X76548Y45951D01*
Y45919D01*
X76516Y45886D01*
X76483D01*
X76516D01*
X76548Y45853D01*
Y45820D01*
X76516Y45787D01*
X76450D01*
X76417Y45820D01*
X76614Y45787D02*
X76680D01*
X76647D01*
Y45984D01*
X76614Y45951D01*
X75295Y45522D02*
X75492D01*
Y45653D01*
X75459Y45718D02*
X75492Y45751D01*
Y45817D01*
X75459Y45850D01*
X75328D01*
X75295Y45817D01*
Y45751D01*
X75328Y45718D01*
X75361D01*
X75394Y45751D01*
Y45850D01*
X76854Y48589D02*
X76821Y48622D01*
X76755D01*
X76722Y48589D01*
Y48458D01*
X76755Y48425D01*
X76821D01*
X76854Y48458D01*
X76919Y48589D02*
X76952Y48622D01*
X77018D01*
X77050Y48589D01*
Y48556D01*
X77018Y48524D01*
X76985D01*
X77018D01*
X77050Y48491D01*
Y48458D01*
X77018Y48425D01*
X76952D01*
X76919Y48458D01*
X77247Y48622D02*
X77182Y48589D01*
X77116Y48524D01*
Y48458D01*
X77149Y48425D01*
X77214D01*
X77247Y48458D01*
Y48491D01*
X77214Y48524D01*
X77116D01*
X74856Y45692D02*
X74823Y45659D01*
Y45594D01*
X74856Y45561D01*
X74987D01*
X75020Y45594D01*
Y45659D01*
X74987Y45692D01*
X74856Y45758D02*
X74823Y45791D01*
Y45856D01*
X74856Y45889D01*
X74888D01*
X74921Y45856D01*
Y45823D01*
Y45856D01*
X74954Y45889D01*
X74987D01*
X75020Y45856D01*
Y45791D01*
X74987Y45758D01*
X74856Y45955D02*
X74823Y45987D01*
Y46053D01*
X74856Y46086D01*
X74888D01*
X74921Y46053D01*
Y46020D01*
Y46053D01*
X74954Y46086D01*
X74987D01*
X75020Y46053D01*
Y45987D01*
X74987Y45955D01*
X71949Y55777D02*
Y55581D01*
X72080D01*
X72277D02*
X72146D01*
X72277Y55712D01*
Y55745D01*
X72244Y55777D01*
X72178D01*
X72146Y55745D01*
X72342D02*
X72375Y55777D01*
X72441D01*
X72474Y55745D01*
Y55613D01*
X72441Y55581D01*
X72375D01*
X72342Y55613D01*
Y55745D01*
X74705Y41545D02*
Y41742D01*
X74574D01*
X74377D02*
X74508D01*
X74377Y41611D01*
Y41578D01*
X74410Y41545D01*
X74475D01*
X74508Y41578D01*
X74311D02*
X74278Y41545D01*
X74213D01*
X74180Y41578D01*
Y41709D01*
X74213Y41742D01*
X74278D01*
X74311Y41709D01*
Y41578D01*
X77539Y47047D02*
X77736D01*
Y46949D01*
X77703Y46916D01*
X77638D01*
X77605Y46949D01*
Y47047D01*
Y46982D02*
X77539Y46916D01*
X77703Y46850D02*
X77736Y46818D01*
Y46752D01*
X77703Y46719D01*
X77671D01*
X77638Y46752D01*
Y46785D01*
Y46752D01*
X77605Y46719D01*
X77572D01*
X77539Y46752D01*
Y46818D01*
X77572Y46850D01*
X77539Y46654D02*
Y46588D01*
Y46621D01*
X77736D01*
X77703Y46654D01*
X77549Y50846D02*
X77746D01*
Y50748D01*
X77713Y50715D01*
X77648D01*
X77615Y50748D01*
Y50846D01*
Y50781D02*
X77549Y50715D01*
X77713Y50650D02*
X77746Y50617D01*
Y50551D01*
X77713Y50518D01*
X77680D01*
X77648Y50551D01*
Y50584D01*
Y50551D01*
X77615Y50518D01*
X77582D01*
X77549Y50551D01*
Y50617D01*
X77582Y50650D01*
X77713Y50453D02*
X77746Y50420D01*
Y50354D01*
X77713Y50322D01*
X77582D01*
X77549Y50354D01*
Y50420D01*
X77582Y50453D01*
X77713D01*
X72884Y62835D02*
X73081D01*
Y62736D01*
X73048Y62703D01*
X72982D01*
X72949Y62736D01*
Y62835D01*
Y62769D02*
X72884Y62703D01*
X73048Y62638D02*
X73081Y62605D01*
Y62539D01*
X73048Y62507D01*
X73015D01*
X72982Y62539D01*
Y62572D01*
Y62539D01*
X72949Y62507D01*
X72917D01*
X72884Y62539D01*
Y62605D01*
X72917Y62638D01*
X72884Y62343D02*
X73081D01*
X72982Y62441D01*
Y62310D01*
X73848Y34390D02*
X73652D01*
Y34488D01*
X73684Y34521D01*
X73750D01*
X73783Y34488D01*
Y34390D01*
Y34455D02*
X73848Y34521D01*
X73684Y34587D02*
X73652Y34619D01*
Y34685D01*
X73684Y34718D01*
X73717D01*
X73750Y34685D01*
Y34652D01*
Y34685D01*
X73783Y34718D01*
X73816D01*
X73848Y34685D01*
Y34619D01*
X73816Y34587D01*
X73848Y34882D02*
X73652D01*
X73750Y34783D01*
Y34915D01*
X63278Y51427D02*
X63474D01*
Y51558D01*
Y51624D02*
Y51690D01*
Y51657D01*
X63278D01*
X63310Y51624D01*
Y51788D02*
X63278Y51821D01*
Y51886D01*
X63310Y51919D01*
X63442D01*
X63474Y51886D01*
Y51821D01*
X63442Y51788D01*
X63310D01*
X73760Y45167D02*
Y45364D01*
X73629D01*
X73563Y45167D02*
X73432D01*
Y45200D01*
X73563Y45331D01*
Y45364D01*
X72690Y46893D02*
X72658Y46860D01*
Y46795D01*
X72690Y46762D01*
X72822D01*
X72854Y46795D01*
Y46860D01*
X72822Y46893D01*
X72854Y47090D02*
Y46959D01*
X72723Y47090D01*
X72690D01*
X72658Y47057D01*
Y46991D01*
X72690Y46959D01*
Y47155D02*
X72658Y47188D01*
Y47254D01*
X72690Y47287D01*
X72723D01*
X72756Y47254D01*
Y47221D01*
Y47254D01*
X72789Y47287D01*
X72822D01*
X72854Y47254D01*
Y47188D01*
X72822Y47155D01*
X74180Y45751D02*
X74213Y45719D01*
X74278D01*
X74311Y45751D01*
Y45883D01*
X74278Y45915D01*
X74213D01*
X74180Y45883D01*
X73983Y45915D02*
X74114D01*
X73983Y45784D01*
Y45751D01*
X74016Y45719D01*
X74081D01*
X74114Y45751D01*
X73917Y45719D02*
X73786D01*
Y45751D01*
X73917Y45883D01*
Y45915D01*
X74193Y46211D02*
X74324D01*
Y46178D01*
X74193Y46047D01*
Y46014D01*
X74324D01*
X74521D02*
X74390D01*
X74521Y46145D01*
Y46178D01*
X74488Y46211D01*
X74422D01*
X74390Y46178D01*
X74042Y48104D02*
X74075Y48071D01*
X74140D01*
X74173Y48104D01*
Y48235D01*
X74140Y48268D01*
X74075D01*
X74042Y48235D01*
X73845Y48268D02*
X73976D01*
X73845Y48137D01*
Y48104D01*
X73878Y48071D01*
X73944D01*
X73976Y48104D01*
X73780Y48268D02*
X73714D01*
X73747D01*
Y48071D01*
X73780Y48104D01*
X73996Y48022D02*
X73799D01*
Y47890D01*
X73996Y47694D02*
Y47825D01*
X73898D01*
X73930Y47759D01*
Y47726D01*
X73898Y47694D01*
X73832D01*
X73799Y47726D01*
Y47792D01*
X73832Y47825D01*
X72582Y48323D02*
X72549Y48356D01*
X72484D01*
X72451Y48323D01*
Y48192D01*
X72484Y48159D01*
X72549D01*
X72582Y48192D01*
X72779Y48159D02*
X72648D01*
X72779Y48291D01*
Y48323D01*
X72746Y48356D01*
X72680D01*
X72648Y48323D01*
X72976Y48356D02*
X72844D01*
Y48258D01*
X72910Y48291D01*
X72943D01*
X72976Y48258D01*
Y48192D01*
X72943Y48159D01*
X72877D01*
X72844Y48192D01*
X73760Y48996D02*
Y49193D01*
X73629D01*
X73432Y48996D02*
X73497Y49029D01*
X73563Y49095D01*
Y49160D01*
X73530Y49193D01*
X73465D01*
X73432Y49160D01*
Y49127D01*
X73465Y49095D01*
X73563D01*
X72700Y50673D02*
X72667Y50640D01*
Y50574D01*
X72700Y50541D01*
X72831D01*
X72864Y50574D01*
Y50640D01*
X72831Y50673D01*
X72864Y50869D02*
Y50738D01*
X72733Y50869D01*
X72700D01*
X72667Y50837D01*
Y50771D01*
X72700Y50738D01*
X72864Y51066D02*
Y50935D01*
X72733Y51066D01*
X72700D01*
X72667Y51033D01*
Y50968D01*
X72700Y50935D01*
X74180Y49580D02*
X74213Y49547D01*
X74278D01*
X74311Y49580D01*
Y49711D01*
X74278Y49744D01*
X74213D01*
X74180Y49711D01*
X73983Y49744D02*
X74114D01*
X73983Y49613D01*
Y49580D01*
X74016Y49547D01*
X74081D01*
X74114Y49580D01*
X73786Y49547D02*
X73852Y49580D01*
X73917Y49646D01*
Y49711D01*
X73885Y49744D01*
X73819D01*
X73786Y49711D01*
Y49679D01*
X73819Y49646D01*
X73917D01*
X74203Y49916D02*
X74334D01*
Y49883D01*
X74203Y49752D01*
Y49719D01*
X74334D01*
X74400D02*
X74465D01*
X74432D01*
Y49916D01*
X74400Y49883D01*
X74042Y51903D02*
X74075Y51870D01*
X74140D01*
X74173Y51903D01*
Y52034D01*
X74140Y52067D01*
X74075D01*
X74042Y52034D01*
X73845Y52067D02*
X73976D01*
X73845Y51936D01*
Y51903D01*
X73878Y51870D01*
X73944D01*
X73976Y51903D01*
X73780D02*
X73747Y51870D01*
X73681D01*
X73648Y51903D01*
Y52034D01*
X73681Y52067D01*
X73747D01*
X73780Y52034D01*
Y51903D01*
X73996Y51801D02*
X73799D01*
Y51670D01*
Y51506D02*
X73996D01*
X73898Y51604D01*
Y51473D01*
X72582Y52103D02*
X72549Y52136D01*
X72484D01*
X72451Y52103D01*
Y51972D01*
X72484Y51939D01*
X72549D01*
X72582Y51972D01*
X72779Y51939D02*
X72648D01*
X72779Y52070D01*
Y52103D01*
X72746Y52136D01*
X72680D01*
X72648Y52103D01*
X72943Y51939D02*
Y52136D01*
X72844Y52037D01*
X72976D01*
X66772Y35689D02*
X66968D01*
Y35591D01*
X66936Y35558D01*
X66870D01*
X66837Y35591D01*
Y35689D01*
Y35623D02*
X66772Y35558D01*
X66804Y35492D02*
X66772Y35459D01*
Y35394D01*
X66804Y35361D01*
X66936D01*
X66968Y35394D01*
Y35459D01*
X66936Y35492D01*
X66903D01*
X66870Y35459D01*
Y35361D01*
X66772Y37648D02*
X66968D01*
Y37549D01*
X66936Y37516D01*
X66870D01*
X66837Y37549D01*
Y37648D01*
Y37582D02*
X66772Y37516D01*
Y37451D02*
Y37385D01*
Y37418D01*
X66968D01*
X66936Y37451D01*
Y37287D02*
X66968Y37254D01*
Y37188D01*
X66936Y37156D01*
X66804D01*
X66772Y37188D01*
Y37254D01*
X66804Y37287D01*
X66936D01*
X66782Y39626D02*
X66978D01*
Y39528D01*
X66945Y39495D01*
X66880D01*
X66847Y39528D01*
Y39626D01*
Y39560D02*
X66782Y39495D01*
Y39429D02*
Y39364D01*
Y39396D01*
X66978D01*
X66945Y39429D01*
X66782Y39134D02*
Y39265D01*
X66913Y39134D01*
X66945D01*
X66978Y39167D01*
Y39232D01*
X66945Y39265D01*
X66772Y41594D02*
X66968D01*
Y41496D01*
X66936Y41463D01*
X66870D01*
X66837Y41496D01*
Y41594D01*
Y41529D02*
X66772Y41463D01*
Y41398D02*
Y41332D01*
Y41365D01*
X66968D01*
X66936Y41398D01*
X66772Y41135D02*
X66968D01*
X66870Y41234D01*
Y41103D01*
X64557Y35157D02*
X64360Y35026D01*
X64557D02*
X64360Y35157D01*
X64393Y34961D02*
X64360Y34928D01*
Y34862D01*
X64393Y34829D01*
X64524D01*
X64557Y34862D01*
Y34928D01*
X64524Y34961D01*
X64491D01*
X64459Y34928D01*
Y34829D01*
X66240Y35689D02*
X66437D01*
Y35591D01*
X66404Y35558D01*
X66339D01*
X66306Y35591D01*
Y35689D01*
Y35623D02*
X66240Y35558D01*
Y35361D02*
Y35492D01*
X66371Y35361D01*
X66404D01*
X66437Y35394D01*
Y35459D01*
X66404Y35492D01*
X66240Y35164D02*
Y35295D01*
X66371Y35164D01*
X66404D01*
X66437Y35197D01*
Y35263D01*
X66404Y35295D01*
X66240Y37648D02*
X66437D01*
Y37549D01*
X66404Y37516D01*
X66339D01*
X66306Y37549D01*
Y37648D01*
Y37582D02*
X66240Y37516D01*
Y37320D02*
Y37451D01*
X66371Y37320D01*
X66404D01*
X66437Y37352D01*
Y37418D01*
X66404Y37451D01*
X66240Y37254D02*
Y37188D01*
Y37221D01*
X66437D01*
X66404Y37254D01*
X64557Y37126D02*
X64360Y36995D01*
X64557D02*
X64360Y37126D01*
X64524Y36929D02*
X64557Y36896D01*
Y36831D01*
X64524Y36798D01*
X64491D01*
X64459Y36831D01*
X64426Y36798D01*
X64393D01*
X64360Y36831D01*
Y36896D01*
X64393Y36929D01*
X64426D01*
X64459Y36896D01*
X64491Y36929D01*
X64524D01*
X64459Y36896D02*
Y36831D01*
X66250Y39626D02*
X66447D01*
Y39528D01*
X66414Y39495D01*
X66348D01*
X66316Y39528D01*
Y39626D01*
Y39560D02*
X66250Y39495D01*
Y39298D02*
Y39429D01*
X66381Y39298D01*
X66414D01*
X66447Y39331D01*
Y39396D01*
X66414Y39429D01*
Y39232D02*
X66447Y39200D01*
Y39134D01*
X66414Y39101D01*
X66283D01*
X66250Y39134D01*
Y39200D01*
X66283Y39232D01*
X66414D01*
X66240Y41594D02*
X66437D01*
Y41496D01*
X66404Y41463D01*
X66339D01*
X66306Y41496D01*
Y41594D01*
Y41529D02*
X66240Y41463D01*
Y41398D02*
Y41332D01*
Y41365D01*
X66437D01*
X66404Y41398D01*
X66273Y41234D02*
X66240Y41201D01*
Y41135D01*
X66273Y41103D01*
X66404D01*
X66437Y41135D01*
Y41201D01*
X66404Y41234D01*
X66371D01*
X66339Y41201D01*
Y41103D01*
X66676Y43097D02*
X66644Y43130D01*
X66578D01*
X66545Y43097D01*
Y42966D01*
X66578Y42933D01*
X66644D01*
X66676Y42966D01*
X66742Y43097D02*
X66775Y43130D01*
X66840D01*
X66873Y43097D01*
Y43064D01*
X66840Y43031D01*
X66873Y42999D01*
Y42966D01*
X66840Y42933D01*
X66775D01*
X66742Y42966D01*
Y42999D01*
X66775Y43031D01*
X66742Y43064D01*
Y43097D01*
X66775Y43031D02*
X66840D01*
X64557Y39094D02*
X64360Y38963D01*
X64557D02*
X64360Y39094D01*
X64557Y38898D02*
Y38767D01*
X64524D01*
X64393Y38898D01*
X64360D01*
X65020Y42106D02*
X65184D01*
X65217Y42139D01*
Y42205D01*
X65184Y42237D01*
X65020D01*
X65053Y42303D02*
X65020Y42336D01*
Y42401D01*
X65053Y42434D01*
X65085D01*
X65118Y42401D01*
Y42369D01*
Y42401D01*
X65151Y42434D01*
X65184D01*
X65217Y42401D01*
Y42336D01*
X65184Y42303D01*
X64557Y41063D02*
X64360Y40932D01*
X64557D02*
X64360Y41063D01*
X64557Y40735D02*
X64524Y40801D01*
X64459Y40866D01*
X64393D01*
X64360Y40833D01*
Y40768D01*
X64393Y40735D01*
X64426D01*
X64459Y40768D01*
Y40866D01*
X68652Y46407D02*
Y46243D01*
X68684Y46211D01*
X68750D01*
X68783Y46243D01*
Y46407D01*
X68848Y46375D02*
X68881Y46407D01*
X68947D01*
X68980Y46375D01*
Y46342D01*
X68947Y46309D01*
X68980Y46276D01*
Y46243D01*
X68947Y46211D01*
X68881D01*
X68848Y46243D01*
Y46276D01*
X68881Y46309D01*
X68848Y46342D01*
Y46375D01*
X68881Y46309D02*
X68947D01*
X70403Y51919D02*
X70239D01*
X70207Y51886D01*
Y51821D01*
X70239Y51788D01*
X70403D01*
Y51722D02*
Y51591D01*
X70371D01*
X70239Y51722D01*
X70207D01*
X71122Y56211D02*
X71286D01*
X71319Y56243D01*
Y56309D01*
X71286Y56342D01*
X71122D01*
X71319Y56407D02*
Y56473D01*
Y56440D01*
X71122D01*
X71155Y56407D01*
Y56571D02*
X71122Y56604D01*
Y56670D01*
X71155Y56703D01*
X71188D01*
X71220Y56670D01*
Y56637D01*
Y56670D01*
X71253Y56703D01*
X71286D01*
X71319Y56670D01*
Y56604D01*
X71286Y56571D01*
X75659Y41083D02*
X75495D01*
X75463Y41050D01*
Y40984D01*
X75495Y40951D01*
X75659D01*
X75463Y40886D02*
Y40820D01*
Y40853D01*
X75659D01*
X75627Y40886D01*
Y40722D02*
X75659Y40689D01*
Y40624D01*
X75627Y40591D01*
X75594D01*
X75561Y40624D01*
Y40656D01*
Y40624D01*
X75528Y40591D01*
X75495D01*
X75463Y40624D01*
Y40689D01*
X75495Y40722D01*
M02*
