M48
;Layer_Color=9474304
;FILE_FORMAT=4:3
METRIC,TZ
;TYPE=PLATED
T1F00S00C0.254
T2F00S00C0.300
T3F00S00C0.400
T4F00S00C2.800
%
T01
X191475Y102995
X192275
Y103995
X191475
Y104995
X192275
X178675Y118800
X177675
X176675
Y119600
X177675
X178675
X179525Y127850
X180325
Y128850
X179525
Y129850
X180325
X180525Y142855
X181325
Y143855
X180525
Y144855
X181325
T02
X190700Y122025
Y122525
Y123025
Y123525
Y130100
Y130600
Y131100
Y131600
T03
X200575Y78750
X203575
X197575
X194575
X191575
X188575
X185575
X182575
X179575
X176575
X173575
X170575
X167575
X164575
X161575
X158575
X155575
X156175Y116600
X160750Y114775
X166800Y114625
X172400Y113800
X174400
X177400
X180400
X183400
X186400
X189150
X190700
X192250
X194400
X197400
X197525Y111025
X196650Y109250
X195500
X193725Y109625
X193300Y107950
X190925Y107700
X188725Y108175
X189175Y110625
X190925
X189800Y117075
X187700
X185300Y117050
X182000Y117000
X181105Y118402
X179330Y116977
X173900Y117700
X172400Y111800
Y108800
Y105800
Y102800
Y99800
Y96800
Y93800
Y90800
Y87800
Y85800
X175400
X178400
X178320Y87520
X178525Y88900
X178525Y90645
X179300Y94045
Y96045
X181300
Y94045
X180300Y95045
X183100Y97575
X183150Y99546
X183575Y102195
X183175Y103925
X186125Y103750
X187750Y101375
X188525Y97725
X189800
X191175
X192400Y96450
X193200Y98475
X192200Y100450
Y101650
X194375Y100275
X196050Y96450
X197950Y94425
X192950Y93475
X192100Y89816
X195300Y91025
X196500Y87500
X195900Y85800
X198400
X198300Y82000
X196825Y83325
X195125Y82050
X193725
X191475Y82000
X192075Y83350
X193000Y85800
X191000
X185900
X182500
X182475Y82000
X185475
X188475
X179075Y81750
X183620Y89120
X183005Y92151
X187375Y92700
X187425Y95795
X186650Y97750
X177394Y99771
X177900Y103350
X176500
X176555Y107725
X176580Y109100
X176633Y110444
X179600Y110355
X181319Y110347
X183150Y107050
X185000Y107555
X197525Y107475
X196425Y104225
X192850Y116400
X164975Y96750
X161475Y87825
X160750Y83000
X161825Y80650
X200400Y82000
X203575Y81750
Y84750
Y87750
X203700Y90500
Y93500
Y96500
Y99500
Y102500
Y105500
Y108500
Y111500
Y114500
Y117500
X200400Y113800
Y110800
Y107800
Y104800
Y101800
Y98800
Y95800
X198975Y96475
X198575Y92175
X200400Y92800
Y89800
X198600Y88775
X200400Y85800
X199600Y119450
X201300Y119400
Y121775
Y123200
X203700Y123500
Y120500
Y126500
Y129500
X201300Y129800
Y131200
X199675Y132900
X200400Y134050
Y136050
Y139050
Y142050
Y145050
Y148050
Y151050
Y154050
Y157050
X203700Y156500
Y153500
Y150500
Y147500
Y144500
Y141500
Y138500
Y135500
Y132500
X201300Y127600
X199600Y127625
X198200Y129000
X195300
X195325Y131950
X195400Y134050
X192400
X189400
X186400
X183650
X180550
X181550Y135725
X182075Y138325
X182525Y139850
X180325Y138725
X179125Y138700
X178425Y140225
X176550Y140000
X175150Y138550
X172400Y137050
Y140050
Y143050
Y146050
Y149050
Y152050
X173825Y151375
X176750Y151400
X180400
X181625Y150125
X183000
X184275
X185525Y150200
X185375Y152050
Y155175
X189900Y155650
X191500Y153805
X193500
Y151805
X192500Y152805
X191500Y151805
X189700Y150275
X189650Y148225
X189225Y145650
X185050Y146475
X180600Y146200
Y147400
X178425Y147575
X179600Y149375
X179700Y155275
X177500Y156825
X180700Y158034
X172400Y158050
Y155050
X174225Y155675
X174850Y153425
X176375Y143625
X175800Y134050
X174250
X172400
X177400
X179100Y131775
X182425
X182950Y128850
X185275Y128875
X185700Y130975
X187950Y131775
X189600Y129100
X189775Y125150
X188500Y125175
X187100Y125700
X185250Y125675
X182500Y125700
Y122775
X180100
X177675Y122350
X173900Y122700
Y119700
X170875Y119900
X173900Y125700
Y128200
Y130200
X176500Y125700
X179500
X179980Y119577
X182500Y120150
X185750Y120175
X185725Y122975
X187575Y123725
X189675Y121000
X195300
X198200
Y124000
X195300
X192850Y124600
X198200Y132000
X198400Y134050
X196167Y137406
X196220Y138750
X196245Y140125
X196300Y144500
X194900
X195406Y148078
X194275Y157205
X189421Y158679
X187800Y140295
X191481Y137503
X193200Y137495
X167075Y128650
X162000Y131500
X163825Y143125
X165025Y144725
X163430Y153830
X162425Y154800
X167325Y157375
X156282Y135157
X157382Y131732
X156857Y127657
X156200Y124825
X157275Y165200
X156300Y174475
X159300
X162975Y169675
X167000
X166000Y166050
X165025Y165300
X164248Y166212
X161150Y165690
X161325Y164550
X168000Y166025
X170000Y165950
Y164400
X172000Y164525
X171950Y165950
X173800
X173825Y164450
X176125Y164500
X175275Y162350
X177000
X176300Y160300
X174200Y159075
X172400Y160500
X167350Y160975
X166025Y160850
X179775Y162350
X181825
X180875Y164475
X179025Y165875
X177800
X176875Y168675
X176000Y169325
X173000Y169675
X179800Y168825
X183925Y168800
X184375Y165450
X188625Y165425
X190800Y166425
X193750Y166450
X193775Y170450
X191875Y170425
X193050Y174475
X196050
X197625Y169725
X197400Y162050
X194400
X194480Y160330
X194275Y158950
X189900Y162050
X187300
X187800Y168825
X200375Y168275
X200600Y165275
X203700Y165500
Y168275
Y162500
Y159500
X200400Y160050
Y162050
X199050Y174475
X202050
T04
X157000Y82050
Y170950
X202000
M30
