%FSLAX43Y43*%
%MOMM*%
G71*
G01*
G75*
G04 Layer_Color=8421504*
%ADD10R,1.000X0.700*%
%ADD11R,0.700X0.800*%
%ADD12R,0.700X1.000*%
%ADD13R,0.800X0.700*%
%ADD14R,0.700X0.800*%
%ADD15R,1.600X0.800*%
%ADD16R,0.800X0.800*%
%ADD17R,0.800X0.800*%
%ADD18R,0.450X0.250*%
%ADD19R,0.800X2.000*%
%ADD20R,1.500X0.760*%
%ADD21R,0.400X1.200*%
%ADD22R,2.600X1.900*%
%ADD23R,0.760X1.500*%
%ADD24R,1.200X0.400*%
%ADD25R,1.900X2.600*%
%ADD26R,0.600X2.000*%
%ADD27O,0.600X2.000*%
%ADD28R,2.600X2.600*%
%ADD29R,2.000X1.500*%
%ADD30R,2.000X1.500*%
%ADD31R,2.000X3.800*%
%ADD32R,0.600X1.270*%
%ADD33R,0.350X0.900*%
%ADD34R,1.000X0.700*%
%ADD35R,1.000X0.700*%
%ADD36R,1.100X2.200*%
%ADD37R,1.000X1.050*%
%ADD38R,2.200X1.100*%
%ADD39R,1.050X1.000*%
%ADD40R,0.840X1.600*%
%ADD41R,2.400X0.840*%
%ADD42R,1.600X0.840*%
%ADD43R,0.800X1.500*%
%ADD44R,0.800X2.250*%
%ADD45R,0.350X0.280*%
G04:AMPARAMS|DCode=46|XSize=0.3mm|YSize=0.65mm|CornerRadius=0.075mm|HoleSize=0mm|Usage=FLASHONLY|Rotation=0.000|XOffset=0mm|YOffset=0mm|HoleType=Round|Shape=RoundedRectangle|*
%AMROUNDEDRECTD46*
21,1,0.300,0.500,0,0,0.0*
21,1,0.150,0.650,0,0,0.0*
1,1,0.150,0.075,-0.250*
1,1,0.150,-0.075,-0.250*
1,1,0.150,-0.075,0.250*
1,1,0.150,0.075,0.250*
%
%ADD46ROUNDEDRECTD46*%
G04:AMPARAMS|DCode=47|XSize=0.3mm|YSize=0.65mm|CornerRadius=0.075mm|HoleSize=0mm|Usage=FLASHONLY|Rotation=270.000|XOffset=0mm|YOffset=0mm|HoleType=Round|Shape=RoundedRectangle|*
%AMROUNDEDRECTD47*
21,1,0.300,0.500,0,0,270.0*
21,1,0.150,0.650,0,0,270.0*
1,1,0.150,-0.250,-0.075*
1,1,0.150,-0.250,0.075*
1,1,0.150,0.250,0.075*
1,1,0.150,0.250,-0.075*
%
%ADD47ROUNDEDRECTD47*%
%ADD48R,3.300X3.300*%
%ADD49R,0.500X0.500*%
%ADD50R,1.270X0.640*%
%ADD51R,0.900X1.300*%
%ADD52C,0.750*%
%ADD53C,0.500*%
%ADD54C,0.250*%
%ADD55C,0.350*%
%ADD56C,0.965*%
%ADD57C,0.900*%
%ADD58C,0.700*%
%ADD59C,0.200*%
%ADD60C,0.300*%
%ADD61R,11.925X2.000*%
%ADD62R,6.200X2.000*%
%ADD63R,9.650X1.875*%
%ADD64R,2.000X30.000*%
%ADD65R,8.425X2.000*%
%ADD66R,18.025X2.000*%
%ADD67R,3.400X2.000*%
%ADD68R,24.500X1.950*%
%ADD69C,1.000*%
%ADD70R,4.000X4.000*%
%ADD71R,4.000X4.000*%
%ADD72C,0.500*%
%ADD73C,0.900*%
%ADD74C,0.700*%
%ADD75C,1.016*%
%ADD76C,1.900*%
G04:AMPARAMS|DCode=77|XSize=4.3mm|YSize=4.3mm|CornerRadius=0mm|HoleSize=0mm|Usage=FLASHONLY|Rotation=0.000|XOffset=0mm|YOffset=0mm|HoleType=Round|Shape=Relief|Width=0.5mm|Gap=0.25mm|Entries=4|*
%AMTHD77*
7,0,0,4.300,3.800,0.500,45*
%
%ADD77THD77*%
G04:AMPARAMS|DCode=78|XSize=1.754mm|YSize=1.754mm|CornerRadius=0mm|HoleSize=0mm|Usage=FLASHONLY|Rotation=0.000|XOffset=0mm|YOffset=0mm|HoleType=Round|Shape=Relief|Width=0.5mm|Gap=0.25mm|Entries=4|*
%AMTHD78*
7,0,0,1.754,1.254,0.500,45*
%
%ADD78THD78*%
%ADD79C,1.100*%
%ADD80C,0.345*%
%ADD81R,1.000X2.540*%
%ADD82C,0.600*%
%ADD83C,0.203*%
%ADD84C,0.100*%
%ADD85C,0.254*%
%ADD86C,0.152*%
%ADD87C,0.150*%
%ADD88R,0.560X0.210*%
%ADD89R,0.150X0.400*%
%ADD90R,0.150X0.500*%
%ADD91R,0.700X0.500*%
%ADD92R,0.700X0.400*%
%ADD93R,0.400X0.150*%
%ADD94R,0.500X0.150*%
%ADD95R,0.500X0.700*%
%ADD96R,0.400X0.700*%
%ADD97R,0.500X0.150*%
%ADD98R,0.350X1.300*%
%ADD99R,0.300X2.575*%
%ADD100R,0.325X1.400*%
%ADD101R,0.275X0.325*%
%ADD102R,2.575X0.300*%
%ADD103R,1.400X0.325*%
%ADD104R,0.250X0.325*%
%ADD105R,0.350X1.300*%
%ADD106R,0.410X0.210*%
G54D10*
X176575Y108450D02*
D03*
Y109750D02*
D03*
X196225Y138100D02*
D03*
Y139400D02*
D03*
G54D11*
X174975Y109100D02*
D03*
X178175D02*
D03*
X194625Y138750D02*
D03*
X197825D02*
D03*
G54D12*
X189175Y97725D02*
D03*
X190475D02*
D03*
X182325Y150125D02*
D03*
X183625D02*
D03*
G54D13*
X189825Y99325D02*
D03*
Y96125D02*
D03*
X182975Y151725D02*
D03*
Y148525D02*
D03*
G54D14*
X191475Y113825D02*
D03*
X189875D02*
D03*
X176600Y134050D02*
D03*
X175000D02*
D03*
G54D15*
X190675Y112225D02*
D03*
Y115425D02*
D03*
X175800Y132450D02*
D03*
Y135650D02*
D03*
G54D16*
X163800Y131350D02*
D03*
Y132850D02*
D03*
X188275Y89900D02*
D03*
Y88400D02*
D03*
X184525Y157900D02*
D03*
Y159400D02*
D03*
X187800Y142570D02*
D03*
Y141070D02*
D03*
X187150Y120375D02*
D03*
Y118875D02*
D03*
X188525Y122200D02*
D03*
Y120700D02*
D03*
X188505Y117905D02*
D03*
Y119405D02*
D03*
X193225Y122500D02*
D03*
Y121000D02*
D03*
X193670Y126095D02*
D03*
Y124595D02*
D03*
X200425Y117925D02*
D03*
Y119425D02*
D03*
X191305Y117905D02*
D03*
Y119405D02*
D03*
X195880Y117905D02*
D03*
Y119405D02*
D03*
X189805Y117905D02*
D03*
Y119405D02*
D03*
X188500Y130300D02*
D03*
Y128800D02*
D03*
Y126100D02*
D03*
Y127600D02*
D03*
X193254Y130598D02*
D03*
Y129098D02*
D03*
X200500Y126125D02*
D03*
Y127625D02*
D03*
X191250Y126100D02*
D03*
Y127600D02*
D03*
X195954Y126098D02*
D03*
Y127598D02*
D03*
X189800Y126100D02*
D03*
Y127600D02*
D03*
X162000Y129100D02*
D03*
Y130600D02*
D03*
X165025Y147200D02*
D03*
Y145700D02*
D03*
X162400Y152250D02*
D03*
Y153750D02*
D03*
X158682Y136532D02*
D03*
Y138032D02*
D03*
X190800Y168650D02*
D03*
Y167150D02*
D03*
X195125D02*
D03*
Y168650D02*
D03*
X163800Y86300D02*
D03*
Y87800D02*
D03*
X166475Y86175D02*
D03*
Y87675D02*
D03*
X168000Y168500D02*
D03*
Y167000D02*
D03*
X167325Y158450D02*
D03*
Y159950D02*
D03*
X166000Y168500D02*
D03*
Y167000D02*
D03*
Y158450D02*
D03*
Y159950D02*
D03*
X175696Y159645D02*
D03*
Y158145D02*
D03*
X178425Y155305D02*
D03*
Y156805D02*
D03*
X177400Y145075D02*
D03*
Y143575D02*
D03*
X185050Y145630D02*
D03*
Y144130D02*
D03*
X177600Y135650D02*
D03*
Y137150D02*
D03*
X193200Y139870D02*
D03*
Y138370D02*
D03*
X191700D02*
D03*
Y139870D02*
D03*
Y141070D02*
D03*
Y142570D02*
D03*
X193200Y141070D02*
D03*
Y142570D02*
D03*
X190025Y145625D02*
D03*
Y147125D02*
D03*
X194900Y145450D02*
D03*
Y146950D02*
D03*
X185525Y147830D02*
D03*
Y149330D02*
D03*
X188275Y157150D02*
D03*
Y158650D02*
D03*
X195600Y156480D02*
D03*
Y157980D02*
D03*
X197104Y88205D02*
D03*
Y89705D02*
D03*
X194375Y92545D02*
D03*
Y91045D02*
D03*
X195400Y102775D02*
D03*
Y104275D02*
D03*
X187775Y108150D02*
D03*
Y106650D02*
D03*
X185000Y106780D02*
D03*
Y105280D02*
D03*
X192425Y112225D02*
D03*
Y110725D02*
D03*
X179600Y107980D02*
D03*
Y109480D02*
D03*
X181100D02*
D03*
Y107980D02*
D03*
Y106780D02*
D03*
Y105280D02*
D03*
X179600Y106780D02*
D03*
Y105280D02*
D03*
X182700Y102175D02*
D03*
Y100675D02*
D03*
X177900Y102400D02*
D03*
Y100900D02*
D03*
X187275Y100020D02*
D03*
Y98520D02*
D03*
X184575Y90700D02*
D03*
Y89200D02*
D03*
X177200Y91370D02*
D03*
Y89870D02*
D03*
X175775Y128225D02*
D03*
Y129725D02*
D03*
X187150Y130300D02*
D03*
Y128800D02*
D03*
X193700Y117900D02*
D03*
Y116400D02*
D03*
X164375Y99225D02*
D03*
Y97725D02*
D03*
X184475Y153550D02*
D03*
Y152050D02*
D03*
X188325Y94300D02*
D03*
Y95800D02*
D03*
X196300Y146950D02*
D03*
Y145450D02*
D03*
X176500Y100900D02*
D03*
Y102400D02*
D03*
X185725Y159400D02*
D03*
Y157900D02*
D03*
X186900Y159375D02*
D03*
Y157875D02*
D03*
X187075Y88400D02*
D03*
Y89900D02*
D03*
X185900Y88425D02*
D03*
Y89925D02*
D03*
X180775Y81525D02*
D03*
Y83025D02*
D03*
G54D17*
X194779Y127598D02*
D03*
X193279D02*
D03*
X194725Y119400D02*
D03*
X193225D02*
D03*
X192425Y109600D02*
D03*
X190925D02*
D03*
X177600Y138325D02*
D03*
X176100D02*
D03*
X195980Y122505D02*
D03*
X194480D02*
D03*
X190425Y121000D02*
D03*
X191925D02*
D03*
X197175Y117900D02*
D03*
X198675D02*
D03*
Y119400D02*
D03*
X197175D02*
D03*
X196054Y130598D02*
D03*
X194554D02*
D03*
X190454Y129098D02*
D03*
X191954D02*
D03*
X198750Y127600D02*
D03*
X197250D02*
D03*
Y126100D02*
D03*
X198750D02*
D03*
X169500Y129700D02*
D03*
X171000D02*
D03*
X169725Y119100D02*
D03*
X168225D02*
D03*
X162325Y141525D02*
D03*
X163825D02*
D03*
X162300Y144225D02*
D03*
X163800D02*
D03*
X160800Y142900D02*
D03*
X162300D02*
D03*
X158376Y128706D02*
D03*
X156876D02*
D03*
X158676Y135156D02*
D03*
X157176D02*
D03*
X196400Y170225D02*
D03*
X194900D02*
D03*
X201075Y166725D02*
D03*
X199575D02*
D03*
X193650Y168650D02*
D03*
X192150D02*
D03*
X195200Y164975D02*
D03*
X196700D02*
D03*
X164400Y80675D02*
D03*
X162900D02*
D03*
X167400Y109600D02*
D03*
X165900D02*
D03*
X167400Y107725D02*
D03*
X165900D02*
D03*
X176925Y159600D02*
D03*
X178425D02*
D03*
X175725Y156580D02*
D03*
X174225D02*
D03*
X175900Y147575D02*
D03*
X177400D02*
D03*
X178425Y158150D02*
D03*
X176925D02*
D03*
X177225Y155305D02*
D03*
X175725D02*
D03*
X177400Y146275D02*
D03*
X175900D02*
D03*
X181500Y147380D02*
D03*
X183000D02*
D03*
X181500Y146205D02*
D03*
X183000D02*
D03*
X177600Y135650D02*
D03*
X179100D02*
D03*
X178825Y141630D02*
D03*
X180325D02*
D03*
X186550Y142575D02*
D03*
X185050D02*
D03*
X177325Y141630D02*
D03*
X178825D02*
D03*
X189000Y142570D02*
D03*
X190500D02*
D03*
X191700Y144175D02*
D03*
X193200D02*
D03*
X189650Y149075D02*
D03*
X191150D02*
D03*
X188325Y147855D02*
D03*
X186825D02*
D03*
X195400Y148875D02*
D03*
X193900D02*
D03*
X188325Y149355D02*
D03*
X186825D02*
D03*
X187900Y150880D02*
D03*
X186400D02*
D03*
X188325Y146555D02*
D03*
X186825D02*
D03*
X197100Y150075D02*
D03*
X198600D02*
D03*
X187900Y152055D02*
D03*
X186400D02*
D03*
X197100Y148875D02*
D03*
X198600D02*
D03*
Y151475D02*
D03*
X197100D02*
D03*
X186700Y153325D02*
D03*
X188200D02*
D03*
X184525Y156300D02*
D03*
X186025D02*
D03*
X197100Y152675D02*
D03*
X198600D02*
D03*
X187800Y155150D02*
D03*
X186300D02*
D03*
X198600Y153775D02*
D03*
X197100D02*
D03*
X198600Y154875D02*
D03*
X197100D02*
D03*
X189475Y156430D02*
D03*
X190975D02*
D03*
X194275Y156505D02*
D03*
X192775D02*
D03*
X189475Y157630D02*
D03*
X190975D02*
D03*
X194275Y157905D02*
D03*
X192775D02*
D03*
X195600Y159280D02*
D03*
X197100D02*
D03*
X193525Y165000D02*
D03*
X192025D02*
D03*
X192025Y163750D02*
D03*
X190525D02*
D03*
X195875Y88250D02*
D03*
X194375D02*
D03*
X197075Y91270D02*
D03*
X198575D02*
D03*
X196900Y100275D02*
D03*
X195400D02*
D03*
X194375Y89700D02*
D03*
X195875D02*
D03*
X195575Y92545D02*
D03*
X197075D02*
D03*
X195400Y101575D02*
D03*
X196900D02*
D03*
X191300Y100470D02*
D03*
X189800D02*
D03*
X191300Y101645D02*
D03*
X189800D02*
D03*
X192425Y112225D02*
D03*
X193925D02*
D03*
X193975Y106220D02*
D03*
X195475D02*
D03*
X186250Y105275D02*
D03*
X187750D02*
D03*
X192475Y106220D02*
D03*
X193975D02*
D03*
X183800Y105280D02*
D03*
X182300D02*
D03*
X181100Y103675D02*
D03*
X179600D02*
D03*
X183150Y98775D02*
D03*
X181650D02*
D03*
X184475Y99995D02*
D03*
X185975D02*
D03*
X177400Y98975D02*
D03*
X178900D02*
D03*
X184475Y98495D02*
D03*
X185975D02*
D03*
X184900Y96970D02*
D03*
X186400D02*
D03*
X184475Y101295D02*
D03*
X185975D02*
D03*
X175700Y97775D02*
D03*
X174200D02*
D03*
X184900Y95795D02*
D03*
X186400D02*
D03*
X175700Y98975D02*
D03*
X174200D02*
D03*
Y96375D02*
D03*
X175700D02*
D03*
X186100Y94525D02*
D03*
X184600D02*
D03*
X188275Y91500D02*
D03*
X186775D02*
D03*
X175700Y95175D02*
D03*
X174200D02*
D03*
X185025Y92700D02*
D03*
X186525D02*
D03*
X174200Y94075D02*
D03*
X175700D02*
D03*
X174200Y92975D02*
D03*
X175700D02*
D03*
X183325Y91420D02*
D03*
X181825D02*
D03*
X178525Y91345D02*
D03*
X180025D02*
D03*
X183325Y90220D02*
D03*
X181825D02*
D03*
X178525Y89945D02*
D03*
X180025D02*
D03*
X177200Y88570D02*
D03*
X175700D02*
D03*
X180775Y84225D02*
D03*
X179275D02*
D03*
X198600Y155975D02*
D03*
X197100D02*
D03*
X198600Y157075D02*
D03*
X197100D02*
D03*
X174200Y91875D02*
D03*
X175700D02*
D03*
X174200Y90775D02*
D03*
X175700D02*
D03*
X181275Y115675D02*
D03*
X182775D02*
D03*
X198150Y165225D02*
D03*
X199650D02*
D03*
X182975Y158034D02*
D03*
X181475D02*
D03*
X182975Y159475D02*
D03*
X181475D02*
D03*
X189825Y89816D02*
D03*
X191325D02*
D03*
X189825Y88375D02*
D03*
X191325D02*
D03*
G54D20*
X184025Y118880D02*
D03*
Y121420D02*
D03*
X180875D02*
D03*
Y120150D02*
D03*
Y118880D02*
D03*
G54D21*
X176700Y117100D02*
D03*
X177350D02*
D03*
X178000D02*
D03*
X178650D02*
D03*
Y121300D02*
D03*
X178000D02*
D03*
X177350Y121310D02*
D03*
X176700Y121300D02*
D03*
G54D23*
X185995Y127325D02*
D03*
X183455D02*
D03*
Y124175D02*
D03*
X184725D02*
D03*
X185995D02*
D03*
G54D24*
X177825Y129825D02*
D03*
Y129175D02*
D03*
Y128525D02*
D03*
Y127875D02*
D03*
X182025D02*
D03*
Y128525D02*
D03*
X182035Y129175D02*
D03*
X182025Y129825D02*
D03*
X183025Y142880D02*
D03*
Y143530D02*
D03*
Y144180D02*
D03*
Y144830D02*
D03*
X178825D02*
D03*
Y144180D02*
D03*
X178815Y143530D02*
D03*
X178825Y142880D02*
D03*
X189775Y104970D02*
D03*
Y104320D02*
D03*
Y103670D02*
D03*
Y103020D02*
D03*
X193975D02*
D03*
Y103670D02*
D03*
X193985Y104320D02*
D03*
X193975Y104970D02*
D03*
G54D26*
X162005Y121450D02*
D03*
G54D27*
X163275D02*
D03*
X164545D02*
D03*
X165815D02*
D03*
X167085D02*
D03*
X168355D02*
D03*
X169625D02*
D03*
X170895D02*
D03*
X162005Y126950D02*
D03*
X163275D02*
D03*
X164545D02*
D03*
X165815D02*
D03*
X167085D02*
D03*
X168355D02*
D03*
X169625D02*
D03*
X170895D02*
D03*
G54D28*
X157300Y167100D02*
D03*
Y160700D02*
D03*
G54D29*
X162925Y146000D02*
D03*
Y150600D02*
D03*
G54D30*
Y148300D02*
D03*
G54D31*
X156625D02*
D03*
G54D32*
X156450Y133166D02*
D03*
X158350D02*
D03*
Y130372D02*
D03*
X157400Y133166D02*
D03*
X156450Y130372D02*
D03*
X180999Y156485D02*
D03*
X182899D02*
D03*
Y153691D02*
D03*
X181949Y156485D02*
D03*
X180999Y153691D02*
D03*
X191801Y91365D02*
D03*
X189901D02*
D03*
Y94159D02*
D03*
X190851Y91365D02*
D03*
X191801Y94159D02*
D03*
G54D33*
X198275Y168625D02*
D03*
X197625D02*
D03*
X196975D02*
D03*
X198275Y166725D02*
D03*
X197625D02*
D03*
X196975D02*
D03*
G54D34*
X161850Y83950D02*
D03*
Y82050D02*
D03*
X164550D02*
D03*
Y83950D02*
D03*
G54D35*
X161850Y83000D02*
D03*
X164550D02*
D03*
G54D36*
X179950Y164575D02*
D03*
X176950D02*
D03*
X192900Y83350D02*
D03*
X195900D02*
D03*
G54D37*
X178450Y162975D02*
D03*
X194400Y84950D02*
D03*
G54D38*
X200000Y129000D02*
D03*
Y132000D02*
D03*
Y121000D02*
D03*
Y124000D02*
D03*
G54D39*
X198400Y130500D02*
D03*
Y122500D02*
D03*
G54D40*
X178440Y153439D02*
D03*
X177170D02*
D03*
X175900D02*
D03*
X177170Y149375D02*
D03*
X178440D02*
D03*
X175900D02*
D03*
X194330Y94418D02*
D03*
X195600D02*
D03*
X196870D02*
D03*
X195600Y98482D02*
D03*
X194330D02*
D03*
X196870D02*
D03*
G54D41*
X178694Y151407D02*
D03*
X194076Y96450D02*
D03*
G54D42*
X175138Y151407D02*
D03*
X197632Y96450D02*
D03*
G54D43*
X179125Y140200D02*
D03*
X180325D02*
D03*
X181525Y137200D02*
D03*
X180325D02*
D03*
X179125D02*
D03*
X196675Y107750D02*
D03*
X195475D02*
D03*
X194275Y110750D02*
D03*
X195475D02*
D03*
X196675D02*
D03*
G54D44*
X181525Y139825D02*
D03*
X194275Y108125D02*
D03*
G54D45*
X177900Y140000D02*
D03*
X177325D02*
D03*
Y140500D02*
D03*
X177900D02*
D03*
X177613Y139500D02*
D03*
X191887Y107950D02*
D03*
X192462D02*
D03*
Y107450D02*
D03*
X191887D02*
D03*
X192175Y108450D02*
D03*
G54D46*
X190750Y155180D02*
D03*
X194250D02*
D03*
X190750Y150430D02*
D03*
X194250D02*
D03*
X191250Y155180D02*
D03*
X191750D02*
D03*
X192250D02*
D03*
X192750D02*
D03*
X193250D02*
D03*
X193750D02*
D03*
Y150430D02*
D03*
X193250D02*
D03*
X192750D02*
D03*
X192250D02*
D03*
X191750D02*
D03*
X191250D02*
D03*
X182050Y92670D02*
D03*
X178550D02*
D03*
X182050Y97420D02*
D03*
X178550D02*
D03*
X181550Y92670D02*
D03*
X181050D02*
D03*
X180550D02*
D03*
X180050D02*
D03*
X179550D02*
D03*
X179050D02*
D03*
Y97420D02*
D03*
X179550D02*
D03*
X180050D02*
D03*
X180550D02*
D03*
X181050D02*
D03*
X181550D02*
D03*
G54D47*
X194875Y151055D02*
D03*
Y154555D02*
D03*
X190125Y151055D02*
D03*
Y151555D02*
D03*
Y154555D02*
D03*
Y154055D02*
D03*
Y153555D02*
D03*
Y153055D02*
D03*
Y152555D02*
D03*
Y152055D02*
D03*
X194875Y154055D02*
D03*
Y153555D02*
D03*
Y153055D02*
D03*
Y152555D02*
D03*
Y152055D02*
D03*
Y151555D02*
D03*
X177925Y96795D02*
D03*
Y93295D02*
D03*
X182675Y96795D02*
D03*
Y96295D02*
D03*
Y93295D02*
D03*
Y93795D02*
D03*
Y94295D02*
D03*
Y94795D02*
D03*
Y95295D02*
D03*
Y95795D02*
D03*
X177925Y93795D02*
D03*
Y94295D02*
D03*
Y94795D02*
D03*
Y95295D02*
D03*
Y95795D02*
D03*
Y96295D02*
D03*
G54D49*
X197254Y130798D02*
D03*
Y131798D02*
D03*
X197130Y122730D02*
D03*
Y123730D02*
D03*
G54D50*
X169630Y100670D02*
D03*
Y101940D02*
D03*
Y103210D02*
D03*
Y104480D02*
D03*
X164420Y100670D02*
D03*
Y101940D02*
D03*
Y103210D02*
D03*
Y104480D02*
D03*
G54D51*
X191300Y147475D02*
D03*
X193600D02*
D03*
X181500Y100375D02*
D03*
X179200D02*
D03*
X190675Y159675D02*
D03*
X192975D02*
D03*
X182075Y88175D02*
D03*
X179775D02*
D03*
G54D88*
X190700Y122775D02*
D03*
Y122275D02*
D03*
Y123275D02*
D03*
Y130850D02*
D03*
Y130350D02*
D03*
Y131350D02*
D03*
G54D89*
X178900Y118450D02*
D03*
X176450Y118450D02*
D03*
X178900Y119950D02*
D03*
X176450Y119950D02*
D03*
G54D90*
X178899Y119200D02*
D03*
X176451Y119200D02*
D03*
G54D91*
X178175Y119200D02*
D03*
X177175D02*
D03*
G54D92*
Y119950D02*
D03*
X178175D02*
D03*
Y118450D02*
D03*
X177175D02*
D03*
G54D93*
X179175Y127626D02*
D03*
X179174Y130075D02*
D03*
X180675Y127626D02*
D03*
X180674Y130075D02*
D03*
X181674Y145080D02*
D03*
X181675Y142629D02*
D03*
X180174Y145080D02*
D03*
X180175Y142629D02*
D03*
X191124Y102773D02*
D03*
X191122Y105219D02*
D03*
X192624Y102773D02*
D03*
X192622Y105219D02*
D03*
G54D94*
X179925Y127626D02*
D03*
X179925Y130074D02*
D03*
X191875Y102771D02*
D03*
X191875Y105219D02*
D03*
G54D95*
X179925Y128350D02*
D03*
Y129350D02*
D03*
X180925Y144355D02*
D03*
Y143355D02*
D03*
X191875Y103495D02*
D03*
Y104495D02*
D03*
G54D96*
X180675Y129350D02*
D03*
Y128350D02*
D03*
X179175D02*
D03*
Y129350D02*
D03*
X180175Y143355D02*
D03*
Y144355D02*
D03*
X181675D02*
D03*
Y143355D02*
D03*
X192625Y104495D02*
D03*
Y103495D02*
D03*
X191125D02*
D03*
Y104495D02*
D03*
G54D97*
X180925Y145080D02*
D03*
X180925Y142630D02*
D03*
G54D98*
X192975Y152806D02*
D03*
X179825Y95045D02*
D03*
G54D99*
X193950Y153092D02*
D03*
X191050Y152517D02*
D03*
X178850Y94757D02*
D03*
X181750Y95332D02*
D03*
G54D100*
X193487Y152805D02*
D03*
X191512Y152805D02*
D03*
X179312Y95045D02*
D03*
X181288Y95045D02*
D03*
G54D101*
X192513Y152317D02*
D03*
X180287Y95533D02*
D03*
G54D102*
X192787Y151355D02*
D03*
X192212Y154255D02*
D03*
X180013Y96495D02*
D03*
X180588Y93595D02*
D03*
G54D103*
X192500Y151818D02*
D03*
X192500Y153792D02*
D03*
X180300Y96032D02*
D03*
X180300Y94058D02*
D03*
G54D104*
X192500Y153292D02*
D03*
X180300Y94558D02*
D03*
G54D105*
X192025Y152805D02*
D03*
X180775Y95045D02*
D03*
G54D106*
X189825Y122025D02*
D03*
Y122525D02*
D03*
Y123025D02*
D03*
Y123525D02*
D03*
X191575D02*
D03*
Y123025D02*
D03*
Y122525D02*
D03*
Y122025D02*
D03*
X189825Y130100D02*
D03*
Y130600D02*
D03*
Y131100D02*
D03*
Y131600D02*
D03*
X191575D02*
D03*
Y131100D02*
D03*
Y130600D02*
D03*
Y130100D02*
D03*
M02*
