%FSLAX43Y43*%
%MOMM*%
G71*
G01*
G75*
G04 Layer_Physical_Order=3*
G04 Layer_Color=16440176*
%ADD10R,1.000X0.700*%
%ADD11R,0.700X0.800*%
%ADD12R,0.700X1.000*%
%ADD13R,0.800X0.700*%
%ADD14R,0.700X0.800*%
%ADD15R,1.600X0.800*%
%ADD16R,0.800X0.800*%
%ADD17R,0.800X0.800*%
%ADD18R,0.450X0.250*%
%ADD19R,0.800X2.000*%
%ADD20R,1.500X0.760*%
%ADD21R,0.400X1.200*%
%ADD22R,2.600X1.900*%
%ADD23R,0.760X1.500*%
%ADD24R,1.200X0.400*%
%ADD25R,1.900X2.600*%
%ADD26R,0.600X2.000*%
%ADD27O,0.600X2.000*%
%ADD28R,2.600X2.600*%
%ADD29R,2.000X1.500*%
%ADD30R,2.000X1.500*%
%ADD31R,2.000X3.800*%
%ADD32R,0.600X1.270*%
%ADD33R,0.350X0.900*%
%ADD34R,1.000X0.700*%
%ADD35R,1.000X0.700*%
%ADD36R,1.100X2.200*%
%ADD37R,1.000X1.050*%
%ADD38R,2.200X1.100*%
%ADD39R,1.050X1.000*%
%ADD40R,0.840X1.600*%
%ADD41R,2.400X0.840*%
%ADD42R,1.600X0.840*%
%ADD43R,0.800X1.500*%
%ADD44R,0.800X2.250*%
%ADD45R,0.350X0.280*%
G04:AMPARAMS|DCode=46|XSize=0.3mm|YSize=0.65mm|CornerRadius=0.075mm|HoleSize=0mm|Usage=FLASHONLY|Rotation=0.000|XOffset=0mm|YOffset=0mm|HoleType=Round|Shape=RoundedRectangle|*
%AMROUNDEDRECTD46*
21,1,0.300,0.500,0,0,0.0*
21,1,0.150,0.650,0,0,0.0*
1,1,0.150,0.075,-0.250*
1,1,0.150,-0.075,-0.250*
1,1,0.150,-0.075,0.250*
1,1,0.150,0.075,0.250*
%
%ADD46ROUNDEDRECTD46*%
G04:AMPARAMS|DCode=47|XSize=0.3mm|YSize=0.65mm|CornerRadius=0.075mm|HoleSize=0mm|Usage=FLASHONLY|Rotation=270.000|XOffset=0mm|YOffset=0mm|HoleType=Round|Shape=RoundedRectangle|*
%AMROUNDEDRECTD47*
21,1,0.300,0.500,0,0,270.0*
21,1,0.150,0.650,0,0,270.0*
1,1,0.150,-0.250,-0.075*
1,1,0.150,-0.250,0.075*
1,1,0.150,0.250,0.075*
1,1,0.150,0.250,-0.075*
%
%ADD47ROUNDEDRECTD47*%
%ADD48R,3.300X3.300*%
%ADD49R,0.500X0.500*%
%ADD50R,1.270X0.640*%
%ADD51R,0.900X1.300*%
%ADD52C,0.750*%
%ADD53C,0.500*%
%ADD54C,0.250*%
%ADD55C,0.350*%
%ADD56C,0.965*%
%ADD57C,0.900*%
%ADD58C,0.700*%
%ADD59C,0.200*%
%ADD60C,0.300*%
%ADD61R,11.925X2.000*%
%ADD62R,6.200X2.000*%
%ADD63R,9.650X1.875*%
%ADD64R,2.000X30.000*%
%ADD65R,8.425X2.000*%
%ADD66R,18.025X2.000*%
%ADD67R,3.400X2.000*%
%ADD68R,24.500X1.950*%
%ADD69C,1.000*%
%ADD70R,4.000X4.000*%
%ADD71R,4.000X4.000*%
%ADD72C,0.500*%
%ADD73C,0.900*%
%ADD74C,0.700*%
%ADD75C,1.016*%
%ADD76C,1.900*%
G04:AMPARAMS|DCode=77|XSize=4.3mm|YSize=4.3mm|CornerRadius=0mm|HoleSize=0mm|Usage=FLASHONLY|Rotation=0.000|XOffset=0mm|YOffset=0mm|HoleType=Round|Shape=Relief|Width=0.5mm|Gap=0.25mm|Entries=4|*
%AMTHD77*
7,0,0,4.300,3.800,0.500,45*
%
%ADD77THD77*%
G04:AMPARAMS|DCode=78|XSize=1.754mm|YSize=1.754mm|CornerRadius=0mm|HoleSize=0mm|Usage=FLASHONLY|Rotation=0.000|XOffset=0mm|YOffset=0mm|HoleType=Round|Shape=Relief|Width=0.5mm|Gap=0.25mm|Entries=4|*
%AMTHD78*
7,0,0,1.754,1.254,0.500,45*
%
%ADD78THD78*%
%ADD79C,1.100*%
%ADD80C,0.345*%
G54D52*
X191033Y126098D02*
X199675D01*
X176000Y168675D02*
X176875D01*
X163400Y134650D02*
X165200Y132850D01*
X163400Y134650D02*
Y138350D01*
Y139775D01*
X198750Y101087D02*
Y115500D01*
X199600Y116350D01*
Y117950D01*
X196875Y118925D02*
X197850Y117950D01*
X196875Y118925D02*
Y125907D01*
X197850Y117950D02*
X199600D01*
X163300Y152200D02*
X164550D01*
X199600Y117950D02*
X199650D01*
X190606Y126525D02*
X191033Y126098D01*
X188125Y126525D02*
X190606D01*
X187175Y127475D02*
X188125Y126525D01*
X161325Y168325D02*
X175650D01*
X176000Y168675D01*
Y169325D01*
X159675Y166675D02*
X161325Y168325D01*
X159675Y155825D02*
X163300Y152200D01*
X159675Y155825D02*
Y166675D01*
X187175Y127475D02*
Y131030D01*
X165200Y132850D02*
X185355D01*
X187175Y131030D01*
X193000Y88375D02*
X194225Y89600D01*
Y96562D01*
X198750Y101087D01*
X192125Y88375D02*
X193000D01*
G54D53*
X163275Y141325D02*
X197750D01*
X162000Y140050D02*
X163275Y141325D01*
X162000Y136125D02*
Y140050D01*
X166425Y148325D02*
X171600Y153500D01*
X165025Y148325D02*
X166425D01*
X171600Y153500D02*
X173175D01*
X174125Y154450D01*
X176850D01*
X179225Y156825D01*
X168750Y109675D02*
X168825Y109750D01*
X174153D02*
X174155Y109752D01*
X168825Y109750D02*
X174153D01*
X197775Y141350D02*
X198650Y142225D01*
Y163625D01*
X198125Y164150D02*
X198650Y163625D01*
X179225Y156825D02*
Y158000D01*
X180700Y159475D01*
G54D54*
X172850Y165375D02*
Y166325D01*
X172000Y164525D02*
X172850Y165375D01*
X167775Y96950D02*
Y105900D01*
X166850Y106825D02*
X167775Y105900D01*
X166850Y106825D02*
Y109925D01*
X165200Y94375D02*
X167775Y96950D01*
X167650Y108650D02*
X169000Y107300D01*
X167650Y108650D02*
Y115075D01*
X169550Y152625D02*
Y157475D01*
X166125Y149200D02*
X169550Y152625D01*
X165200Y147200D02*
X169450D01*
X160000Y142000D02*
X165200Y147200D01*
X160000Y121100D02*
Y142000D01*
X164350Y149200D02*
X166125D01*
X159500Y144350D02*
X164350Y149200D01*
X159500Y120700D02*
Y144350D01*
X164000Y149775D02*
X165675D01*
X158975Y144750D02*
X164000Y149775D01*
X158975Y120325D02*
Y144750D01*
X160600Y121325D02*
X165925Y116000D01*
X161125Y121600D02*
X167650Y115075D01*
X165925Y110850D02*
X166850Y109925D01*
X165925Y110850D02*
Y116000D01*
X161125Y121600D02*
Y140425D01*
X162825Y142125D01*
X169850D01*
X165675Y149775D02*
X168250Y152350D01*
Y155675D01*
X182225Y89300D02*
X187400Y94475D01*
X187425D01*
X184275Y97625D02*
X187425Y94475D01*
X190000Y146250D02*
X191125D01*
X188525Y147725D02*
X190000Y146250D01*
X185375Y153375D02*
X185400D01*
X190575Y158550D01*
X172850Y166325D02*
X173325Y166800D01*
X180450D01*
X186775Y160475D01*
X188900Y159725D02*
X190575D01*
X186775Y160008D02*
Y160475D01*
Y160008D02*
X187408Y159375D01*
X188550D01*
X188900Y159725D01*
X169450Y147200D02*
X170400Y148150D01*
X170600D01*
X169850Y142125D02*
X170275Y142550D01*
X160600Y121325D02*
Y141775D01*
X164425Y145600D01*
X169550D01*
X186825Y145650D02*
X187725Y144750D01*
X191950D01*
X193750Y146550D01*
X185375Y153375D02*
X188525Y150225D01*
Y147725D02*
Y150225D01*
X190575Y159725D02*
X194625Y155675D01*
X195475D01*
X184275Y97625D02*
Y100125D01*
X182800Y101600D02*
X184275Y100125D01*
X181580Y101726D02*
X181706Y101600D01*
X182800D01*
X169000Y96033D02*
Y107300D01*
Y96033D02*
X172857Y92176D01*
X177305D01*
X163825Y103834D02*
X165100Y105109D01*
X160000Y121100D02*
X165100Y116000D01*
Y105109D02*
Y116000D01*
X163825Y93150D02*
Y103834D01*
X170475Y84975D02*
X182842D01*
X183675Y85808D01*
Y87590D01*
X186850Y89025D02*
X188275Y87600D01*
X185110Y89025D02*
X186850D01*
X183675Y87590D02*
X185110Y89025D01*
X193750Y146550D02*
Y148898D01*
X196356Y151504D01*
X176450Y96215D02*
X179050Y98815D01*
Y101300D01*
X158975Y120325D02*
X163000Y116300D01*
Y92450D02*
X170475Y84975D01*
X163000Y92450D02*
Y116300D01*
X164175Y107725D02*
Y116025D01*
X159500Y120700D02*
X164175Y116025D01*
X179050Y101300D02*
X180770Y103020D01*
X184855D01*
X185650Y102225D01*
G54D55*
X168700Y116300D02*
X175500D01*
X166400Y118600D02*
X168700Y116300D01*
X166400Y118600D02*
Y119125D01*
X165025D02*
X168450Y115700D01*
X176900D01*
X176950Y115750D01*
X175500Y116300D02*
X176100Y116900D01*
X176805Y131075D02*
X177080Y130800D01*
X169074Y131075D02*
X176805D01*
X168825Y131675D02*
X177533D01*
X165825Y128675D02*
X168825Y131675D01*
X177533D02*
X178230Y130978D01*
X168350Y130351D02*
X169074Y131075D01*
X168350Y128675D02*
Y130351D01*
X166375Y151425D02*
Y154675D01*
X166025Y155025D02*
X166375Y154675D01*
X166025Y155025D02*
Y160850D01*
X165775Y151800D02*
Y153775D01*
X165025Y151050D02*
X165775Y151800D01*
X165400Y150450D02*
X166375Y151425D01*
X162700Y151050D02*
X165025D01*
X163400Y150450D02*
X165400D01*
X182725Y163300D02*
X185750Y160275D01*
X167275Y163300D02*
X182725D01*
X166025Y162050D02*
X167275Y163300D01*
X166025Y160850D02*
Y162050D01*
X166000Y166050D02*
X167300Y167350D01*
X167350Y160975D02*
X167850Y161475D01*
X183300D01*
X184525Y160250D01*
X185750Y160175D02*
Y160275D01*
X167300Y167350D02*
X180700D01*
X187750Y160300D01*
Y160200D02*
Y160300D01*
X155950Y132975D02*
X157275Y134300D01*
Y145625D01*
X162700Y151050D01*
X158325Y120025D02*
Y145375D01*
X163400Y150450D01*
X185338Y88475D02*
X186062D01*
X183261Y84150D02*
X184225Y85114D01*
X183510Y83550D02*
X184825Y84865D01*
X170125Y83550D02*
X183510D01*
X170500Y84150D02*
X183261D01*
X184225Y85114D02*
Y87362D01*
X185338Y88475D01*
X184825Y84865D02*
Y86725D01*
X185700Y87600D01*
X186062Y88475D02*
X186937Y87601D01*
X161750Y91925D02*
X170125Y83550D01*
X161750Y91925D02*
Y115475D01*
X162400Y92250D02*
X170500Y84150D01*
X162400Y92250D02*
Y115950D01*
X158325Y120025D02*
X162400Y115950D01*
X155950Y126750D02*
Y132975D01*
Y126750D02*
X157150Y125550D01*
Y120075D02*
Y125550D01*
Y120075D02*
X161750Y115475D01*
X165100Y154450D02*
X165775Y153775D01*
X165100Y154450D02*
Y163800D01*
X166000Y164700D01*
Y166050D01*
G54D72*
X190700Y131100D02*
D03*
Y130600D02*
D03*
Y122525D02*
D03*
Y123025D02*
D03*
G54D73*
X176100Y116900D02*
D03*
X176950Y115750D02*
D03*
X177080Y130800D02*
D03*
X178230Y130978D02*
D03*
X176875Y168675D02*
D03*
X164175Y107725D02*
D03*
X169550Y157475D02*
D03*
X162000Y136125D02*
D03*
X163400Y139775D02*
D03*
Y138350D02*
D03*
X169550Y145600D02*
D03*
X168250Y155675D02*
D03*
X165200Y132850D02*
D03*
X165025Y119125D02*
D03*
X165200Y94375D02*
D03*
X165025Y148325D02*
D03*
X164550Y152200D02*
D03*
X172000Y164525D02*
D03*
X167350Y160975D02*
D03*
X166025Y160850D02*
D03*
X168350Y128675D02*
D03*
X166000Y166050D02*
D03*
X182225Y89300D02*
D03*
X187425Y94475D02*
D03*
X188275Y87600D02*
D03*
X197775Y141350D02*
D03*
X198125Y164150D02*
D03*
X166400Y119125D02*
D03*
X165825Y128675D02*
D03*
X163300Y152200D02*
D03*
X184525Y160250D02*
D03*
X202475Y166725D02*
D03*
X191125Y146250D02*
D03*
X186825Y145650D02*
D03*
X185375Y153375D02*
D03*
X190575Y158550D02*
D03*
X199600Y117950D02*
D03*
Y126100D02*
D03*
X184300Y130100D02*
D03*
X184275Y122250D02*
D03*
X185750Y160175D02*
D03*
X187750Y160200D02*
D03*
X170600Y148150D02*
D03*
X170275Y142550D02*
D03*
X195475Y155675D02*
D03*
X181580Y101726D02*
D03*
X177305Y92176D02*
D03*
X174155Y109752D02*
D03*
X168825Y109750D02*
D03*
X165925Y110850D02*
D03*
X163825Y93150D02*
D03*
X185700Y87600D02*
D03*
X186937Y87601D02*
D03*
X196356Y151504D02*
D03*
X176450Y96215D02*
D03*
X176000Y169325D02*
D03*
X185650Y102225D02*
D03*
X180750Y80650D02*
D03*
X192125Y88375D02*
D03*
X180700Y159475D02*
D03*
G54D80*
X184275Y122250D02*
X184303Y122277D01*
Y130097D01*
X184300Y130100D02*
X184303Y130097D01*
X202225Y80650D02*
X202475Y80900D01*
Y166725D01*
X180750Y80650D02*
X202225D01*
M02*
