%FSLAX43Y43*%
%MOMM*%
G71*
G01*
G75*
G04 Layer_Physical_Order=2*
G04 Layer_Color=32768*
%ADD10R,1.000X0.700*%
%ADD11R,0.700X0.800*%
%ADD12R,0.700X1.000*%
%ADD13R,0.800X0.700*%
%ADD14R,0.700X0.800*%
%ADD15R,1.600X0.800*%
%ADD16R,0.800X0.800*%
%ADD17R,0.800X0.800*%
%ADD18R,0.450X0.250*%
%ADD19R,0.800X2.000*%
%ADD20R,1.500X0.760*%
%ADD21R,0.400X1.200*%
%ADD22R,2.600X1.900*%
%ADD23R,0.760X1.500*%
%ADD24R,1.200X0.400*%
%ADD25R,1.900X2.600*%
%ADD26R,0.600X2.000*%
%ADD27O,0.600X2.000*%
%ADD28R,2.600X2.600*%
%ADD29R,2.000X1.500*%
%ADD30R,2.000X1.500*%
%ADD31R,2.000X3.800*%
%ADD32R,0.600X1.270*%
%ADD33R,0.350X0.900*%
%ADD34R,1.000X0.700*%
%ADD35R,1.000X0.700*%
%ADD36R,1.100X2.200*%
%ADD37R,1.000X1.050*%
%ADD38R,2.200X1.100*%
%ADD39R,1.050X1.000*%
%ADD40R,0.840X1.600*%
%ADD41R,2.400X0.840*%
%ADD42R,1.600X0.840*%
%ADD43R,0.800X1.500*%
%ADD44R,0.800X2.250*%
%ADD45R,0.350X0.280*%
G04:AMPARAMS|DCode=46|XSize=0.3mm|YSize=0.65mm|CornerRadius=0.075mm|HoleSize=0mm|Usage=FLASHONLY|Rotation=0.000|XOffset=0mm|YOffset=0mm|HoleType=Round|Shape=RoundedRectangle|*
%AMROUNDEDRECTD46*
21,1,0.300,0.500,0,0,0.0*
21,1,0.150,0.650,0,0,0.0*
1,1,0.150,0.075,-0.250*
1,1,0.150,-0.075,-0.250*
1,1,0.150,-0.075,0.250*
1,1,0.150,0.075,0.250*
%
%ADD46ROUNDEDRECTD46*%
G04:AMPARAMS|DCode=47|XSize=0.3mm|YSize=0.65mm|CornerRadius=0.075mm|HoleSize=0mm|Usage=FLASHONLY|Rotation=270.000|XOffset=0mm|YOffset=0mm|HoleType=Round|Shape=RoundedRectangle|*
%AMROUNDEDRECTD47*
21,1,0.300,0.500,0,0,270.0*
21,1,0.150,0.650,0,0,270.0*
1,1,0.150,-0.250,-0.075*
1,1,0.150,-0.250,0.075*
1,1,0.150,0.250,0.075*
1,1,0.150,0.250,-0.075*
%
%ADD47ROUNDEDRECTD47*%
%ADD48R,3.300X3.300*%
%ADD49R,0.500X0.500*%
%ADD50R,1.270X0.640*%
%ADD51R,0.900X1.300*%
%ADD52C,0.750*%
%ADD53C,0.500*%
%ADD54C,0.250*%
%ADD55C,0.350*%
%ADD56C,0.965*%
%ADD57C,0.900*%
%ADD58C,0.700*%
%ADD59C,0.200*%
%ADD60C,0.300*%
%ADD61R,11.925X2.000*%
%ADD62R,6.200X2.000*%
%ADD63R,9.650X1.875*%
%ADD64R,2.000X30.000*%
%ADD65R,8.425X2.000*%
%ADD66R,18.025X2.000*%
%ADD67R,3.400X2.000*%
%ADD68R,24.500X1.950*%
%ADD69C,1.000*%
%ADD70R,4.000X4.000*%
%ADD71R,4.000X4.000*%
%ADD72C,0.500*%
%ADD73C,0.900*%
%ADD74C,0.700*%
%ADD75C,1.016*%
%ADD76C,1.900*%
G04:AMPARAMS|DCode=77|XSize=4.3mm|YSize=4.3mm|CornerRadius=0mm|HoleSize=0mm|Usage=FLASHONLY|Rotation=0.000|XOffset=0mm|YOffset=0mm|HoleType=Round|Shape=Relief|Width=0.5mm|Gap=0.25mm|Entries=4|*
%AMTHD77*
7,0,0,4.300,3.800,0.500,45*
%
%ADD77THD77*%
G04:AMPARAMS|DCode=78|XSize=1.754mm|YSize=1.754mm|CornerRadius=0mm|HoleSize=0mm|Usage=FLASHONLY|Rotation=0.000|XOffset=0mm|YOffset=0mm|HoleType=Round|Shape=Relief|Width=0.5mm|Gap=0.25mm|Entries=4|*
%AMTHD78*
7,0,0,1.754,1.254,0.500,45*
%
%ADD78THD78*%
%ADD79C,1.100*%
G54D75*
X158250Y84500D02*
G03*
X160250Y86500I0J2000D01*
G01*
Y112500D02*
G03*
X158250Y114500I-2000J0D01*
G01*
X161000Y172500D02*
G03*
X163000Y170500I2000J0D01*
G01*
X189000D02*
G03*
X191000Y172500I0J2000D01*
G01*
X154500Y78250D02*
Y84500D01*
X158250D01*
X160250Y86500D02*
Y112500D01*
X154500Y114500D02*
X158250D01*
X154500D02*
Y174750D01*
X156000Y176250D01*
X161000D01*
Y172500D02*
Y176250D01*
X163000Y170500D02*
X189000D01*
X191000Y172500D02*
Y176250D01*
X203000D01*
X204500Y174750D01*
Y78250D02*
Y174750D01*
X203000Y76750D02*
X204500Y78250D01*
X156000Y76750D02*
X203000D01*
X154500Y78250D02*
X156000Y76750D01*
G54D76*
X175000Y165200D02*
D03*
X163000D02*
D03*
G54D77*
X157000Y170950D02*
D03*
Y82050D02*
D03*
X202000Y170950D02*
D03*
G54D78*
X178675Y118800D02*
D03*
X176675Y119600D02*
D03*
X178675D02*
D03*
X177675D02*
D03*
Y118800D02*
D03*
X176675D02*
D03*
X179525Y127850D02*
D03*
X180325Y129850D02*
D03*
Y127850D02*
D03*
Y128850D02*
D03*
X179525D02*
D03*
Y129850D02*
D03*
X181325Y144855D02*
D03*
X180525Y142855D02*
D03*
Y144855D02*
D03*
Y143855D02*
D03*
X181325D02*
D03*
Y142855D02*
D03*
X191475Y102995D02*
D03*
X192275Y104995D02*
D03*
Y102995D02*
D03*
Y103995D02*
D03*
X191475D02*
D03*
Y104995D02*
D03*
G54D79*
X176100Y116900D02*
D03*
X176950Y115750D02*
D03*
X177080Y130800D02*
D03*
X178230Y130978D02*
D03*
X176875Y168675D02*
D03*
X164175Y107725D02*
D03*
X169550Y157475D02*
D03*
X162000Y136125D02*
D03*
X163400Y139775D02*
D03*
Y138350D02*
D03*
X169550Y145600D02*
D03*
X168250Y155675D02*
D03*
X165200Y132850D02*
D03*
X165025Y119125D02*
D03*
X165200Y94375D02*
D03*
X170000Y164400D02*
D03*
X165025Y148325D02*
D03*
X164550Y152200D02*
D03*
X173825Y164450D02*
D03*
X172000Y164525D02*
D03*
X167350Y160975D02*
D03*
X166025Y160850D02*
D03*
X168350Y128675D02*
D03*
X171950Y165950D02*
D03*
X166000Y166050D02*
D03*
X170000Y165950D02*
D03*
X168000Y166025D02*
D03*
X182225Y89300D02*
D03*
X187425Y94475D02*
D03*
X188275Y87600D02*
D03*
X197775Y141350D02*
D03*
X198125Y164150D02*
D03*
X166400Y119125D02*
D03*
X165825Y128675D02*
D03*
X163300Y152200D02*
D03*
X161150Y165690D02*
D03*
X184525Y160250D02*
D03*
X202475Y166725D02*
D03*
X191125Y146250D02*
D03*
X186825Y145650D02*
D03*
X185375Y153375D02*
D03*
X190575Y158550D02*
D03*
X164248Y166212D02*
D03*
X173800Y165950D02*
D03*
X199600Y117950D02*
D03*
Y126100D02*
D03*
X184300Y130100D02*
D03*
X184275Y122250D02*
D03*
X185750Y160175D02*
D03*
X187750Y160200D02*
D03*
X170600Y148150D02*
D03*
X170275Y142550D02*
D03*
X195475Y155675D02*
D03*
X181580Y101726D02*
D03*
X177305Y92176D02*
D03*
X174155Y109752D02*
D03*
X168825Y109750D02*
D03*
X165925Y110850D02*
D03*
X163825Y93150D02*
D03*
X185700Y87600D02*
D03*
X186937Y87601D02*
D03*
X196356Y151504D02*
D03*
X176450Y96215D02*
D03*
X176000Y169325D02*
D03*
X185650Y102225D02*
D03*
X180750Y80650D02*
D03*
X161325Y164550D02*
D03*
X165025Y165300D02*
D03*
X192125Y88375D02*
D03*
X180700Y159475D02*
D03*
M02*
