M48
;Layer_Color=9474304
;FILE_FORMAT=2:4
INCH,TZ
;TYPE=PLATED
T1F00S00C0.0098
T2F00S00C0.0157
T3F00S00C0.1102
%
T01
X68809Y46093
Y46407
X69203
Y46093
X69596
Y46407
X75344Y40925
X75659
Y40531
X75344
Y40138
X75659
X70404Y50974
X70089
Y51368
X70404
Y51762
X70089
X71122Y56368
X71437
Y56762
X71122
Y57156
X71437
T02
X78967Y31004
X79852
X77785
X76604
X75423
X74242
X73061
X71880
X70699
X69518
X68337
X67156
X65974
X64793
X63612
X62431
X61250
X65433Y31644
X65689Y34567
X65699Y36526
Y38504
Y40463
X63583Y40423
Y41043
X63593Y41850
Y42618
X65344Y44222
X67835Y43661
Y42677
Y41693
Y40512
Y39331
Y38150
Y36969
Y35787
Y34606
Y33465
X69016
X70197Y33465
X70165Y34102
X70246Y34646
X70246Y35333
X70551Y36671
Y37459
X71339
Y36671
X70945Y37065
X72047Y38061
X72067Y38837
X72234Y39880
X72628Y41043
X72835Y41565
X73957Y41506
X74626
X75650Y41516
X75571Y42283
X75512Y42677
X75118Y43159
X74528
X73937
X73701Y42677
Y43661
X72520
Y42677
X71339
Y43661
X70157
Y42677
X68976
X69144Y42136
X69146Y41575
X69134Y41014
X69449Y40335
X70000
X69801Y38926
X73445Y38130
X74163Y38071
X74695
X75222Y38067
X75709Y37618
X76024Y38415
X76482Y39071
X75626Y39140
Y39612
X73868Y39685
X73750Y37360
X73730Y36142
X72010Y35926
X72252Y34732
X71811Y33465
X73150
X74173
X75157
X75945
X77087
X77323Y34094
X78071Y33465
Y32510
Y31890
X77441Y32136
Y32667
X76762Y31900
X76240
X75532Y32136
Y32667
X74242Y31900
X73061
X72126Y31909
X70463Y32185
X75591Y35006
X76850Y35482
X75925Y36447
X77894Y36821
X77146Y37618
X77289Y40626
X77677Y42677
Y43661
X76496
Y42677
X75512Y43661
X75689Y44429
X75030Y44606
X74695Y45207
X74764Y46053
Y46407
X73661Y46703
X73228Y45945
X73169Y45010
X73967Y44990
X71959Y45010
X70768
X71122Y45876
X71890Y46270
X72480Y46614
X70108Y46329
X69854Y45375
X67835Y45276
Y46457
X68976Y43661
X62608Y45630
X63583Y39104
Y38474
X63593Y37116
Y36476
Y35177
Y34518
X63583Y33730
X76220Y46063
X76850Y45945
X78297Y45512
X78858Y46063
Y44882
Y43661
Y42677
Y42087
Y40906
Y39724
Y38543
Y37362
X78297Y37628
X78140Y35935
X78858Y36181
Y35000
X78150Y34596
X79852Y34547
X79902Y35630
Y36811
Y37992
Y39173
Y40354
Y41535
Y42717
Y43898
Y45079
Y46260
X79852Y33366
X78858Y33465
Y47244
X79695
X80207
Y49213
X79695
X78858Y49016
X78179Y48927
X78140Y49606
X78858Y49803
Y50591
X79685Y50394
X80197
Y52362
X79685
X78858
X78228Y52028
X78858Y53543
Y54528
X79902
Y55709
Y56890
Y58071
Y59252
Y60433
Y61614
X78858Y61811
Y60630
Y59449
Y58268
Y57087
Y55906
X79902Y53346
X78179Y47598
X77343Y47608
X76132Y48248
X75640Y48858
X74724Y48947
X74766Y49765
X74774Y50217
X74537Y50925
X75010
Y51398
X74537
X74498Y52254
X75846Y52028
X75906Y52776
X75354Y53543
Y54528
X76535
Y53543
X77717
Y54528
X77595Y55170
X77616Y55699
X77591Y56212
X76890Y56319
X76732Y56909
X77283
X76931Y58318
X76181Y59785
Y60573
X75787Y60179
X75394Y59785
Y60573
X74764Y61299
X74575Y62492
X76486Y61911
X72982Y61112
Y59882
X73041Y59154
X72549Y59272
X72037
X71506
X71024Y59626
X70709Y58829
X71102Y58199
Y57726
X70246Y58268
X69587Y59626
X68435Y59616
X67835Y59882
Y58701
Y57520
Y56339
Y55157
Y54528
Y53543
X69016
Y54528
X70197
X71181
X71191Y54990
X71063Y55827
X71843Y55917
X72520Y55748
X73297Y55886
X73868Y55886
X74370Y55335
X74173Y54528
Y53543
X72992
X72756Y54045
X72165
X71575
X71181Y53543
X70197
X70138Y52283
X71183Y52334
X72096Y52283
X72451Y51378
Y50630
X71535Y50512
X71419Y51369
X71348Y49636
Y48927
X72244Y49006
X72776Y49400
X73209Y49862
X73406Y48996
X74094Y48081
X74537Y47608
X75010
Y47136
X74537
X72470Y47589
X71250Y47835
Y46929
X70295Y47835
X69282Y47707
X67835Y47638
Y48819
Y50000
Y51181
Y52362
X69016Y50561
X69626Y49823
X70177Y49104
X69026Y49114
X66486Y47205
X64990Y51093
X62992Y51772
X64547Y53848
X64498Y56348
X64970Y56978
X64342Y60563
X63947Y60945
X65876Y61959
X67835Y62244
X68622Y62028
X69882Y61762
X70748Y61152
X71142Y62238
X68839Y60423
X67835Y61063
X69439Y56671
X72835Y57520
X74498Y57362
X74665Y58376
X74685Y59183
X72992Y54528
X73642Y50492
X76555Y50246
X76772Y49744
X78071Y50768
X77500Y52028
X76683
X61270Y52362
Y53839
Y49803
Y47264
X61919Y65039
X61535Y68691
X62717
X64163Y66801
X65748
X65354Y65374
X64970Y65079
X64665Y65438
X63445Y65232
X63514Y64783
X66142Y65364
X66931Y65376
X67697Y65344
X67717Y64754
X68435Y64744
X68425Y65335
X69341Y64764
X70000Y65305
X70482
X71211Y64754
X70787Y63780
X70748Y63032
X71654Y63780
X72441
X72470Y65315
X72411Y66457
X73937Y66467
X74262Y65305
X75118Y65522
X76280Y65532
X76289Y67106
X75541Y67096
X76004Y68691
X77185
X77805Y66821
X77520Y63780
X76339
X76567Y63142
X76486Y62598
X75000Y63780
X74094
X74685Y64468
X69685Y63780
X68976
X68789Y62864
X67835Y63228
X67157Y63378
X65886Y63376
X65364
X68110Y66801
X69291Y66663
X69636Y66407
X70787Y66467
X78888Y66250
X79902
Y65157
X78976Y65069
X78858Y63780
Y62992
X79902Y62795
Y63976
X79547Y68691
X78366
T03
X61811Y32303
X79528
X61811Y67303
X79528
M30
