M48
;Layer_Color=9474304
;FILE_FORMAT=2:4
INCH,TZ
;TYPE=PLATED
T2F00S00C0.0157
%
T02
X65699Y33681
X65472Y34104
X66390Y33563
X69766Y35935
X69429Y37526
X71449Y39695
X73051Y39892
X73750Y36841
X73558Y34134
X73071Y34134
X74085
X75600Y34439
X71703Y34803
X71526Y31703
X68563Y41004
X67087Y41024
X65354Y42657
X65030Y43110
X65807Y44282
Y44921
X68797Y44867
X68583Y45344
X76329Y44557
X77943
X78159Y56358
X75246Y57598
X73553Y57362
X72982Y60404
X75030Y62441
X76959Y61309
X77305Y59667
X74577Y52756
X73169
X71890Y50945
X69579Y52206
X69087Y52196
X64104Y52077
X64498Y50659
X65492
X65039Y54409
X64774Y55030
X64331
X66791Y55955
X66752Y57323
X67157Y59175
X64970Y58396
X64783Y59921
X64291
X66211Y61555
X64724Y46900
X64183
X71890Y47244
X73081Y48287
X77638Y48868
X78002Y64626
X73917Y63091
X73130Y63081
X72648Y63110
X71142Y62805
X79567Y65630
M30
